<svg width="199" height="120" viewBox="0 0 199 120" fill="none" xmlns="http://www.w3.org/2000/svg">
<g clip-path="url(#clip0)">
<path d="M126.328 119.038C166.076 119.038 198.299 116.161 198.299 112.613C198.299 109.065 166.076 106.188 126.328 106.188C86.5794 106.188 54.3569 109.065 54.3569 112.613C54.3569 116.161 86.5794 119.038 126.328 119.038Z" fill="#3F3D56"/>
<path opacity="0.3" d="M91.149 52.5312L169.268 52.5312V0.0373764L91.149 0.0373764V52.5312Z" fill="#3F3D56"/>
<path d="M164.281 4.84668H141.15V29.8569H164.281V4.84668Z" fill="#F2F2F2"/>
<path d="M104.583 6.3584L126.883 6.3584V4.84679L104.583 4.84679V6.3584Z" fill="#F2F2F2"/>
<path d="M141.149 35.2158H149.044V33.7042H141.149V35.2158Z" fill="#F2F2F2"/>
<path d="M141.426 37.9648H164.003V36.4532H141.426V37.9648Z" fill="#F2F2F2"/>
<path d="M100.013 11.8555L132.147 11.8555V10.3439L100.013 10.3439V11.8555Z" fill="#F2F2F2"/>
<path d="M100.013 16.1152L132.147 16.1152V14.6036L100.013 14.6036V16.1152Z" fill="#F2F2F2"/>
<path d="M100.013 20.375L132.147 20.375V18.8634L100.013 18.8634V20.375Z" fill="#F2F2F2"/>
<path d="M100.013 24.6348L132.147 24.6348V23.1232L100.013 23.1232V24.6348Z" fill="#F2F2F2"/>
<path d="M100.013 28.8945L132.147 28.8945V27.3829L100.013 27.3829V28.8945Z" fill="#F2F2F2"/>
<path d="M100.013 33.1553L132.147 33.1553V31.6437L100.013 31.6437V33.1553Z" fill="#F2F2F2"/>
<path d="M100.013 37.415L132.147 37.415V35.9034L100.013 35.9034V37.415Z" fill="#F2F2F2"/>
<path d="M144.624 19.1278C144.966 18.8861 145.344 18.6982 145.744 18.5706C148.28 17.6344 150.937 17.0606 153.636 16.8662C155.982 16.7011 158.526 16.8972 160.359 18.3604C160.644 18.5679 160.877 18.8375 161.041 19.1486C161.271 19.6422 161.201 20.2161 161.127 20.7551C161.11 20.9642 161.057 21.1688 160.97 21.3599C160.723 21.8258 160.116 21.989 159.588 21.9331C159.061 21.8773 158.566 21.6559 158.046 21.5532C157.724 21.4975 157.398 21.4646 157.071 21.4548L153.809 21.2795C151.78 21.1705 149.724 21.0634 147.734 21.4696C147.121 21.5789 146.529 21.7813 145.979 22.0697C145.524 22.3229 145.218 22.6862 144.796 22.2185C144.055 21.3969 143.645 19.8868 144.624 19.1278Z" fill="#2F2E41"/>
<path d="M149.679 20.5593C149.679 20.5593 154.068 18.6075 155.732 20.8596C157.397 23.1117 154.824 22.2108 154.824 22.2108L151.949 23.1117L148.771 22.5111L149.679 20.5593Z" fill="#F2F2F2"/>
<path d="M149.908 19.1335C149.908 19.1335 150.513 21.9861 150.059 22.7368C149.605 23.4875 152.632 24.5384 152.632 24.5384L155.507 23.3373C155.507 23.3373 154.75 18.6831 155.507 17.7822L149.908 19.1335Z" fill="#FFB9B9"/>
<path opacity="0.1" d="M149.908 19.1335C149.908 19.1335 150.513 21.9861 150.059 22.7368C149.605 23.4875 152.632 24.5384 152.632 24.5384L155.507 23.3373C155.507 23.3373 154.75 18.6831 155.507 17.7822L149.908 19.1335Z" fill="black"/>
<path d="M156.868 16.2805C156.867 17.4748 156.389 18.6199 155.538 19.4643C154.687 20.3088 153.532 20.7837 152.329 20.7846C152.058 20.7851 151.788 20.761 151.522 20.7126C150.672 20.5604 149.884 20.1709 149.25 19.59C148.615 19.009 148.161 18.2606 147.94 17.4325C147.719 16.6044 147.741 15.7311 148.003 14.9148C148.264 14.0986 148.755 13.3733 149.418 12.8241C150.081 12.2748 150.887 11.9244 151.743 11.814C152.599 11.7035 153.47 11.8376 154.252 12.2004C155.034 12.5632 155.695 13.1398 156.159 13.8624C156.622 14.5851 156.869 15.4239 156.868 16.2805Z" fill="#FFB9B9"/>
<path d="M159.609 29.9947H145.13L145.459 28.5807L146.88 22.4367L148.522 21.336L148.524 21.3346L149.295 20.8165L149.679 20.5596C149.679 20.5596 149.906 20.6626 150.168 20.8028C150.244 20.8454 150.322 20.8894 150.399 20.9361C150.401 20.9347 150.401 20.9361 150.401 20.9361C150.526 21.0085 150.646 21.0907 150.758 21.1821C150.779 21.2013 150.797 21.2178 150.815 21.2357C151.103 21.5215 151.944 23.0386 153.334 22.2622C153.404 22.2239 153.472 22.1817 153.538 22.1358C153.9 21.8869 154.246 21.6147 154.573 21.3209C154.865 21.0556 155.055 20.8509 155.21 20.7093C155.279 20.6405 155.359 20.5822 155.445 20.5362C155.51 20.5022 155.583 20.4847 155.657 20.4854C156.111 20.4854 156.717 21.3855 156.717 21.3855L156.735 21.4377L156.736 21.4418L158.646 27.1309L159.609 29.9947Z" fill="#F2F2F2"/>
<path d="M145.13 29.9946H149.518C149.528 29.4913 149.502 28.988 149.439 28.4885C149.305 27.484 148.975 26.5165 148.768 25.5244C148.585 24.6549 148.496 23.7686 148.503 22.8804C148.504 22.7581 148.507 22.6345 148.518 22.5108C148.529 22.2276 148.611 21.9517 148.758 21.7083C148.862 21.5502 149.004 21.4156 149.115 21.2644C149.154 21.2149 149.188 21.162 149.216 21.1064V21.105C149.23 21.0777 149.243 21.0497 149.254 21.0212C149.278 20.9555 149.292 20.8864 149.295 20.8164C149.32 20.3629 148.906 19.926 148.459 19.7391C147.831 19.5051 147.144 19.4777 146.499 19.6607C145.86 19.844 145.242 20.0946 144.657 20.4083C144.458 20.5045 144.262 20.6034 144.072 20.7134C143.845 20.8408 143.637 20.998 143.453 21.1806C142.982 21.6629 142.776 22.3349 142.609 22.9849C142.451 23.4817 142.397 24.0055 142.45 24.524C142.452 24.5405 142.456 24.5583 142.458 24.5748C142.623 25.431 143.327 26.0741 143.702 26.8629C144.137 27.7781 144.108 28.8444 143.935 29.8421C143.927 29.8929 143.917 29.9438 143.907 29.9946H145.13V29.9946Z" fill="#2F2E41"/>
<path d="M162.992 24.4961C162.441 26.293 162.042 28.132 161.797 29.9942H155.542C155.378 29.5518 155.215 29.1088 155.053 28.6654C154.923 28.3308 154.812 27.9895 154.719 27.643C154.62 27.2401 154.573 26.8264 154.579 26.4117C154.579 26.3128 154.583 26.2125 154.592 26.1135C154.592 26.1128 154.593 26.1118 154.593 26.1108C154.593 26.1098 154.592 26.1088 154.592 26.108C154.63 25.5851 154.752 25.0715 154.953 24.5868C155.046 24.3665 155.152 24.1521 155.272 23.9451C155.563 23.4229 155.914 22.9309 156.227 22.4197C156.422 22.1073 156.592 21.7802 156.736 21.4413C156.736 21.4406 156.736 21.4398 156.736 21.4391C156.736 21.4384 156.737 21.4377 156.737 21.4372C156.924 21.0051 157.021 20.5401 157.024 20.0699C157.014 19.4639 155.981 18.4071 157.104 18.5088C158.637 18.6462 159.955 19.5216 161.156 20.5192C161.476 20.7858 161.789 21.062 162.095 21.3341C162.568 21.7574 163.068 22.2191 163.211 22.8361C163.234 22.9345 163.247 23.0348 163.251 23.1357C163.243 23.6004 163.155 24.0604 162.992 24.4961Z" fill="#2F2E41"/>
<path d="M153.618 22.8393C153.46 22.4172 153.219 22.0309 152.908 21.7033C152.594 21.4401 152.222 21.2533 151.823 21.158C151.305 21.0113 150.77 20.9351 150.231 20.9317C149.59 20.9277 148.847 21.0983 148.575 21.674C148.359 22.1311 148.527 22.6725 148.744 23.1289C148.837 23.3654 148.992 23.5729 149.193 23.7302C149.469 23.9155 149.827 23.9096 150.154 23.9716C150.662 24.0996 151.143 24.3159 151.575 24.6105L152.698 25.2837L154.626 26.44C154.575 26.4095 154.593 25.0977 154.534 24.8827C154.343 24.1902 153.914 23.4952 153.618 22.8393Z" fill="#FFB9B9"/>
<path d="M156.753 13.9329C156.673 13.6635 156.495 13.4331 156.254 13.2857C156.266 12.9971 156.23 12.7085 156.148 12.4315C155.873 11.6251 155.222 11.6713 154.607 11.3148C154.341 11.1601 154.357 11.0234 154.218 10.7693C154.037 10.4363 153.764 10.1605 153.432 9.97345C153.038 9.72424 152.622 9.46758 152.155 9.43604C151.175 9.36976 150.424 10.2844 149.487 10.578C149.074 10.7073 148.63 10.7127 148.215 10.835C147.8 10.9573 147.386 11.2494 147.324 11.6746C147.295 11.8709 147.346 12.0723 147.317 12.2685C147.259 12.6586 146.914 12.9317 146.683 13.2526C146.173 13.962 146.231 14.9643 146.64 15.7362C146.726 15.8959 146.824 16.0488 146.934 16.1933C146.968 16.5582 147.074 16.9129 147.245 17.2376C147.653 18.0095 148.356 18.5863 149.09 19.0655C149.03 18.8095 148.993 18.5486 148.981 18.286C148.971 18.1985 148.982 18.1099 149.014 18.0278C149.096 17.8583 149.312 17.8132 149.477 17.7203C149.818 17.528 149.952 17.1024 149.962 16.7133C149.971 16.3242 149.888 15.9344 149.929 15.5473C149.931 15.4583 149.951 15.3706 149.989 15.2899C150.027 15.2092 150.082 15.1372 150.149 15.0787C150.275 15.0074 150.419 14.9734 150.564 14.9807C151.263 14.9524 151.993 14.9396 152.609 14.6117C152.808 14.4807 153.022 14.3735 153.246 14.2922C153.77 14.1567 154.305 14.521 154.607 14.9668C154.909 15.4127 155.06 15.9433 155.338 16.4039C155.617 16.8645 156.098 17.2752 156.637 17.2206C156.667 17.2207 156.697 17.2144 156.725 17.2022C156.752 17.19 156.777 17.1721 156.797 17.1497C156.821 17.1083 156.831 17.061 156.827 17.0137L156.857 14.9711C156.882 14.6217 156.847 14.2706 156.753 13.9329Z" fill="#2F2E41"/>
<path d="M144.78 27.5743C144.879 28.3782 144.938 29.1849 144.959 29.9943H141.15V26.8185C141.169 26.7416 141.19 26.666 141.215 26.5904C141.453 25.8621 141.953 25.2519 142.387 24.6184C142.408 24.5868 142.43 24.5552 142.45 24.5236C142.635 24.2564 142.793 23.9725 142.924 23.6758C142.987 23.5301 143.086 22.8251 143.192 22.7647C143.643 22.505 144.01 23.6153 144.072 23.8626C144.294 24.7435 144.487 25.6326 144.632 26.5299C144.689 26.8776 144.738 27.2257 144.78 27.5743Z" fill="#2F2E41"/>
<path d="M164.029 29.9939H155.285C155.21 29.8193 155.137 29.6448 155.059 29.4717C154.514 28.248 153.809 27.1009 152.962 26.0596C152.823 25.9219 152.732 25.743 152.703 25.5497C152.7 25.4695 152.72 25.39 152.76 25.3203C152.893 25.0743 153.245 24.93 153.53 24.8132C153.825 24.6954 154.096 24.5259 154.331 24.313C154.538 24.1278 154.697 23.8953 154.794 23.6355C154.819 23.5593 154.839 23.4812 154.852 23.4019C154.892 23.4541 154.933 23.5077 154.974 23.5599C155.072 23.6891 155.172 23.8169 155.273 23.9447C156.242 25.1801 157.307 26.3976 158.647 27.13C158.997 27.3235 159.366 27.4797 159.749 27.5959C159.786 27.6119 159.826 27.6201 159.866 27.6201C159.906 27.6201 159.945 27.6119 159.982 27.5959C160.039 27.5499 160.075 27.4838 160.083 27.4118C160.202 26.9171 160.244 26.4072 160.331 25.9057C160.491 24.9931 160.8 24.1123 161.244 23.2975C161.492 22.8399 162.298 21.1675 162.809 22.2215C162.956 22.5252 163.104 22.8298 163.252 23.1353C163.345 23.3291 163.439 23.5214 163.533 23.7152C163.881 24.3299 164.039 25.0322 163.989 25.7353C164.003 27.1562 164.016 28.5757 164.029 29.9939Z" fill="#2F2E41"/>
<path opacity="0.1" d="M145.131 29.9939H145.888L145.459 28.5799L144.84 26.542C144.847 26.887 144.827 27.2321 144.78 27.574C144.687 28.2807 144.483 28.9687 144.176 29.6133C144.117 29.7383 144.053 29.8648 144.002 29.9939H145.131Z" fill="black"/>
<path opacity="0.1" d="M160.564 25.6484C160.457 25.9331 160.554 26.2479 160.637 26.5404C160.875 27.3889 160.986 28.2675 160.967 29.1481C160.97 29.1635 160.97 29.1795 160.965 29.1947C160.961 29.2099 160.953 29.2238 160.942 29.2351C160.931 29.2464 160.917 29.2547 160.902 29.2594C160.887 29.2641 160.87 29.2649 160.855 29.2619C160.506 29.2831 160.106 29.2854 159.869 29.0299L160.564 25.6484Z" fill="black"/>
<path opacity="0.3" d="M78.7128 0.577148H0.59375V53.071H78.7128V0.577148Z" fill="#3F3D56"/>
<path d="M28.7116 5.38672H5.58057V30.3969H28.7116V5.38672Z" fill="#F2F2F2"/>
<path d="M65.278 5.38672H42.978V6.89832H65.278V5.38672Z" fill="#F2F2F2"/>
<path d="M13.7515 34.2451H5.85645V35.7567H13.7515V34.2451Z" fill="#F2F2F2"/>
<path d="M28.4334 36.9932H5.85645V38.5048H28.4334V36.9932Z" fill="#F2F2F2"/>
<path d="M69.8489 10.8838H37.7148V12.3954H69.8489V10.8838Z" fill="#F2F2F2"/>
<path d="M69.8489 15.1436H37.7148V16.6552H69.8489V15.1436Z" fill="#F2F2F2"/>
<path d="M69.8489 19.4033H37.7148V20.9149H69.8489V19.4033Z" fill="#F2F2F2"/>
<path d="M69.8489 23.6641H37.7148V25.1757H69.8489V23.6641Z" fill="#F2F2F2"/>
<path d="M69.8489 27.9238H37.7148V29.4354H69.8489V27.9238Z" fill="#F2F2F2"/>
<path d="M69.8489 32.1836H37.7148V33.6952H69.8489V32.1836Z" fill="#F2F2F2"/>
<path d="M69.8489 36.4434H37.7148V37.955H69.8489V36.4434Z" fill="#F2F2F2"/>
<path d="M28.0818 30.5345H25.0747C24.8434 29.9174 24.638 29.2926 24.4584 28.6601C24.3399 27.9163 23.9981 27.2252 23.4777 26.6771C23.3188 26.5014 23.1774 26.3109 23.0553 26.1082C22.7975 25.6092 22.7045 25.0424 22.7894 24.488C22.8067 24.3337 22.8325 24.1805 22.8669 24.029C22.9985 23.4423 23.2187 22.8789 23.4029 22.3072C23.4419 22.1911 23.5129 22.0882 23.6079 22.0102C23.7029 21.9322 23.8181 21.8823 23.9404 21.8661C24.1386 21.8332 24.3422 21.8565 24.5276 21.9334C24.5686 21.95 24.6081 21.9702 24.6454 21.9939C24.9736 22.1904 25.144 22.5917 25.2811 22.9586C25.9086 24.6296 26.5356 26.3006 27.1621 27.9716C27.284 28.2959 27.4059 28.6211 27.5277 28.9473C27.7078 29.4255 27.8865 29.9037 28.0388 30.3915C28.0541 30.4396 28.0679 30.4863 28.0818 30.5345Z" fill="#D0CDE1"/>
<path d="M15.5641 8.54124C14.8165 8.79174 14.1391 9.37765 13.986 10.1457C13.9151 10.5017 13.9586 10.8718 13.8988 11.2299C13.7603 12.0603 13.1033 12.6944 12.4974 13.2835C11.8914 13.8725 11.2656 14.557 11.2214 15.3976C11.1729 16.318 11.8458 17.1802 11.7293 18.0946C11.5941 19.157 10.4631 19.8454 10.1835 20.8796C9.99685 21.5702 10.2256 22.3141 10.602 22.9239C11.3192 24.0859 12.5451 24.8747 13.8506 25.2976C15.1561 25.7205 16.5466 25.8095 17.9198 25.8237C19.5919 25.8411 21.4074 25.6987 22.6637 24.6038C23.3814 23.9728 23.8321 23.096 23.9254 22.1491C24.0448 20.8809 23.5112 19.5704 23.8793 18.3501C24.1109 17.5821 24.6917 16.8807 24.605 16.0837C24.5203 15.3044 23.8342 14.752 23.3636 14.1224C22.9242 13.5346 22.6576 12.8405 22.3962 12.1561L21.5021 9.81455C21.3263 9.35424 21.1333 8.87011 20.7416 8.56799C20.0083 8.0024 18.8291 8.11353 17.9716 8.23018C17.1761 8.3384 16.3291 8.28492 15.5641 8.54124Z" fill="#2F2E41"/>
<path d="M16.2552 16.2579C16.2552 16.2579 16.3427 18.8628 16.0801 19.1233C15.8176 19.3838 17.1303 21.1203 17.1303 21.1203L19.4933 21.0335L20.7186 20.0784L19.6684 18.6891C19.6684 18.6891 19.2308 16.4316 19.5809 15.9106C19.9309 15.3896 16.2552 16.2579 16.2552 16.2579Z" fill="#A0616A"/>
<path opacity="0.1" d="M16.2552 16.2579C16.2552 16.2579 16.3427 18.8628 16.0801 19.1233C15.8176 19.3838 17.1303 21.1203 17.1303 21.1203L19.4933 21.0335L20.7186 20.0784L19.6684 18.6891C19.6684 18.6891 19.2308 16.4316 19.5809 15.9106C19.9309 15.3896 16.2552 16.2579 16.2552 16.2579Z" fill="black"/>
<path d="M17.699 17.2566C19.4391 17.2566 20.8496 15.8571 20.8496 14.1307C20.8496 12.4044 19.4391 11.0049 17.699 11.0049C15.9589 11.0049 14.5483 12.4044 14.5483 14.1307C14.5483 15.8571 15.9589 17.2566 17.699 17.2566Z" fill="#A0616A"/>
<path d="M19.314 30.535H21.8681C21.9637 30.3632 22.0537 30.1845 22.1576 30.0224V30.021C22.2711 29.8249 22.4308 29.659 22.623 29.5373C22.7451 29.4818 22.8608 29.4131 22.9678 29.3325C23.0703 29.2223 23.1427 29.088 23.1784 28.9423C23.3543 28.3971 23.4513 27.8298 23.4665 27.2575C23.4706 27.0651 23.4665 26.87 23.4776 26.6776C23.483 26.5273 23.5025 26.3778 23.5357 26.231C23.6234 25.9326 23.7505 25.647 23.9139 25.3818C24.2601 24.7565 24.6073 24.1313 24.9554 23.506C25.0182 23.3299 25.0423 23.1425 25.0261 22.9563C25.0186 22.7052 24.9409 22.4612 24.8017 22.2514C24.7532 22.1648 24.7006 22.0782 24.6452 21.9944C24.4315 21.6562 24.1827 21.3412 23.9028 21.0545C23.3089 20.4365 22.588 19.9524 21.7891 19.6349C21.6889 19.6014 21.5935 19.5553 21.5052 19.4975C21.401 19.4102 21.3129 19.3055 21.2448 19.1883C20.9678 18.7747 20.6298 18.3088 20.1298 18.3349C20.0484 18.2944 19.9597 18.2704 19.8689 18.2643C19.778 18.2581 19.6868 18.27 19.6007 18.2992C19.5744 18.306 19.5485 18.3143 19.5231 18.324C19.332 18.4079 19.1465 18.5038 18.9677 18.6112C18.5077 18.8481 17.9864 18.9419 17.4718 18.8805C17.4115 18.8763 17.3523 18.8614 17.2973 18.8365C17.2389 18.7998 17.185 18.7564 17.1366 18.7074C17.0102 18.6047 16.8586 18.5371 16.6973 18.5115C16.536 18.4859 16.3707 18.5032 16.2183 18.5617C16.0752 18.6123 15.9488 18.7006 15.8526 18.8173C15.7612 18.9313 15.6975 19.0688 15.5964 19.1759C15.3346 19.4535 14.9025 19.4645 14.5202 19.4632C13.7262 19.4411 12.9324 19.5136 12.1558 19.6789C11.4738 19.829 10.8364 20.1349 10.2943 20.5721L10.2929 20.5735C10.2181 20.6367 10.1488 20.7013 10.0796 20.77C9.92204 20.9172 9.79664 21.0949 9.71114 21.2922C9.60587 21.5615 9.61973 21.8652 9.52416 22.1387C9.41888 22.4451 9.18481 22.6952 9.09062 23.0031C9.0186 23.2367 9.0283 23.495 8.90918 23.7066C8.91472 23.7108 8.91887 23.7149 8.92441 23.719C9.42858 24.1587 9.85935 24.7359 10.3649 25.1715C10.6583 25.3933 10.9065 25.6685 11.0962 25.9823C11.1327 26.0528 11.1629 26.1264 11.1863 26.2022C11.2431 26.4649 11.2682 26.7333 11.2611 27.0019C11.3248 28.2868 12.027 29.4521 12.8124 30.4745C12.8276 30.4951 12.8428 30.5157 12.8595 30.535L19.314 30.535Z" fill="#D0CDE1"/>
<path d="M11.0962 25.9817C10.9771 26.8021 10.857 27.6221 10.7361 28.4415C10.6811 28.8804 10.5987 29.3155 10.4895 29.7443C10.4175 30.0095 10.3247 30.2692 10.2596 30.5344H6.65283C6.65467 30.3859 6.66624 30.2376 6.68746 30.0906C6.78033 29.5623 6.93128 29.0457 7.13761 28.5501C7.5573 27.426 7.97652 26.301 8.39528 25.1751C8.57395 24.6955 8.72769 24.1939 8.92438 23.7184C8.95901 23.6305 8.9964 23.5426 9.03657 23.4574C9.24572 23.0011 9.82607 23.188 10.2555 23.2567C10.3733 23.2713 10.4883 23.3037 10.5962 23.3529C10.7267 23.4243 10.8368 23.5273 10.9161 23.6525C11.3234 24.2503 11.2347 25.0404 11.1294 25.755C11.1184 25.8306 11.1073 25.9062 11.0962 25.9817Z" fill="#D0CDE1"/>
<path d="M22.1571 30.0219C22.1626 30.0411 22.2222 30.2459 22.3205 30.5344H19.3135C20.8038 30.2802 22.1571 30.0205 22.1571 30.0205V30.0219Z" fill="#2F2E41"/>
<path d="M17.9615 14.1302C19.8466 14.1302 21.3748 13.3139 21.3748 12.3068C21.3748 11.2998 19.8466 10.4834 17.9615 10.4834C16.0765 10.4834 14.5483 11.2998 14.5483 12.3068C14.5483 13.3139 16.0765 14.1302 17.9615 14.1302Z" fill="#2F2E41"/>
<path d="M128.758 19.9023H50.6387V72.3962H128.758V19.9023Z" fill="#3F3D56"/>
<path opacity="0.1" d="M117.399 68.8233C122.448 68.8233 126.541 68.3926 126.541 67.8613C126.541 67.3301 122.448 66.8994 117.399 66.8994C112.35 66.8994 108.257 67.3301 108.257 67.8613C108.257 68.3926 112.35 68.8233 117.399 68.8233Z" fill="black"/>
<path d="M78.7545 24.7119H55.6235V49.7221H78.7545V24.7119Z" fill="#F2F2F2"/>
<path d="M63.074 36.1947C63.1491 36.2173 63.2298 36.2134 63.3024 36.1837C63.3749 36.154 63.4348 36.1002 63.4719 36.0315C63.7919 35.5314 63.2028 34.8866 63.3304 34.3079C63.4326 33.8443 63.9635 33.5692 64.0721 33.107C64.1776 32.658 63.8525 32.1518 64.0722 31.7455C64.2443 31.4271 64.6743 31.3434 65.034 31.3991C65.3938 31.4549 65.7352 31.6118 66.0987 31.6338C66.5829 31.6631 67.0446 31.4516 67.5181 31.3468C67.9917 31.242 68.5693 31.283 68.8478 31.6771C69.2055 32.1832 68.8427 32.8878 68.9672 33.4934C69.0661 33.9743 69.4719 34.3725 69.4806 34.8632C69.4837 35.0376 69.0216 34.8971 69.0462 35.0698C69.0707 35.2426 68.8523 35.0905 69.0269 35.0699C69.0982 35.0526 69.1621 35.0132 69.2093 34.9575C69.2566 34.9017 69.2847 34.8325 69.2897 34.7599C69.3104 34.616 69.5829 34.568 69.5798 34.4227C69.5724 34.0822 70.193 34.3118 70.2952 33.9866C70.5302 33.2286 70.482 32.4119 70.1593 31.6863C69.9931 31.3899 69.8603 31.0761 69.7635 30.7508C69.6723 30.2993 69.8158 29.8146 69.6654 29.3789C69.4628 28.7918 68.7923 28.4925 68.1698 28.4317C67.5473 28.3709 66.9147 28.4797 66.2958 28.3901C65.7413 28.3098 65.2046 28.0714 64.6453 28.1059C63.9743 28.1474 63.3903 28.5764 62.9251 29.058C62.46 29.5396 62.0654 30.0936 61.5371 30.5062C61.3753 30.6166 61.2261 30.7441 61.092 30.8864C60.8229 31.2117 60.7956 31.6751 60.8705 32.0894C60.9454 32.5036 61.1082 32.8987 61.177 33.314C61.2416 33.7042 61.2217 34.1029 61.2495 34.4975C61.256 34.8954 61.3775 35.2831 61.5994 35.6146C61.6953 35.7437 61.8196 35.8495 61.9629 35.9238C62.1062 35.998 62.2647 36.0389 62.4263 36.0432C62.5383 36.0458 62.6329 35.946 62.7459 35.972C62.8871 36.0045 62.9486 36.1376 63.074 36.1947Z" fill="#2F2E41"/>
<path d="M57.9863 49.859C58.0874 48.4835 58.1636 47.4556 58.1636 47.4556L58.8174 45.7461L60.9158 49.859L57.9863 49.859Z" fill="#575A89"/>
<path opacity="0.1" d="M57.9863 49.859C58.0874 48.4835 58.1636 47.4556 58.1636 47.4556L58.8174 45.7461L60.9158 49.859L57.9863 49.859Z" fill="black"/>
<path d="M62.8491 36.3345C62.8491 36.3345 64.8058 41.2759 63.6792 42.2171C62.5527 43.1583 69.9643 40.6288 69.9643 40.6288L69.7864 39.9817C69.7864 39.9817 67.3554 39.0405 68.5412 36.3345C69.7271 33.6285 62.8491 36.3345 62.8491 36.3345Z" fill="#A0616A"/>
<path opacity="0.1" d="M62.8491 36.3345C62.8491 36.3345 64.8058 41.2759 63.6792 42.2171C62.5527 43.1583 69.9643 40.6288 69.9643 40.6288L69.7864 39.9817C69.7864 39.9817 67.3554 39.0405 68.5412 36.3345C69.7271 33.6285 62.8491 36.3345 62.8491 36.3345Z" fill="black"/>
<path d="M65.6349 38.3353C67.9271 38.3353 69.7854 36.4916 69.7854 34.2174C69.7854 31.9432 67.9271 30.0996 65.6349 30.0996C63.3426 30.0996 61.4844 31.9432 61.4844 34.2174C61.4844 36.4916 63.3426 38.3353 65.6349 38.3353Z" fill="#A0616A"/>
<path d="M75.7155 43.0996C75.7155 43.0996 75.6989 43.4267 75.6698 43.9983C75.6102 45.1623 75.5036 47.3431 75.3969 49.8592H59.3077C58.8873 49.3006 58.5431 48.6893 58.2842 48.0412C58.2141 47.8533 58.1735 47.6559 58.1637 47.4558C58.075 45.8961 59.4836 43.7194 60.4781 43.5119C61.6042 43.2755 63.7386 41.0411 63.7386 41.0411C63.7455 41.1261 63.774 41.2081 63.8214 41.2792C63.8689 41.3504 63.9339 41.4084 64.0101 41.4478V41.4492C64.1823 41.5374 64.3748 41.5792 64.5683 41.5701C65.2636 41.5701 68.3219 40.1699 69.3039 39.7122C69.4965 39.6229 69.6087 39.5693 69.6087 39.5693C70.7412 40.0543 71.9112 40.4481 73.1074 40.747C73.7042 40.8947 74.2549 41.1869 74.71 41.5975C75.1652 42.008 75.5107 42.5241 75.7155 43.0996Z" fill="#575A89"/>
<path d="M62.3616 35.7835C62.4367 35.8062 62.5174 35.8023 62.5899 35.7726C62.6625 35.7428 62.7224 35.689 62.7595 35.6204C63.0795 35.1203 62.4904 34.4754 62.618 33.8968C62.7202 33.4332 63.2511 33.158 63.3597 32.6959C63.4652 32.2468 63.1401 31.7406 63.3598 31.3343C63.5319 31.016 63.9619 30.9322 64.3216 30.988C64.6814 31.0438 65.0228 31.2007 65.3863 31.2226C65.8705 31.2519 66.3322 31.0404 66.8057 30.9356C67.2793 30.8308 67.8569 30.8719 68.1355 31.266C68.4931 31.772 68.1303 32.4767 68.2549 33.0823C68.3538 33.5631 69.4806 33.9007 69.5828 33.5755C69.8178 32.8175 69.7696 32.0008 69.4469 31.2752C69.2807 30.9787 69.1479 30.665 69.0511 30.3397C68.9599 29.8881 69.1034 29.4034 68.953 28.9678C68.7504 28.3807 68.0799 28.0814 67.4574 28.0206C66.8349 27.9598 66.2023 28.0686 65.5834 27.979C65.0289 27.8987 64.4922 27.6603 63.9329 27.6948C63.2619 27.7363 62.6779 28.1652 62.2127 28.6469C61.7476 29.1285 61.353 29.6825 60.8247 30.0951C60.6629 30.2055 60.5137 30.333 60.3796 30.4752C60.1105 30.8006 60.0832 31.264 60.1581 31.6782C60.2329 32.0925 60.3958 32.4876 60.4646 32.9029C60.5292 33.2931 60.5093 33.6918 60.5371 34.0863C60.5436 34.4843 60.6651 34.872 60.887 35.2035C60.9829 35.3326 61.1072 35.4384 61.2505 35.5126C61.3938 35.5869 61.5523 35.6278 61.7139 35.6321C61.8259 35.6347 61.9205 35.5348 62.0335 35.5609C62.1747 35.5934 62.2362 35.7265 62.3616 35.7835Z" fill="#2F2E41"/>
<path opacity="0.1" d="M77.7717 49.8592H73.0762C72.7189 47.2593 72.4238 44.5411 72.4238 44.5411L73.3726 44.1289L75.3007 43.0996C75.3007 43.0996 75.4419 43.4322 75.6691 43.9983C76.1539 45.209 77.0334 47.4874 77.7717 49.8592Z" fill="black"/>
<path d="M78.1866 49.859H72.8872C72.1019 47.0144 71.3276 43.9225 71.3276 43.9225L73.3443 42.4521L75.7156 43.0994C75.7156 43.0994 77.1035 46.3768 78.1866 49.859Z" fill="#575A89"/>
<path d="M115.323 24.7119H93.0229V26.2235H115.323V24.7119Z" fill="#C4C4C4"/>
<path d="M63.7974 53.5693H55.9023V55.0809H63.7974V53.5693Z" fill="#C4C4C4"/>
<path d="M78.4793 56.3184H55.9023V57.83H78.4793V56.3184Z" fill="#C4C4C4"/>
<path d="M119.892 30.209H87.7583V31.7206H119.892V30.209Z" fill="#F2F2F2"/>
<path d="M119.892 34.4688H87.7583V35.9804H119.892V34.4688Z" fill="#F2F2F2"/>
<path d="M119.892 38.7285H87.7583V40.2401H119.892V38.7285Z" fill="#F2F2F2"/>
<path d="M119.892 42.9883H87.7583V44.4999H119.892V42.9883Z" fill="#F2F2F2"/>
<path d="M119.892 47.248H87.7583V48.7596H119.892V47.248Z" fill="#F2F2F2"/>
<path d="M119.892 51.5088H87.7583V53.0204H119.892V51.5088Z" fill="#F2F2F2"/>
<path d="M119.892 55.7686H87.7583V57.2802H119.892V55.7686Z" fill="#F2F2F2"/>
<path opacity="0.1" d="M190.712 106.064C190.712 115.891 176.906 112.851 160.003 112.851C143.099 112.851 129.499 115.891 129.499 106.064C129.499 96.2378 143.302 94.1006 160.206 94.1006C177.11 94.1006 190.712 96.2378 190.712 106.064Z" fill="black"/>
<path d="M190.712 104.228C190.712 114.055 176.906 111.015 160.003 111.015C143.099 111.015 129.499 114.055 129.499 104.228C129.499 94.4018 143.302 92.2646 160.206 92.2646C177.11 92.2646 190.712 94.4018 190.712 104.228Z" fill="#3F3D56"/>
<path d="M133 73.4443L132.375 74.165C132.375 74.165 124.768 74.8736 125.077 76.0986C125.386 77.3236 134.235 74.4652 134.235 74.4652L133 73.4443Z" fill="#FFC1C7"/>
<path d="M146.788 72.8311C146.788 72.8311 138.659 75.6895 134.235 74.4645L136.293 78.548C136.293 78.548 146.788 78.2417 148.641 76.4041C150.493 74.5665 146.788 72.8311 146.788 72.8311Z" fill="#E00909"/>
<path opacity="0.1" d="M146.788 72.8311C146.788 72.8311 138.659 75.6895 134.235 74.4645L136.293 78.548C136.293 78.548 146.788 78.2417 148.641 76.4041C150.493 74.5665 146.788 72.8311 146.788 72.8311Z" fill="black"/>
<path d="M141.285 50.9336C144.297 50.9336 146.738 48.5112 146.738 45.5229C146.738 42.5347 144.297 40.1123 141.285 40.1123C138.273 40.1123 135.831 42.5347 135.831 45.5229C135.831 48.5112 138.273 50.9336 141.285 50.9336Z" fill="#FFC1C7"/>
<path d="M145.934 50.6024C146.121 50.958 146.359 51.2852 146.64 51.5741C147.387 52.3804 148.279 53.0421 149.269 53.5257C146.174 54.1498 143.047 54.611 139.903 54.9075C140.235 53.7476 139.798 52.5069 139.21 51.4513C138.623 50.3956 137.874 49.4117 137.507 48.2624L141.193 48.3607C141.862 48.3785 142.533 48.3984 143.201 48.3659C143.701 48.3416 144.534 48.0446 145 48.154C145.987 48.3853 145.503 49.7346 145.934 50.6024Z" fill="#FFC1C7"/>
<path d="M158.313 75.9962L161.4 79.6713C161.4 79.6713 166.545 91.6155 155.329 92.8406C144.113 94.0656 135.778 91.9218 135.778 91.9218C135.778 91.9218 131.251 89.778 131.148 91.4114C131.045 93.0448 130.634 97.6387 128.164 102.131L126.003 107.031C126.003 107.031 124.871 108.154 125.18 109.685C125.489 111.216 118.286 111.727 118.389 109.685C118.389 109.685 119.418 107.95 119.418 106.929C119.418 105.908 121.064 103.458 121.064 103.458L124.048 88.7571C124.048 88.7571 123.842 81.2026 130.839 82.6318C137.836 84.0611 147.817 82.3256 147.817 82.3256L150.081 74.4648L158.313 75.9962Z" fill="#2F2E41"/>
<path opacity="0.1" d="M158.313 75.9962L161.4 79.6713C161.4 79.6713 166.545 91.6155 155.329 92.8406C144.113 94.0656 135.778 91.9218 135.778 91.9218C135.778 91.9218 131.251 89.778 131.148 91.4114C131.045 93.0448 130.634 97.6387 128.164 102.131L126.003 107.031C126.003 107.031 124.871 108.154 125.18 109.685C125.489 111.216 118.286 111.727 118.389 109.685C118.389 109.685 119.418 107.95 119.418 106.929C119.418 105.908 121.064 103.458 121.064 103.458L124.048 88.7571C124.048 88.7571 123.842 81.2026 130.839 82.6318C137.836 84.0611 147.817 82.3256 147.817 82.3256L150.081 74.4648L158.313 75.9962Z" fill="black"/>
<path d="M146.738 75.7274C146.738 75.7274 156.153 72.2191 161.401 79.6714C161.401 79.6714 162.739 91.2073 157.388 91.7178C152.038 92.2282 145.041 92.1261 143.394 90.3906C141.748 88.6551 131.355 83.7549 131.355 83.7549C131.355 83.7549 126.182 81.137 125.167 84.5387C124.152 87.9405 124.049 88.7572 124.049 88.7572C124.049 88.7572 118.699 92.6365 116.538 93.3512C116.538 93.3512 115.097 95.3929 114.274 95.3929C113.451 95.3929 108.409 96.5159 108.923 92.7386L117.258 85.1842L125.593 77.1193C125.593 77.1193 127.96 73.6483 134.031 75.4859C138.06 76.6755 142.146 77.6636 146.275 78.4464L146.738 75.7274Z" fill="#2F2E41"/>
<path d="M124.872 109.48C124.872 109.48 126.827 114.38 125.181 114.993C123.534 115.606 120.036 115.197 120.036 115.197C120.036 115.197 115.92 114.687 114.891 114.789C113.862 114.891 109.643 114.074 110.261 112.441C110.878 110.807 114.068 111.216 114.068 111.216L116.949 109.889C116.949 109.889 117.258 108.868 117.978 109.276C118.698 109.684 120.756 111.216 124.872 109.48Z" fill="#CBCEDA"/>
<path d="M114.171 94.9842C114.171 94.9842 116.332 99.7823 112.834 99.374C109.335 98.9656 106.66 98.251 105.631 98.1489C104.641 98.0507 101.842 97.1024 102.271 95.2131C102.295 95.0909 102.304 94.9665 102.299 94.8422C102.299 94.5886 102.647 94.0909 105.425 94.1675C105.425 94.1675 107.483 94.1675 108.306 92.7383C108.306 92.7383 111.393 96.6176 114.171 94.9842Z" fill="#CBCEDA"/>
<path d="M137.527 54.1492C137.527 54.1492 144.936 49.5552 151.11 54.1492C157.284 58.7431 161.4 79.6711 161.4 79.6711L147.097 76.5064C147.097 76.5064 146.479 74.0562 145.656 73.6479C144.833 73.2395 144.73 71.5041 144.73 71.5041C144.73 71.5041 140.306 70.1769 140.614 65.0725C140.923 59.9682 137.527 54.1492 137.527 54.1492Z" fill="#E00909"/>
<path d="M141.334 54.3535H137.527C137.527 54.3535 135.263 56.9057 134.955 63.3372L133.72 68.4416C133.72 68.4416 131.147 74.5668 132.691 75.5877C134.234 76.6086 137.218 76.5065 137.836 74.4648C138.453 72.423 142.672 60.5809 142.672 60.5809L141.334 54.3535Z" fill="#E00909"/>
<path d="M140.244 38.4812C141.188 38.0972 142.221 37.9806 143.227 38.1443C144.234 38.3081 145.175 38.7458 145.946 39.4088C147.922 41.1585 148.321 44.0128 148.821 46.5934C149.32 49.174 150.325 52.0479 152.777 53.0427C151.672 53.1892 150.55 53.1568 149.456 52.9469L153.16 56.2406L146.919 54.2225C144.961 53.5892 142.904 52.9478 140.876 53.3055C137.516 53.8981 135.176 57.0319 131.949 58.1329L132.308 56.3966L130.143 56.3802C130.661 55.9994 131.086 55.5063 131.383 54.9382C131.281 54.8152 131.155 54.7138 131.013 54.64C130.871 54.5661 130.715 54.5213 130.555 54.5083C129.652 48.9229 132.995 43.4016 137.352 39.7526C138.209 39.0348 139.157 38.3454 140.264 38.1659C141.371 37.9863 142.663 38.4773 143.048 39.5224" fill="#2F2E41"/>
<path d="M45.8267 89.6699C45.8267 101.421 53.2569 110.929 62.4393 110.929L45.8267 89.6699Z" fill="#3F3D56"/>
<path d="M62.4414 110.93C62.4414 99.047 70.7332 89.4316 80.9802 89.4316L62.4414 110.93Z" fill="#E00909"/>
<path d="M51.8472 90.7354C51.8472 101.897 56.5853 110.929 62.4407 110.929L51.8472 90.7354Z" fill="#E00909"/>
<path d="M62.4414 110.929C62.4414 95.7453 72.0254 83.459 83.8693 83.459L62.4414 110.929Z" fill="#3F3D56"/>
<path d="M58.9448 111.079C58.9448 111.079 61.3008 111.007 62.0108 110.506C62.7208 110.004 65.6348 109.405 65.811 110.21C65.9871 111.014 69.3515 114.211 66.6917 114.232C64.0318 114.253 60.5114 113.821 59.8027 113.393C59.094 112.965 58.9448 111.079 58.9448 111.079Z" fill="#A8A8A8"/>
<path opacity="0.2" d="M66.7391 113.952C64.0793 113.973 60.5588 113.541 59.8502 113.113C59.3105 112.786 59.0954 111.616 59.0235 111.076C58.9736 111.078 58.9448 111.079 58.9448 111.079C58.9448 111.079 59.094 112.964 59.8027 113.393C60.5114 113.821 64.0318 114.253 66.6917 114.232C67.4595 114.226 67.7247 113.955 67.7101 113.553C67.6035 113.796 67.3106 113.947 66.7391 113.952Z" fill="black"/>
</g>
<defs>
<clipPath id="clip0">
<rect width="197.704" height="119" fill="white" transform="translate(0.59375 0.0371094)"/>
</clipPath>
</defs>
</svg>
