<svg width="181" height="135" viewBox="0 0 181 135" fill="none" xmlns="http://www.w3.org/2000/svg">
<g clip-path="url(#clip0)">
<path d="M19.6893 112.341C19.6893 119.87 15.3735 122.498 10.0497 122.498C4.72594 122.498 0.410156 119.87 0.410156 112.341C0.410156 104.812 10.0497 95.2344 10.0497 95.2344C10.0497 95.2344 19.6893 104.812 19.6893 112.341Z" fill="#F2F2F2"/>
<path d="M9.69909 121.347L9.79776 115.046L13.9064 107.251L9.81325 114.057L9.85764 111.224L12.6893 105.585L9.86939 110.474V110.475L9.94923 105.379L12.9814 100.889L9.96173 104.578L10.0115 95.2344L9.69815 107.603L9.72389 107.093L6.64118 102.199L9.67446 108.073L9.3872 113.763L9.3788 113.612L5.82471 108.463L9.36798 114.146L9.33198 114.858L9.32564 114.868L9.32862 114.927L8.59982 129.365H9.57355L9.69032 121.907L13.2248 116.238L9.69909 121.347Z" fill="#3F3D56"/>
<path d="M142.271 20.4872C182.145 41.4003 190.764 74.7477 158.992 100.993C127.219 127.239 30.4514 144.198 29.2642 110.648C28.0694 76.884 0.116037 48.1109 13.0383 28.1286C33.0064 -2.7492 107.202 2.09424 142.271 20.4872Z" fill="#F2F2F2"/>
<path d="M28.4566 134.334C43.2917 134.334 55.3179 132.255 55.3179 129.691C55.3179 127.127 43.2917 125.048 28.4566 125.048C13.6215 125.048 1.59521 127.127 1.59521 129.691C1.59521 132.255 13.6215 134.334 28.4566 134.334Z" fill="#3F3D56"/>
<path d="M165.824 130.42C173.129 130.42 179.052 129.397 179.052 128.134C179.052 126.871 173.129 125.848 165.824 125.848C158.518 125.848 152.596 126.871 152.596 128.134C152.596 129.397 158.518 130.42 165.824 130.42Z" fill="#3F3D56"/>
<path d="M180.485 31.8047H27.1519V117.697H180.485V31.8047Z" fill="white"/>
<path d="M180.485 24.8398H27.1519V32.7713H180.485V24.8398Z" fill="black" fill-opacity="0.3"/>
<path d="M30.8814 29.6761C31.6026 29.6761 32.1872 29.0698 32.1872 28.3219C32.1872 27.574 31.6026 26.9678 30.8814 26.9678C30.1603 26.9678 29.5757 27.574 29.5757 28.3219C29.5757 29.0698 30.1603 29.6761 30.8814 29.6761Z" fill="#E00909"/>
<path d="M34.6124 29.6761C35.3335 29.6761 35.9182 29.0698 35.9182 28.3219C35.9182 27.574 35.3335 26.9678 34.6124 26.9678C33.8912 26.9678 33.3066 27.574 33.3066 28.3219C33.3066 29.0698 33.8912 29.6761 34.6124 29.6761Z" fill="#E00909"/>
<path d="M38.3438 29.6761C39.065 29.6761 39.6496 29.0698 39.6496 28.3219C39.6496 27.574 39.065 26.9678 38.3438 26.9678C37.6227 26.9678 37.0381 27.574 37.0381 28.3219C37.0381 29.0698 37.6227 29.6761 38.3438 29.6761Z" fill="#E00909"/>
<path opacity="0.1" d="M180.485 31.8047H27.1519V32.7719H180.485V31.8047Z" fill="black"/>
<path opacity="0.3" d="M66.2312 45.4424H36.0122V78.9094H66.2312V45.4424Z" fill="#E00909"/>
<path d="M68.2825 43.1211H38.0635V76.5881H68.2825V43.1211Z" fill="#C4C4C4"/>
<path opacity="0.3" d="M170.047 44.9062H146.815V70.6352H170.047V44.9062Z" fill="#E00909"/>
<path d="M171.624 43.1211H148.392V68.8501H171.624V43.1211Z" fill="#C4C4C4"/>
<path opacity="0.3" d="M170.047 80.6504H146.815V106.379H170.047V80.6504Z" fill="#E00909"/>
<path d="M171.624 78.8662H148.392V104.595H171.624V78.8662Z" fill="#C4C4C4"/>
<path d="M136.556 43.1211H78.9155V45.4425H136.556V43.1211Z" fill="#E00909"/>
<path d="M136.556 49.8916H78.9155V52.213H136.556V49.8916Z" fill="#E00909"/>
<path d="M136.556 56.6631H78.9155V58.9845H136.556V56.6631Z" fill="#E00909"/>
<path d="M136.556 63.4336H78.9155V65.755H136.556V63.4336Z" fill="#E00909"/>
<path d="M136.556 70.2041H78.9155V72.5255H136.556V70.2041Z" fill="#E00909"/>
<path d="M136.556 76.9746H78.9155V79.296H136.556V76.9746Z" fill="#E00909"/>
<path d="M136.556 83.7461H78.9155V86.0675H136.556V83.7461Z" fill="#E00909"/>
<path d="M136.556 90.5166H78.9155V92.838H136.556V90.5166Z" fill="#E00909"/>
<path d="M136.556 97.2871H78.9155V99.6085H136.556V97.2871Z" fill="#E00909"/>
<path d="M136.556 104.059H78.9155V106.38H136.556V104.059Z" fill="#E00909"/>
<path d="M23.9778 61.379C26.1928 61.379 27.9884 59.5168 27.9884 57.2198C27.9884 54.9227 26.1928 53.0605 23.9778 53.0605C21.7629 53.0605 19.9673 54.9227 19.9673 57.2198C19.9673 59.5168 21.7629 61.379 23.9778 61.379Z" fill="#A0616A"/>
<path d="M21.3823 59.1768C21.3823 59.1768 21.3823 63.5806 20.6745 64.07C19.9668 64.5593 26.3365 65.0486 26.3365 65.0486V59.4214L21.3823 59.1768Z" fill="#A0616A"/>
<path d="M13.5972 83.6423C13.5972 83.6423 18.0796 89.0248 19.0232 89.0248C19.9669 89.0248 20.9106 85.3549 20.9106 85.3549L16.4282 81.9297L13.5972 83.6423Z" fill="#A0616A"/>
<path d="M36.0098 59.4218L36.7175 54.284C36.7175 54.284 37.1893 47.1889 38.6048 48.9015C40.0203 50.6141 39.0767 54.5287 39.0767 54.5287C39.0767 54.5287 39.7844 60.1558 39.0767 60.8898C38.3689 61.6238 36.0098 59.4218 36.0098 59.4218Z" fill="#A0616A"/>
<path d="M31.9975 87.068L19.258 85.8447C19.258 85.8447 17.6066 93.9185 18.0784 97.0991C18.5503 100.28 18.7862 109.332 18.7862 109.332C18.7862 109.332 19.258 125.724 19.9658 126.703C20.6735 127.681 23.0327 127.437 23.7404 127.926C24.4482 128.415 25.6277 126.947 25.6277 126.703C25.6277 126.458 24.2122 126.458 24.92 124.99C25.6277 123.522 23.0327 119.363 23.7404 117.406C24.4482 115.449 25.6277 112.757 24.92 111.779C24.2122 110.8 25.3918 98.3223 25.3918 98.3223C25.3918 98.3223 31.2897 107.13 31.2897 111.045C31.2897 114.959 30.8179 124.012 30.582 124.99C30.3461 125.969 30.1101 126.214 30.582 126.947C31.0538 127.681 31.5256 128.415 31.2897 128.66C31.0538 128.905 35.5362 128.66 35.5362 127.192C35.5362 125.724 35.3003 125.724 35.7721 124.501C36.2439 123.278 36.4799 108.598 36.4799 108.598L31.9975 87.068Z" fill="#2F2E41"/>
<path d="M20.6746 62.3574L19.9669 63.8254C19.9669 63.8254 12.4176 66.272 12.1816 71.4098L18.5514 82.4195C18.5514 82.4195 19.0232 83.1534 18.7873 83.6428C18.5514 84.1321 18.3155 83.8874 18.5514 84.6214C18.7873 85.3554 18.7873 85.1107 18.7873 85.6C18.7873 86.0894 18.0795 85.8447 18.7873 86.0894C19.495 86.334 18.5514 86.0894 21.1464 86.8233C23.7415 87.5573 31.5267 87.3126 31.5267 87.3126L30.1112 73.1224L31.5267 70.1865L29.6394 64.3147C29.6394 64.3147 28.4598 64.07 27.7521 64.5594C27.0443 65.0487 26.1007 64.07 26.1007 64.07C26.1007 64.07 24.9211 62.3574 20.6746 62.3574Z" fill="#3A3A3A"/>
<path d="M28.4595 64.5592L29.6391 64.3146C29.6391 64.3146 34.3574 62.8466 34.5933 61.6233C34.8292 60.4 36.0088 58.9321 36.0088 58.9321C36.0088 58.9321 39.7834 57.9534 39.5475 61.134C39.3116 64.3146 38.3679 65.2932 37.8961 65.7825C37.4243 66.2718 32.2341 70.1864 31.2905 70.1864C30.3468 70.1864 28.4595 64.5592 28.4595 64.5592Z" fill="#3A3A3A"/>
<path d="M12.6532 70.4316L12.1814 71.4103L11.9455 80.218C11.9455 80.218 10.53 81.1967 11.2377 81.686C11.9455 82.1753 13.5969 84.3772 14.0687 84.3772C14.5405 84.3772 17.1356 83.1539 17.1356 82.6646C17.1356 82.1753 16.6638 77.7714 16.6638 77.7714L12.6532 70.4316Z" fill="#3A3A3A"/>
<path d="M21.381 126.703C21.381 126.703 21.381 129.15 21.1451 129.639C20.9092 130.128 20.4374 132.575 21.8529 132.575C22.6638 132.587 23.468 132.42 24.212 132.086C24.212 132.086 24.212 130.618 24.9198 130.373C25.6275 130.128 27.2789 128.171 26.5712 127.682C25.8635 127.192 24.448 126.703 24.448 126.703L21.381 126.703Z" fill="#2F2E41"/>
<path d="M31.5261 127.926C31.5261 127.926 30.1106 131.351 31.5261 131.596C32.9416 131.841 34.8289 131.596 35.0648 131.107C35.3007 130.617 35.7726 130.128 36.2444 130.373C36.7162 130.617 40.7268 127.681 39.3113 127.192C38.4693 126.899 37.5583 126.899 36.7162 127.192L35.3007 126.458L31.5261 127.926Z" fill="#2F2E41"/>
<path d="M24.4847 61.804C24.5517 61.7996 24.6171 61.7809 24.6767 61.749C24.7728 61.6687 24.8366 61.5543 24.8557 61.4279L25.3375 59.6577C25.5203 58.986 25.8139 58.2014 26.4728 58.0593C26.611 58.0498 26.746 58.0125 26.8704 57.9496C26.9427 57.8791 26.9993 57.7933 27.0366 57.698C27.0739 57.6027 27.0908 57.5002 27.0863 57.3974L27.2928 55.1093C27.3486 54.4907 27.4015 53.8475 27.1935 53.2648C26.8865 52.4054 26.045 51.8396 25.1753 51.6769C24.3056 51.5142 23.4097 51.6961 22.5632 51.9592C21.279 52.3581 19.9492 53.0449 19.3913 54.309C19.0683 55.0409 19.0484 55.8754 19.0916 56.679C19.136 57.5065 19.2471 58.35 19.6137 59.0863C19.8176 59.467 20.0543 59.8277 20.3209 60.1641C20.7191 60.6987 21.2076 61.7438 21.8667 61.9433C22.6097 62.1681 23.7319 61.9054 24.4847 61.804Z" fill="#2F2E41"/>
<path d="M155.256 113.744C155.256 121.101 159.707 127.054 165.206 127.054L155.256 113.744Z" fill="#2F2E41"/>
<path d="M165.206 127.054C165.206 119.615 170.172 113.595 176.31 113.595L165.206 127.054Z" fill="#E00909" fill-opacity="0.8"/>
<path d="M158.861 114.411C158.861 121.399 161.699 127.054 165.206 127.054L158.861 114.411Z" fill="#E00909" fill-opacity="0.55"/>
<path d="M165.206 127.053C165.206 117.548 170.946 109.855 178.04 109.855L165.206 127.053Z" fill="#2F2E41"/>
<path d="M163.113 127.148C163.113 127.148 164.524 127.103 164.95 126.789C165.375 126.475 167.12 126.1 167.226 126.604C167.331 127.107 169.346 129.109 167.753 129.122C166.16 129.135 164.052 128.865 163.627 128.597C163.203 128.328 163.113 127.148 163.113 127.148Z" fill="#A8A8A8"/>
<path opacity="0.2" d="M167.782 128.946C166.189 128.959 164.08 128.689 163.656 128.42C163.332 128.216 163.203 127.484 163.16 127.146C163.131 127.147 163.113 127.147 163.113 127.147C163.113 127.147 163.203 128.328 163.627 128.596C164.052 128.864 166.16 129.135 167.753 129.121C168.213 129.117 168.372 128.948 168.363 128.696C168.299 128.848 168.124 128.943 167.782 128.946Z" fill="black"/>
</g>
<defs>
<clipPath id="clip0">
<rect width="180.074" height="133.482" fill="white" transform="translate(0.410156 0.851562)"/>
</clipPath>
</defs>
</svg>
