<svg width="18" height="20" viewBox="0 0 18 20" fill="none" xmlns="http://www.w3.org/2000/svg">
<path d="M11.0925 13.7294H6.88775C3.43254 13.7294 0.617188 16.5448 0.617188 20H17.3814C17.3631 16.5631 14.5477 13.7294 11.0925 13.7294Z" fill="black"/>
<path d="M9.74117 10.8593C10.0702 10.8593 10.381 10.9689 10.6187 11.17H12.1361C12.8856 10.3839 13.3426 9.34189 13.3426 8.17187C13.3426 5.7587 11.3865 3.82086 8.99163 3.82086C6.59675 3.82086 4.64062 5.7587 4.64062 8.17187C4.64062 9.79892 5.53642 11.2249 6.87097 11.9744C7.01722 11.3346 7.58395 10.8593 8.24209 10.8593H9.74117Z" fill="black"/>
<path d="M2.55375 8.53748C2.6086 8.99452 2.82797 9.41499 3.13876 9.72578C3.37642 9.96344 3.68721 10.1463 4.03456 10.2559C4.01627 10.1828 4.01628 10.1097 4.01628 10.0548V6.50823C4.01628 6.4351 4.01627 6.36197 4.03456 6.28885C3.68721 6.38026 3.3947 6.56307 3.13876 6.81901C3.12048 6.83729 3.08392 6.87386 3.06564 6.89214V6.74589C3.06564 6.39854 3.1022 6.05119 3.15704 5.72212C3.21189 5.37477 3.30329 5.0457 3.43127 4.73492C3.54095 4.40585 3.68721 4.09506 3.87002 3.80256C4.03456 3.51005 4.23565 3.21755 4.45503 2.96161C4.47331 2.94333 4.49159 2.90676 4.49159 2.88848C4.65613 2.90676 4.82066 2.85192 4.93035 2.74223C6.04553 1.62706 7.50805 1.07861 8.95229 1.07861C10.3965 1.07861 11.8773 1.62706 12.9742 2.74223C13.1022 2.8702 13.2667 2.90676 13.413 2.88848C13.4313 2.90676 13.4313 2.94333 13.4495 2.96161C13.6689 3.21755 13.87 3.51005 14.0346 3.80256C14.1991 4.09506 14.3453 4.40585 14.4733 4.73492C14.583 5.06399 14.6744 5.39305 14.7475 5.7404C14.8024 6.06947 14.8389 6.41682 14.8389 6.76417V6.91042C14.8207 6.87386 14.7841 6.85558 14.7658 6.83729C14.5282 6.59963 14.2174 6.41682 13.87 6.30713C13.8883 6.38026 13.8883 6.45338 13.8883 6.52651V10.0548C13.8883 10.128 13.8883 10.2011 13.87 10.2559C13.9614 10.2377 14.0528 10.2011 14.1442 10.1645V11.3163C14.1442 11.4442 14.126 11.5722 14.1077 11.6636C14.0894 11.755 14.0528 11.8099 14.0163 11.8647C13.9797 11.9013 13.9249 11.9378 13.87 11.9561C13.7969 11.9744 13.7238 11.9927 13.6324 11.9927H13.6141H10.2503C10.1406 11.8099 9.95777 11.6819 9.72011 11.6819H8.22103C7.89196 11.6819 7.63602 11.9561 7.63602 12.2669C7.6543 12.596 7.91024 12.8519 8.23931 12.8519H9.7384C9.95777 12.8519 10.1589 12.7239 10.2686 12.5411H13.6689H13.7969C13.9249 12.5411 14.0346 12.5046 14.1442 12.468C14.2905 12.4132 14.4002 12.34 14.5099 12.2303C14.6013 12.1207 14.6744 11.9927 14.7293 11.8282C14.7658 11.6819 14.8024 11.4991 14.8024 11.298V9.83547V9.78062C14.8207 9.76234 14.8389 9.74406 14.8572 9.72578C15.168 9.41499 15.3874 8.99452 15.4422 8.53748C15.4605 8.5192 15.4788 8.5192 15.4788 8.50091C15.5336 8.44607 15.5702 8.35466 15.5702 8.28154V6.76417C15.5702 6.38026 15.5336 5.99634 15.4788 5.63071C15.3691 5.2468 15.2777 4.88117 15.1497 4.51554C15.0218 4.14991 14.8572 3.80256 14.6561 3.47349C14.4733 3.14442 14.2539 2.83364 13.998 2.54113C13.9797 2.50457 13.9431 2.48629 13.9066 2.46801C13.9431 2.30347 13.8883 2.10238 13.7603 1.97441C12.4441 0.658135 10.7256 0 8.98885 0C7.25211 0 5.53364 0.658135 4.19909 1.97441C4.07112 2.10238 4.01627 2.30347 4.05284 2.46801C4.01627 2.48629 3.99799 2.50457 3.96143 2.54113C3.70549 2.83364 3.48611 3.14442 3.30329 3.47349C3.12048 3.80256 2.95595 4.14991 2.80969 4.51554C2.68172 4.88117 2.57203 5.2468 2.51719 5.63071C2.44406 5.99634 2.42578 6.38026 2.42578 6.76417V8.28154C2.42578 8.37294 2.46234 8.44607 2.51719 8.50091C2.53547 8.5192 2.55375 8.5192 2.55375 8.53748Z" fill="black"/>
</svg>
