<svg width="16" height="16" viewBox="0 0 16 16" fill="none" xmlns="http://www.w3.org/2000/svg">
<path d="M14.5455 0H1.45456C0.65233 0 0 0.65233 0 1.45456V14.5455C0 15.3477 0.65233 16 1.45456 16H14.5455C15.3477 16 16 15.3477 16 14.5455V1.45456C16 0.65233 15.3477 0 14.5455 0ZM3.63638 13.8182C2.83415 13.8182 2.18182 13.1658 2.18182 12.3637C2.18182 11.5615 2.83415 10.9091 3.63638 10.9091C4.43861 10.9091 5.09094 11.5614 5.09094 12.3637C5.09094 13.1659 4.43857 13.8182 3.63638 13.8182ZM5.0909 5.45455C5.0909 5.65517 4.92791 5.8182 4.72725 5.8182H4.36364C4.16264 5.8182 3.99999 5.98084 3.99999 6.18185V9.09093C3.99999 9.29155 3.837 9.45458 3.63634 9.45458C3.43568 9.45458 3.27273 9.29155 3.27273 9.09093V6.18185C3.27273 5.98084 3.11008 5.8182 2.90908 5.8182H2.54547C2.34481 5.8182 2.18182 5.65517 2.18182 5.45455V3.99999C2.18182 3.79937 2.34481 3.63634 2.54547 3.63634H2.90912C3.11008 3.63638 3.27273 3.47373 3.27273 3.27273V2.54547C3.27273 2.34481 3.43572 2.18182 3.63638 2.18182C3.83704 2.18182 4.00003 2.34481 4.00003 2.54547V3.27273C4.00003 3.47373 4.16267 3.63638 4.36367 3.63638H4.72732C4.92795 3.63638 5.09097 3.79937 5.09097 4.00003V5.45455H5.0909ZM8.00002 13.8182C7.19782 13.8182 6.54546 13.1658 6.54546 12.3636C6.54546 11.5614 7.19779 10.9091 8.00002 10.9091C8.80225 10.9091 9.45458 11.5614 9.45458 12.3637C9.45458 13.1659 8.80221 13.8182 8.00002 13.8182ZM9.45454 7.63637C9.45454 7.83699 9.29155 8.00002 9.09089 8.00002H8.72728C8.52628 8.00002 8.36363 8.16266 8.36363 8.36366V9.09093C8.36363 9.29155 8.20064 9.45458 7.99998 9.45458C7.79932 9.45458 7.63637 9.29155 7.63637 9.09093V8.36366C7.63637 8.16266 7.47372 8.00002 7.27272 8.00002H6.90907C6.70845 8.00002 6.54542 7.83703 6.54542 7.63637V6.18181C6.54542 5.98119 6.70841 5.81816 6.90907 5.81816H7.27272C7.47372 5.81816 7.63637 5.65552 7.63637 5.45451V2.54547C7.63637 2.34481 7.79936 2.18182 8.00002 2.18182C8.20068 2.18182 8.36366 2.34481 8.36366 2.54547V5.45455C8.36366 5.65555 8.52631 5.8182 8.72731 5.8182H9.09096C9.29159 5.8182 9.45461 5.98119 9.45461 6.18185V7.63637H9.45454ZM12.3637 13.8182C11.5615 13.8182 10.9091 13.1658 10.9091 12.3636C10.9091 11.5614 11.5614 10.9091 12.3637 10.9091C13.1659 10.9091 13.8182 11.5614 13.8182 12.3637C13.8182 13.1659 13.1658 13.8182 12.3637 13.8182ZM13.8182 6.90911C13.8182 7.10973 13.6552 7.27276 13.4545 7.27276H13.0909C12.8899 7.27276 12.7273 7.4354 12.7273 7.6364V9.09096C12.7273 9.29159 12.5643 9.45461 12.3636 9.45461C12.163 9.45461 12 9.29162 12 9.09096V7.63637C12 7.43537 11.8373 7.27272 11.6363 7.27272H11.2727C11.0721 7.27272 10.909 7.10973 10.909 6.90907V5.45455C10.909 5.25392 11.072 5.0909 11.2727 5.0909H11.6363C11.8373 5.0909 12 4.92825 12 4.72725V2.54543C12 2.34481 12.163 2.18182 12.3637 2.18182C12.5643 2.18182 12.7273 2.34481 12.7273 2.54547V4.72729C12.7273 4.92829 12.89 5.09094 13.091 5.09094H13.4546C13.6552 5.09094 13.8182 5.25392 13.8182 5.45458V6.90911H13.8182Z" fill="white"/>
</svg>
