<svg width="163" height="135" viewBox="0 0 163 135" fill="none" xmlns="http://www.w3.org/2000/svg">
<g clip-path="url(#clip0)">
<path d="M103.977 13.7958V115.333C103.977 116.543 103.499 117.703 102.648 118.558C101.797 119.414 100.643 119.894 99.4398 119.894H58.4414C57.2381 119.894 56.0841 119.414 55.2332 118.558C54.3822 117.703 53.904 116.543 53.9038 115.333V13.7958C53.9038 13.1966 54.0211 12.6033 54.2491 12.0498C54.4771 11.4962 54.8113 10.9932 55.2327 10.5696C55.6541 10.1459 56.1543 9.80984 56.7048 9.58058C57.2554 9.35132 57.8455 9.23335 58.4414 9.2334H64.5764V10.0257C64.5767 11.022 64.9704 11.9773 65.671 12.6818C66.3717 13.3863 67.3219 13.7822 68.3127 13.7825H89.1629C90.1538 13.7825 91.1042 13.3867 91.8049 12.6821C92.5056 11.9776 92.8992 11.0221 92.8992 10.0257V9.2334H99.4398C100.036 9.23335 100.626 9.35132 101.176 9.58058C101.727 9.80984 102.227 10.1459 102.648 10.5696C103.07 10.9932 103.404 11.4962 103.632 12.0498C103.86 12.6033 103.977 13.1966 103.977 13.7958Z" fill="#F2F2F2"/>
<path d="M110.155 29.6797H110.561C110.662 29.6797 110.758 29.7199 110.829 29.7914C110.9 29.8629 110.94 29.96 110.94 30.0611V43.4498C110.94 43.5509 110.9 43.648 110.829 43.7195C110.758 43.791 110.662 43.8312 110.561 43.8312H110.155" stroke="#3F3D56" stroke-miterlimit="10"/>
<path d="M53.0241 23.2516H52.7303C52.6643 23.2516 52.601 23.2252 52.5543 23.1783C52.5077 23.1314 52.4814 23.0677 52.4814 23.0014V18.843C52.4814 18.7766 52.5077 18.713 52.5543 18.6661C52.601 18.6191 52.6643 18.5928 52.7303 18.5928H53.0241" stroke="#3F3D56" stroke-miterlimit="10"/>
<path d="M52.978 35.2312H52.7273C52.6529 35.2312 52.5816 35.2014 52.5289 35.1485C52.4763 35.0957 52.4468 35.0239 52.4468 34.9491V27.4041C52.4468 27.3671 52.454 27.3304 52.4681 27.2962C52.4822 27.262 52.5029 27.2309 52.5289 27.2047C52.555 27.1785 52.5859 27.1577 52.62 27.1435C52.654 27.1294 52.6905 27.1221 52.7273 27.1221H53.0242" stroke="#3F3D56" stroke-miterlimit="10"/>
<path d="M52.9787 46.2485H52.7318C52.661 46.2485 52.5931 46.2202 52.543 46.1699C52.493 46.1195 52.4648 46.0513 52.4648 45.9801V38.3377C52.4648 38.2666 52.493 38.1983 52.543 38.1479C52.5931 38.0976 52.661 38.0693 52.7318 38.0693H52.9787" stroke="#3F3D56" stroke-miterlimit="10"/>
<path d="M104.245 3.19727H58.9333C55.6699 3.19727 53.0244 5.85724 53.0244 9.13849V113.999C53.0244 117.28 55.6699 119.94 58.9333 119.94H104.245C107.509 119.94 110.154 117.28 110.154 113.999V9.13849C110.154 5.85724 107.509 3.19727 104.245 3.19727Z" stroke="#3F3D56" stroke-miterlimit="10"/>
<path d="M83.3052 7.18262H76.1688C75.9364 7.18262 75.748 7.37204 75.748 7.60571V8.38835C75.748 8.62202 75.9364 8.81145 76.1688 8.81145H83.3052C83.5376 8.81145 83.726 8.62202 83.726 8.38835V7.60571C83.726 7.37204 83.5376 7.18262 83.3052 7.18262Z" fill="#F2F2F2"/>
<path d="M85.851 8.921C86.3584 8.921 86.7698 8.50736 86.7698 7.99712C86.7698 7.48688 86.3584 7.07324 85.851 7.07324C85.3435 7.07324 84.9321 7.48688 84.9321 7.99712C84.9321 8.50736 85.3435 8.921 85.851 8.921Z" fill="#F2F2F2"/>
<path d="M83.6362 6.68359H76.4999C76.2675 6.68359 76.0791 6.87302 76.0791 7.10669V7.88933C76.0791 8.123 76.2675 8.31242 76.4999 8.31242H83.6362C83.8686 8.31242 84.057 8.123 84.057 7.88933V7.10669C84.057 6.87302 83.8686 6.68359 83.6362 6.68359Z" stroke="#3F3D56" stroke-miterlimit="10"/>
<path d="M86.1816 8.42198C86.689 8.42198 87.1004 8.00834 87.1004 7.4981C87.1004 6.98785 86.689 6.57422 86.1816 6.57422C85.6741 6.57422 85.2627 6.98785 85.2627 7.4981C85.2627 8.00834 85.6741 8.42198 86.1816 8.42198Z" stroke="#3F3D56" stroke-miterlimit="10"/>
<path d="M106.627 10.7997V112.337C106.627 113.547 106.148 114.707 105.297 115.562C104.446 116.418 103.292 116.898 102.089 116.898H61.0908C59.8876 116.898 58.7336 116.418 57.8826 115.562C57.0317 114.707 56.5535 113.547 56.5532 112.337V10.7997C56.5532 10.2005 56.6705 9.60723 56.8985 9.05367C57.1265 8.50011 57.4608 7.99714 57.8821 7.57347C58.3035 7.14981 58.8037 6.81375 59.3543 6.58449C59.9048 6.35522 60.4949 6.23725 61.0908 6.2373H67.2258V7.0296C67.2261 8.02587 67.6198 8.98125 68.3205 9.68572C69.0211 10.3902 69.9713 10.7861 70.9621 10.7864H91.8123C92.8032 10.7864 93.7536 10.3906 94.4543 9.68603C95.155 8.9815 95.5486 8.02596 95.5486 7.0296V6.2373H102.089C102.685 6.23725 103.275 6.35522 103.826 6.58449C104.376 6.81375 104.877 7.14981 105.298 7.57347C105.719 7.99714 106.053 8.50011 106.281 9.05367C106.509 9.60723 106.627 10.2005 106.627 10.7997V10.7997Z" stroke="#3F3D56" stroke-miterlimit="10"/>
<path d="M63.1157 15.9414H57.9839V16.6072H63.1157V15.9414Z" stroke="#3F3D56" stroke-miterlimit="10"/>
<path d="M63.1157 17.1064H57.9839V17.7722H63.1157V17.1064Z" stroke="#3F3D56" stroke-miterlimit="10"/>
<path d="M63.1157 18.2715H57.9839V18.9373H63.1157V18.2715Z" stroke="#3F3D56" stroke-miterlimit="10"/>
<path d="M104.282 17.6061H104.13L104.073 17.5582C104.263 17.3299 104.367 17.0416 104.367 16.7437C104.366 16.4992 104.292 16.2606 104.156 16.0581C104.019 15.8556 103.826 15.6983 103.601 15.606C103.376 15.5138 103.128 15.4907 102.89 15.5398C102.652 15.5889 102.433 15.7078 102.262 15.8817C102.091 16.0555 101.975 16.2765 101.929 16.5166C101.882 16.7567 101.908 17.0052 102.002 17.2307C102.096 17.4563 102.255 17.6487 102.457 17.7837C102.66 17.9187 102.898 17.9903 103.142 17.9893C103.437 17.9875 103.722 17.8825 103.949 17.6923L104.006 17.7403V17.8935L104.957 18.8517L105.242 18.5643L104.282 17.6061ZM103.142 17.6061C102.972 17.6066 102.806 17.5564 102.664 17.4619C102.523 17.3675 102.413 17.233 102.348 17.0754C102.282 16.9179 102.265 16.7444 102.298 16.577C102.331 16.4096 102.412 16.2557 102.532 16.1348C102.652 16.014 102.805 15.9316 102.971 15.8981C103.137 15.8647 103.31 15.8816 103.467 15.9468C103.624 16.012 103.758 16.1225 103.852 16.2644C103.946 16.4063 103.997 16.5731 103.997 16.7437C103.997 16.857 103.976 16.9692 103.933 17.0739C103.89 17.1787 103.827 17.2739 103.748 17.3541C103.668 17.4342 103.574 17.4978 103.47 17.541C103.366 17.5843 103.254 17.6064 103.142 17.6061V17.6061Z" stroke="#3F3D56" stroke-miterlimit="10"/>
<path d="M132.078 28.7584C132.164 27.0998 132.88 25.5379 134.079 24.3946C135.277 23.2514 136.865 22.614 138.517 22.614C138.713 22.614 138.907 22.6242 139.098 22.6415C139.851 21.3385 140.931 20.2571 142.23 19.5052C143.529 18.7533 145.002 18.3572 146.501 18.3564C147.999 18.3557 149.472 18.7504 150.772 19.5011C152.072 20.2518 153.153 21.3322 153.907 22.6344C154.069 22.6222 154.231 22.614 154.396 22.614C156.048 22.614 157.636 23.2514 158.834 24.3946C160.033 25.5379 160.749 27.0998 160.835 28.7584" fill="#F2F2F2"/>
<path d="M133.422 28.2593C133.508 26.6008 134.224 25.0389 135.422 23.8956C136.62 22.7523 138.209 22.115 139.861 22.1149C140.057 22.1149 140.25 22.1252 140.442 22.1424C141.195 20.8395 142.275 19.7581 143.574 19.0061C144.873 18.2542 146.345 17.8581 147.844 17.8574C149.343 17.8567 150.816 18.2514 152.116 19.0021C153.415 19.7528 154.496 20.8332 155.251 22.1354C155.412 22.1232 155.575 22.1149 155.74 22.1149C157.391 22.115 158.98 22.7523 160.178 23.8956C161.376 25.0389 162.092 26.6008 162.179 28.2593" stroke="#3F3D56" stroke-miterlimit="10"/>
<path d="M114.86 65.5435C114.947 63.885 115.663 62.3231 116.861 61.1798C118.059 60.0365 119.648 59.3992 121.299 59.3991C121.495 59.3991 121.689 59.4094 121.88 59.4266C122.634 58.1237 123.714 57.0423 125.013 56.2903C126.311 55.5384 127.784 55.1423 129.283 55.1416C130.782 55.1409 132.254 55.5356 133.554 56.2863C134.854 57.037 135.935 58.1174 136.689 59.4196C136.851 59.4074 137.013 59.3991 137.178 59.3991C138.83 59.3992 140.419 60.0365 141.617 61.1798C142.815 62.3231 143.531 63.885 143.617 65.5435" fill="#F2F2F2"/>
<path d="M116.204 65.0445C116.29 63.386 117.006 61.824 118.205 60.6808C119.403 59.5375 120.991 58.9001 122.643 58.9001C122.839 58.9001 123.033 58.9104 123.224 58.9276C123.977 57.6247 125.057 56.5432 126.356 55.7913C127.655 55.0394 129.128 54.6433 130.627 54.6426C132.125 54.6419 133.598 55.0366 134.898 55.7872C136.198 56.5379 137.279 57.6183 138.033 58.9205C138.195 58.9083 138.357 58.9001 138.522 58.9001C140.174 58.9001 141.762 59.5375 142.96 60.6808C144.159 61.824 144.875 63.386 144.961 65.0445" stroke="#3F3D56" stroke-miterlimit="10"/>
<path d="M7.09229 11.6138C7.17861 9.9553 7.89465 8.39335 9.09272 7.25009C10.2908 6.10684 11.8795 5.46946 13.5313 5.46943C13.7272 5.46943 13.9208 5.47971 14.1123 5.49692C14.8655 4.19399 15.9455 3.11256 17.2445 2.36064C18.5434 1.60872 20.0159 1.21263 21.5147 1.21192C23.0136 1.2112 24.4864 1.6059 25.786 2.35658C27.0857 3.10727 28.1667 4.18767 28.9212 5.48988C29.0828 5.47768 29.2454 5.46943 29.4101 5.46943C31.0618 5.46946 32.6506 6.10684 33.8486 7.25009C35.0467 8.39335 35.7628 9.9553 35.8491 11.6138" fill="#F2F2F2"/>
<path d="M8.43652 11.1148C8.52285 9.45628 9.23889 7.89433 10.437 6.75107C11.635 5.60781 13.2238 4.97044 14.8755 4.97041C15.0715 4.97041 15.265 4.98069 15.4565 4.9979C16.2097 3.69497 17.2898 2.61354 18.5887 1.86162C19.8877 1.1097 21.3601 0.713604 22.859 0.712892C24.3578 0.712179 25.8306 1.10687 27.1303 1.85756C28.4299 2.60824 29.511 3.68864 30.2654 4.99086C30.427 4.97865 30.5897 4.97041 30.7543 4.97041C32.4061 4.97044 33.9948 5.60781 35.1929 6.75107C36.391 7.89433 37.107 9.45628 37.1933 11.1148" stroke="#3F3D56" stroke-miterlimit="10"/>
<path d="M95.5546 32.9209H60.3095C59.1624 32.9209 58.2324 33.8559 58.2324 35.0094V52.8037C58.2324 53.9572 59.1624 54.8922 60.3095 54.8922H95.5546C96.7018 54.8922 97.6317 53.9572 97.6317 52.8037V35.0094C97.6317 33.8559 96.7018 32.9209 95.5546 32.9209Z" fill="#3F3D56"/>
<path d="M97.707 28.7598H62.4619C61.3147 28.7598 60.3848 29.6948 60.3848 30.8482V48.6426C60.3848 49.796 61.3147 50.731 62.4619 50.731H97.707C98.8541 50.731 99.7841 49.796 99.7841 48.6426V30.8482C99.7841 29.6948 98.8541 28.7598 97.707 28.7598Z" stroke="#3F3D56" stroke-miterlimit="10"/>
<path d="M73.8725 44.6593L77.3474 48.2602C77.4233 48.3371 77.5139 48.3975 77.6138 48.4379C77.7137 48.4782 77.8207 48.4976 77.9283 48.4949H77.9387C78.0463 48.4976 78.1534 48.4782 78.2533 48.4379C78.3532 48.3975 78.4438 48.3371 78.5196 48.2602L81.9946 44.6593C82.0713 44.5872 82.1325 44.5 82.1743 44.4031C82.2161 44.3062 82.2377 44.2018 82.2377 44.0961C82.2377 43.9905 82.2161 43.886 82.1743 43.7892C82.1325 43.6923 82.0713 43.6051 81.9946 43.5329C81.8356 43.3834 81.6261 43.3002 81.4085 43.3002C81.1908 43.3002 80.9813 43.3834 80.8224 43.5329L78.7634 45.6971V40.1172C78.7538 39.9024 78.6622 39.6995 78.5076 39.5509C78.353 39.4023 78.1474 39.3193 77.9335 39.3193C77.7197 39.3193 77.514 39.4023 77.3594 39.5509C77.2049 39.6995 77.1133 39.9024 77.1037 40.1172V45.6971L75.0447 43.5329C74.8857 43.3834 74.6762 43.3002 74.4586 43.3002C74.2409 43.3002 74.0314 43.3834 73.8725 43.5329C73.7958 43.6051 73.7346 43.6923 73.6928 43.7892C73.651 43.886 73.6294 43.9905 73.6294 44.0961C73.6294 44.2018 73.651 44.3062 73.6928 44.4031C73.7346 44.5 73.7958 44.5872 73.8725 44.6593H73.8725Z" fill="white"/>
<path d="M64.6153 92.5098H99.8604C101.008 92.5098 101.938 91.5747 101.938 90.4213V72.627C101.938 71.4735 101.008 70.5385 99.8604 70.5385H64.6153C63.4681 70.5385 62.5382 71.4735 62.5382 72.627V90.4213C62.5382 91.5747 63.4681 92.5098 64.6153 92.5098Z" fill="#3F3D56"/>
<path d="M62.461 88.3486H97.7061C98.8532 88.3486 99.7832 87.4136 99.7832 86.2602V68.4658C99.7832 67.3124 98.8532 66.3774 97.7061 66.3774H62.461C61.3138 66.3774 60.3839 67.3124 60.3839 68.4658V86.2602C60.3839 87.4136 61.3138 88.3486 62.461 88.3486Z" stroke="#3F3D56" stroke-miterlimit="10"/>
<path d="M86.2963 82.2765C86.373 82.2044 86.4342 82.1172 86.476 82.0203C86.5178 81.9234 86.5394 81.819 86.5394 81.7133C86.5394 81.6077 86.5178 81.5032 86.476 81.4064C86.4342 81.3095 86.373 81.2223 86.2963 81.1501C86.1374 81.0006 85.9278 80.9174 85.7102 80.9174C85.4925 80.9174 85.283 81.0006 85.1241 81.1501L83.0651 83.3143V77.7344C83.0555 77.5196 82.9639 77.3167 82.8094 77.1681C82.6548 77.0195 82.4491 76.9365 82.2353 76.9365C82.0214 76.9365 81.8158 77.0195 81.6612 77.1681C81.5066 77.3167 81.415 77.5196 81.4054 77.7344V83.3143L79.3464 81.1501C79.1875 81.0006 78.978 80.9174 78.7603 80.9174C78.5427 80.9174 78.3332 81.0006 78.1743 81.1501C78.0975 81.2223 78.0364 81.3095 77.9946 81.4064C77.9527 81.5032 77.9312 81.6077 77.9312 81.7133C77.9312 81.819 77.9527 81.9234 77.9946 82.0203C78.0364 82.1172 78.0975 82.2044 78.1743 82.2765L81.6492 85.8774C81.725 85.9543 81.8156 86.0147 81.9155 86.0551C82.0154 86.0954 82.1225 86.1148 82.2301 86.1121H82.2405C82.3481 86.1148 82.4551 86.0954 82.555 86.0551C82.6549 86.0147 82.7455 85.9543 82.8214 85.8774L86.2963 82.2765H86.2963Z" fill="white"/>
<path d="M36.3529 127.979L36.3528 127.98C36.3528 127.98 36.301 128.009 36.2124 128.054C36.2601 128.029 36.3069 128.004 36.3529 127.979Z" fill="url(#paint0_linear)"/>
<path d="M16.6089 110.537C15.3669 114.127 16.8161 119.955 17.4891 122.556C18.1614 125.159 18.3686 128.281 18.3686 128.281C21.0079 128.697 22.9229 128.176 22.9229 128.176L21.8361 122.817C22.6124 119.643 21.8361 111.161 21.8361 111.161C21.8361 111.161 23.5952 107.883 23.7504 102.888C23.9033 97.9706 25.1089 96.3815 25.1469 96.3323L25.1477 96.3315C27.6317 97.6326 30.7887 111.578 30.7887 111.578C30.5302 114.96 30.8407 120.163 31.8754 122.973C32.503 124.758 32.767 126.651 32.6517 128.54C33.0134 128.848 33.5165 128.9 34.0598 128.812C35.5378 128.572 37.3092 127.292 37.3092 127.292C37.3092 127.292 36.7402 112.098 36.3257 111.526C35.912 110.953 36.3257 107.675 36.3257 107.675L35.6535 102.368C35.6535 102.368 35.7567 93.3656 34.7732 91.8046C33.9248 90.4567 33.7291 88.0879 33.6911 87.4658C33.6857 87.3675 33.6834 87.3128 33.6834 87.3128L32.186 85.5091C32.186 85.5091 17.6956 84.4164 16.6089 85.5091C16.3418 85.7776 16.1773 86.3872 16.0795 87.1552C15.7806 89.5154 16.1229 93.3656 16.1229 93.3656C16.1229 93.3656 16.5576 96.2277 17.1786 99.1413C17.5518 100.891 17.5518 102.699 17.1786 104.449C17.3829 106.496 17.1894 108.564 16.6089 110.537Z" fill="#575A89"/>
<path d="M17.5141 133.354C18.1607 134.212 21.9643 133.848 22.6117 133.58C23.0069 133.416 22.9774 132.669 22.8702 131.898C22.8027 131.408 22.7033 130.908 22.663 130.544C22.5597 129.607 22.9735 127.708 22.9735 127.708C22.9735 127.708 22.1196 128.618 21.9131 127.708C21.8224 127.309 21.504 127.105 21.1744 127.002C20.7309 126.867 20.2542 126.897 19.8309 127.086C19.1589 127.379 18.0371 128.005 18.2383 128.85C18.5232 130.045 17.5141 131.741 17.5141 131.741C17.4357 131.84 17.3721 131.95 17.3254 132.068C17.2365 132.279 17.2071 132.51 17.2404 132.737C17.2736 132.964 17.3683 133.177 17.5141 133.354Z" fill="#CBCEDA"/>
<path opacity="0.1" d="M17.5141 133.354C18.1607 134.213 21.9643 133.848 22.6117 133.58C23.0068 133.416 22.9773 132.669 22.8702 131.898C22.4619 132.091 21.7672 132.25 20.6092 132.143C20.3389 132.117 20.0673 132.109 19.796 132.117C18.9722 132.155 18.147 132.138 17.3254 132.068C17.2365 132.279 17.2071 132.511 17.2403 132.738C17.2736 132.964 17.3683 133.178 17.5141 133.354Z" fill="black"/>
<path opacity="0.1" d="M30.789 111.578C30.5305 114.96 30.841 120.163 31.8757 122.973C32.5033 124.758 32.7673 126.651 32.652 128.54C33.0137 128.848 33.5167 128.9 34.0601 128.812C33.7481 126.617 32.4176 117.161 31.5652 109.691C30.5949 101.184 26.0538 95.3301 26.0538 95.3301L25.1479 96.3315C27.632 97.6326 30.789 111.578 30.789 111.578Z" fill="black"/>
<path d="M19.0693 56.8905L19.7012 60.0125L22.7953 65.2419L26.6122 63.6028C26.6122 63.6028 31.7999 58.1393 28.5396 57.3588C28.149 57.2748 27.7802 57.1097 27.4568 56.8741C26.8171 56.3886 26.6153 55.6831 26.6122 54.9923C26.6375 54.2179 26.8178 53.4566 27.1424 52.7538L20.4666 50.6465C20.7422 51.5284 20.9032 52.4424 20.9455 53.3658C20.9968 55.1937 20.3214 56.0944 19.7672 56.5237C19.561 56.6911 19.3238 56.8158 19.0693 56.8905Z" fill="#FBBEBE"/>
<path opacity="0.1" d="M20.4644 50.6465C20.7399 51.5283 20.9009 52.4424 20.9433 53.3657C21.065 53.5112 21.1945 53.6499 21.3314 53.781C22.0207 54.4429 22.8753 54.905 23.8046 55.1183C24.7339 55.3315 25.7033 55.288 26.61 54.9923C26.6353 54.2179 26.8156 53.4566 27.1401 52.7538L20.4644 50.6465Z" fill="black"/>
<path d="M19.6997 49.7879C19.6998 50.8376 20.0094 51.8636 20.5894 52.7364C21.1694 53.6091 21.9938 54.2893 22.9582 54.691C23.9227 55.0927 24.984 55.1977 26.0079 54.993C27.0318 54.7882 27.9722 54.2827 28.7104 53.5405C29.4486 52.7983 29.9513 51.8526 30.155 50.8232C30.3586 49.7937 30.2541 48.7266 29.8547 47.7568C29.4552 46.7871 28.7787 45.9582 27.9107 45.375C27.0427 44.7918 26.0222 44.4805 24.9783 44.4805C24.2844 44.4779 23.5968 44.6134 22.9552 44.8792C22.3136 45.145 21.7307 45.5359 21.24 46.0292C20.7493 46.5226 20.3606 47.1087 20.0963 47.7538C19.8319 48.3989 19.6972 49.0902 19.6997 49.7879Z" fill="#FBBEBE"/>
<path opacity="0.1" d="M19.0693 56.8903L19.7012 60.0123L22.7953 65.2416L26.6122 63.6026C26.6122 63.6026 31.7999 58.1391 28.5396 57.3586C28.149 57.2746 27.7802 57.1095 27.4568 56.8739C28.0459 58.5004 25.6155 61.8855 25.6155 61.8855C25.3329 62.3038 24.684 62.0416 24.684 62.0416C23.119 61.8035 20.2368 57.2766 19.7672 56.5234C19.561 56.6909 19.3238 56.8156 19.0693 56.8903Z" fill="black"/>
<path opacity="0.1" d="M16.0806 87.1552C16.9989 87.3651 22.0833 88.4977 24.0108 88.2143C26.1323 87.9021 30.2573 87.6945 30.2573 87.6945C30.2573 87.6945 32.8841 87.8373 33.6922 87.4658C33.6868 87.3675 33.6845 87.3128 33.6845 87.3128L32.1871 85.5091C32.1871 85.5091 17.6967 84.4164 16.61 85.5091C16.3429 85.7776 16.1784 86.3872 16.0806 87.1552Z" fill="black"/>
<path d="M25.6135 62.0418C25.6135 62.0418 28.3439 58.2384 27.3151 56.7579L31.927 58.6596C31.927 58.6596 34.703 58.3213 35.7047 62.4866C35.8653 63.179 35.9231 63.8914 35.8762 64.6008C35.8399 65.2289 35.9248 66.3346 36.6363 67.7655C37.7748 70.055 37.5161 75.3104 35.1873 75.8307C32.8586 76.351 32.0306 76.0909 32.0306 76.0909C32.0306 76.0909 32.3411 85.613 33.6866 86.7057C35.0321 87.7984 30.256 87.5382 30.256 87.5382C30.256 87.5382 26.131 87.7464 24.0093 88.0586C21.8875 88.3708 15.9362 86.9658 15.9362 86.9658C15.9362 86.9658 16.816 82.9593 17.1265 80.4096C17.437 77.86 18.1615 72.4309 18.1615 72.4309L12.8829 65.2419C12.8829 65.2419 11.9514 60.8971 15.2117 58.9718C18.472 57.0466 19.6989 56.5732 19.6989 56.5732C19.6989 56.5732 22.9742 61.9377 24.682 62.1979C24.682 62.1979 25.3307 62.46 25.6135 62.0418Z" fill="#3F3D56"/>
<path opacity="0.1" d="M31.6682 63.5508C31.6682 63.5508 31.72 65.2679 31.4095 65.9443C31.099 66.6208 29.9604 70.3672 29.9604 70.3672H32.548C32.548 70.3672 31.1507 68.8582 31.2542 68.1297C31.3577 67.4013 31.6682 63.5508 31.6682 63.5508Z" fill="black"/>
<path d="M24.0093 76.5074C24.0093 76.5074 29.7235 75.1025 30.2561 73.9057C30.7886 72.7089 32.2565 70.0307 32.2565 70.0307L31.6534 69.2139L28.8739 71.4081C28.8739 71.4081 25.5618 74.0618 24.0093 74.322C22.4568 74.5821 24.0093 76.5074 24.0093 76.5074Z" fill="#FBBEBE"/>
<path opacity="0.05" d="M24.0093 76.5074C24.0093 76.5074 29.7235 75.1025 30.2561 73.9057C30.7886 72.7089 32.2565 70.0307 32.2565 70.0307L31.6534 69.2139L28.8739 71.4081C28.8739 71.4081 25.5618 74.0618 24.0093 74.322C22.4568 74.5821 24.0093 76.5074 24.0093 76.5074Z" fill="black"/>
<path d="M19.0693 69.7429V72.8603H19.5677C22.0298 72.8602 24.4515 73.4903 26.6044 74.6913L27.5383 75.2127L27.7898 75.3532L29.3935 71.72L27.893 70.3673C27.893 70.3673 27.8658 70.3705 27.8161 70.3744C27.449 70.4103 25.8616 70.5437 25.1885 70.315C24.5497 70.0973 23.7556 69.405 21.8732 69.8889C20.9463 70.1269 20.1545 71.172 19.2549 70.8458L19.0693 69.7429Z" fill="#FBBEBE"/>
<path opacity="0.1" d="M14.0746 64.0707L13.0396 65.2415V68.0773C13.0396 68.0773 13.9193 77.0271 16.7138 78.0157C19.5083 79.0043 24.4969 77.4433 24.4969 77.4433C24.4969 77.4433 25.7853 74.0091 25.1826 73.801C24.5799 73.5929 19.8555 72.3381 19.8555 72.3381C19.8555 72.3381 19.9223 67.0887 18.8873 65.5277C18.8873 65.5277 19.5601 60.6365 17.2313 60.5325C14.9026 60.4284 14.0746 64.0707 14.0746 64.0707Z" fill="black"/>
<path d="M13.9173 64.0707L12.8823 65.2415V68.0773C12.8823 68.0773 13.7621 77.0271 16.5566 78.0157C19.3511 79.0043 24.3397 77.4433 24.3397 77.4433C24.3397 77.4433 25.6281 74.0091 25.0254 73.801C24.4226 73.5929 19.6983 72.3381 19.6983 72.3381C19.6983 72.3381 19.7651 67.0887 18.7301 65.5277C18.7301 65.5277 19.4029 60.6365 17.0741 60.5325C14.7453 60.4284 13.9173 64.0707 13.9173 64.0707Z" fill="#3F3D56"/>
<path opacity="0.1" d="M21.1479 52.0439C21.1029 51.7016 21.1435 51.3534 21.2659 51.0308C21.4118 50.7202 21.7534 50.4751 22.0864 50.5539C22.5297 50.6577 22.7206 51.2376 23.1545 51.3766C23.5202 51.4936 23.9199 51.233 24.0946 50.8888C24.2692 50.5453 24.2739 50.1426 24.2747 49.757C24.2755 49.3223 24.2765 48.8875 24.2778 48.4528C24.2786 47.9798 24.2925 47.4686 24.5828 47.0971C24.9438 46.6342 25.7915 46.4321 26.3574 46.4508C26.7343 46.4549 27.096 46.6015 27.3704 46.8614C27.6739 47.1205 28.024 47.3109 28.4369 47.243C28.6088 47.2168 28.7698 47.1422 28.9012 47.0278C29.0327 46.9135 29.1293 46.764 29.1798 46.5968C29.1815 46.5914 29.1828 46.5859 29.1837 46.5804C28.7434 45.9967 28.1878 45.5111 27.5517 45.1539C26.9155 44.7968 26.2128 44.5759 25.4876 44.5052C24.7625 44.4345 24.0306 44.5156 23.3381 44.7432C22.6457 44.9709 22.0075 45.3402 21.464 45.8279C20.9204 46.3157 20.4831 46.9113 20.1797 47.5773C19.8763 48.2433 19.7133 48.9652 19.701 49.6977C19.6886 50.4301 19.8272 51.1572 20.108 51.8331C20.3889 52.509 20.8058 53.1192 21.3327 53.6252C21.242 53.1019 21.1803 52.574 21.1479 52.0439Z" fill="black"/>
<path d="M28.4372 47.0862C28.609 47.0598 28.77 46.9851 28.9015 46.8708C29.033 46.7564 29.1296 46.607 29.1803 46.4397C29.2238 46.2718 29.2123 46.0925 29.2615 45.9261C29.3823 45.5173 29.8164 45.3042 30.1073 44.9939C30.6905 44.3718 30.6526 43.3485 30.2398 42.6012C29.9067 41.9981 29.2604 41.4888 28.5843 41.6067C28.1658 41.6797 27.8037 41.9797 27.3798 42.0067C26.9716 42.0327 26.5979 41.8028 26.2259 41.6321C25.3286 41.2239 24.3201 41.1339 23.3653 41.3768C23.0717 41.4356 22.7996 41.5736 22.5782 41.776C22.4277 41.9661 22.2876 42.1641 22.1583 42.3694C21.6756 42.9875 20.8122 43.1083 20.0431 43.2486C19.274 43.3889 18.4035 43.6941 18.1507 44.4378C17.9831 44.9309 18.1457 45.4665 18.242 45.9785C18.2737 46.0835 18.2664 46.1966 18.2215 46.2966C18.1015 46.4961 17.8011 46.4126 17.5742 46.4605C17.1378 46.5526 17.0257 47.1179 17.0096 47.5659C16.9912 48.0786 16.9774 48.5916 16.9681 49.1046C16.9556 49.2961 16.9708 49.4885 17.0132 49.6756C17.1082 49.9428 17.2582 50.1868 17.4533 50.3918L19.1622 52.4559C19.9198 53.3711 20.7245 54.4378 20.5718 55.6186C20.9309 55.7807 21.3574 55.469 21.4752 55.0913C21.5929 54.7136 21.4978 54.3068 21.418 53.9192C21.2801 53.2491 21.1898 52.5701 21.1479 51.8872C21.1027 51.5448 21.1434 51.1966 21.2663 50.8741C21.4119 50.5631 21.7538 50.3185 22.0867 50.3968C22.53 50.501 22.7207 51.0806 23.1545 51.2196C23.5201 51.3368 23.9204 51.0757 24.0947 50.732C24.2691 50.3882 24.2737 49.9859 24.2747 49.6L24.2777 48.2958C24.2788 47.8232 24.2927 47.3116 24.5828 46.9398C24.9437 46.4771 25.7918 46.275 26.3578 46.2935C26.7346 46.298 27.096 46.4445 27.3704 46.7042C27.6741 46.9635 28.0238 47.1539 28.4372 47.0862Z" fill="#3F3D56"/>
<path opacity="0.1" d="M27.2458 63.4209L25.6251 70.1147C25.6251 70.1147 24.3478 70.1072 27.2458 63.4209Z" fill="black"/>
<path opacity="0.1" d="M21.708 62.3018C21.708 62.3018 23.8298 65.7956 23.0018 69.4081L22.6065 69.4372C22.6065 69.4372 23.3123 67.7653 21.708 62.3018Z" fill="black"/>
<path opacity="0.1" d="M20.3609 82.0743C20.3609 82.0743 17.7556 81.2078 17.5664 83.219C17.5664 83.219 18.058 81.8401 20.3609 82.0743Z" fill="black"/>
<path opacity="0.1" d="M27.8906 70.5234C27.8906 70.5234 28.4081 74.1658 27.4766 75.6227C27.4766 75.6227 29.3713 76.4032 32.0306 76.2471L32.3411 70.5234L27.8906 70.5234Z" fill="black"/>
<path opacity="0.1" d="M27.5371 75.2125L27.7886 75.353L29.3924 71.7198L27.8919 70.3672H27.8142C27.8143 70.3695 27.8146 70.3719 27.815 70.3742C27.8383 70.542 28.2567 73.6703 27.5371 75.2125Z" fill="black"/>
<path d="M27.8906 70.3672C27.8906 70.3672 28.4081 74.0095 27.4766 75.4665C27.4766 75.4665 29.3713 76.247 32.0306 76.0909L33.8418 70.3672H27.8906Z" fill="#3F3D56"/>
<path d="M32.0357 132.47C32.0659 132.729 32.1809 132.971 32.3629 133.158C32.5448 133.345 32.7832 133.465 33.0407 133.5C34.4461 133.712 37.8311 133.085 38.686 133.494C39.7727 134.014 44.0678 133.65 44.275 133.13C44.3042 133.026 44.3127 132.917 44.2999 132.81C44.2871 132.702 44.2533 132.598 44.2005 132.504C44.0535 132.187 43.8106 131.924 43.5065 131.754C43.4076 131.697 43.3033 131.651 43.1952 131.615C42.3864 131.343 40.8579 130.767 40.4457 130.164C40.4457 130.164 38.5412 128.488 37.9976 127.582C37.8955 127.404 37.7513 127.254 37.5777 127.145C37.4042 127.037 37.2067 126.973 37.0027 126.959C36.5493 126.939 36.0444 127.168 35.8379 128.167C35.8379 128.167 33.3554 129.591 32.6832 128.342C32.6832 128.342 32.58 131.426 32.1678 131.95C32.167 131.951 32.1662 131.953 32.1654 131.954C32.111 132.027 32.0716 132.11 32.0493 132.199C32.0271 132.287 32.0224 132.379 32.0357 132.47Z" fill="#CBCEDA"/>
<path opacity="0.1" d="M32.0357 132.47C32.0659 132.729 32.1809 132.971 32.3629 133.158C32.5448 133.344 32.7832 133.465 33.0407 133.5C34.4461 133.712 37.8311 133.085 38.686 133.494C39.7727 134.014 44.0678 133.65 44.275 133.13C44.3042 133.026 44.3127 132.917 44.2999 132.809C44.2871 132.702 44.2533 132.598 44.2005 132.504C44.0535 132.187 43.8106 131.924 43.5065 131.754C42.8063 132.221 41.2515 132.678 37.8321 132.141C34.5703 131.629 32.9557 132.292 32.1678 131.95C32.167 131.951 32.1662 131.953 32.1654 131.954C32.111 132.027 32.0716 132.11 32.0493 132.199C32.0271 132.287 32.0224 132.379 32.0357 132.47Z" fill="black"/>
<g opacity="0.1">
<path opacity="0.1" d="M18.2454 46.0523C18.244 46.0439 18.2425 46.0355 18.241 46.0273C18.1677 45.6373 18.0563 45.2338 18.0812 44.8457C18.1145 45.1646 18.1679 45.481 18.241 45.7932C18.2625 45.878 18.264 45.9667 18.2454 46.0523Z" fill="black"/>
<path opacity="0.1" d="M21.2661 50.9232C21.1843 51.1108 21.1411 51.313 21.139 51.5178C21.1155 51.2353 21.1591 50.9513 21.2661 50.6891C21.4116 50.378 21.7535 50.1334 22.0864 50.2117C22.5297 50.3159 22.7205 50.8955 23.1542 51.0345C23.5199 51.1517 23.9201 50.8906 24.0944 50.5469C24.2688 50.2031 24.2735 49.8008 24.2744 49.4149C24.2754 48.9802 24.2764 48.5454 24.2774 48.1107C24.2785 47.6381 24.2924 47.1265 24.5825 46.7547C24.9434 46.292 25.7915 46.0899 26.3575 46.1084C26.7343 46.1129 27.0957 46.2595 27.3701 46.5192C27.6738 46.7784 28.0235 46.9688 28.4369 46.9011C28.6088 46.8747 28.7697 46.8001 28.9012 46.6857C29.0327 46.5713 29.1293 46.4219 29.18 46.2547C29.2235 46.0867 29.2121 45.9075 29.2613 45.7411C29.3821 45.3323 29.8161 45.1191 30.1071 44.8088C30.3787 44.5065 30.5336 44.1163 30.5436 43.709C30.565 43.9495 30.5373 44.1919 30.4622 44.4212C30.3871 44.6506 30.2663 44.8622 30.1071 45.0429C29.8161 45.3533 29.3821 45.5664 29.2613 45.9752C29.2121 46.1416 29.2235 46.3208 29.18 46.4888C29.1293 46.656 29.0327 46.8055 28.9012 46.9198C28.7697 47.0342 28.6088 47.1089 28.4369 47.1352C28.0235 47.2029 27.6738 47.0125 27.3701 46.7533C27.0957 46.4936 26.7343 46.347 26.3575 46.3426C25.7915 46.3241 24.9434 46.5262 24.5825 46.9888C24.2924 47.3607 24.2785 47.8723 24.2774 48.3448C24.2764 48.7796 24.2754 49.2143 24.2744 49.6491C24.2735 50.035 24.2688 50.4373 24.0944 50.781C23.9201 51.1248 23.5199 51.3859 23.1542 51.2687C22.7205 51.1297 22.5297 50.55 22.0864 50.4458C21.7535 50.3675 21.4116 50.6121 21.2661 50.9232Z" fill="black"/>
<path opacity="0.1" d="M17.0127 49.491C17.1077 49.7582 17.2577 50.0022 17.4528 50.2071C18.0224 50.8952 18.5921 51.5832 19.1617 52.2712C19.881 53.1402 20.6421 54.1458 20.5866 55.2559C20.5347 54.2383 19.8301 53.3128 19.1617 52.5054C18.5921 51.8174 18.0225 51.1293 17.4528 50.4413C17.2577 50.2363 17.1077 49.9923 17.0127 49.7251C16.9704 49.538 16.9552 49.3458 16.9676 49.1543C16.9691 49.2679 16.9843 49.381 17.0127 49.491Z" fill="black"/>
<path opacity="0.1" d="M21.4742 54.9064C21.5019 54.8159 21.519 54.7224 21.5253 54.6279C21.54 54.8005 21.5227 54.9743 21.4742 55.1405C21.3564 55.5182 20.9299 55.8299 20.5708 55.6678C20.5805 55.5923 20.5864 55.5163 20.5885 55.4402C20.9439 55.5845 21.3583 55.2779 21.4742 54.9064Z" fill="black"/>
</g>
<path opacity="0.1" d="M38.3395 128.054C38.3395 128.054 37.7987 129.011 35.8384 128.167L38.3395 128.054Z" fill="black"/>
<path opacity="0.1" d="M22.0989 128.117C22.0989 128.117 20.408 130.118 18.2778 128.773L22.0989 128.117Z" fill="black"/>
<path opacity="0.1" d="M17.1787 104.448C17.1787 104.448 18.3731 105.198 18.4119 105.628C18.4508 106.057 17.7953 105.316 17.7953 105.316L17.1787 104.448Z" fill="black"/>
<path opacity="0.1" d="M16.7075 110.202C17.1229 110.55 17.6394 110.753 18.1792 110.78C19.0719 110.819 18.9976 111.989 18.4138 111.638C17.8299 111.287 16.7075 110.202 16.7075 110.202Z" fill="black"/>
<path opacity="0.1" d="M16.481 110.953C16.481 110.953 17.0544 113.785 17.5201 113.238L16.481 110.953Z" fill="black"/>
<path d="M2.71564 108.098C3.21712 108.281 3.75408 108.345 4.28422 108.284C4.81435 108.223 5.32315 108.039 5.77053 107.747C6.21791 107.454 6.59163 107.061 6.86223 106.599C7.13284 106.137 7.29293 105.617 7.32989 105.082C7.36685 104.547 7.27967 104.01 7.07522 103.515C6.87078 103.019 6.55465 102.578 6.15175 102.226C5.74886 101.875 5.27022 101.622 4.75355 101.488C4.23689 101.354 3.69632 101.342 3.17446 101.454L3.2607 103.237L2.4217 101.709C1.59827 102.098 0.962136 102.8 0.653089 103.66C0.543335 103.962 0.476613 104.277 0.454913 104.597C0.40195 105.349 0.593995 106.097 1.00195 106.728C1.4099 107.36 2.01152 107.841 2.71564 108.098Z" fill="#E00909"/>
<path d="M6.86585 128.778C6.56969 127.262 7.85304 125.918 9.1207 125.044C10.3884 124.17 11.8695 123.311 12.3021 121.828C12.9237 119.697 11.0721 117.745 9.63092 116.062C8.56172 114.813 7.64352 113.441 6.89555 111.975C6.59574 111.387 6.32019 110.772 6.24129 110.116C6.12766 109.172 6.4295 108.231 6.7336 107.33C7.74664 104.329 8.82976 101.352 9.98296 98.4004" stroke="#3F3D56" stroke-miterlimit="10"/>
<path d="M2.85529 107.639C3.35677 107.822 3.89373 107.886 4.42387 107.825C4.954 107.764 5.4628 107.58 5.91018 107.288C6.35756 106.995 6.73128 106.602 7.00188 106.14C7.27249 105.678 7.43258 105.158 7.46954 104.623C7.5065 104.088 7.41932 103.551 7.21487 103.056C7.01043 102.56 6.6943 102.119 6.2914 101.767C5.88851 101.416 5.40987 101.163 4.8932 101.029C4.37654 100.895 3.83597 100.883 3.31411 100.995L3.40035 102.778L2.56135 101.25C1.73792 101.639 1.10178 102.341 0.792738 103.201C0.682984 103.503 0.616262 103.818 0.594561 104.138C0.541599 104.89 0.733644 105.638 1.14159 106.269C1.54955 106.901 2.15117 107.382 2.85529 107.639V107.639Z" stroke="#3F3D56" stroke-miterlimit="10"/>
<path d="M6.44537 97.7849C6.64217 97.2389 6.97248 96.7515 7.40585 96.3676C7.83922 95.9837 8.36172 95.7156 8.9252 95.5881L9.20888 97.2832L9.73481 95.5029C10.465 95.5138 11.1729 95.7578 11.7563 96.1995C12.3397 96.6413 12.7683 97.2581 12.9803 97.9608C13.1923 98.6634 13.1768 99.4157 12.9359 100.109C12.695 100.802 12.2412 101.4 11.6401 101.817C11.039 102.234 10.3216 102.449 9.59154 102.429C8.86149 102.409 8.15654 102.157 7.57846 101.708C7.00039 101.259 6.57911 100.638 6.37544 99.9323C6.17177 99.2272 6.19626 98.4751 6.44537 97.7849H6.44537Z" fill="#E00909"/>
<path d="M6.63434 97.1726C6.83114 96.6266 7.16144 96.1392 7.59482 95.7553C8.02819 95.3714 8.55069 95.1033 9.11417 94.9758L9.39784 96.6709L9.92377 94.8906C10.654 94.9015 11.3619 95.1455 11.9453 95.5872C12.5286 96.029 12.9573 96.6458 13.1693 97.3484C13.3813 98.0511 13.3657 98.8034 13.1248 99.4966C12.8839 100.19 12.4302 100.788 11.8291 101.205C11.2279 101.622 10.5106 101.836 9.78051 101.817C9.05046 101.797 8.3455 101.545 7.76743 101.096C7.18936 100.647 6.76807 100.025 6.56441 99.32C6.36074 98.6148 6.38523 97.8628 6.63433 97.1726H6.63434Z" stroke="#3F3D56" stroke-miterlimit="10"/>
<path d="M9.02565 116.097C9.82094 116.387 10.6946 116.373 11.48 116.057C12.2655 115.741 12.9079 115.145 13.2847 114.384C13.6615 113.622 13.7465 112.748 13.5233 111.927C13.3002 111.107 12.7846 110.397 12.0748 109.935L11.6707 111.303L11.3841 109.588C11.3813 109.586 11.3783 109.585 11.3753 109.584C10.95 109.429 10.4983 109.359 10.0461 109.379C9.59399 109.4 9.15021 109.509 8.74017 109.702C8.33013 109.894 7.96185 110.166 7.65639 110.502C7.35093 110.838 7.11427 111.231 6.95993 111.659C6.80559 112.087 6.73659 112.541 6.75688 112.995C6.77718 113.45 6.88636 113.896 7.0782 114.308C7.27003 114.72 7.54076 115.091 7.87491 115.397C8.20907 115.704 8.60009 115.942 9.02565 116.097H9.02565Z" fill="#E00909"/>
<path d="M9.19119 115.477C9.98648 115.767 10.8601 115.753 11.6456 115.437C12.431 115.121 13.0734 114.525 13.4502 113.764C13.8271 113.002 13.912 112.128 13.6889 111.307C13.4657 110.487 12.9501 109.777 12.2403 109.315L11.8362 110.683L11.5496 108.968C11.5468 108.966 11.5439 108.965 11.5409 108.964C11.1155 108.809 10.6638 108.739 10.2117 108.759C9.75952 108.779 9.31574 108.889 8.9057 109.082C8.49566 109.274 8.12738 109.546 7.82192 109.882C7.51646 110.218 7.2798 110.611 7.12545 111.039C6.97111 111.466 6.90212 111.921 6.92241 112.375C6.9427 112.83 7.05189 113.276 7.24372 113.688C7.43556 114.1 7.70629 114.47 8.04044 114.777C8.37459 115.084 8.76562 115.322 9.19118 115.477H9.19119Z" stroke="#3F3D56" stroke-miterlimit="10"/>
<path d="M5.44013 121.85C5.57687 122.632 5.977 123.343 6.5734 123.864C7.1698 124.385 7.92621 124.684 8.71578 124.711C9.50534 124.738 10.28 124.491 10.9099 124.011C11.5398 123.532 11.9867 122.849 12.1754 122.078C12.3642 121.306 12.2835 120.493 11.9468 119.775C11.6101 119.056 11.0379 118.476 10.3261 118.131C9.61441 117.786 8.80643 117.698 8.03771 117.881C7.26899 118.065 6.58627 118.508 6.10406 119.137L7.63909 121.46L5.54166 120.227C5.37903 120.752 5.34421 121.309 5.44013 121.85Z" fill="#E00909"/>
<path d="M5.58124 121.391C5.71799 122.173 6.11811 122.884 6.71451 123.405C7.31092 123.926 8.06732 124.225 8.85689 124.252C9.64645 124.279 10.4211 124.032 11.0511 123.552C11.681 123.073 12.1278 122.39 12.3166 121.619C12.5053 120.848 12.4246 120.034 12.0879 119.316C11.7512 118.597 11.179 118.017 10.4673 117.672C9.75553 117.327 8.94755 117.239 8.17883 117.422C7.4101 117.606 6.72738 118.049 6.24517 118.678L7.7802 121.001L5.68277 119.768C5.52015 120.293 5.48533 120.85 5.58124 121.391V121.391Z" stroke="#3F3D56" stroke-miterlimit="10"/>
<path d="M2.0835 130.833C2.0835 130.833 5.12378 129.635 6.04004 128.979C6.95631 128.323 10.7168 127.539 10.9441 128.592C11.1714 129.644 15.513 133.824 12.0806 133.852C8.64811 133.88 4.10506 134.418 3.19056 133.858C2.27607 133.298 2.0835 130.833 2.0835 130.833Z" fill="#656380"/>
<path opacity="0.2" d="M12.1418 133.485C8.70937 133.513 4.16631 134.051 3.25182 133.491C2.55537 133.065 2.27785 131.534 2.18499 130.828C2.12068 130.831 2.0835 130.832 2.0835 130.832C2.0835 130.832 2.27606 133.298 3.19056 133.858C4.10506 134.418 8.64811 133.879 12.0806 133.851C13.0714 133.843 13.4136 133.489 13.3948 132.964C13.2572 133.281 12.8793 133.479 12.1418 133.485Z" fill="black"/>
<path d="M8.85693 133.715H53.8847" stroke="#3F3D56" stroke-miterlimit="10"/>
</g>
<defs>
<linearGradient id="paint0_linear" x1="36.2826" y1="128.054" x2="36.2826" y2="127.979" gradientUnits="userSpaceOnUse">
<stop stop-color="#808080" stop-opacity="0.25"/>
<stop offset="0.53514" stop-color="#808080" stop-opacity="0.12"/>
<stop offset="1" stop-color="#808080" stop-opacity="0.1"/>
</linearGradient>
<clipPath id="clip0">
<rect width="161.815" height="133.482" fill="white" transform="translate(0.445312 0.629883)"/>
</clipPath>
</defs>
</svg>
