<svg width="16" height="16" viewBox="0 0 16 16" fill="none" xmlns="http://www.w3.org/2000/svg">
<path d="M7.99973 0C-0.000427723 0 2.3642e-06 -0.000319004 2.97659e-09 7.99984C-2.35824e-06 16 -0.000425816 16 7.99973 16C15.9999 16 15.9999 16 15.9999 7.99984C15.9999 -0.000319004 15.9999 0 7.99973 0ZM11.8027 5.75707L11.0429 6.51691L9.49616 4.97029L8.90939 5.55707L10.4561 7.10379L6.6624 10.8972L5.11579 9.35072L4.52901 9.93749L6.07563 11.4841L5.6976 11.8621L5.6904 11.8549C5.64848 11.9239 5.58032 11.9743 5.49936 11.9923L4.05707 12.3139C4.03547 12.3187 4.01349 12.3211 3.99179 12.3211C3.91307 12.3211 3.83659 12.2901 3.77989 12.2332C3.70715 12.1607 3.67685 12.0561 3.69925 11.9557L4.02069 10.5139C4.03883 10.433 4.08928 10.3646 4.15819 10.3228L4.15088 10.3155L10.2559 4.21019C10.3454 4.12085 10.4908 4.12085 10.5803 4.21045L11.8028 5.43269C11.8923 5.52219 11.8923 5.66757 11.8027 5.75707Z" fill="white"/>
</svg>
