<svg width="60" height="60" viewBox="0 0 100 100" fill="none" xmlns="http://www.w3.org/2000/svg">
<path d="M69.8819 0H59.4657C51.4964 0 45.7722 1.89164 42.2934 5.67365C38.8136 9.45694 37.0752 15.0287 37.0752 22.3914V29.4095C37.0752 31.2642 35.572 32.7673 33.7173 32.7673H30.1176C28.2629 32.7673 26.7598 34.2705 26.7598 36.1252V46.642C26.7598 48.4967 28.2629 49.9999 30.1176 49.9999H33.7173C35.572 49.9999 37.0752 51.5031 37.0752 53.3578V96.6419C37.0752 98.4966 38.5784 99.9998 40.4331 99.9998H54.4085C56.2632 99.9998 57.7664 98.4965 57.7664 96.6419V53.358C57.7664 51.5031 59.2698 50.0001 61.1243 50.0001H68.1824C70.0373 50.0001 71.6983 48.5048 71.8931 46.6612L73.0078 36.1062C73.2026 34.2618 71.8573 32.7673 70.0024 32.7673H61.1232C59.2685 32.7673 57.7653 31.2642 57.7653 29.4095V24.151C57.7653 22.857 57.8259 21.8553 57.9477 21.1468C58.0685 20.4394 58.3416 19.742 58.767 19.0536C59.1911 18.3665 59.8795 17.8908 60.8298 17.6276C61.78 17.3646 63.0448 17.2326 64.6219 17.2326H69.8804C71.7351 17.2326 73.2381 15.7294 73.2381 13.8747V3.35788C73.2396 1.50318 71.7364 0 69.8819 0Z" fill="black"/>
</svg>
