<svg width="100" height="100" viewBox="0 0 100 100" fill="none" xmlns="http://www.w3.org/2000/svg">
<path d="M56.1104 47.2653L59.2095 38.2367L50.7805 32.2949L42.3516 38.2367L45.4506 47.2653H56.1104Z" fill="black" fill-opacity="0.6"/>
<path d="M79.901 25.0928C79.1426 27.8485 78.3202 30.8392 77.793 32.7534C79.2571 33.7628 81.4543 35.278 83.56 36.7314C83.0679 32.5673 81.7992 28.6382 79.901 25.0928Z" fill="black" fill-opacity="0.6"/>
<path d="M76.0457 61.8398C73.2793 62.0786 70.2512 62.3403 68.3088 62.5082C67.8159 64.3324 67.0583 67.1377 66.3633 69.7157C70.0712 67.7213 73.3556 65.0388 76.0457 61.8398Z" fill="black" fill-opacity="0.6"/>
<path d="M83.6245 43.9013C80.6475 41.8406 75.96 38.6088 73.8466 37.1523L64.9584 39.5335L61.5 49.6089L67.3037 56.7134C70.3097 56.454 76.9442 55.881 80.189 55.601C82.017 52.0266 83.211 48.0769 83.6245 43.9013Z" fill="black" fill-opacity="0.6"/>
<path d="M53.7109 27.1923L63.2614 33.9237L72.0398 31.5716C72.8729 28.5435 74.6529 22.0768 75.544 18.8267C72.5578 15.4385 68.8896 12.6667 64.7553 10.7266L53.7109 18.5116V27.1923Z" fill="black" fill-opacity="0.6"/>
<path d="M42.0617 72.4617C44.8411 73.2231 47.7647 73.6328 50.7821 73.6328C53.8209 73.6328 56.7651 73.2178 59.5612 72.4457C60.4089 69.2917 62.0461 63.2301 62.7961 60.4538L56.8086 53.125H44.7328L38.7734 60.276C39.5387 63.1096 41.2164 69.3214 42.0617 72.4617Z" fill="black" fill-opacity="0.6"/>
<path d="M25.3398 61.6299C28.0773 64.9403 31.4479 67.7075 35.2626 69.7491C34.5485 67.1017 33.7612 64.188 33.2553 62.3135C31.2732 62.1418 28.1597 61.8733 25.3398 61.6299Z" fill="black" fill-opacity="0.6"/>
<path d="M34.2733 56.52L40.0511 49.5864L36.5965 39.5225L28.076 37.1719C25.8345 38.7176 20.7861 42.2004 17.9609 44.1551C18.3882 48.1582 19.5349 51.9492 21.2683 55.3977C24.5298 55.6785 31.2552 56.2591 34.2733 56.52Z" fill="black" fill-opacity="0.6"/>
<path d="M38.3091 33.9169L47.8496 27.1923V18.5116L36.8053 10.7266C32.809 12.6019 29.2469 15.2538 26.3164 18.4887C27.2014 21.7114 29.0683 28.5031 29.9205 31.6036L38.3091 33.9169Z" fill="black" fill-opacity="0.6"/>
<path d="M21.9238 24.6152C19.8341 28.3666 18.4547 32.5651 17.9688 37.0283C20.1828 35.5001 22.5914 33.8376 24.1615 32.755C23.6053 30.734 22.7188 27.5091 21.9238 24.6152Z" fill="black" fill-opacity="0.6"/>
<path d="M57.8944 8.39233C55.6018 7.88651 53.2214 7.61719 50.7792 7.61719C48.3371 7.61719 45.9567 7.88651 43.6641 8.39233L50.7792 13.4079L57.8944 8.39233Z" fill="black" fill-opacity="0.6"/>
<path d="M76.828 69.4482C69.931 75.6868 60.7925 79.4923 50.7812 79.4923C50.5203 79.4923 50.2602 79.4878 50 79.4824V79.4923H0V92.383H100L76.828 69.4482Z" fill="black" fill-opacity="0.6"/>
</svg>
