<svg width="160" height="130" viewBox="0 0 160 130" fill="none" xmlns="http://www.w3.org/2000/svg">
<path opacity="0.18" d="M9.94736 60.6914C4.88087 66.5194 -0.483629 73.1722 0.0348146 80.761C0.447707 86.7774 4.57353 92.1898 4.51144 98.2089C4.44934 104.228 0.165202 109.87 1.09654 115.851C2.13343 122.638 9.44439 126.836 16.3705 128.448C30.9924 131.851 46.2322 128.149 61.2268 127.013C72.7378 126.143 84.3082 126.807 95.8319 127.47L128.209 129.324C132.555 129.575 137.056 129.806 141.12 128.305C144.845 126.932 147.853 124.226 150.433 121.323C156.087 114.995 160.33 106.757 159.004 98.5106C156.866 85.2165 141.328 76.342 140.437 62.928C140.145 58.5383 141.415 53.7004 138.928 50.0136C137.95 48.5633 136.488 47.4839 134.97 46.5659C125.507 40.8547 113.661 40.7172 102.494 40.759L47.831 40.9564C41.799 40.9773 31.6444 39.0606 26.345 42.0149C23.6628 43.507 9.94736 57.8598 9.94736 60.6914Z" fill="#3F3D56"/>
<path opacity="0.1" d="M147.903 102.404C148.136 104.931 147.559 107.087 146.587 108.256C145.615 109.425 144.163 110.154 142.66 110.543C141.157 110.932 136.28 112.11 134.728 112.194C136.237 111.742 142.042 110.052 142.8 108.716C143.116 108.102 143.393 107.469 143.632 106.823C144.144 105.582 144.815 99.7751 145.805 98.8215C146.957 97.7214 147.792 101.178 147.903 102.404Z" fill="url(#paint0_linear)"/>
<path opacity="0.1" d="M83.1064 109.412C69.2503 108.204 55.3355 107.741 41.426 108.025C37.4772 108.108 32.8453 107.938 30.5791 104.822C33.1092 102.924 36.549 102.73 39.7527 102.625C71.2413 101.542 100.448 100.624 131.937 99.5415C130.493 98.5343 131.937 96.0734 131.645 94.3777C134.749 93.4628 141.318 94.8833 143.358 96.9613C141.448 95.6424 137.375 95.1673 135.637 95.8518C133.898 96.537 132.489 98.0437 133.436 99.6018C133.715 100.062 134.166 100.454 134.24 100.983C134.364 101.865 133.405 102.505 132.551 102.846C125.029 105.836 115.883 102.974 108.615 106.512C108.18 106.691 107.8 106.973 107.511 107.334C106.43 108.916 108.963 110.468 110.901 110.782C117.831 111.912 124.84 112.534 131.868 112.642L108.06 113.706C108.74 114.489 108.395 115.757 107.604 116.436C106.812 117.115 105.722 117.333 104.68 117.513C95.8687 118.963 83.3888 118.386 76.0063 112.728C78.2509 111.46 80.7408 110.483 83.1064 109.412Z" fill="url(#paint1_linear)"/>
<path d="M25.9067 33.4209L22.4918 37.1706C21.8958 37.8224 21.2501 38.5939 21.3866 39.455C21.4985 39.9405 21.7478 40.3865 22.1069 40.7438C22.7525 41.486 23.4895 42.1497 24.3017 42.7203C25.4504 39.7062 26.3382 36.6114 25.9067 33.4209Z" fill="black"/>
<path d="M25.9478 33.4062L22.5329 37.156C21.9368 37.8078 21.2911 38.5822 21.4277 39.4404C21.5351 39.9242 21.779 40.3701 22.1324 40.7291C22.7792 41.4704 23.5173 42.1331 24.3303 42.7027C25.5038 39.6916 26.3793 36.5997 25.9478 33.4062Z" fill="url(#paint2_linear)"/>
<path d="M132.049 0H29.2573V99.2612H132.049V0Z" fill="#FDBE68"/>
<path d="M132.049 0H29.2573V99.2612H132.049V0Z" fill="white"/>
<path d="M31.5617 26.7432L12.915 115.257L13.554 115.382L32.2006 26.868L31.5617 26.7432Z" fill="#3F3D56"/>
<path d="M41.5234 26.9561L22.7124 115.694L23.3512 115.819L42.1622 27.0817L41.5234 26.9561Z" fill="#3F3D56"/>
<path d="M40.5371 32.5205H30.5718V33.1484H40.5371V32.5205Z" fill="#3F3D56"/>
<path d="M38.9614 40.0146H28.9961V40.6426H38.9614V40.0146Z" fill="#3F3D56"/>
<path d="M37.393 47.5049H27.4277V48.1328H37.393V47.5049Z" fill="#3F3D56"/>
<path d="M35.8178 54.998H25.8525V55.6259H35.8178V54.998Z" fill="#3F3D56"/>
<path d="M34.2456 62.4912H24.2803V63.1189H34.2456V62.4912Z" fill="#3F3D56"/>
<path d="M32.6699 69.9844H22.7046V70.6126H32.6699V69.9844Z" fill="#3F3D56"/>
<path d="M31.0981 77.4775H21.1328V78.1057H31.0981V77.4775Z" fill="#3F3D56"/>
<path d="M29.5263 84.9707H19.561V85.5989H29.5263V84.9707Z" fill="#3F3D56"/>
<path d="M27.9468 92.4648H17.9814V93.0925H27.9468V92.4648Z" fill="#3F3D56"/>
<path d="M26.3788 99.958H16.4136V100.586H26.3788V99.958Z" fill="#3F3D56"/>
<path d="M24.8032 107.448H14.8379V108.076H24.8032V107.448Z" fill="#3F3D56"/>
<path opacity="0.1" d="M43.0976 99.1775L42.2842 27.9701L41.6043 27.8445L41.6664 33.2657H39.8503C39.8224 32.3327 39.6889 31.4297 39.3474 30.8197C38.3881 29.1004 37.1743 30.8197 36.8266 31.9709C36.6714 32.4733 36.4292 33.0025 35.9604 33.2567H34.1288C33.9143 33.2149 33.6957 33.1948 33.4769 33.1969C33.3418 33.2036 33.2078 33.2227 33.0764 33.2537H32.1451L32.0736 27.7369L31.3938 27.6143L31.4807 34.4498C31.4342 34.5215 31.3876 34.5963 31.3472 34.674C30.9313 35.4604 30.8257 36.3575 30.7263 37.2366C29.8571 46.0366 30.3165 54.8994 30.7791 63.7264C30.8598 65.2541 30.9436 66.8094 31.4869 68.2476C31.6034 68.5581 31.7478 68.8582 31.9184 69.1444L32.3096 99.2012L43.0976 99.1775ZM42.4177 99.0311L33.0019 99.0101L32.9181 92.3152L42.3401 92.3362L42.4177 99.0311ZM42.3339 91.7229L32.9026 91.7019L32.8156 85.0071L42.2501 85.0309L42.3339 91.7229ZM42.2501 84.4181L32.8156 84.3855L32.7287 77.6901L42.1725 77.7144L42.2501 84.4181ZM42.1662 77.11L32.7194 77.0862L32.6325 70.3914H33.2534C33.3399 70.4361 33.4291 70.4759 33.5203 70.5107C33.7884 70.5997 34.0724 70.635 34.355 70.6157C34.6378 70.5958 34.9135 70.5218 35.1657 70.3975H42.0948L42.1662 77.11ZM42.0825 69.8024H35.8487C35.9365 69.6593 35.9935 69.5007 36.0163 69.3361C36.1033 68.7106 35.7431 68.125 35.4979 67.5415C34.9112 66.1425 34.9701 64.5994 35.3178 63.1076L42.0079 63.1225L42.0825 69.8024ZM41.9986 62.4943H35.4793C35.591 62.1025 35.7214 61.7169 35.8611 61.3401C36.5565 59.4925 37.5002 57.7161 37.9597 55.8083H41.9241L41.9986 62.4943ZM41.9055 55.1865H38.0839C38.4751 52.9887 38.1677 50.7012 38.3136 48.4915H41.831L41.9055 55.1865ZM41.8216 47.8785H38.3695C38.4257 47.3442 38.5222 46.8145 38.6582 46.2937C38.8631 45.5402 39.1674 44.7987 39.2947 44.0362C39.397 43.0877 39.3783 42.1307 39.2388 41.1865H41.7471L41.8216 47.8785ZM41.6633 33.8786L41.741 40.5736H39.1891C39.1638 40.2512 39.1554 39.9279 39.1642 39.6048C39.2077 38.4506 39.5399 37.3233 39.6796 36.1751C39.7769 35.4139 39.8329 34.6484 39.8472 33.8816L41.6633 33.8786Z" fill="url(#paint3_linear)"/>
<g opacity="0.74">
<path opacity="0.74" d="M60.7292 4.12598H40.625V6.14731H60.7292V4.12598Z" fill="#E00909"/>
<path opacity="0.74" d="M52.8969 8.04004H40.625V9.94174H52.8969V8.04004Z" fill="#E00909"/>
<path opacity="0.54" d="M96.4579 8.04004H57.8413V9.95373H96.4579V8.04004Z" fill="#E00909"/>
<path opacity="0.74" d="M121.815 8.04004H100.077V9.95373H121.815V8.04004Z" fill="#E00909"/>
<path opacity="0.74" d="M63.8784 11.9541H47.0059V13.9605H63.8784V11.9541Z" fill="#E00909"/>
<path opacity="0.48" d="M57.9586 26.998H47.0059V29.2556H57.9586V26.998Z" fill="#E00909"/>
<path opacity="0.74" d="M81.8786 33.8994H77.2529V36.148H81.8786V33.8994Z" fill="#E00909"/>
<path opacity="0.74" d="M57.9586 30.3643H47.0059V32.6218H57.9586V30.3643Z" fill="#E00909"/>
<path opacity="0.74" d="M57.9586 71.1113H47.0059V73.3689H57.9586V71.1113Z" fill="#E00909"/>
<path opacity="0.74" d="M64.1938 52.4648H53.2412V54.7224H64.1938V52.4648Z" fill="#E00909"/>
<path opacity="0.48" d="M64.1938 56.1699H53.2412V58.4275H64.1938V56.1699Z" fill="#E00909"/>
<path opacity="0.74" d="M64.1938 63.2412H53.2412V65.4988H64.1938V63.2412Z" fill="#E00909"/>
<path opacity="0.74" d="M64.1938 66.9463H53.2412V69.2033H64.1938V66.9463Z" fill="#E00909"/>
<path opacity="0.74" d="M77.8326 56.1699H66.8804V58.4275H77.8326V56.1699Z" fill="#E00909"/>
<path opacity="0.48" d="M77.8326 66.832H66.8804V69.0896H77.8326V66.832Z" fill="#E00909"/>
<path opacity="0.74" d="M97.0708 71.1113H61.5151V73.3689H97.0708V71.1113Z" fill="#E00909"/>
<path opacity="0.74" d="M72.5283 15.8682H52.4238V17.8895H72.5283V15.8682Z" fill="#E00909"/>
<path opacity="0.52" d="M90.6918 15.8682H73.8403V18.1138H90.6918V15.8682Z" fill="#E00909"/>
<path opacity="0.74" d="M67.9227 19.7852H52.3975V21.6869H67.9227V19.7852Z" fill="#E00909"/>
<path opacity="0.48" d="M75.0971 34.1533H52.3975V35.9265H75.0971V34.1533Z" fill="#E00909"/>
<path opacity="0.74" d="M128.293 19.7852H112.768V21.6869H128.293V19.7852Z" fill="#E00909"/>
<path opacity="0.74" d="M101.454 19.7852H69.416V21.8932H101.454V19.7852Z" fill="#E00909"/>
<path opacity="0.74" d="M111.556 19.7852H104.494V21.9291H111.556V19.7852Z" fill="#E00909"/>
<path opacity="0.48" d="M87.344 23.6992H52.3379V25.586H87.344V23.6992Z" fill="#E00909"/>
<path opacity="0.74" d="M75.4257 75.0557H52.3379V77.0259H75.4257V75.0557Z" fill="#E00909"/>
<path opacity="0.74" d="M78.6473 38.4316H58.543V40.453H78.6473V38.4316Z" fill="#E00909"/>
<path opacity="0.48" d="M78.6473 48.6465H58.543V50.6678H78.6473V48.6465Z" fill="#E00909"/>
<path opacity="0.74" d="M70.7526 89.3965H58.543V91.3518H70.7526V89.3965Z" fill="#E00909"/>
<path opacity="0.74" d="M61.3098 93.1846H53.0396V94.9907H61.3098V93.1846Z" fill="#E00909"/>
<path opacity="0.74" d="M70.939 78.2812H58.543V80.3024H70.939V78.2812Z" fill="#E00909"/>
<path opacity="0.74" d="M85.8892 78.2812H73.4932V80.3024H85.8892V78.2812Z" fill="#E00909"/>
<path opacity="0.74" d="M76.6221 81.9863H64.2261V84.008H76.6221V81.9863Z" fill="#E00909"/>
<path opacity="0.74" d="M91.568 81.9863H79.1719V84.008H91.568V81.9863Z" fill="#E00909"/>
<path opacity="0.74" d="M81.2323 85.7754H64.2261V87.7971H81.2323V85.7754Z" fill="#E00909"/>
<path opacity="0.74" d="M88.4364 85.7754H83.895V87.7971H88.4364V85.7754Z" fill="#E00909"/>
<path opacity="0.74" d="M68.5984 59.7607H58.543V61.6923H68.5984V59.7607Z" fill="#E00909"/>
<path opacity="0.74" d="M78.6539 45.0547H64.6592V46.8548H78.6539V45.0547Z" fill="#E00909"/>
<path opacity="0.74" d="M96.3668 45.0547H82.3721V46.8548H96.3668V45.0547Z" fill="#E00909"/>
<path opacity="0.74" d="M96.3668 55.9453H82.3721V57.7454H96.3668V55.9453Z" fill="#E00909"/>
<path opacity="0.74" d="M113.15 45.0547H99.1548V46.8548H113.15V45.0547Z" fill="#E00909"/>
<path opacity="0.74" d="M113.146 85.8594H90.0859V87.6595H113.146V85.8594Z" fill="#E00909"/>
<path opacity="0.48" d="M102.424 38.4316H82.3193V40.453H102.424V38.4316Z" fill="#E00909"/>
<path opacity="0.74" d="M85.1741 41.4639H65.0698V43.4852H85.1741V41.4639Z" fill="#E00909"/>
<path opacity="0.48" d="M108.954 41.4639H88.8496V43.4852H108.954V41.4639Z" fill="#E00909"/>
<path opacity="0.74" d="M125.065 38.4316H104.961V40.453H125.065V38.4316Z" fill="#E00909"/>
</g>
<path d="M37.5806 26.0776C37.5208 25.9021 37.4945 25.7178 37.503 25.5333C37.5155 25.4541 37.5155 25.3734 37.503 25.2942C37.4572 25.1825 37.3886 25.0808 37.3012 24.9951C37.2029 24.8683 37.1385 24.7202 37.1136 24.5638C37.0887 24.4074 37.1041 24.2474 37.1584 24.0981C37.3726 24.0562 37.4471 23.8947 37.5216 23.7004C37.5741 23.4985 37.6611 23.3065 37.7793 23.1323C37.7921 23.1135 37.8091 23.0976 37.8289 23.0857C37.8487 23.0739 37.871 23.0663 37.8942 23.0635C37.9194 23.0659 37.9436 23.0746 37.9643 23.0888C37.985 23.1029 38.0014 23.122 38.0122 23.1442C38.1022 23.3176 37.9842 23.5539 38.1053 23.7064C38.1767 23.7901 38.3009 23.817 38.3878 23.8828C38.5741 24.0173 38.5834 24.2924 38.7479 24.4449C38.7868 24.4739 38.8222 24.507 38.8534 24.5436C38.8877 24.6038 38.9008 24.673 38.8907 24.741C38.872 25.0072 38.7763 25.263 38.6144 25.4795C38.4571 25.6312 38.3437 25.8199 38.2853 26.0267C38.2864 26.0913 38.2781 26.1557 38.2605 26.2181C38.2321 26.2707 38.1857 26.3123 38.1291 26.3357C38.0725 26.3591 38.0093 26.363 37.9501 26.3467C37.8352 26.3198 37.6769 26.1344 37.5806 26.0776Z" fill="url(#paint4_linear)"/>
<path d="M31.5249 33.3011C31.4383 33.1863 31.3336 33.0854 31.2144 33.002C31.0199 32.882 30.7896 32.8273 30.5594 32.8466C30.3316 32.8678 30.1055 32.9038 29.8826 32.9542C28.9079 33.1276 27.9082 32.9093 26.9179 32.9542C25.8065 33.017 25.3905 34.1503 25.1949 34.6048C24.8124 35.4809 24.5676 36.407 24.4685 37.3527C24.4219 37.8013 24.4095 38.2497 24.3971 38.7042C24.3412 40.5372 24.2139 42.3522 24.2884 44.1852L24.4126 47.1933C24.3987 47.374 24.4479 47.5539 24.5523 47.7046C24.6668 47.8141 24.8128 47.8881 24.9714 47.9169C26.7254 48.4043 28.5756 48.4162 30.4011 48.4162C31.3324 48.4162 32.3941 48.3624 33.0088 47.6866C33.6856 46.9391 33.5087 45.8118 33.3658 44.8311C32.8412 41.0694 33.9029 36.3271 31.5249 33.3011Z" fill="#FDBE68"/>
<path d="M31.5249 33.3011C31.4383 33.1863 31.3336 33.0854 31.2144 33.002C31.0199 32.882 30.7896 32.8273 30.5594 32.8466C30.3316 32.8678 30.1055 32.9038 29.8826 32.9542C28.9079 33.1276 27.9082 32.9093 26.9179 32.9542C25.8065 33.017 25.3905 34.1503 25.1949 34.6048C24.8124 35.4809 24.5676 36.407 24.4685 37.3527C24.4219 37.8013 24.4095 38.2497 24.3971 38.7042C24.3412 40.5372 24.2139 42.3522 24.2884 44.1852L24.4126 47.1933C24.3987 47.374 24.4479 47.5539 24.5523 47.7046C24.6668 47.8141 24.8128 47.8881 24.9714 47.9169C26.7254 48.4043 28.5756 48.4162 30.4011 48.4162C31.3324 48.4162 32.3941 48.3624 33.0088 47.6866C33.6856 46.9391 33.5087 45.8118 33.3658 44.8311C32.8412 41.0694 33.9029 36.3271 31.5249 33.3011Z" fill="url(#paint5_linear)"/>
<path d="M30.301 31.9258C30.5296 31.7691 30.7185 31.5646 30.8535 31.3277C30.9426 31.0999 30.9735 30.8548 30.9436 30.6131C30.926 30.2296 30.8199 29.8548 30.6331 29.5157C30.5387 29.3468 30.4088 29.1986 30.2516 29.0807C30.0945 28.9628 29.9136 28.8778 29.7204 28.831C29.0995 28.7083 28.46 29.13 28.1682 29.6622C27.9018 30.2244 27.7753 30.8387 27.7988 31.4563C27.777 32.2307 27.1592 33.4148 27.9136 33.687C28.786 34.0009 29.4659 33.0889 29.6118 32.6882C29.7583 32.3741 29.9981 32.1088 30.301 31.9258Z" fill="url(#paint6_linear)"/>
<path d="M30.5802 27.961C30.5767 28.2263 30.4961 28.4853 30.3473 28.7086C30.2178 28.953 30.0617 29.1835 29.8817 29.3963C29.7566 29.5153 29.6518 29.6525 29.5713 29.803C29.5041 30.0633 29.5281 30.3376 29.6395 30.5834C29.5061 30.6492 29.3788 30.3561 29.2546 30.4369C29.2317 30.4568 29.2155 30.4828 29.208 30.5117C29.1778 30.6042 29.1743 30.7028 29.1979 30.7971C29.2213 30.8913 29.271 30.9777 29.3415 31.0469C29.3828 31.0786 29.4167 31.1183 29.4408 31.1635C29.4781 31.2562 29.3974 31.3519 29.3601 31.4446C29.267 31.6719 29.4315 31.9499 29.3073 32.1622C29.2439 32.2402 29.1613 32.3018 29.0671 32.3415C28.9727 32.3812 28.8697 32.3976 28.7672 32.3895C28.4039 32.4134 28.0407 32.4223 27.6775 32.4134C27.6035 32.4181 27.5296 32.4036 27.4633 32.3715C27.4163 32.335 27.3775 32.2896 27.3492 32.2382C27.321 32.1869 27.3038 32.1305 27.2988 32.0725C27.087 31.2114 26.9828 30.3291 26.9883 29.4442C26.9659 29.183 27.0288 28.9216 27.1684 28.6966C27.277 28.5561 27.4354 28.4634 27.5502 28.3348C27.6651 28.2062 27.7768 27.961 27.9289 27.7996C28.1567 27.5994 28.4369 27.4629 28.7392 27.4049C29.3384 27.2524 30.5119 27.0341 30.5802 27.961Z" fill="#3F3D56"/>
<path d="M24.3537 55.2097C24.41 55.6623 24.4215 56.1187 24.3879 56.5734C24.334 56.9375 24.2489 57.2961 24.1333 57.6469C23.7444 59.0674 23.2505 60.4592 22.6556 61.8118C22.2272 62.7091 21.7025 63.6058 21.361 64.539C21.007 65.6451 20.7791 66.785 20.6812 67.9386C20.9817 67.8624 21.2492 67.6961 21.4448 67.4635C24.1983 64.7838 26.5147 61.7179 28.315 58.3702C28.7239 57.6635 29.0369 56.9088 29.2463 56.1247C29.3767 55.4595 29.4422 54.7836 29.4419 54.1063C29.5217 52.6464 29.4989 51.1828 29.3736 49.7258C29.3177 49.2175 29.1935 48.6463 28.7527 48.3772C28.5287 48.2619 28.2802 48.1975 28.0263 48.1888C27.1788 48.1141 26.3126 48.1888 25.4775 48.0094C25.1671 47.9496 24.6859 47.6626 24.4561 47.854C24.2265 48.0453 24.3537 48.9842 24.3413 49.2414C24.2177 51.2292 24.2219 53.2224 24.3537 55.2097Z" fill="#3F3D56"/>
<path d="M24.3537 55.2097C24.41 55.6623 24.4215 56.1187 24.3879 56.5734C24.334 56.9375 24.2489 57.2961 24.1333 57.6469C23.7444 59.0674 23.2505 60.4592 22.6556 61.8118C22.2272 62.7091 21.7025 63.6058 21.361 64.539C21.007 65.6451 20.7791 66.785 20.6812 67.9386C20.9817 67.8624 21.2492 67.6961 21.4448 67.4635C24.1983 64.7838 26.5147 61.7179 28.315 58.3702C28.7239 57.6635 29.0369 56.9088 29.2463 56.1247C29.3767 55.4595 29.4422 54.7836 29.4419 54.1063C29.5217 52.6464 29.4989 51.1828 29.3736 49.7258C29.3177 49.2175 29.1935 48.6463 28.7527 48.3772C28.5287 48.2619 28.2802 48.1975 28.0263 48.1888C27.1788 48.1141 26.3126 48.1888 25.4775 48.0094C25.1671 47.9496 24.6859 47.6626 24.4561 47.854C24.2265 48.0453 24.3537 48.9842 24.3413 49.2414C24.2177 51.2292 24.2219 53.2224 24.3537 55.2097Z" fill="url(#paint7_linear)"/>
<path d="M30.8 59.4323C30.8734 60.5777 30.8067 61.728 30.6013 62.859L29.7973 68.6654C29.8396 68.7367 29.8967 68.7991 29.965 68.8483C30.0333 68.8975 30.1114 68.9323 30.1944 68.951C30.2774 68.9698 30.3636 68.972 30.4475 68.9577C30.5314 68.9428 30.6112 68.9118 30.6821 68.866C30.9607 68.6704 31.176 68.403 31.303 68.0947C32.523 65.7862 33.7586 63.4331 34.2118 60.8821C34.4027 59.6837 34.4806 58.4704 34.4446 57.2582C34.4058 54.2126 34.0438 51.1788 33.3643 48.204C33.3496 48.0616 33.2824 47.929 33.1749 47.8302C33.0357 47.7597 32.8745 47.7406 32.7217 47.7764L29.9556 48.1114C29.2944 48.1921 26.0688 48.0964 26.0688 48.0964C26.0688 48.0964 27.1895 50.7516 27.5093 51.5739C28.481 54.0737 30.8 56.6692 30.8 59.4323Z" fill="#3F3D56"/>
<path d="M20.0544 68.3902C20.1052 68.5057 20.1828 68.6079 20.281 68.6897C20.8987 69.2732 21.6918 69.6538 22.5473 69.7782C22.6596 69.8096 22.7785 69.8124 22.8923 69.7859C23.006 69.7599 23.1107 69.7052 23.1961 69.6284C23.2563 69.535 23.2815 69.4251 23.2674 69.3163C23.2532 69.2074 23.2007 69.1063 23.1185 69.0306C22.9582 68.882 22.7695 68.7654 22.5628 68.6864C22.3598 68.6101 22.1749 68.4947 22.0192 68.3477C21.8635 68.2007 21.7401 68.025 21.6563 67.8311C21.2123 66.4078 19.6726 67.2211 20.0544 68.3902Z" fill="url(#paint8_linear)"/>
<path d="M29.5035 69.9396C29.659 70.1811 29.894 70.365 30.171 70.4628C30.8415 70.7617 31.5959 71.0192 32.3223 70.8573C32.5345 70.8231 32.7271 70.717 32.8657 70.5584C32.9322 70.4783 32.9669 70.3783 32.9634 70.2755C32.96 70.1733 32.9188 70.075 32.847 69.9993C32.6794 69.8529 32.4155 69.8976 32.1889 69.8739C32.0578 69.8584 31.9315 69.8164 31.8186 69.7501C31.7057 69.6843 31.6086 69.5959 31.5338 69.491C31.45 69.3716 31.3973 69.234 31.3196 69.1114C30.6522 68.029 28.9292 68.8003 29.5035 69.9396Z" fill="url(#paint9_linear)"/>
<path d="M20.0008 67.4278C20.0617 67.362 20.1388 67.3117 20.2252 67.2824C20.3115 67.2532 20.4042 67.2454 20.4945 67.2603C20.7552 67.32 20.8919 67.6162 21.1402 67.7178C21.2519 67.7626 21.3761 67.7653 21.491 67.8046C21.7053 67.904 21.8957 68.0455 22.0498 68.2201C22.4906 68.609 23.127 68.8179 23.4188 69.3113C23.4551 69.3605 23.4779 69.4174 23.4849 69.477C23.492 69.5367 23.4832 69.5969 23.4592 69.6522C23.4307 69.6898 23.3945 69.7207 23.3528 69.7439C23.3111 69.7671 23.2649 69.782 23.2171 69.787C22.8849 69.8494 22.4471 69.9632 22.1336 69.8378C21.5918 69.6328 21.0666 69.3892 20.5627 69.108C20.2864 68.9466 20.0878 68.5101 19.8891 68.2499C19.6469 67.9388 19.7245 67.7029 20.0008 67.4278Z" fill="#3F3D56"/>
<path d="M29.5487 69.0216C29.4649 68.989 29.3625 68.947 29.2973 69.0067C29.2825 69.0205 29.2709 69.0365 29.2631 69.0547C29.1869 69.2415 29.1732 69.4465 29.2239 69.641C29.2745 69.8354 29.387 70.01 29.5457 70.1399C29.8661 70.3979 30.2306 70.6001 30.6229 70.7383C31.0137 70.9344 31.432 71.0753 31.8647 71.1565C32.0799 71.1957 32.302 71.177 32.5071 71.1035C32.7122 71.0294 32.8926 70.9035 33.0288 70.7383C33.1202 70.6139 33.1591 70.4614 33.1375 70.3106C33.0723 69.9819 32.6842 69.8382 32.3614 69.7122C31.9516 69.557 31.5946 69.273 31.1724 69.1476C30.6322 68.9768 30.0548 69.2222 29.5487 69.0216Z" fill="#3F3D56"/>
<path d="M31.5006 33.1103L33.9407 31.9411C34.2481 31.808 34.5387 31.6414 34.8069 31.4447C36.2566 30.3085 36.1759 28.2094 36.9272 26.5618C36.9645 26.4512 37.0402 26.3562 37.1414 26.2928C37.2304 26.2642 37.3255 26.2581 37.4177 26.2748L38.4018 26.3885L37.6164 31.9531C37.5737 32.3606 37.482 32.762 37.3432 33.1492C37.2219 33.4222 37.0721 33.6827 36.8962 33.9266C35.9529 35.2897 34.7537 36.4711 33.3602 37.4101C33.2146 37.5236 33.0451 37.6052 32.8635 37.6493C32.6495 37.6815 32.4305 37.6424 32.2426 37.5387C31.5689 37.2008 31.2895 36.4174 31.1591 35.6967C30.9584 34.8226 31.0791 33.9083 31.5006 33.1103Z" fill="#FDBE68"/>
<path d="M31.5006 33.1103L33.9407 31.9411C34.2481 31.808 34.5387 31.6414 34.8069 31.4447C36.2566 30.3085 36.1759 28.2094 36.9272 26.5618C36.9645 26.4512 37.0402 26.3562 37.1414 26.2928C37.2304 26.2642 37.3255 26.2581 37.4177 26.2748L38.4018 26.3885L37.6164 31.9531C37.5737 32.3606 37.482 32.762 37.3432 33.1492C37.2219 33.4222 37.0721 33.6827 36.8962 33.9266C35.9529 35.2897 34.7537 36.4711 33.3602 37.4101C33.2146 37.5236 33.0451 37.6052 32.8635 37.6493C32.6495 37.6815 32.4305 37.6424 32.2426 37.5387C31.5689 37.2008 31.2895 36.4174 31.1591 35.6967C30.9584 34.8226 31.0791 33.9083 31.5006 33.1103Z" fill="url(#paint10_linear)"/>
<path d="M132.049 99.2607H29.2573V104.816H132.049V99.2607Z" fill="#FDBE68"/>
<path d="M132.049 100.271H29.2573V104.816H132.049V100.271Z" fill="url(#paint11_linear)"/>
<path d="M146.953 102.753C146.499 104.787 145.261 106.97 142.97 108.823C138.766 112.226 133.33 113.108 129.509 113.252C129.037 113.27 128.578 113.279 128.099 113.279C124.684 113.279 121.269 112.845 117.967 112.424L115.625 112.125C111.667 111.649 107.107 111.257 103.083 112.624L102.73 111.655L102.36 110.651C106.827 109.131 111.689 109.544 115.892 110.052C116.678 110.145 117.463 110.247 118.252 110.351C121.921 110.818 125.718 111.302 129.428 111.164C132.908 111.033 137.844 110.244 141.576 107.224C143.063 106.028 144.37 104.27 144.832 102.409C145.094 101.433 145.067 100.406 144.755 99.4433C144.62 99.0433 144.433 98.6615 144.199 98.3068C143.143 96.7012 141.247 95.6697 139.623 95.2094C137.211 94.5243 134.578 94.611 132.026 94.6978H131.934L131.899 93.7767L131.856 92.6076C134.476 92.5153 137.444 92.4104 140.238 93.206C143.488 94.127 145.95 96.22 146.819 98.8002C147.221 100.084 147.267 101.447 146.953 102.753Z" fill="#3F3D56"/>
<path d="M146.999 101.617C146.813 103.959 145.581 106.65 142.843 108.868C138.639 112.268 133.2 113.153 129.378 113.294C128.909 113.312 128.447 113.321 127.969 113.321C124.554 113.321 121.139 112.887 117.839 112.466L115.495 112.166C111.537 111.691 106.977 111.299 102.956 112.666L102.233 110.692C102.413 110.633 102.593 110.573 102.777 110.519L103.13 111.488C107.166 110.122 111.714 110.513 115.672 110.988L118.013 111.287C121.319 111.709 124.725 112.143 128.146 112.143C128.615 112.143 129.078 112.143 129.555 112.116C133.377 111.972 138.813 111.09 143.016 107.687C145.308 105.833 146.546 103.65 146.999 101.617Z" fill="url(#paint12_linear)"/>
<path d="M94.1199 100.831L108.804 104.061L106.007 116.437L96.2896 120.925L82.9746 115.342L91.9064 111.497L94.1199 100.831Z" fill="#FDBE68"/>
<path d="M94.1199 100.831L108.804 104.061L106.007 116.437L96.2896 120.925L82.9746 115.342L91.9064 111.497L94.1199 100.831Z" fill="url(#paint13_linear)"/>
<path d="M93.1572 100.579L107.841 103.806L105.044 116.182L95.5167 120.646L82.2017 115.061L90.9437 111.242L93.1572 100.579Z" fill="#3F3D56"/>
<path d="M92.8057 111.3L104.171 114.753L106.531 104.733L94.7306 102.293L92.8057 111.3Z" fill="#3F3D56"/>
<path d="M92.8057 111.3L104.171 114.753L106.531 104.733L94.7306 102.293L92.8057 111.3Z" fill="url(#paint14_linear)"/>
<path d="M144.526 98.3639L144.197 98.3043C143.141 96.6986 141.244 95.6671 139.621 95.2063C137.209 94.5217 134.492 94.6085 131.94 94.698L131.913 93.6935C131.913 93.6935 137.501 93.3946 140.81 94.9251C142.909 95.9003 144.526 98.3639 144.526 98.3639Z" fill="url(#paint15_linear)"/>
<defs>
<linearGradient id="paint0_linear" x1="134.719" y1="105.394" x2="147.956" y2="105.394" gradientUnits="userSpaceOnUse">
<stop stop-opacity="0"/>
<stop offset="0.99"/>
</linearGradient>
<linearGradient id="paint1_linear" x1="11479.9" y1="9147.51" x2="52450.1" y2="9147.51" gradientUnits="userSpaceOnUse">
<stop stop-opacity="0"/>
<stop offset="0.99"/>
</linearGradient>
<linearGradient id="paint2_linear" x1="354.568" y1="1444.32" x2="770.452" y2="1381.95" gradientUnits="userSpaceOnUse">
<stop stop-opacity="0"/>
<stop offset="0.99"/>
</linearGradient>
<linearGradient id="paint3_linear" x1="82.3654" y1="-2.18948e+06" x2="71405.7" y2="1.18709e+06" gradientUnits="userSpaceOnUse">
<stop stop-opacity="0"/>
<stop offset="0.99"/>
</linearGradient>
<linearGradient id="paint4_linear" x1="37.0932" y1="24.7021" x2="38.8814" y2="24.7021" gradientUnits="userSpaceOnUse">
<stop stop-color="#ECC4D7"/>
<stop offset="0.42" stop-color="#EFD4D1"/>
<stop offset="1" stop-color="#F2EAC9"/>
</linearGradient>
<linearGradient id="paint5_linear" x1="886.156" y1="2559.49" x2="3156.06" y2="839.89" gradientUnits="userSpaceOnUse">
<stop stop-color="#E00909"/>
<stop offset="0.99"/>
</linearGradient>
<linearGradient id="paint6_linear" x1="340.693" y1="648.433" x2="378.254" y2="648.433" gradientUnits="userSpaceOnUse">
<stop stop-color="#ECC4D7"/>
<stop offset="0.42" stop-color="#EFD4D1"/>
<stop offset="1" stop-color="#F2EAC9"/>
</linearGradient>
<linearGradient id="paint7_linear" x1="797.662" y1="4304.62" x2="894.944" y2="4293.99" gradientUnits="userSpaceOnUse">
<stop stop-opacity="0"/>
<stop offset="0.99"/>
</linearGradient>
<linearGradient id="paint8_linear" x1="240.967" y1="748.532" x2="275.507" y2="748.532" gradientUnits="userSpaceOnUse">
<stop stop-color="#ECC4D7"/>
<stop offset="0.42" stop-color="#EFD4D1"/>
<stop offset="1" stop-color="#F2EAC9"/>
</linearGradient>
<linearGradient id="paint9_linear" x1="378.644" y1="656.914" x2="419.833" y2="656.914" gradientUnits="userSpaceOnUse">
<stop stop-color="#ECC4D7"/>
<stop offset="0.42" stop-color="#EFD4D1"/>
<stop offset="1" stop-color="#F2EAC9"/>
</linearGradient>
<linearGradient id="paint10_linear" x1="930.777" y1="1561.01" x2="-116.392" y2="780.687" gradientUnits="userSpaceOnUse">
<stop stop-opacity="0"/>
<stop offset="0.99"/>
</linearGradient>
<linearGradient id="paint11_linear" x1="26735.6" y1="1768.16" x2="26735.6" y2="1556.04" gradientUnits="userSpaceOnUse">
<stop stop-color="white" stop-opacity="0"/>
<stop offset="0.99" stop-color="white"/>
</linearGradient>
<linearGradient id="paint12_linear" x1="21397.1" y1="3774.39" x2="18898.6" y2="12866.9" gradientUnits="userSpaceOnUse">
<stop stop-opacity="0"/>
<stop offset="0.99"/>
</linearGradient>
<linearGradient id="paint13_linear" x1="8247.82" y1="7583.17" x2="10032.4" y2="9326.33" gradientUnits="userSpaceOnUse">
<stop stop-opacity="0"/>
<stop offset="0.99"/>
</linearGradient>
<linearGradient id="paint14_linear" x1="4647.79" y1="3971.61" x2="4403.9" y2="5209.2" gradientUnits="userSpaceOnUse">
<stop stop-color="white" stop-opacity="0"/>
<stop offset="0.99" stop-color="white"/>
</linearGradient>
<linearGradient id="paint15_linear" x1="5925.86" y1="1649.24" x2="5701.91" y2="2221.7" gradientUnits="userSpaceOnUse">
<stop stop-opacity="0"/>
<stop offset="0.99"/>
</linearGradient>
</defs>
</svg>
