<svg width="54" height="71" viewBox="0 0 54 71" fill="none" xmlns="http://www.w3.org/2000/svg">
<path d="M26.999 34.4359C34.7138 34.4359 40.9684 26.7882 40.9684 17.3543C40.9684 7.92014 38.9149 0.272461 26.999 0.272461C15.0832 0.272461 13.0293 7.92014 13.0293 17.3543C13.0293 26.7882 19.2839 34.4359 26.999 34.4359Z" fill="black"/>
<path d="M0.615871 60.5183C0.613628 59.9431 0.611385 60.3562 0.615871 60.5183V60.5183Z" fill="black"/>
<path d="M53.3848 60.9678C53.3919 60.8103 53.3872 59.8753 53.3848 60.9678V60.9678Z" fill="black"/>
<path d="M53.3553 59.8274C53.0966 43.3932 50.9646 38.7103 34.6499 35.7461C34.6499 35.7461 32.3534 38.6922 27.0006 38.6922C21.6479 38.6922 19.3509 35.7461 19.3509 35.7461C3.2143 38.678 0.952657 43.2914 0.655281 59.2935C0.630896 60.6001 0.619596 60.6688 0.615234 60.5171C0.616226 60.8013 0.617415 61.327 0.617415 62.2437C0.617415 62.2437 4.50154 70.1265 27.0006 70.1265C49.4993 70.1265 53.3838 62.2437 53.3838 62.2437C53.3838 61.6548 53.3842 61.2452 53.3848 60.9666C53.3805 61.0604 53.3717 60.8786 53.3553 59.8274Z" fill="black"/>
</svg>
