<svg width="178" height="135" viewBox="0 0 178 135" fill="none" xmlns="http://www.w3.org/2000/svg">
<path opacity="0.1" d="M158.741 133.599C167.299 133.599 174.236 131.885 174.236 129.771C174.236 127.657 167.299 125.943 158.741 125.943C150.184 125.943 143.247 127.657 143.247 129.771C143.247 131.885 150.184 133.599 158.741 133.599Z" fill="#6C63FF"/>
<path opacity="0.1" d="M21.9682 134.237C30.5257 134.237 37.4627 132.523 37.4627 130.409C37.4627 128.296 30.5257 126.582 21.9682 126.582C13.411 126.582 6.47412 128.296 6.47412 130.409C6.47412 132.523 13.411 134.237 21.9682 134.237Z" fill="#6C63FF"/>
<path d="M106.271 36.7208C106.271 36.7208 104.093 35.837 97.1685 39.0146C90.244 42.1923 89.3739 41.7867 87.5847 41.3005C85.7956 40.8144 84.799 40.7003 82.8705 38.0504C82.8705 38.0504 81.5148 30.7017 80.2037 29.5626C78.8927 28.4234 73.3164 30.2111 73.3164 30.2111C73.3164 30.2111 66.6316 31.7449 65.3577 22.8114C65.3577 22.8114 66.2618 16.0771 65.0312 14.0109C65.0312 14.0109 67.5078 15.0835 71.6152 13.3531C75.723 11.6227 78.9966 15.2104 78.9966 15.2104C78.9966 15.2104 80.0303 17.888 79.9251 19.4837C79.8198 21.0794 80.4713 21.6784 82.4277 20.9076C82.4277 20.9076 83.3876 19.541 82.027 17.2828C80.6664 15.0247 79.696 13.3407 80.0768 11.5871C80.4576 9.83354 81.5471 7.40825 85.0542 6.18554C88.5614 4.96279 93.3256 4.73376 95.6129 3.78188C97.9005 2.83001 98.453 2.21094 98.453 2.21094C98.453 2.21094 97.0433 3.62557 100.363 9.60136C103.683 15.5772 101.566 18.1728 101.566 18.1728C101.566 18.1728 99.8012 22.3764 92.0159 22.0421C92.0159 22.0421 84.5142 22.316 88.6109 25.4982C88.6109 25.4982 91.2312 24.9643 95.1471 23.7198C99.063 22.4755 101.891 27.6124 102.592 31.1877C103.293 34.763 106.271 36.7208 106.271 36.7208Z" fill="#E00909" fill-opacity="0.8"/>
<path d="M96.1851 6.74814L96.2267 6.7373C96.5271 7.87796 93.1734 12.4639 90.3085 16.1057L90.2744 16.0794C94.3186 10.9394 96.4187 7.62571 96.1851 6.74814Z" fill="#444053"/>
<path d="M90.3377 16.0029L90.355 16.0494C88.0655 18.9606 85.1869 22.4338 82.8824 25.0061C82.6626 25.2522 82.4441 25.5092 82.234 25.7722L82.1689 25.7181C82.379 25.455 82.5989 25.1965 82.8187 24.9442C85.1219 22.3796 88.05 18.9127 90.3377 16.0029Z" fill="#444053"/>
<path d="M82.2217 25.6504L82.2668 25.7278C78.0723 30.9638 77.7954 39.0938 77.7781 39.1651L76.8931 38.1437C76.9116 38.0725 77.998 30.922 82.2217 25.6504Z" fill="#444053"/>
<path d="M101.408 33.8811C101.408 33.8811 96.4549 31.3102 92.609 32.2327C88.7625 33.1552 80.0723 28.9732 80.0723 28.9732C80.0723 28.9732 76.3869 27.4749 75.6473 25.7693C75.6473 25.7693 73.1199 23.0979 72.9757 21.7143C72.8319 20.3306 70.3709 16.8544 68.7661 16.7197" stroke="#444053" stroke-miterlimit="10"/>
<path d="M100.691 36.3564C100.691 36.3564 98.1968 34.6784 98.4909 32.7236" stroke="#444053" stroke-miterlimit="10"/>
<path d="M96.8706 38.524C96.8706 38.524 93.3108 37.2302 92.9517 32.1611" stroke="#444053" stroke-miterlimit="10"/>
<path d="M91.124 39.8369C91.124 39.8369 87.719 37.0122 88.8504 32.0781" stroke="#444053" stroke-miterlimit="10"/>
<path d="M84.2177 38.4559C84.2177 38.4559 81.9503 33.7027 83.9669 30.6104" stroke="#444053" stroke-miterlimit="10"/>
<path d="M101.47 30.748C101.47 30.748 98.8929 31.5653 99.4453 32.9149" stroke="#444053" stroke-miterlimit="10"/>
<path d="M98.3521 26.0732C98.3521 26.0732 94.9051 27.1675 94.8232 32.0428" stroke="#444053" stroke-miterlimit="10"/>
<path d="M93.5535 24.9473C93.5535 24.9473 90.4174 28.8166 90.6478 32.3377" stroke="#444053" stroke-miterlimit="10"/>
<path d="M88.0604 26.4658C88.0604 26.4658 84.9447 29.4437 85.3428 31.1013" stroke="#444053" stroke-miterlimit="10"/>
<path d="M86.1788 25.4134C86.1788 25.4134 83.2564 25.9381 82.8481 24.9785" stroke="#444053" stroke-miterlimit="10"/>
<path d="M82.3823 21.8857C82.3823 21.8857 83.8588 23.8405 84.2396 23.4025" stroke="#444053" stroke-miterlimit="10"/>
<path d="M97.0131 20.6494C97.0131 20.6494 89.6489 21.1802 87.9805 18.9639" stroke="#444053" stroke-miterlimit="10"/>
<path d="M80.8369 12.0352C80.8369 12.0352 84.2928 19.4534 86.802 20.3929" stroke="#444053" stroke-miterlimit="10"/>
<path d="M84.459 8.50098C84.459 8.50098 86.5826 15.325 89.2122 17.4547" stroke="#444053" stroke-miterlimit="10"/>
<path d="M100.118 15.0191C100.118 15.0191 94.5172 17.4227 91.1538 14.9912" stroke="#444053" stroke-width="0.75" stroke-miterlimit="10"/>
<path d="M89.4473 7.0459C89.4473 7.0459 90.7273 12.0621 92.4515 13.274" stroke="#444053" stroke-width="0.75" stroke-miterlimit="10"/>
<path d="M99.2681 9.40039C99.2681 9.40039 96.1219 10.5921 94.9453 9.67896" stroke="#444053" stroke-width="0.75" stroke-miterlimit="10"/>
<path d="M79.6854 23.5254C79.6854 23.5254 79.6854 27.8977 78.4951 28.2088" stroke="#444053" stroke-miterlimit="10"/>
<path d="M69.9546 29.1899C69.9546 29.1899 74.6817 29.5955 76.8623 27.1562" stroke="#444053" stroke-miterlimit="10"/>
<path d="M78.4678 18.3604C78.4678 18.3604 77.324 22.7946 74.1685 23.9895" stroke="#444053" stroke-miterlimit="10"/>
<path d="M67.1206 24.5192C67.1206 24.5192 70.4668 25.6831 73.344 22.7207" stroke="#444053" stroke-miterlimit="10"/>
<path d="M74.7515 14.5479C74.7515 14.5479 74.4418 18.3135 72.3877 20.0764" stroke="#444053" stroke-miterlimit="10"/>
<path d="M67.2471 18.7798C67.2471 18.7798 70.0239 18.8 70.6737 17.8945" stroke="#444053" stroke-miterlimit="10"/>
<path opacity="0.1" d="M91.9144 21.9542C80.8635 23.7975 69.7957 22.8054 59.1411 21.431C48.4865 20.0566 37.8566 18.3015 26.7823 18.6451C19.6627 18.868 11.7429 20.2671 6.81679 24.5605C2.07732 28.6915 1.39969 34.3392 1.44437 39.4466C1.47842 43.2881 1.83891 47.2672 4.44109 50.3568C6.24708 52.5003 9.00805 54.0573 11.0962 56.0402C18.3706 62.94 16.3072 73.6287 11.7013 82.6799C9.53441 86.9266 6.88624 91.0946 5.43277 95.4483C3.97975 99.8026 3.83555 104.492 6.57219 108.097C9.28671 111.67 14.4796 113.729 19.8825 114.833C30.8547 117.072 43.0322 115.916 54.8104 114.308C80.8807 110.731 106.66 104.945 132.365 99.1709C141.879 97.035 151.434 94.8866 160.588 91.7417C165.671 89.999 170.841 87.8059 174.096 84.3372C178.227 79.9339 178.264 73.856 174.183 70.1693C167.336 63.9786 152.018 65.1423 146.695 58.097C143.764 54.2276 144.957 49.0241 147.197 44.4505C151.994 34.6379 161.397 25.0032 160.043 15.1426C159.114 8.36965 152.555 2.69874 143.841 1.13085C134.709 -0.511266 123.038 2.2313 117.873 8.96554C112.555 15.918 101.672 20.329 91.9144 21.9542Z" fill="#6C63FF"/>
<path d="M157.256 23.9121H14.0359C12.9682 23.9121 12.1025 24.7776 12.1025 25.8453V105.298C12.1025 106.366 12.9682 107.231 14.0359 107.231H157.256C158.324 107.231 159.189 106.366 159.189 105.298V25.8453C159.189 24.7776 158.324 23.9121 157.256 23.9121Z" fill="url(#paint0_linear)"/>
<path d="M157.036 25.084H14.2664C13.1987 25.084 12.3335 25.9495 12.3335 27.0171V105.022C12.3335 106.089 13.1987 106.955 14.2664 106.955H157.036C158.104 106.955 158.969 106.089 158.969 105.022V27.0171C158.969 25.9495 158.104 25.084 157.036 25.084Z" fill="white"/>
<path d="M157.036 25.084H14.2664C13.1987 25.084 12.3335 25.9495 12.3335 27.0171V105.022C12.3335 106.089 13.1987 106.955 14.2664 106.955H157.036C158.104 106.955 158.969 106.089 158.969 105.022V27.0171C158.969 25.9495 158.104 25.084 157.036 25.084Z" fill="white"/>
<path opacity="0.04" d="M157.036 25.084H14.2664C13.1987 25.084 12.3335 25.9495 12.3335 27.0171V105.022C12.3335 106.089 13.1987 106.955 14.2664 106.955H157.036C158.104 106.955 158.969 106.089 158.969 105.022V27.0171C158.969 25.9495 158.104 25.084 157.036 25.084Z" fill="#5A5773"/>
<path d="M158.231 24.1445H13.0779C12.8806 24.1445 12.6913 24.223 12.5516 24.3626C12.4118 24.5022 12.3335 24.6915 12.3335 24.889V28.0371H158.969V24.8952C158.97 24.7974 158.952 24.7004 158.915 24.6098C158.878 24.5192 158.824 24.4367 158.756 24.367C158.687 24.2973 158.605 24.2418 158.516 24.2036C158.425 24.1654 158.329 24.1453 158.231 24.1445Z" fill="#5A5773"/>
<path d="M15.2636 27.096C15.8192 27.096 16.2694 26.6456 16.2694 26.09C16.2694 25.5344 15.8192 25.084 15.2636 25.084C14.7081 25.084 14.2573 25.5344 14.2573 26.09C14.2573 26.6456 14.7081 27.096 15.2636 27.096Z" fill="white"/>
<path d="M17.9672 27.096C18.5228 27.096 18.9731 26.6456 18.9731 26.09C18.9731 25.5344 18.5228 25.084 17.9672 25.084C17.4117 25.084 16.9609 25.5344 16.9609 26.09C16.9609 26.6456 17.4117 27.096 17.9672 27.096Z" fill="white"/>
<path d="M20.6791 27.096C21.2347 27.096 21.685 26.6456 21.685 26.09C21.685 25.5344 21.2347 25.084 20.6791 25.084C20.1236 25.084 19.6729 25.5344 19.6729 26.09C19.6729 26.6456 20.1236 27.096 20.6791 27.096Z" fill="white"/>
<path d="M142.839 46.1611H23.7223C22.851 46.1611 22.145 46.8671 22.145 47.738V105.376C22.145 106.247 22.851 106.953 23.7223 106.953H142.839C143.71 106.953 144.417 106.247 144.417 105.376V47.738C144.417 46.8671 143.71 46.1611 142.839 46.1611Z" fill="white"/>
<path opacity="0.2" d="M51.5345 32.168H17.5585C17.2285 32.168 16.9609 32.4355 16.9609 32.7654V35.2619C16.9609 35.5919 17.2285 35.8592 17.5585 35.8592H51.5345C51.8645 35.8592 52.1321 35.5919 52.1321 35.2619V32.7654C52.1321 32.4355 51.8645 32.168 51.5345 32.168Z" fill="#5A5773"/>
<path opacity="0.5" d="M117.861 53.2168H83.8852C83.5552 53.2168 83.2876 53.4844 83.2876 53.8144V56.3108C83.2876 56.6408 83.5552 56.9084 83.8852 56.9084H117.861C118.191 56.9084 118.458 56.6408 118.458 56.3108V53.8144C118.458 53.4844 118.191 53.2168 117.861 53.2168Z" fill="black" fill-opacity="0.25"/>
<path opacity="0.2" d="M137.609 63.5527H83.8852C83.5552 63.5527 83.2876 63.8203 83.2876 64.1503V66.6468C83.2876 66.9767 83.5552 67.2443 83.8852 67.2443H137.609C137.939 67.2443 138.206 66.9767 138.206 66.6468V64.1503C138.206 63.8203 137.939 63.5527 137.609 63.5527Z" fill="#FF0000"/>
<path opacity="0.2" d="M137.609 69.5889H83.8852C83.5552 69.5889 83.2876 69.8565 83.2876 70.1864V72.6829C83.2876 73.0129 83.5552 73.28 83.8852 73.28H137.609C137.939 73.28 138.206 73.0129 138.206 72.6829V70.1864C138.206 69.8565 137.939 69.5889 137.609 69.5889Z" fill="#FF0000"/>
<path opacity="0.2" d="M137.609 75.625H83.8852C83.5552 75.625 83.2876 75.8922 83.2876 76.2221V78.7186C83.2876 79.0486 83.5552 79.3162 83.8852 79.3162H137.609C137.939 79.3162 138.206 79.0486 138.206 78.7186V76.2221C138.206 75.8922 137.939 75.625 137.609 75.625Z" fill="#FF0000"/>
<path opacity="0.2" d="M137.609 81.6611H83.8852C83.5552 81.6611 83.2876 81.9287 83.2876 82.2587V84.7552C83.2876 85.0851 83.5552 85.3527 83.8852 85.3527H137.609C137.939 85.3527 138.206 85.0851 138.206 84.7552V82.2587C138.206 81.9287 137.939 81.6611 137.609 81.6611Z" fill="#FF0000"/>
<path opacity="0.2" d="M137.603 88.3164H29.3725C29.0425 88.3164 28.7749 88.584 28.7749 88.914V91.4104C28.7749 91.7404 29.0425 92.008 29.3725 92.008H137.603C137.933 92.008 138.2 91.7404 138.2 91.4104V88.914C138.2 88.584 137.933 88.3164 137.603 88.3164Z" fill="#FF0000"/>
<path opacity="0.2" d="M137.603 94.3525H29.3725C29.0425 94.3525 28.7749 94.6201 28.7749 94.9501V97.4466C28.7749 97.7765 29.0425 98.0441 29.3725 98.0441H137.603C137.933 98.0441 138.2 97.7765 138.2 97.4466V94.9501C138.2 94.6201 137.933 94.3525 137.603 94.3525Z" fill="#FF0000"/>
<path opacity="0.2" d="M137.603 100.389H29.3725C29.0425 100.389 28.7749 100.656 28.7749 100.986V103.482C28.7749 103.812 29.0425 104.08 29.3725 104.08H137.603C137.933 104.08 138.2 103.812 138.2 103.482V100.986C138.2 100.656 137.933 100.389 137.603 100.389Z" fill="#FF0000"/>
<path d="M113.167 102.83C113.167 102.83 114.084 104.03 112.743 105.842C111.401 107.654 110.296 109.184 110.743 110.313C110.743 110.313 112.766 106.949 114.414 106.908C116.063 106.868 114.979 104.853 113.167 102.83Z" fill="#F71011"/>
<path opacity="0.1" d="M113.167 102.83C113.247 102.946 113.31 103.072 113.355 103.206C114.963 105.094 115.819 106.857 114.274 106.901C112.835 106.942 111.107 109.516 110.694 110.165C110.707 110.217 110.724 110.269 110.744 110.319C110.744 110.319 112.767 106.955 114.415 106.914C116.063 106.874 114.98 104.853 113.167 102.83Z" fill="#FF0000"/>
<path d="M114.871 104.359C114.871 104.781 114.824 105.123 114.765 105.123C114.707 105.123 114.66 104.781 114.66 104.359C114.66 103.936 114.719 104.136 114.778 104.136C114.837 104.136 114.871 103.936 114.871 104.359Z" fill="#FFD037"/>
<path d="M115.459 104.863C115.087 105.065 114.764 105.187 114.736 105.136C114.708 105.084 114.987 104.879 115.355 104.671C115.723 104.464 115.579 104.616 115.607 104.671C115.635 104.727 115.828 104.66 115.459 104.863Z" fill="#FFD037"/>
<path d="M108.327 102.83C108.327 102.83 107.41 104.03 108.75 105.842C110.09 107.654 111.198 109.184 110.751 110.313C110.751 110.313 108.726 106.949 107.08 106.908C105.433 106.868 106.515 104.853 108.327 102.83Z" fill="#F71011"/>
<path opacity="0.1" d="M108.327 102.83C108.247 102.946 108.183 103.072 108.139 103.206C106.532 105.094 105.676 106.857 107.221 106.901C108.66 106.942 110.386 109.516 110.799 110.165C110.787 110.217 110.77 110.269 110.751 110.319C110.751 110.319 108.726 106.955 107.08 106.914C105.433 106.874 106.515 104.853 108.327 102.83Z" fill="black"/>
<path d="M106.616 104.359C106.616 104.782 106.663 105.124 106.722 105.124C106.781 105.124 106.828 104.782 106.828 104.359C106.828 103.937 106.769 104.139 106.712 104.139C106.654 104.139 106.616 103.937 106.616 104.359Z" fill="#FFD037"/>
<path d="M106.031 104.863C106.402 105.065 106.726 105.187 106.753 105.136C106.781 105.084 106.503 104.879 106.134 104.671C105.766 104.464 105.91 104.616 105.882 104.671C105.854 104.727 105.659 104.66 106.031 104.863Z" fill="#FFD037"/>
<path opacity="0.1" d="M110.74 119.493C116.04 119.493 120.336 118.834 120.336 118.021C120.336 117.208 116.04 116.549 110.74 116.549C105.44 116.549 101.144 117.208 101.144 118.021C101.144 118.834 105.44 119.493 110.74 119.493Z" fill="#6C63FF"/>
<path d="M115.69 108.696L115.644 109.07L115.581 109.599L115.553 109.821L115.489 110.35L115.461 110.572L115.396 111.099L114.663 117.12C114.596 117.657 113.718 118.076 112.651 118.076H108.84C107.78 118.076 106.904 117.657 106.839 117.12L106.102 111.104L106.039 110.576L106.011 110.355L105.946 109.825L105.919 109.604L105.854 109.075L105.808 108.7C105.773 108.391 106.248 108.14 106.847 108.14H114.65C115.249 108.135 115.724 108.39 115.69 108.696Z" fill="#F3D55A"/>
<path d="M115.64 109.07L115.577 109.6H105.919L105.854 109.07H115.64Z" fill="#FF0000"/>
<path d="M115.549 109.819L115.486 110.349H106.01L105.945 109.819H115.549Z" fill="#FF0000"/>
<path d="M115.456 110.57L115.391 111.1H106.1L106.037 110.57H115.456Z" fill="#FF0000"/>
<path opacity="0.2" d="M74.2012 51.1699H30.0908C29.3641 51.1699 28.7749 51.7587 28.7749 52.4854V84.1427C28.7749 84.8694 29.3641 85.4586 30.0908 85.4586H74.2012C74.928 85.4586 75.5167 84.8694 75.5167 84.1427V52.4854C75.5167 51.7587 74.928 51.1699 74.2012 51.1699Z" fill="#FF0000"/>
<path d="M174.42 89.3046C174.478 89.1498 174.042 88.2648 174.042 88.2214C174.042 88.1781 173.591 87.6871 173.591 87.4133C173.591 87.1395 172.996 86.5463 172.996 86.5463C172.996 86.5463 172.196 86.2155 172.109 85.4927C172.022 84.7695 171.151 84.7571 171.149 84.7571C171.149 84.7571 171.149 84.6926 171.149 84.5917C171.167 84.3064 171.13 84.0202 171.042 83.7482C170.94 83.5487 170.762 83.3979 170.549 83.3289C170.549 83.3289 170.46 82.7654 170.287 82.592C170.19 82.4907 170.121 82.3669 170.085 82.2315C170.049 82.0962 170.049 81.9542 170.083 81.8184C170.171 81.5459 169.967 80.8523 169.546 80.7502C169.125 80.648 168.643 80.4901 168.643 80.4901L168.527 80.5104L168.47 80.4901C168.368 80.51 168.264 80.5228 168.16 80.529C168.072 80.5317 167.985 80.5029 167.914 80.4485C167.769 80.2937 166.591 79.9841 166.367 79.9841C166.142 79.9841 165.523 79.6948 165.523 79.6948C165.523 79.6948 165.087 79.3635 164.904 79.218C164.721 79.0724 164.404 78.5448 164.356 78.4643V78.4536C164.303 78.3307 164.259 78.2037 164.224 78.0741C164.437 77.8516 164.619 77.6013 164.765 77.3297C164.78 77.3018 164.794 77.274 164.808 77.2448C164.84 77.2448 164.872 77.2399 164.903 77.2306L164.941 77.2151C165.014 77.1771 165.079 77.1249 165.133 77.0617C165.186 76.9988 165.226 76.9254 165.251 76.8467C165.262 76.8153 165.271 76.7834 165.279 76.7507C165.279 76.7401 165.279 76.729 165.279 76.7184L165.293 76.6534C165.292 76.641 165.292 76.6286 165.293 76.6162L165.302 76.5512V76.5141C165.302 76.4862 165.302 76.4601 165.313 76.4322C165.322 76.3283 165.337 76.2248 165.358 76.1226C165.444 75.7312 165.681 75.3999 165.846 75.0389C165.87 74.9881 165.893 74.9354 165.913 74.8846C165.933 74.8332 165.954 74.7682 165.97 74.7094L165.984 74.6554C165.995 74.6121 166.004 74.5687 166.014 74.5254C166.023 74.482 166.014 74.4865 166.025 74.4666C166.034 74.4077 166.042 74.3471 166.048 74.2852C166.075 73.9402 166.023 73.593 165.893 73.2714C165.785 73.0007 165.622 72.7561 165.512 72.4854C165.345 72.0754 165.3 71.6092 165.098 71.2177C164.932 70.9001 164.659 70.6515 164.328 70.5166C163.996 70.3817 163.627 70.3689 163.287 70.4808C162.977 70.5985 162.695 70.8263 162.375 70.9284C161.945 71.066 161.487 70.9625 161.041 70.9019C160.595 70.8417 160.112 70.8338 159.747 71.1248C159.335 71.4592 159.224 72.0878 158.837 72.4544C158.682 72.6093 158.473 72.7066 158.301 72.849C158.181 72.9459 158.088 73.0728 158.032 73.2175L158.023 73.2466C158.019 73.2595 158.016 73.2723 158.013 73.2856C158.01 73.2997 158.007 73.3143 158.006 73.3289C158.005 73.3386 158.005 73.3484 158.006 73.3581C158.003 73.3838 158.003 73.4099 158.006 73.4355C158.008 73.4603 158.012 73.4846 158.017 73.5085V73.5284C158.017 73.5488 158.028 73.5687 158.035 73.589C158.043 73.6089 158.035 73.5965 158.035 73.5996C158.035 73.6027 158.052 73.6447 158.062 73.6664L158.075 73.6987C158.075 73.708 158.075 73.7173 158.088 73.7252C158.143 73.8327 158.188 73.9451 158.222 74.061C158.24 74.1344 158.235 74.2118 158.208 74.2821C158.172 74.3626 158.119 74.4347 158.054 74.4944C157.764 74.7952 157.541 75.153 157.397 75.5454C157.38 75.5905 157.365 75.6356 157.351 75.6799H157.371C157.413 75.6918 157.455 75.7006 157.498 75.7064C157.522 75.7077 157.547 75.7077 157.571 75.7064C157.67 75.7121 157.77 75.7046 157.868 75.6847L157.942 75.6661C158.043 75.6396 158.142 75.6038 158.236 75.5591C158.236 75.5887 158.236 75.6179 158.236 75.6476C158.236 75.6768 158.236 75.6799 158.236 75.6971C158.237 76.3358 158.416 76.9612 158.753 77.504C159.09 78.0463 159.573 78.4842 160.145 78.7677C160.145 78.7987 160.152 78.8296 160.157 78.8606L160.166 78.9393L160.128 78.9022C160.128 78.9022 159.866 78.7721 159.619 79.1468C159.437 79.3927 159.19 79.5829 158.906 79.6961C158.906 79.6961 156.26 80.1141 156.158 80.4609L154.919 80.5334C154.919 80.5334 154.483 80.5909 154.44 81.5008C154.397 82.4111 154.164 82.496 154.164 82.496C154.164 82.496 153.655 83.3921 153.7 83.8535C153.705 83.9941 153.672 84.1335 153.602 84.256C153.533 84.3785 153.431 84.4794 153.307 84.5471L153.25 85.3702C153.25 85.3702 152.77 85.2977 152.63 85.8607C152.575 86.1593 152.451 86.4406 152.268 86.6826C152.268 86.6826 151.468 87.3483 151.425 87.91L150.93 88.2196C150.93 88.2196 149.781 87.9596 149.52 87.4982C149.52 87.4982 149.489 87.4672 149.439 87.4226V87.4115C149.267 87.2571 148.903 86.9104 148.959 86.9891C148.993 87.0616 149.002 87.1435 148.983 87.2213L148.897 87.1271L148.668 86.8732C148.668 86.8732 146.811 85.1336 145.728 84.9956C145.713 84.9677 145.642 84.6864 145.457 84.8642C145.303 85.0053 145.18 85.1769 145.095 85.368C145.011 85.5586 144.967 85.7652 144.966 85.974C144.965 86.1828 145.007 86.3893 145.09 86.5813C145.172 86.7728 145.294 86.9458 145.446 87.0882L147.185 88.7119L147.231 88.7442L147.603 89.2242C147.54 89.379 147.487 89.5214 147.449 89.6545V89.6682L147.421 89.7518C147.418 89.7611 147.415 89.7704 147.413 89.7797C147.404 89.8076 147.396 89.8341 147.388 89.8602L147.374 89.9067C147.374 89.9159 147.374 89.9252 147.374 89.9345C147.333 90.08 147.306 90.1915 147.294 90.2534L147.196 90.2225L147.291 90.264V90.2782C147.291 90.2981 147.291 90.3092 147.291 90.3092L147.38 90.3476C147.89 90.5692 150.431 91.6852 150.561 91.8537C150.691 92.0223 151.666 92.5907 152.539 92.1275C153.412 91.6649 153.599 90.9594 153.599 90.9594C153.599 90.9594 154.443 89.789 154.472 89.6156C154.502 89.4422 155.155 89.241 155.155 89.241C155.155 89.241 155.214 91.1743 154.879 91.8829C154.545 92.592 153.92 95.7232 153.92 95.7232C153.961 95.7174 154.002 95.7174 154.044 95.7232L154.006 95.9041C154.057 95.8948 154.11 95.8948 154.161 95.9041C154.115 96.2601 153.852 97.9162 153.852 97.9162C153.852 97.9162 153.765 98.6668 153.619 98.9269C153.474 99.187 153.465 100.544 153.465 100.544L153.231 101.526C153.231 101.526 153.262 101.594 153.319 101.694C153.476 102.028 153.704 102.323 153.988 102.559C153.969 102.714 153.929 102.865 153.87 103.008C153.78 103.228 153.74 103.465 153.754 103.702C153.754 103.702 153.508 104.813 153.536 105.13C153.564 105.448 153.381 106.227 153.381 106.227L153.12 108.739C153.12 108.739 152.946 110.919 153.033 111.511C153.074 111.976 153.055 112.445 152.974 112.905C152.974 112.905 153.149 114.623 153.105 114.81C153.062 114.997 152.844 115.807 152.974 116.254C153.104 116.701 153.033 117.929 153.033 117.929C153.033 117.929 153.12 119.546 153.222 120.066C153.276 120.459 153.266 120.859 153.192 121.25C153.192 121.25 153.09 122.361 153.047 122.361C153.003 122.361 152.626 123.126 153.395 123.876C154.164 124.627 153.688 124.511 153.688 124.511C153.688 124.511 153.068 124.202 153.149 124.83C153.217 125.42 153.313 125.266 153.322 125.249L153.177 125.724L153.279 125.738L153.195 125.839C153.108 125.951 153.009 126.055 152.901 126.149C152.788 126.259 152.721 126.408 152.713 126.566C152.713 126.566 151.637 127.737 150.634 128.328C150.106 128.637 149.651 128.902 149.453 129.122C149.273 129.317 149.298 129.474 149.674 129.598C150.459 129.858 151.841 129.988 152.829 129.656C153.42 129.46 153.952 129.117 154.376 128.661C154.376 128.661 154.995 128.342 155.614 128.458C156.234 128.574 157.447 127.78 157.447 127.78L157.424 127.576L157.36 126.984C157.319 126.935 157.289 126.877 157.272 126.816C157.254 126.754 157.25 126.689 157.258 126.625C157.266 126.45 157.249 126.275 157.207 126.105C157.196 126.048 157.185 125.991 157.175 125.938L157.286 125.916C157.286 125.916 157.142 125.181 157.403 125.036C157.665 124.89 157.591 123 157.591 123C157.591 123 157.258 122.567 157.083 122.496C156.908 122.425 157.068 121.527 157.099 121.412C157.13 121.298 157.36 119.058 157.36 119.058C157.36 119.058 157.272 118.353 157.388 118.049C157.504 117.746 157.243 116.576 157.243 116.576C157.219 116.522 157.212 116.462 157.226 116.405C157.239 116.348 157.27 116.296 157.315 116.258C157.47 116.085 157.418 114.54 157.418 114.54C157.418 114.54 157.403 113.767 157.403 113.558C157.403 113.349 157.577 112.62 157.738 112.375C157.899 112.131 157.795 111.365 157.795 111.365L157.805 111.307C157.805 111.286 157.805 111.258 157.817 111.225L157.829 111.148C157.9 110.725 157.995 110.306 158.114 109.894C158.303 109.289 158.521 108.221 158.521 108.221L159.872 104.695L159.888 104.654C159.888 104.654 160.507 105.808 160.507 106.878C160.507 106.878 160.662 108.162 160.624 108.509C160.587 108.856 160.725 110.486 160.725 110.486C160.725 110.486 160.914 112.824 160.914 112.925C160.914 113.025 161.148 114.83 161.293 115.105C161.439 115.381 161.148 116.217 161.059 116.303C160.971 116.39 161.089 118.512 161.089 118.512C161.089 118.512 160.871 120.187 160.827 120.533C160.784 120.88 160.609 122.208 160.754 122.728C160.9 123.248 160.841 123.319 160.841 123.319C160.841 123.319 161.366 123.855 161.059 123.898C160.948 123.922 160.843 123.97 160.752 124.038C160.661 124.106 160.585 124.193 160.53 124.293C160.475 124.392 160.442 124.502 160.433 124.616C160.424 124.729 160.439 124.843 160.478 124.95C160.66 125.479 160.873 125.996 161.118 126.499L161.36 126.447V126.619L161.377 127.48C161.377 127.48 161.479 128.301 161.42 128.49C161.378 128.627 161.319 129.273 161.291 129.612C161.281 129.736 161.275 129.818 161.275 129.818C161.275 129.818 161.275 130.583 162.889 130.352C164.503 130.122 164.792 129.485 164.792 129.485L164.805 129.406C164.828 129.261 164.881 128.952 164.924 128.778C164.981 128.547 164.46 127.507 164.46 127.507C164.46 127.507 164.373 126.8 164.228 126.642C164.167 126.549 164.126 126.443 164.11 126.333C164.098 126.274 164.085 126.214 164.076 126.155C164.113 126.159 164.148 126.165 164.184 126.173C164.184 126.173 164.096 125.669 164.432 125.509C164.768 125.35 164.678 125.019 164.634 124.875C164.591 124.731 164.765 123.921 164.765 123.921C164.74 123.841 164.738 123.755 164.758 123.673C164.779 123.591 164.821 123.516 164.881 123.457C165.085 123.254 165.244 121.84 165.244 121.84L165.274 116.382C165.274 116.382 165.376 115.415 165.26 115.025C165.144 114.635 165.028 113.884 165.187 113.681C165.347 113.479 165.201 112.542 165.201 112.542C165.201 112.542 165.201 110.564 165.419 110.066C165.638 109.568 165.565 106.471 165.565 106.471L165.622 104.435C165.622 104.435 166.097 103.987 165.986 101.649C166.492 101.617 167.069 101.599 167.15 101.669C167.304 101.799 168.342 102.464 168.953 102.044C169.205 101.871 169.448 101.683 169.679 101.482L169.422 97.1488C169.577 97.3898 169.679 97.5495 169.679 97.5495C169.679 96.9444 171.395 94.9801 171.395 94.9801C171.395 94.9801 172.994 92.9153 173.342 92.6712C173.691 92.4266 174.374 91.123 174.374 91.123C174.476 90.8758 174.592 90.6347 174.724 90.402C174.885 90.1557 174.362 89.4626 174.42 89.3046ZM170.67 90.82C170.233 90.8634 169.316 91.8599 169.303 92.0767C169.271 92.2195 169.205 92.3522 169.109 92.4637C169.109 92.377 169.095 92.2885 169.087 92.1988C168.986 90.9222 168.874 89.3679 168.933 89.218C169.019 88.9579 168.99 87.7879 168.99 87.7879L169.007 87.7645C169.3 88.6717 170.21 89.7395 170.21 89.7395C170.21 89.7395 170.364 90.2039 170.559 90.2145C170.754 90.2256 170.67 90.82 170.67 90.82Z" fill="url(#paint1_linear)"/>
<path d="M147.36 90.4898C147.36 90.4898 147.891 87.7041 149.595 87.7041L150.842 90.2687L150.011 90.8415C150.011 90.8415 148.205 90.8906 147.36 90.4898Z" fill="#65617D"/>
<path opacity="0.1" d="M150.842 90.2607L150.011 90.8335C150.011 90.8335 148.74 90.8738 147.832 90.6508C147.67 90.615 147.512 90.5632 147.36 90.496L147.369 90.4513V90.4421C147.447 90.0926 147.554 89.7511 147.691 89.4203C147.744 89.2951 147.803 89.1668 147.868 89.0381C148.117 88.5582 148.468 88.0863 148.951 87.854C149.128 87.7647 149.321 87.712 149.519 87.6992H149.595L149.623 87.7567L150.044 88.6232L150.842 90.2607Z" fill="black"/>
<path d="M165.002 101.808C165.002 101.808 166.792 101.637 166.95 101.767C167.108 101.897 168.125 102.554 168.726 102.138C169.326 101.721 168.927 100.281 168.927 100.219C168.927 100.157 168.869 98.1125 168.869 98.1125L167.795 96.6653L166.448 94.1299L163.697 93.8574L163.768 97.8817L163.754 99.9446L165.002 101.808Z" fill="#65617D"/>
<path opacity="0.1" d="M165.002 101.808C165.002 101.808 166.792 101.637 166.95 101.767C167.108 101.897 168.125 102.554 168.726 102.138C169.326 101.721 168.927 100.281 168.927 100.219C168.927 100.157 168.869 98.1125 168.869 98.1125L167.795 96.6653L166.448 94.1299L163.697 93.8574L163.768 97.8817L163.754 99.9446L165.002 101.808Z" fill="black"/>
<path d="M149.243 87.6247C149.243 87.6247 149.099 89.3723 148.004 89.4015C148.004 89.4015 147.695 89.2162 147.28 88.9048C146.324 88.1882 144.804 86.8122 145.225 85.5325C145.827 83.6982 148.749 87.0802 148.749 87.0802L148.975 87.3323L149.243 87.6247Z" fill="#FBBEBE"/>
<path opacity="0.1" d="M149.242 87.6247C149.242 87.6247 149.097 89.3723 148.003 89.4015C148.003 89.4015 147.693 89.2158 147.279 88.9048L147.186 88.7858C147.371 88.8805 147.575 88.9331 147.783 88.9406C147.947 88.9468 148.109 88.9035 148.247 88.8159C148.385 88.7283 148.493 88.6005 148.557 88.4497C148.674 88.225 148.778 87.9927 148.867 87.7548C148.918 87.6163 148.955 87.4726 148.977 87.3262L149.242 87.6247Z" fill="black"/>
<path d="M148.771 90.7917L148.526 90.4821L147.701 89.4201L147.282 88.8769C147.467 88.9715 147.67 89.0246 147.878 89.0317C148.041 89.0388 148.203 88.9954 148.342 88.9078C148.48 88.8203 148.588 88.692 148.651 88.5412C148.766 88.3165 148.867 88.0847 148.953 87.8476C149.089 87.4606 149.086 87.2629 149.038 87.1947C148.99 87.1266 149.348 87.4544 149.512 87.6154L149.591 87.6897L149.62 87.7485L150.052 88.5845C150.053 88.5964 150.053 88.6084 150.052 88.6199C150.083 88.8831 150.222 90.5533 148.771 90.7917Z" fill="#E7EFFD"/>
<path d="M157.351 127.664C157.351 127.664 156.147 128.454 155.545 128.338C155.128 128.285 154.704 128.355 154.326 128.539C153.912 128.992 153.39 129.332 152.808 129.528C151.833 129.857 150.473 129.727 149.698 129.471C149.333 129.348 149.304 129.19 149.48 128.997C149.657 128.803 150.124 128.519 150.644 128.209C151.633 127.621 152.693 126.462 152.693 126.462C152.7 126.304 152.766 126.156 152.879 126.045C152.986 125.952 153.083 125.848 153.169 125.736C153.323 125.555 153.468 125.364 153.468 125.364L157.013 125.497C157.013 125.497 157.074 125.753 157.122 126.014C157.162 126.183 157.179 126.356 157.171 126.53C157.162 126.593 157.167 126.658 157.184 126.719C157.202 126.781 157.231 126.838 157.272 126.887L157.335 127.472L157.351 127.664Z" fill="#65617D"/>
<path d="M164.75 128.659C164.708 128.831 164.656 129.137 164.632 129.278C164.632 129.326 164.622 129.357 164.622 129.357C164.622 129.357 164.335 129.987 162.744 130.216C161.153 130.445 161.155 129.687 161.155 129.687L161.17 129.48C161.198 129.146 161.255 128.504 161.297 128.368C161.354 128.182 161.255 127.365 161.255 127.365L161.238 126.511L161.226 125.918L163.857 125.646C163.874 125.842 163.902 126.038 163.942 126.232C163.957 126.343 163.997 126.448 164.058 126.542C164.201 126.696 164.287 127.401 164.287 127.401C164.287 127.401 164.812 128.429 164.75 128.659Z" fill="#65617D"/>
<path opacity="0.1" d="M157.012 125.498C157.012 125.498 157.073 125.753 157.121 126.015C156.738 126.084 155.067 126.374 154.644 126.17C154.171 125.94 153.154 125.812 153.154 125.812L153.171 125.753C153.325 125.572 153.47 125.382 153.47 125.382L157.012 125.498Z" fill="black"/>
<path opacity="0.1" d="M163.954 126.236C163.287 126.123 161.821 126.391 161.246 126.515L161.233 125.922L163.864 125.649C163.883 125.847 163.913 126.043 163.954 126.236Z" fill="black"/>
<path d="M165.442 104.516L165.386 106.529C165.386 106.529 165.457 109.608 165.242 110.088C165.027 110.568 165.027 112.538 165.027 112.538C165.027 112.538 165.17 113.467 165.013 113.67C164.855 113.872 164.969 114.615 165.084 115.003C165.198 115.389 165.098 116.349 165.098 116.349L165.07 121.766C165.07 121.766 164.915 123.17 164.711 123.371C164.652 123.431 164.61 123.506 164.591 123.588C164.57 123.669 164.572 123.755 164.596 123.835C164.596 123.835 164.425 124.637 164.468 124.781C164.511 124.925 164.596 125.253 164.268 125.411C163.94 125.569 164.024 126.07 164.024 126.07C163.236 125.883 161.001 126.38 161.001 126.38C160.76 125.882 160.549 125.37 160.369 124.846C160.331 124.74 160.316 124.627 160.324 124.514C160.333 124.401 160.365 124.292 160.42 124.193C160.474 124.094 160.549 124.007 160.639 123.94C160.73 123.872 160.833 123.824 160.944 123.8C161.244 123.758 160.729 123.227 160.729 123.227C160.729 123.227 160.786 123.156 160.642 122.639C160.498 122.122 160.671 120.805 160.714 120.461C160.758 120.118 160.971 118.449 160.971 118.449C160.971 118.449 160.857 116.343 160.944 116.257C161.03 116.172 161.315 115.34 161.173 115.069C161.03 114.798 160.8 113.006 160.8 112.902C160.8 112.798 160.614 110.48 160.614 110.48C160.614 110.48 160.442 108.861 160.485 108.517C160.529 108.174 160.369 106.898 160.369 106.898C160.369 105.838 159.75 104.691 159.75 104.691L159.735 104.733L158.404 108.256C158.404 108.256 158.189 109.316 158.003 109.918C157.886 110.325 157.792 110.739 157.723 111.156L157.71 111.234L157.698 111.314L157.689 111.372C157.689 111.372 157.788 112.13 157.63 112.374C157.454 112.744 157.343 113.142 157.302 113.549C157.302 113.75 157.316 114.524 157.316 114.524C157.316 114.524 157.373 116.056 157.215 116.226C157.172 116.264 157.141 116.314 157.129 116.37C157.116 116.425 157.121 116.484 157.144 116.536C157.144 116.536 157.401 117.697 157.286 117.997C157.172 118.297 157.259 119 157.259 119C157.259 119 157.03 121.221 157 121.336C156.971 121.45 156.814 122.338 156.986 122.41C157.158 122.481 157.488 122.911 157.488 122.911C157.488 122.911 157.559 124.789 157.302 124.931C157.045 125.073 157.186 125.806 157.186 125.806C157.186 125.806 155.109 126.207 154.637 125.977C154.165 125.748 153.146 125.62 153.146 125.62L153.288 125.156C153.279 125.172 153.185 125.326 153.119 124.739C153.046 124.12 153.648 124.43 153.648 124.43C153.648 124.43 154.121 124.544 153.361 123.8C152.601 123.055 152.974 122.295 153.018 122.295C153.061 122.295 153.16 121.192 153.16 121.192C153.234 120.804 153.243 120.408 153.189 120.017C153.089 119.502 153.004 117.897 153.004 117.897C153.004 117.897 153.075 116.678 152.945 116.234C152.815 115.79 153.032 114.996 153.075 114.801C153.119 114.606 152.945 112.91 152.945 112.91C153.026 112.45 153.046 111.982 153.004 111.517C152.917 110.929 153.089 108.765 153.089 108.765L153.347 106.273C153.347 106.273 153.533 105.499 153.502 105.19C153.471 104.88 153.717 103.772 153.717 103.772C153.703 103.537 153.743 103.301 153.832 103.083C153.976 102.797 154.033 101.845 154.033 101.845L155.409 98.6937L156.082 95.908L165.18 95.8213C165.18 95.8213 165.212 96.0628 165.268 96.5007C165.324 96.9386 165.401 97.5839 165.488 98.3872C165.567 99.1148 165.653 99.9707 165.739 100.923C166.016 103.971 165.442 104.516 165.442 104.516Z" fill="#3F3D56"/>
<path d="M164.595 79.4296L162.477 81.6974C162.477 81.6974 159.756 80.6137 160.042 80.2346C160.152 80.0908 160.135 79.6357 160.071 79.1341C159.971 78.3401 159.762 77.4316 159.762 77.4316C159.762 77.4316 164.518 76.6576 164.115 77.4595C163.988 77.762 163.977 78.1013 164.086 78.4114C164.201 78.7758 164.373 79.1195 164.595 79.4296Z" fill="#FBBEBE"/>
<path opacity="0.1" d="M164.109 77.4517C163.964 77.7454 163.894 77.7732 163.985 78.0891C163.367 78.7561 162.573 79.4819 161.588 79.4819C161.062 79.4828 160.542 79.3607 160.071 79.1263C159.971 78.3323 159.762 77.4238 159.762 77.4238C159.762 77.4238 164.512 76.6497 164.109 77.4517Z" fill="black"/>
<path d="M164.998 75.9899C164.998 76.8945 164.639 77.7623 164 78.4015C163.36 79.0411 162.492 79.4007 161.588 79.4007C160.683 79.4007 159.816 79.0411 159.176 78.4015C158.536 77.7623 158.177 76.8945 158.177 75.9899C158.177 75.9731 158.177 75.9576 158.177 75.9404C158.18 75.4928 158.272 75.05 158.446 74.6377C158.621 74.2251 158.874 73.8513 159.194 73.5368C159.513 73.2223 159.89 72.9742 160.305 72.8057C160.72 72.6376 161.164 72.5526 161.612 72.5557C162.059 72.5588 162.502 72.6504 162.914 72.8247C163.327 72.999 163.701 73.2528 164.015 73.5718C164.33 73.8907 164.578 74.2684 164.747 74.6833C164.915 75.0982 165 75.5423 164.996 75.9899H164.998Z" fill="#FBBEBE"/>
<path opacity="0.1" d="M165.493 98.4869C165.041 98.4869 163.537 98.5024 161.856 98.5303H161.836L161.281 98.5396H161.263C159.27 98.5705 157.306 98.1822 156.516 98.2547C154.84 98.4095 157.119 96.707 157.119 96.707C158.368 97.0096 159.652 97.1392 160.937 97.0927L161.42 97.068C162.943 96.9813 164.473 96.8388 165.273 96.6035C165.329 97.0432 165.406 97.6868 165.493 98.4869Z" fill="black"/>
<path d="M165.493 98.3996C165.041 98.3996 163.537 98.4169 161.856 98.443H161.836L161.281 98.4523H161.263C159.27 98.485 157.306 98.0949 156.516 98.1692C154.84 98.324 157.119 96.6215 157.119 96.6215C158.367 96.925 159.652 97.0546 160.937 97.0068L161.42 96.982C162.943 96.8971 164.473 96.7529 165.273 96.5176C165.329 96.9559 165.406 97.5995 165.493 98.3996Z" fill="#5F5D7E"/>
<path opacity="0.1" d="M160.672 80.3752L158.041 81.6137L156.005 97.3448C156.005 97.3448 157.209 96.7998 157.897 97.1435C158.584 97.4872 160.705 97.1732 160.705 97.1732C160.705 97.1732 162.252 97.0865 162.481 97.2599C162.71 97.4328 165.405 96.5429 165.405 96.5429C165.405 96.5429 165.893 95.4596 165.519 95.2818C165.146 95.1035 165.634 93.4245 165.634 93.4245L165.405 82.0763L164.941 80.6153L163.702 79.8691L162.442 80.8723L161.84 80.959L160.672 80.3752Z" fill="black"/>
<path d="M160.672 80.2029L158.041 81.441L156.001 97.1739C156.001 97.1739 157.205 96.629 157.892 96.9726C158.58 97.3163 160.7 97.0023 160.7 97.0023C160.7 97.0023 162.248 96.9156 162.477 97.0872C162.706 97.2588 165.401 96.372 165.401 96.372C165.401 96.372 165.888 95.2887 165.515 95.1109C165.142 94.9327 165.629 93.2536 165.629 93.2536L165.401 81.9054L164.936 80.4444L163.698 79.6982L162.438 80.7014L161.836 80.7881L160.672 80.2029Z" fill="white"/>
<path opacity="0.1" d="M160.629 80.9337C160.629 80.9337 161.389 81.836 161.374 82.0169C161.361 82.1978 161.331 82.6486 161.331 82.6486L160.759 83.8079C160.759 83.8079 160.449 85.2547 160.449 85.5568C160.449 85.8585 159.948 88.4646 159.948 88.4646L159.333 92.4814L158.573 97.7436L159.347 99.0759L160.265 98.3023L161.483 88.9322L161.74 87.0841C161.74 87.0841 162.012 83.7597 162.012 83.416C161.983 82.9984 161.931 82.5822 161.857 82.17C161.857 82.17 162.045 81.3097 162.819 81.1102C163.592 80.9102 162.76 81.0668 162.76 81.0668L162.317 80.709L161.93 80.8638C161.93 80.8638 160.857 80.5325 160.629 80.9337Z" fill="black"/>
<path d="M160.543 80.8475C160.543 80.8475 161.301 81.7498 161.287 81.9307C161.273 82.1116 161.244 82.5606 161.244 82.5606L160.671 83.7217C160.671 83.7217 160.361 85.1685 160.361 85.4688C160.361 85.7692 159.86 88.3771 159.86 88.3771L159.259 92.3889L158.5 97.6512L159.273 98.9839L160.19 98.2099L161.408 88.8397L161.666 86.9917C161.666 86.9917 161.939 83.6672 161.939 83.3236C161.909 82.9056 161.858 82.4889 161.784 82.0762C161.784 82.0762 161.97 81.2172 162.744 81.016C163.517 80.8147 162.686 80.9744 162.686 80.9744L162.242 80.6152L161.855 80.77C161.855 80.77 160.772 80.4463 160.543 80.8475Z" fill="#FF0000"/>
<path opacity="0.1" d="M160.044 79.3428C160.044 79.3428 159.93 79.4295 159.901 80.0018C159.871 80.5746 159.47 81.8591 159.47 81.8591C159.47 81.8591 160.961 80.8285 161.705 80.9431L160.044 79.3428Z" fill="black"/>
<path d="M160.044 79.1709C160.044 79.1709 159.93 79.2576 159.901 79.8304C159.871 80.4028 159.47 81.6877 159.47 81.6877C159.47 81.6877 160.961 80.6567 161.705 80.7712L160.044 79.1709Z" fill="white"/>
<path opacity="0.1" d="M164.114 78.8848L161.764 80.9477C161.764 80.9477 163.74 82.1226 163.999 82.4087C164.258 82.6954 164.515 79.6013 164.515 79.6013L164.114 78.8848Z" fill="black"/>
<path d="M164.192 78.7129L161.843 80.7763C161.843 80.7763 163.821 81.9511 164.078 82.2373C164.335 82.5235 164.593 79.4294 164.593 79.4294L164.192 78.7129Z" fill="white"/>
<path opacity="0.1" d="M160.125 79.3426C160.125 79.3426 159.869 79.2143 159.624 79.5872C159.446 79.83 159.203 80.0185 158.923 80.1308C158.923 80.1308 156.315 80.547 156.214 80.8907L154.996 80.9619C154.996 80.9619 154.566 81.019 154.532 81.9231C154.498 82.8268 154.26 82.9104 154.26 82.9104C154.26 82.9104 153.758 83.7985 153.795 84.2568C153.801 84.3961 153.768 84.5346 153.699 84.6562C153.631 84.7774 153.53 84.8778 153.408 84.9455L155.199 89.6013C155.199 89.6013 155.256 91.5219 154.927 92.223C154.597 92.9241 153.981 96.0353 153.981 96.0353C153.981 96.0353 154.239 95.9778 154.224 96.1499C154.209 96.3215 153.914 98.1987 153.914 98.1987C153.914 98.1987 153.828 98.9436 153.686 99.2019C153.543 99.4602 153.531 100.805 153.531 100.805L153.302 101.78C153.302 101.78 153.845 102.998 154.676 102.827C155.507 102.655 157.01 99.4014 157.01 99.4014L157.97 95.8911L158.716 92.4242L158.931 90.0746L159.274 84.8729L159.776 81.4352C159.776 81.4352 160.327 79.5872 160.125 79.3426Z" fill="black"/>
<path d="M160.045 79.1707C160.045 79.1707 159.786 79.0424 159.543 79.4153C159.364 79.6582 159.121 79.8461 158.841 79.9585C158.841 79.9585 156.233 80.3747 156.132 80.7184L154.916 80.7896C154.916 80.7896 154.485 80.8471 154.442 81.7495C154.398 82.6518 154.169 82.7385 154.169 82.7385C154.169 82.7385 153.668 83.6267 153.705 84.0849C153.711 84.2242 153.678 84.3627 153.609 84.4843C153.541 84.606 153.44 84.7059 153.318 84.7736L155.115 89.4352C155.115 89.4352 155.173 91.3562 154.843 92.0573C154.513 92.7584 153.897 95.8692 153.897 95.8692C153.897 95.8692 154.156 95.8122 154.141 95.9838C154.128 96.1558 153.832 98.0313 153.832 98.0313C153.832 98.0313 153.747 98.7775 153.603 99.0345C153.459 99.2915 153.448 100.64 153.448 100.64L153.219 101.615C153.219 101.615 153.764 102.833 154.595 102.659C155.426 102.486 156.931 99.2357 156.931 99.2357L157.89 95.7255L158.635 92.2586L158.841 89.8997L159.184 84.6975L159.686 81.2602C159.686 81.2602 160.244 79.4153 160.045 79.1707Z" fill="#65617D"/>
<path opacity="0.1" d="M150.849 90.2603L150.018 90.8331C150.018 90.8331 148.747 90.8734 147.839 90.6504L147.375 90.4448L147.282 90.4045L147.378 90.4355C147.747 90.5668 148.147 90.581 148.524 90.4757C149.701 90.0794 149.571 88.1385 149.524 87.6988C149.524 87.6542 149.516 87.6263 149.515 87.6152V87.6263C149.531 87.6524 149.55 87.678 149.569 87.7019L149.622 87.7577L150.052 88.5844C150.053 88.5963 150.053 88.6082 150.052 88.6197L150.849 90.2603Z" fill="black"/>
<path d="M153.724 84.6592L153.323 84.7737L153.266 85.5894C153.266 85.5894 152.802 85.5182 152.664 86.0768C152.609 86.3732 152.487 86.6527 152.306 86.8942C152.306 86.8942 151.519 87.5533 151.475 88.1124L150.988 88.4123C150.988 88.4123 149.856 88.154 149.595 87.6957C149.595 87.6957 150.112 91.3917 147.36 90.4819C147.36 90.4819 150.44 91.8283 150.584 92.0154C150.728 92.203 151.667 92.7461 152.532 92.2879C153.398 91.8301 153.579 91.1272 153.579 91.1272C153.579 91.1272 154.41 89.9666 154.438 89.7945C154.466 89.6229 155.111 89.4216 155.111 89.4216L156.349 86.4422L153.724 84.6592Z" fill="#65617D"/>
<path opacity="0.1" d="M163.784 80.6043L164.199 78.7129C164.199 78.7129 164.386 79.3321 164.572 79.4728L165.191 79.9372C165.191 79.9372 165.81 80.2239 166.022 80.2239C166.234 80.2239 167.398 80.533 167.54 80.6879C167.683 80.8427 168.257 80.7312 168.257 80.7312C168.257 80.7312 168.729 80.886 169.145 80.99C169.562 81.0935 169.765 81.7777 169.675 82.0502C169.64 82.1855 169.64 82.3275 169.676 82.4629C169.711 82.5982 169.78 82.7225 169.876 82.8238C170.048 82.9954 170.134 83.5545 170.134 83.5545C170.345 83.6231 170.519 83.7722 170.621 83.969C170.764 84.2786 170.721 84.9722 170.721 84.9722L168.587 87.9808C168.587 87.9808 168.615 89.1419 168.529 89.4002C168.444 89.6586 168.83 94.0433 168.83 94.0433L169.274 101.58C169.046 101.779 168.807 101.966 168.557 102.138C168.429 102.195 168.3 99.4728 168.3 99.3737C168.3 99.2746 164.99 94.421 164.99 94.421C164.99 94.421 164.546 93.7045 164.546 93.5466C164.546 93.3886 164.131 91.9414 164.131 91.9414L163.501 89.1556L163.784 80.6043Z" fill="black"/>
<path d="M170.891 84.8096C170.891 84.9087 170.891 84.9737 170.891 84.9737L168.759 87.9797C168.759 87.9797 168.788 89.1403 168.701 89.3987C168.652 89.5535 168.76 91.0905 168.856 92.3565C168.929 93.2698 168.996 94.0404 168.996 94.0404L169.184 97.2366L169.44 101.57C169.212 101.77 168.973 101.957 168.723 102.129C168.595 102.186 168.466 99.4637 168.466 99.3633C168.466 99.2624 165.156 94.4106 165.156 94.4106C165.156 94.4106 164.711 93.6936 164.711 93.5361C164.711 93.3782 164.297 91.9309 164.297 91.9309L163.667 89.1452L163.953 80.6062L164.196 78.7148C164.196 78.7148 164.555 79.3341 164.741 79.473L165.36 79.9467C165.36 79.9467 165.979 80.2333 166.191 80.2333C166.403 80.2333 167.567 80.5425 167.709 80.6973C167.852 80.8521 168.426 80.7407 168.426 80.7407C168.426 80.7407 168.9 80.8955 169.314 80.9994C169.729 81.1029 169.933 81.7872 169.843 82.0597C169.809 82.195 169.81 82.337 169.845 82.4724C169.88 82.6077 169.949 82.7316 170.045 82.8333C170.217 83.0053 170.304 83.564 170.304 83.564C170.514 83.6326 170.688 83.7816 170.789 83.9785C170.874 84.2474 170.908 84.5287 170.891 84.8096Z" fill="#65617D"/>
<path opacity="0.1" d="M153.376 122.984C153.447 122.984 156.456 123.098 156.399 123.586C156.341 124.074 153.376 122.984 153.376 122.984Z" fill="black"/>
<path opacity="0.1" d="M154.055 123.796C154.055 123.796 156.075 124.125 155.546 124.426C155.016 124.726 154.055 123.796 154.055 123.796Z" fill="black"/>
<path opacity="0.1" d="M161.555 122.67C161.555 122.67 164.908 122.957 164.406 123.328C163.905 123.699 162.716 123.758 162.659 123.772C162.601 123.786 161.555 122.67 161.555 122.67Z" fill="black"/>
<path opacity="0.1" d="M161.164 124.145C161.164 124.145 163.021 124.454 163.083 124.818C163.145 125.181 161.164 124.145 161.164 124.145Z" fill="black"/>
<path opacity="0.1" d="M162.191 115.52C162.191 115.52 163.894 115.921 163.997 116.193L162.191 115.52Z" fill="black"/>
<path opacity="0.1" d="M155.621 116.752C155.621 116.752 154.732 117.01 155.593 117.526C156.453 118.041 155.621 116.752 155.621 116.752Z" fill="black"/>
<path opacity="0.1" d="M159.557 102.983C159.658 102.983 161.22 102.467 161.764 102.696C162.154 102.842 162.565 102.919 162.981 102.926L159.557 102.983Z" fill="black"/>
<path opacity="0.1" d="M159.757 104.616L159.741 104.758L158.406 108.256C158.406 108.256 158.19 109.317 158.005 109.919C157.887 110.326 157.794 110.739 157.725 111.157L158.907 103.825L159.757 104.616Z" fill="black"/>
<path d="M161.84 98.4434L161.285 98.4527H161.268L160.941 97.009L161.424 96.9824L161.84 98.4434Z" fill="#3F3D56"/>
<path d="M168.598 96.694L168.242 96.9881L167.051 97.9679C167.051 97.9679 163.828 99.6876 162.94 98.0546C162.157 96.6152 165.811 95.5873 166.692 95.363L166.879 95.3184L168.598 96.694Z" fill="#FBBEBE"/>
<path opacity="0.1" d="M154.83 82.6104C154.83 82.6104 155.46 82.897 155.604 83.2977C155.748 83.6985 154.83 82.6104 154.83 82.6104Z" fill="black"/>
<path opacity="0.1" d="M152.873 86.9082C152.873 86.9082 151.957 88.0259 152.328 88.4559C152.7 88.8863 152.873 86.9082 152.873 86.9082Z" fill="black"/>
<path opacity="0.1" d="M169.269 83.2451C169.269 83.2451 168.41 83.3318 168.381 84.0762L169.269 83.2451Z" fill="black"/>
<path opacity="0.1" d="M161.303 94.9892C161.389 94.9025 163.366 91.9805 163.825 92.2388L161.303 94.9892Z" fill="black"/>
<path opacity="0.1" d="M165.004 75.9902C165.004 76.552 164.865 77.1049 164.6 77.5998H164.575C164.358 77.5534 164.245 77.303 164.081 77.1451C163.98 77.0483 163.85 76.9859 163.711 76.9664C163.573 76.947 163.431 76.9713 163.307 77.0368C163.182 77.1115 163.079 77.2203 163.012 77.3499C162.945 77.48 162.915 77.6259 162.926 77.7719C162.818 77.3075 162.852 76.8244 162.745 76.3649C162.638 75.9053 162.318 75.4364 161.879 75.4364C161.69 75.4364 161.468 75.5059 161.332 75.3635C161.25 75.2785 161.233 75.1436 161.177 75.0401C160.868 74.531 159.908 74.788 159.518 75.0494C159.128 75.3108 158.675 75.7257 158.19 75.9486C158.197 75.0441 158.562 74.1798 159.206 73.5451C159.85 72.9099 160.721 72.5569 161.625 72.5636C162.529 72.5702 163.394 72.936 164.029 73.58C164.663 74.224 165.016 75.0936 165.01 75.9982L165.004 75.9902Z" fill="black"/>
<path d="M161.17 74.9452C161.232 75.0491 161.249 75.1836 161.325 75.2703C161.46 75.4114 161.682 75.3384 161.871 75.3415C162.311 75.3495 162.632 75.8152 162.737 76.2704C162.843 76.7251 162.81 77.2174 162.92 77.6756C162.908 77.5301 162.936 77.3837 163.004 77.2541C163.071 77.1241 163.174 77.0161 163.299 76.9418C163.423 76.8773 163.565 76.8525 163.703 76.8715C163.842 76.891 163.971 76.9529 164.073 77.0489C164.237 77.2037 164.35 77.4589 164.567 77.504C164.784 77.5487 164.991 77.3412 165.068 77.1139C165.124 76.8786 165.165 76.6406 165.192 76.4004C165.29 75.9546 165.582 75.5879 165.743 75.1619C165.935 74.6449 165.931 74.0752 165.729 73.5616C165.621 73.2922 165.462 73.0507 165.353 72.788C165.187 72.3806 165.144 71.9197 164.943 71.5309C164.781 71.2164 164.513 70.9696 164.186 70.8352C163.859 70.7007 163.495 70.6874 163.159 70.7976C162.849 70.9152 162.576 71.1408 162.261 71.243C161.837 71.3792 161.385 71.277 160.947 71.2151C160.509 71.1532 160.018 71.1488 159.672 71.4367C159.266 71.7693 159.155 72.393 158.774 72.757C158.619 72.9118 158.415 73.0074 158.246 73.1485C158.155 73.2157 158.081 73.3033 158.029 73.4046C157.978 73.5054 157.951 73.6169 157.951 73.7306C157.977 74.0274 158.26 74.2968 158.159 74.5723C158.122 74.6515 158.07 74.7227 158.005 74.7815C157.686 75.1164 157.448 75.5202 157.311 75.9621C158.085 76.2005 158.908 75.3557 159.508 74.9563C159.9 74.6948 160.855 74.4378 161.17 74.9452Z" fill="#7C5C5C"/>
<path opacity="0.1" d="M168.593 96.694L168.238 96.9881C167.928 96.4635 166.631 95.417 166.631 95.417L166.687 95.363L166.874 95.3184L168.593 96.694Z" fill="black"/>
<path d="M168.942 96.1632C168.942 96.1632 168.815 96.4822 168.682 96.7577C168.549 97.0333 168.404 97.2836 168.398 97.0811C168.383 96.6786 166.722 95.3321 166.722 95.3321L166.946 95.1123L167.208 94.8584L168.942 96.1632Z" fill="#FF0000"/>
<path opacity="0.1" d="M168.994 94.0433L169.183 97.2395C168.737 96.5477 167.516 94.774 166.731 94.8311L168.636 92.6398C168.716 92.5513 168.788 92.458 168.855 92.3594C168.927 93.2728 168.994 94.0433 168.994 94.0433Z" fill="black"/>
<path opacity="0.1" d="M168.944 96.1632C168.944 96.1632 168.817 96.4822 168.684 96.7577C168.184 96.0735 167.498 95.264 166.949 95.1123L167.21 94.8584L168.944 96.1632Z" fill="black"/>
<path d="M170.371 84.5723L170.887 84.973C170.887 84.973 171.748 84.9885 171.832 85.7037C171.918 86.419 172.707 86.7498 172.707 86.7498C172.707 86.7498 173.294 87.3381 173.294 87.6106C173.294 87.883 173.738 88.3687 173.738 88.4121C173.738 88.4554 174.168 89.3285 174.111 89.4864C174.054 89.6444 174.575 90.3313 174.411 90.59C174.282 90.8218 174.167 91.0611 174.068 91.3066C174.068 91.3066 173.394 92.596 173.051 92.8388C172.707 93.0816 171.131 95.1327 171.131 95.1327C171.131 95.1327 169.44 97.0798 169.44 97.6818C169.44 97.6818 167.793 94.9314 166.818 95.0026L168.723 92.8109C168.723 92.8109 169.053 92.4518 169.068 92.2381C169.084 92.0245 169.985 91.0341 170.415 90.9908C170.415 90.9908 170.486 90.4043 170.3 90.3888C170.114 90.3733 169.957 89.9243 169.957 89.9243C169.957 89.9243 168.696 88.4337 168.681 87.488C168.668 86.5424 170.371 84.5723 170.371 84.5723Z" fill="#65617D"/>
<path opacity="0.1" d="M171.13 85.9336C171.13 85.9336 169.926 86.8218 170.184 87.1097C170.443 87.3977 171.13 85.9336 171.13 85.9336Z" fill="black"/>
<path opacity="0.1" d="M171.188 89.6017C171.188 89.6017 173.424 88.8851 173.653 89.6017H171.188Z" fill="black"/>
<path opacity="0.1" d="M157.351 127.665C157.351 127.665 156.147 128.454 155.545 128.338C155.128 128.285 154.704 128.355 154.326 128.539C153.912 128.992 153.39 129.332 152.808 129.528C151.833 129.858 150.473 129.727 149.698 129.47C149.333 129.348 149.304 129.191 149.48 128.997C150.321 129.164 152.201 129.497 152.708 129.256C153.265 128.96 153.802 128.624 154.312 128.253C154.312 128.253 155.551 128.081 155.716 128.081C155.838 128.081 156.79 127.687 157.328 127.462L157.351 127.665Z" fill="black"/>
<path opacity="0.1" d="M164.642 129.282C164.642 129.33 164.63 129.361 164.63 129.361C164.63 129.361 164.344 129.991 162.753 130.22C161.162 130.449 161.164 129.69 161.164 129.69L161.179 129.485C161.682 129.677 162.781 129.889 164.642 129.282Z" fill="black"/>
<path opacity="0.1" d="M155.422 85.7607C155.422 85.7607 155.422 89.0282 155.143 89.3502C154.864 89.6722 155.422 85.7607 155.422 85.7607Z" fill="black"/>
<path opacity="0.1" d="M168.337 86.8154L168.754 87.9827C168.754 87.9827 168.918 86.8371 168.337 86.8154Z" fill="black"/>
<g opacity="0.1">
<path opacity="0.1" d="M158.209 74.2908C158.314 74.0232 158.038 73.7587 158.003 73.4707C157.966 73.5516 157.95 73.6406 157.957 73.729C157.975 73.9471 158.136 74.1501 158.178 74.3483C158.19 74.3301 158.2 74.3111 158.209 74.2908Z" fill="black"/>
<path opacity="0.1" d="M162.964 77.3775C162.862 76.9255 162.893 76.4487 162.787 75.9953C162.682 75.5419 162.36 75.0664 161.921 75.0664C161.732 75.0664 161.511 75.1345 161.375 74.9939C161.291 74.9085 161.275 74.7741 161.22 74.6688C160.91 74.161 159.95 74.4198 159.559 74.6798C158.974 75.0682 158.166 75.8838 157.417 75.6981C157.381 75.7848 157.347 75.8728 157.319 75.9643C158.093 76.2027 158.917 75.3575 159.515 74.9581C159.907 74.6984 160.862 74.4414 161.176 74.9488C161.238 75.0527 161.255 75.1872 161.331 75.2739C161.467 75.415 161.689 75.342 161.877 75.3451C162.317 75.353 162.639 75.8188 162.744 76.274C162.849 76.7287 162.817 77.221 162.927 77.6792C162.919 77.577 162.932 77.4744 162.964 77.3775Z" fill="black"/>
<path opacity="0.1" d="M165.115 76.8397C165.038 77.0675 164.834 77.2763 164.612 77.2299C164.391 77.1834 164.284 76.9326 164.12 76.7747C164.018 76.6787 163.889 76.6168 163.751 76.5974C163.612 76.5779 163.471 76.6022 163.346 76.6664C163.227 76.738 163.128 76.8402 163.062 76.9623C162.995 77.0844 162.962 77.2224 162.966 77.3617C163.023 77.1865 163.143 77.0388 163.303 76.9468C163.427 76.8818 163.569 76.8574 163.707 76.8765C163.846 76.8955 163.975 76.9574 164.077 77.0534C164.241 77.2082 164.354 77.4639 164.571 77.5085C164.787 77.5537 164.995 77.3462 165.072 77.1184C165.114 76.9848 165.141 76.8468 165.151 76.7066C165.142 76.7517 165.13 76.7964 165.115 76.8397Z" fill="black"/>
<path opacity="0.1" d="M165.791 74.8868C165.636 75.311 165.338 75.6781 165.24 76.1253C165.222 76.2151 165.209 76.308 165.198 76.4009C165.297 75.955 165.587 75.5897 165.748 75.1624C165.82 74.9718 165.864 74.7714 165.879 74.5684C165.858 74.6767 165.829 74.7833 165.791 74.8868Z" fill="black"/>
</g>
<path d="M145.088 85.2616C145.108 85.2616 145.124 85.2457 145.124 85.2263C145.124 85.2064 145.108 85.1904 145.088 85.1904C145.069 85.1904 145.053 85.2064 145.053 85.2263C145.053 85.2457 145.069 85.2616 145.088 85.2616Z" fill="#E6E8EC"/>
<path d="M158.73 86.0244H132.734C132.169 86.0244 131.711 86.4827 131.711 87.0475V117.228C131.711 117.794 132.169 118.251 132.734 118.251H158.73C159.295 118.251 159.753 117.794 159.753 117.228V87.0475C159.753 86.4827 159.295 86.0244 158.73 86.0244Z" fill="white"/>
<path opacity="0.1" d="M158.73 86.0244H132.734C132.169 86.0244 131.711 86.4827 131.711 87.0475V117.228C131.711 117.794 132.169 118.251 132.734 118.251H158.73C159.295 118.251 159.753 117.794 159.753 117.228V87.0475C159.753 86.4827 159.295 86.0244 158.73 86.0244Z" fill="#5A5773"/>
<path d="M157.306 87.668H134.17C133.605 87.668 133.147 88.1262 133.147 88.6911V115.585C133.147 116.15 133.605 116.608 134.17 116.608H157.306C157.871 116.608 158.329 116.15 158.329 115.585V88.6911C158.329 88.1262 157.871 87.668 157.306 87.668Z" fill="white"/>
<path d="M153.151 93.4717H137.741C137.226 93.4717 136.808 93.8897 136.808 94.405V98.5004C136.808 99.0157 137.226 99.4337 137.741 99.4337H153.151C153.666 99.4337 154.084 99.0157 154.084 98.5004V94.405C154.084 93.8897 153.666 93.4717 153.151 93.4717Z" fill="#E00909"/>
<path d="M153.448 101.615H137.439V102.832H153.448V101.615Z" fill="#E00909"/>
<path d="M156.746 104.183H134.719V105.399H156.746V104.183Z" fill="#E00909"/>
<path d="M156.746 106.885H134.719V108.101H156.746V106.885Z" fill="#E00909"/>
<path d="M156.746 109.587H134.719V110.803H156.746V109.587Z" fill="#E00909"/>
<path d="M65.2982 75.3711H1.31606C0.751215 75.3711 0.292969 75.8289 0.292969 76.3942V106.575C0.292969 107.14 0.751215 107.598 1.31606 107.598H65.2982C65.863 107.598 66.3213 107.14 66.3213 106.575V76.3942C66.3213 75.8289 65.863 75.3711 65.2982 75.3711Z" fill="white"/>
<path opacity="0.1" d="M65.2982 75.3711H1.31606C0.751215 75.3711 0.292969 75.8289 0.292969 76.3942V106.575C0.292969 107.14 0.751215 107.598 1.31606 107.598H65.2982C65.863 107.598 66.3213 107.14 66.3213 106.575V76.3942C66.3213 75.8289 65.863 75.3711 65.2982 75.3711Z" fill="#5A5773"/>
<path d="M61.9299 77.0146H4.68519C4.12035 77.0146 3.66211 77.4725 3.66211 78.0377V104.931C3.66211 105.496 4.12035 105.954 4.68519 105.954H61.9299C62.4952 105.954 62.953 105.496 62.953 104.931V78.0377C62.953 77.4725 62.4952 77.0146 61.9299 77.0146Z" fill="white"/>
<path d="M52.033 82.8203H13.2233C12.708 82.8203 12.29 83.2383 12.29 83.7536V87.8491C12.29 88.3644 12.708 88.7824 13.2233 88.7824H52.033C52.5483 88.7824 52.9663 88.3644 52.9663 87.8491V83.7536C52.9663 83.2383 52.5483 82.8203 52.033 82.8203Z" fill="#E00909"/>
<path d="M51.4712 90.9619H13.7788V92.1787H51.4712V90.9619Z" fill="#E00909"/>
<path d="M59.2402 93.5293H7.37549V94.7457H59.2402V93.5293Z" fill="#E00909"/>
<path d="M59.2402 96.2314H7.37549V97.4478H59.2402V96.2314Z" fill="#E00909"/>
<path d="M59.2402 98.9336H7.37549V100.15H59.2402V98.9336Z" fill="#E00909"/>
<path d="M16.4292 130.788C16.6132 130.116 16.7384 129.525 16.7384 129.525C16.7419 129.076 16.8605 128.635 17.0821 128.245V128.059L17.1347 126.696C17.0529 126.444 16.9494 126.201 16.8251 125.968C16.596 125.53 16.9025 123.968 16.9025 123.968C16.9025 123.968 17.8977 121.791 17.7305 120.377C17.5633 118.964 19.8386 114.213 19.8386 114.213C19.8448 113.744 19.797 113.277 19.6962 112.82C19.6781 112.724 19.6728 112.627 19.6807 112.53C19.6803 112.519 19.6803 112.507 19.6807 112.495V112.506C19.7475 111.577 20.5459 109.875 20.5459 109.875L20.5755 106.562C20.5755 106.562 20.1823 104.594 21.04 102.004C21.3416 101.1 21.5398 100.376 21.6698 99.8158C21.6853 99.7525 21.699 99.6919 21.7114 99.6331C20.1513 99.3328 18.9597 99.0882 18.9597 99.0882C18.9597 99.0882 20.0169 95.3152 20.6622 94.6725C21.3076 94.0302 21.8742 91.9531 21.8742 91.9531C21.8742 91.9531 22.2979 89.2757 21.8123 88.4707C21.3261 87.6661 21.3045 86.3042 21.3045 86.3042C21.3045 86.3042 20.1558 85.4019 20.0231 85.0162C19.8899 84.6309 19.6776 83.7626 19.6949 83.3137C19.7117 82.8652 19.8758 82.4627 19.8355 82.2225C19.7953 81.9827 20.2239 81.0946 20.043 80.658C19.9979 80.524 19.9771 80.3829 19.981 80.2413C19.981 80.2413 19.981 80.2418 19.981 80.2294C19.9939 79.8543 20.0434 79.4819 20.1283 79.1165C20.48 78.8414 20.886 78.6441 21.32 78.5375L21.3491 78.4353L21.4265 78.1708C21.4646 78.1469 21.504 78.1253 21.5442 78.1058L21.5522 78.008L21.5769 77.6228L21.4283 76.7434C21.1187 75.2174 23.1494 75.0706 23.1494 75.0706C23.2799 74.8432 23.49 74.6725 23.739 74.5907C24.1508 74.4637 23.7204 76.8673 23.524 77.0146C23.3692 77.1243 22.9048 77.8656 22.6805 78.2296L22.6434 78.2898C22.6757 78.3208 22.7057 78.3544 22.7332 78.3907L22.6354 78.9121L22.6199 78.9909C22.7478 79.1625 22.8495 79.3518 22.9216 79.5526C22.9216 79.5526 22.5363 79.9428 22.5938 80.3979C22.6102 80.7518 22.558 81.1056 22.439 81.4396C22.4607 81.4161 22.7314 81.1454 22.9884 81.2228C23.2454 81.3002 23.9602 81.5462 23.9602 81.5462C23.9602 81.5462 24.4976 81.6625 24.4432 81.7802C24.3892 81.8978 24.7882 82.4361 24.7882 82.4361L26.2943 81.1162C26.3115 81.0742 26.327 81.034 26.3425 80.9924C26.4115 80.7978 26.4633 80.5969 26.4969 80.393C26.3385 80.3497 26.1833 80.2944 26.0329 80.2276C25.8816 80.1697 25.7471 80.0763 25.6397 79.9551C25.5003 79.7756 25.4848 79.5371 25.4309 79.3191C25.3318 78.8918 25.0996 78.5048 24.9368 78.0947C24.6643 77.4065 24.5922 76.6554 24.7294 75.9278C24.7625 75.7053 24.8475 75.493 24.9771 75.309C25.2279 74.9914 25.6627 74.8755 25.9864 74.6278C26.3098 74.3801 26.5265 73.9887 26.8981 73.8078C27.2355 73.6437 27.6363 73.6808 28.0061 73.7551C28.7244 73.9015 29.4091 74.1802 30.0257 74.577C30.2332 74.7114 30.4609 74.8662 30.7069 74.8309C30.9112 74.7764 31.0913 74.6548 31.2178 74.4854C31.2169 74.4783 31.2169 74.4712 31.2178 74.4637L31.2346 74.4469C31.3752 74.7941 31.4376 75.1683 31.4172 75.5425C31.4172 75.6001 31.4172 75.6589 31.4049 75.7159C31.4049 75.7363 31.4049 75.7562 31.4049 75.7761C31.4035 75.7933 31.4035 75.8106 31.4049 75.8274C31.4044 75.8531 31.4075 75.8787 31.4142 75.903C31.4416 75.9796 31.4854 76.049 31.5429 76.1061C31.5849 76.1578 31.622 76.2131 31.6543 76.2715C31.6543 76.2516 31.6433 76.2312 31.6371 76.2113C31.7247 76.3502 31.7711 76.5112 31.7702 76.6753C31.7738 76.7952 31.73 76.9115 31.6481 76.9991C31.5729 77.0686 31.4911 77.1296 31.4035 77.1818C31.4818 77.7435 31.3863 78.3163 31.1293 78.8224C30.8728 79.3284 30.4671 79.7437 29.9673 80.0126C29.9487 80.0529 29.9302 80.0945 29.9129 80.1365C29.6825 80.6284 29.571 81.1675 29.5878 81.7103C29.5878 81.7492 29.5878 81.7877 29.6002 81.8266C29.6126 81.8651 29.636 81.8682 29.6515 81.8898C29.6515 81.8898 32.0502 82.0062 32.6354 81.5152C33.2206 81.0247 34.0128 82.82 34.0128 82.82C34.0128 82.82 34.8673 83.0195 35.0452 82.8603C35.2234 82.7011 36.2275 82.882 36.2275 82.882C36.6534 82.5308 37.1971 82.3556 37.7477 82.3914C38.0936 82.149 38.4727 81.9571 38.873 81.8217L38.9009 81.8124C39.0756 81.7554 39.2614 81.739 39.444 81.7647C39.444 81.7647 40.6622 80.8358 41.0258 80.3236C41.3894 79.8114 43.0967 77.9337 43.0967 77.9244L43.1073 77.8316L43.137 77.5502C43.1847 77.56 43.2334 77.5662 43.2825 77.5684L43.3197 77.4711C43.424 77.199 43.551 76.9359 43.6987 76.6846C43.6987 76.6846 43.7124 76.3272 43.612 76.2343C43.5112 76.1414 43.7093 74.8415 43.7093 74.8415C43.7093 74.8415 44.8687 72.3959 45.7493 74.289C45.7493 74.289 47.5044 75.5598 45.9382 76.9C45.9382 76.9 45.3189 77.1694 45.2309 77.3968C45.169 77.5516 44.9478 77.9572 44.7992 78.231L44.7324 78.3535L44.7497 78.369L44.7187 78.6008L44.7063 78.6923C44.9832 78.8639 45.1708 79.0311 45.1195 79.1567C45.0275 79.3593 44.9611 79.573 44.9231 79.7928C44.9231 79.7928 42.7345 82.3154 42.4217 83.4282C42.4217 83.4282 36.6857 86.5453 34.8377 86.7125L35.0934 88.3902C35.1234 88.8431 35.1305 89.2974 35.115 89.7508C35.0761 90.1068 35.2606 91.7337 35.2606 91.7337C35.2606 91.7337 35.4879 94.1262 35.7462 94.4699C36.005 94.8136 35.901 96.2405 35.901 96.2405C35.94 96.9265 36.0373 97.6082 36.1921 98.2774C36.4274 99.1921 36.1921 100.303 36.1921 100.303C36.1921 100.303 37.0449 102.481 34.8625 100.942C34.8625 100.942 33.7669 100.833 32.504 100.742C32.504 100.782 32.504 100.825 32.504 100.867C32.504 101.031 32.4961 101.207 32.4916 101.393C32.4607 102.621 32.4032 104.311 32.2979 105.587C32.1121 107.846 31.2518 112.294 31.2518 112.294L31.1651 114.541C31.2018 114.754 31.2155 114.971 31.2054 115.186C31.1908 115.98 30.9506 116.752 30.5136 117.414L30.2827 118.907C30.2827 118.907 29.8417 119.879 29.8107 120.469C29.8099 120.517 29.8143 120.565 29.8231 120.613C29.8346 120.689 29.8382 120.766 29.8342 120.843C29.8342 121.524 29.3574 123.137 29.3574 123.137C29.3574 123.137 29.2689 124.779 29.0199 124.864C28.8062 124.939 29.2645 125.822 29.4007 126.076C29.4056 126.061 29.4091 126.046 29.4113 126.03L29.441 126.079C29.4865 126.214 29.5069 126.356 29.5011 126.499C29.5104 126.612 29.4874 126.724 29.4352 126.825C29.383 126.925 29.3034 127.008 29.2056 127.065C28.7275 127.333 28.4674 127.561 28.8606 127.672C29.0057 127.7 29.149 127.736 29.2906 127.779L29.314 127.724C29.3693 127.749 29.4153 127.791 29.4432 127.844C29.4715 127.898 29.4803 127.959 29.4688 128.019C29.4578 128.213 29.4003 128.403 29.2999 128.57C29.1092 128.992 28.8704 129.391 28.5882 129.758L28.3993 129.73C28.4249 129.803 28.459 129.872 28.5015 129.936C28.5691 130.043 28.6616 130.132 28.7708 130.195C28.8712 130.26 28.984 130.303 29.1017 130.322C29.2353 130.331 29.3649 130.37 29.483 130.432C29.6006 130.496 29.7041 130.583 29.786 130.688C30.0182 131.015 30.1557 131.453 29.6559 131.814L27.8747 132.352C27.8747 132.352 24.8346 132.629 25.0204 131.958C25.2062 131.286 25.33 130.695 25.33 130.695C25.3331 130.279 25.4331 129.87 25.6211 129.5C25.6556 129.44 25.6936 129.382 25.7356 129.327L25.6286 129.311C25.6286 129.311 25.4526 127.802 25.1615 127.509C25.0965 127.44 25.0823 127.389 25.0996 127.355C25.073 127.273 25.1504 127.228 25.2544 127.2C25.2544 127.218 25.2681 127.239 25.2743 127.259C25.3716 127.242 25.4698 127.236 25.5684 127.239C25.5684 127.239 25.6967 126.457 25.3889 126.155C25.3641 126.122 25.3464 126.084 25.3375 126.043C25.3283 126.002 25.3278 125.961 25.3362 125.92C25.3371 125.812 25.3521 125.705 25.3813 125.601C25.384 125.607 25.388 125.614 25.392 125.62C25.5808 124.914 26.166 123.803 26.166 123.803C26.166 123.803 26.2169 123.089 26.0311 122.795C25.8453 122.501 26.2063 118.917 26.2063 118.917C26.2063 118.917 26.1983 117.177 26.4504 116.377C26.703 115.577 26.2478 114.604 26.2478 114.604C26.2478 114.604 26.2478 114.586 26.2558 114.553C26.2562 114.549 26.2562 114.544 26.2558 114.539C26.2558 114.539 26.2713 114.433 26.2961 114.267V114.284C26.3642 113.82 26.4894 112.998 26.573 112.614C26.6919 112.071 26.6703 109.447 26.6703 109.447L26.2695 108.318L25.4074 110.215L24.479 112.753C24.479 112.753 24.0438 113.28 24.0146 113.837C24.0146 113.865 24.0146 113.891 24.0146 113.919C24.0181 113.976 24.0181 114.033 24.0146 114.091C24.0159 114.415 23.9137 114.733 23.7235 114.996C23.7235 114.996 23.4559 116.202 23.1043 116.497C22.7531 116.793 22.7252 117.389 22.7252 117.389C22.7252 117.389 22.2391 119.135 22.0303 119.437C21.8556 119.69 21.8184 120.407 21.8123 120.627C21.8123 120.667 21.8123 120.69 21.8123 120.69C21.8123 120.69 21.73 121.319 21.7114 121.848C21.7114 121.913 21.7114 121.976 21.7114 122.035C21.7105 122.031 21.7105 122.027 21.7114 122.023C21.7057 122.167 21.7172 122.31 21.7455 122.452C21.7455 122.452 21.7455 122.468 21.7455 122.478V122.388C21.8189 122.751 21.8476 123.121 21.8308 123.49C21.8167 124.123 21.6915 124.869 21.2903 125.295C20.5972 126.031 20.1836 125.914 20.1836 125.914C20.1836 125.914 20.4672 126.878 20.8524 127.084C20.8675 127.092 20.8812 127.101 20.8944 127.112C20.8944 127.093 20.8944 127.075 20.9051 127.057C20.9462 127.107 20.9763 127.164 20.994 127.226C21.0112 127.288 21.0161 127.353 21.0072 127.417C21.0196 127.836 20.7286 128.5 20.4654 128.809C20.3698 128.898 20.2531 128.961 20.1266 128.992C20.146 129.007 20.1659 129.02 20.1867 129.032C20.2301 129.058 20.2743 129.081 20.3199 129.101C20.3827 129.131 20.4495 129.151 20.518 129.161C20.6516 129.17 20.7816 129.207 20.8997 129.27C21.0178 129.334 21.1209 129.422 21.2023 129.528C21.4345 129.853 21.5721 130.291 21.0723 130.651L19.2906 131.19C19.2906 131.19 16.2417 131.459 16.4292 130.788Z" fill="url(#paint2_linear)"/>
<path d="M27.9367 132.356L29.6622 131.816C30.1466 131.453 30.0134 131.015 29.7892 130.689C29.7118 130.584 29.6127 130.498 29.4986 130.435C29.3845 130.372 29.2584 130.334 29.1284 130.325C29.0129 130.306 28.9032 130.262 28.8063 130.196C28.7011 130.133 28.6126 130.045 28.548 129.94C28.4317 129.738 28.3733 129.507 28.3791 129.274C28.3791 129.274 26.531 128.655 25.9989 129.183C25.9047 129.278 25.8251 129.388 25.7619 129.506C25.5792 129.878 25.4819 130.287 25.4774 130.701C25.4774 130.701 25.3598 131.291 25.1784 131.964C24.9975 132.637 27.9367 132.356 27.9367 132.356Z" fill="#2D293D"/>
<path d="M19.6428 131.197L21.3683 130.657C21.8527 130.294 21.72 129.856 21.4953 129.531C21.4179 129.426 21.3184 129.339 21.2042 129.276C21.0897 129.213 20.9632 129.175 20.8331 129.166C20.7663 129.157 20.7013 129.137 20.6412 129.107C20.5969 129.086 20.554 129.063 20.5124 129.038C20.048 128.757 20.0838 128.109 20.0838 128.109C20.0838 128.109 18.2358 127.49 17.7033 128.018C17.6321 128.089 17.5688 128.168 17.5144 128.253C17.2981 128.646 17.1835 129.087 17.1804 129.536C17.1804 129.536 17.061 130.127 16.8814 130.799C16.7019 131.47 19.6428 131.197 19.6428 131.197Z" fill="#2D293D"/>
<path opacity="0.1" d="M25.998 129.183C25.9042 129.279 25.8251 129.388 25.7627 129.507L28.5484 129.938C28.4321 129.736 28.3742 129.506 28.3799 129.273C28.3799 129.273 26.5368 128.655 25.998 129.183Z" fill="black"/>
<path opacity="0.1" d="M17.516 128.259L17.4961 128.784C17.9048 129.519 20.0173 129.443 20.6423 129.107C20.5985 129.086 20.5556 129.063 20.514 129.038C20.0496 128.757 20.0854 128.109 20.0854 128.109C20.0854 128.109 18.2374 127.49 17.7049 128.018C17.6332 128.091 17.57 128.172 17.516 128.259Z" fill="black"/>
<path d="M17.2642 125.987C17.3872 126.221 17.4907 126.464 17.5738 126.714L17.4977 128.593C17.9436 129.398 20.4294 129.231 20.7793 128.816C21.1288 128.402 21.5282 127.295 21.1553 127.091C20.7824 126.887 20.5082 125.92 20.5082 125.92C20.5082 125.92 20.9094 126.032 21.5826 125.302C22.2558 124.571 22.1288 122.867 22.0236 122.458C21.9183 122.05 22.093 120.697 22.093 120.697C22.093 120.697 22.1054 119.743 22.3084 119.442C22.511 119.14 22.983 117.394 22.983 117.394C22.983 117.394 23.0046 116.799 23.3501 116.503C23.6951 116.207 23.9565 115 23.9565 115C24.1635 114.704 24.2617 114.346 24.2338 113.986C24.1856 113.389 24.6855 112.763 24.6855 112.763L25.594 110.225L26.43 108.326L26.8152 109.46C26.8152 109.46 26.8338 112.084 26.7179 112.627C26.6016 113.171 26.4083 114.617 26.4083 114.617C26.4083 114.617 26.848 115.588 26.6034 116.39C26.3588 117.191 26.3619 118.93 26.3619 118.93C26.3619 118.93 26.0089 122.515 26.1885 122.808C26.368 123.101 26.3172 123.814 26.3172 123.814C26.3172 123.814 25.2614 125.871 25.5586 126.17C25.8558 126.469 25.732 127.253 25.732 127.253C25.732 127.253 25.0663 127.227 25.3405 127.524C25.6143 127.821 25.7612 129.318 25.7612 129.318L28.6261 129.762C28.9008 129.393 29.1321 128.994 29.3166 128.572C29.7314 127.707 29.2763 127.784 28.8972 127.674C28.5177 127.564 28.7685 127.335 29.2312 127.067C29.6943 126.8 29.4572 126.147 29.4572 126.147C29.4572 126.147 28.8119 124.953 29.0547 124.868C29.298 124.783 29.3829 123.141 29.3829 123.141C29.3829 123.141 29.934 121.206 29.835 120.679C29.7359 120.151 30.2852 118.908 30.2852 118.908L30.5082 117.416C31.0509 116.585 31.2756 115.587 31.1411 114.604L31.2309 112.294C31.2309 112.294 32.0731 107.854 32.262 105.588C32.3796 104.142 32.4385 102.166 32.4646 100.932C32.48 100.239 32.4862 99.7811 32.4862 99.7811L22.2447 98.3135C22.2093 98.8266 22.1271 99.3352 21.9988 99.8337C21.8736 100.395 21.6799 101.12 21.3796 102.024C20.5409 104.613 20.9156 106.582 20.9156 106.582L20.8828 109.894C20.8828 109.894 19.8925 112.073 20.0548 112.842C20.1521 113.3 20.1977 113.767 20.191 114.235C20.191 114.235 17.987 118.984 18.148 120.391C18.309 121.798 17.3416 123.983 17.3416 123.983C17.3416 123.983 17.043 125.549 17.2642 125.987Z" fill="#575988"/>
<path opacity="0.05" d="M23.6266 113.812L20.5127 113.271C20.5127 113.271 22.217 115.153 23.6266 113.812Z" fill="black"/>
<path opacity="0.1" d="M21.081 110.235C21.081 110.235 20.9262 111.338 21.5932 111.783C21.587 111.78 20.3875 111.543 21.081 110.235Z" fill="black"/>
<path opacity="0.1" d="M21.4097 106.719C21.4097 106.719 23.9433 108.974 24.9014 108.833C25.8594 108.692 21.4097 106.719 21.4097 106.719Z" fill="black"/>
<path opacity="0.1" d="M27.4644 114.974C27.4644 114.974 29.4344 115.503 29.4636 116.301C29.4933 117.1 27.4644 114.974 27.4644 114.974Z" fill="black"/>
<path opacity="0.05" d="M26.6429 124.879C26.6429 124.879 29.429 125.51 28.6209 125.837C27.8133 126.163 26.4898 126.399 26.4898 126.399C26.4898 126.399 25.5826 126.414 26.6429 124.879Z" fill="black"/>
<g opacity="0.05">
<path opacity="0.05" d="M29.1613 126.427C29.2334 126.385 29.2953 126.328 29.3426 126.259C29.3895 126.191 29.4209 126.113 29.4337 126.03L29.4598 126.081C29.4598 126.081 29.6982 126.733 29.2342 127.01C29.1816 127.039 29.1321 127.07 29.0794 127.1C28.9972 127.081 28.9074 127.066 28.8224 127.041C28.4447 126.925 28.6968 126.696 29.1613 126.427Z" fill="black"/>
<path opacity="0.05" d="M25.5526 126.098C25.4783 126.024 25.4894 125.841 25.5526 125.607C25.6592 125.823 25.7052 126.064 25.6858 126.304C25.6579 126.226 25.6124 126.155 25.5526 126.098Z" fill="black"/>
<path opacity="0.05" d="M26.4421 114.273C26.5345 114.56 26.5867 114.857 26.5969 115.157C26.5514 114.948 26.4863 114.744 26.4019 114.548C26.4019 114.548 26.4191 114.441 26.4421 114.273Z" fill="black"/>
<path opacity="0.05" d="M20.0603 112.777C20.0444 112.69 20.0391 112.602 20.0435 112.515C20.0727 112.694 20.0913 112.86 20.1023 113.006C20.0899 112.931 20.0758 112.855 20.0603 112.777Z" fill="black"/>
<path opacity="0.05" d="M26.1814 122.738C26.135 122.565 26.1182 122.385 26.1323 122.207C26.2119 122.422 26.2495 122.65 26.2433 122.879C26.2283 122.829 26.2075 122.782 26.1814 122.738Z" fill="black"/>
<path opacity="0.05" d="M25.4193 127.2C25.5489 127.684 25.6395 128.177 25.6904 128.675L28.5553 129.119C28.8304 128.751 29.0627 128.351 29.2471 127.929C29.2843 127.853 29.3121 127.785 29.3369 127.723C29.5054 127.808 29.5673 127.991 29.3196 128.505C29.1352 128.926 28.9039 129.325 28.6292 129.694L25.7585 129.253C25.7585 129.253 25.6037 127.745 25.3264 127.45C25.1981 127.302 25.2941 127.236 25.4193 127.2Z" fill="black"/>
<path opacity="0.05" d="M29.3906 123.075C29.3906 123.075 29.3039 124.718 29.0624 124.803C28.9522 124.526 28.881 124.266 28.9894 124.227C29.2309 124.14 29.3193 122.499 29.3193 122.499C29.3193 122.499 29.87 120.567 29.7709 120.037C29.6723 119.508 30.2199 118.268 30.2199 118.268L30.4446 116.774C30.9869 115.944 31.212 114.945 31.0776 113.962L31.1656 111.653C31.1656 111.653 32.0047 107.205 32.1873 104.947C32.3032 103.501 32.3621 101.525 32.3899 100.291C32.3899 100.068 32.3992 99.8703 32.4023 99.7031L32.4841 99.7155C32.4841 99.7155 32.4841 100.18 32.4625 100.865C32.4364 102.104 32.3775 104.077 32.2599 105.522C32.0772 107.779 31.2399 112.229 31.2399 112.229L31.1501 114.536C31.2846 115.519 31.0603 116.518 30.5189 117.349L30.2929 118.842C30.2929 118.842 29.7435 120.08 29.8422 120.613C29.9412 121.146 29.3906 123.075 29.3906 123.075Z" fill="black"/>
<path opacity="0.05" d="M20.7042 128.176C20.9506 127.847 21.1204 127.467 21.2027 127.063C21.4858 127.339 21.1098 128.356 20.7767 128.75C20.4441 129.145 17.9415 129.333 17.4956 128.529L17.5129 128.076C18.1317 128.738 20.3729 128.57 20.7042 128.176Z" fill="black"/>
<path opacity="0.05" d="M17.191 125.343C17.314 125.576 17.4175 125.82 17.5006 126.07L17.4865 126.403C17.4219 126.238 17.3485 126.075 17.2666 125.917C17.1985 125.727 17.1711 125.525 17.1861 125.324L17.191 125.343Z" fill="black"/>
<path opacity="0.05" d="M20.6516 125.857C20.5676 125.67 20.4964 125.479 20.438 125.283C20.438 125.283 20.8387 125.392 21.5106 124.656C21.9994 124.118 22.0662 123.074 22.0259 122.387C22.1312 122.797 22.2564 124.493 21.5845 125.23C21.1422 125.713 20.8184 125.832 20.6516 125.857Z" fill="black"/>
<path opacity="0.05" d="M22.0943 120.625C22.0341 121.093 22 121.564 21.9921 122.035C21.9828 121.96 21.9691 121.886 21.9518 121.812C21.8479 121.402 22.02 120.051 22.02 120.051C22.02 120.051 22.0337 119.097 22.2349 118.796C22.4362 118.494 22.9099 116.748 22.9099 116.748C22.9099 116.748 22.9329 116.154 23.2779 115.856C23.6234 115.559 23.8848 114.353 23.8848 114.353C24.0913 114.058 24.1891 113.7 24.1617 113.34C24.1139 112.742 24.6137 112.117 24.6137 112.117L25.5222 109.579L26.3582 107.68L26.7435 108.816C26.7435 108.816 26.7435 108.955 26.7435 109.178L26.4339 108.249L25.5983 110.147L24.6898 112.687C24.6898 112.687 24.1895 113.306 24.2377 113.909C24.2656 114.269 24.1679 114.628 23.9609 114.923C23.9609 114.923 23.699 116.129 23.354 116.424C23.009 116.72 22.9873 117.316 22.9873 117.316C22.9873 117.316 22.5136 119.062 22.3123 119.365C22.1111 119.668 22.0943 120.625 22.0943 120.625Z" fill="black"/>
</g>
<path d="M21.7832 76.7592L21.9287 77.6354L21.9039 78.0225L21.8853 78.3073L22.8744 78.448L22.9934 78.2467C23.2132 77.8831 23.6683 77.1418 23.8121 77.0303C24.001 76.883 24.4221 74.4795 24.0226 74.6064C23.7794 74.6905 23.5755 74.8612 23.4498 75.0863C23.4498 75.0863 21.4908 75.235 21.7832 76.7592Z" fill="#FFCDD3"/>
<path opacity="0.1" d="M21.8838 78.3079L22.8728 78.4486L22.9922 78.2473C22.8644 78.0916 22.687 77.9841 22.4898 77.9439C22.2925 77.9032 22.0873 77.9315 21.9086 78.0244L21.8838 78.3079Z" fill="black"/>
<path d="M21.6143 78.7683L22.9129 79.1231L22.947 78.928L23.0412 78.4065C22.9731 78.3087 22.8864 78.2251 22.7864 78.1615C22.686 78.0973 22.5741 78.0535 22.4564 78.0332C22.3392 78.0124 22.2194 78.0155 22.103 78.0416C21.9871 78.0672 21.877 78.1163 21.7797 78.1849L21.7054 78.4498L21.6143 78.7683Z" fill="#DCE6F2"/>
<path d="M42.9048 77.6723L44.2729 78.4769C44.2729 78.4769 44.3304 78.3672 44.4109 78.2172C44.5546 77.943 44.7683 77.5316 44.8284 77.383C44.92 77.1552 45.5145 76.8845 45.5145 76.8845C47.0325 75.5425 45.3349 74.2748 45.3349 74.2748C44.4834 72.3821 43.3599 74.829 43.3599 74.829C43.3599 74.829 43.1662 76.1339 43.2639 76.2219C43.3613 76.3104 43.3476 76.6722 43.3476 76.6722C43.2034 76.9239 43.0799 77.1871 42.9791 77.4586C42.9309 77.5869 42.9048 77.6723 42.9048 77.6723Z" fill="#FFCDD3"/>
<path opacity="0.1" d="M42.9048 77.6729L44.2729 78.4774C44.2729 78.4774 44.3304 78.3678 44.4109 78.2178C44.2189 78.0457 43.5408 77.4437 43.3104 77.4685C43.2003 77.4796 43.0892 77.4796 42.9791 77.4685C42.9309 77.5875 42.9048 77.6729 42.9048 77.6729Z" fill="black"/>
<path d="M42.7437 78.0857L44.2913 78.9199L44.3347 78.5824L44.3656 78.3506C44.3656 78.3506 43.4863 77.5363 43.2169 77.5549C43.0798 77.5686 42.9409 77.5629 42.8056 77.5381L42.7777 77.8194L42.7437 78.0857Z" fill="#DCE6F2"/>
<path d="M25.3706 82.6781C25.3706 82.6781 32.1916 83.7153 30.927 83.2509C30.0464 82.9258 29.7138 82.3454 29.6642 81.7138C29.6474 81.172 29.7531 80.6332 29.9738 80.1383C30.153 79.7127 30.3741 79.3062 30.6347 78.925C30.6347 78.925 25.5086 75.8433 26.4556 78.5021C26.602 78.9046 26.6861 79.3266 26.7051 79.7543C26.7197 80.1789 26.6578 80.6027 26.5224 81.0052C26.2999 81.6581 25.9014 82.2371 25.3706 82.6781Z" fill="#FFCDD3"/>
<path opacity="0.1" d="M26.4627 78.5021C26.6091 78.9046 26.6931 79.3266 26.7117 79.7543C27.1885 80.1865 27.7304 80.1803 28.4253 80.2064C28.9592 80.228 29.5443 80.3798 29.973 80.1383C30.1521 79.7127 30.3737 79.3062 30.6338 78.925C30.6338 78.925 25.5152 75.8433 26.4627 78.5021Z" fill="black"/>
<path d="M28.6181 80.394C30.1831 80.394 31.4521 79.1254 31.4521 77.5605C31.4521 75.9951 30.1831 74.7266 28.6181 74.7266C27.0528 74.7266 25.7842 75.9951 25.7842 77.5605C25.7842 79.1254 27.0528 80.394 28.6181 80.394Z" fill="#FFCDD3"/>
<path opacity="0.1" d="M25.3706 82.6779C25.3706 82.6779 32.1916 83.7147 30.927 83.2507C30.0464 82.9256 29.7138 82.3453 29.6642 81.7137C29.3378 81.3315 28.6628 81.0391 28.228 80.8795C27.8321 80.7304 27.3995 80.7065 26.9895 80.8113C26.8263 80.8525 26.6697 80.9179 26.5255 81.0051C26.3021 81.6584 25.9027 82.2374 25.3706 82.6779Z" fill="black"/>
<path opacity="0.1" d="M21.6143 78.7688L22.9129 79.1235L22.947 78.9284C22.8147 78.7312 22.625 78.5794 22.4034 78.4936C22.1818 78.4083 21.9394 78.3928 21.7085 78.4498L21.6143 78.7688Z" fill="black"/>
<path opacity="0.1" d="M42.7437 78.0855L44.2913 78.9197L44.3347 78.5822C43.8331 78.2925 43.3103 78.0399 42.7715 77.8271L42.7437 78.0855Z" fill="black"/>
<path opacity="0.1" d="M21.9927 99.8337C24.624 100.355 28.3851 101.045 28.9902 100.886C29.4931 100.755 31.0797 100.832 32.4589 100.932C32.4743 100.239 32.4805 99.7811 32.4805 99.7811L22.2391 98.3135C22.2032 98.8266 22.1209 99.3352 21.9927 99.8337Z" fill="black"/>
<path d="M19.3765 99.1087C19.3765 99.1087 28.053 100.944 29.0018 100.695C29.9506 100.446 34.7515 100.94 34.7515 100.94C36.861 102.475 36.0391 100.299 36.0391 100.299C36.0391 100.299 36.2731 99.1875 36.0391 98.2728C35.8896 97.6031 35.7958 96.9215 35.7591 96.2359C35.7591 96.2359 35.8626 94.8089 35.6136 94.467C35.3646 94.1251 35.1492 91.7304 35.1492 91.7304C35.1492 91.7304 34.9745 90.104 35.0116 89.7479C35.0488 89.3918 34.993 88.3873 34.993 88.3873L34.7467 86.7096C36.5407 86.5411 42.0954 83.4179 42.0954 83.4179C42.405 82.3094 44.5237 79.7683 44.5237 79.7683C44.5618 79.5489 44.6263 79.3357 44.7157 79.1322C44.8705 78.7576 42.7611 77.9141 42.7611 77.9141C42.7611 77.9141 41.0878 79.8037 40.7414 80.3145C40.3947 80.8254 39.2075 81.7569 39.2075 81.7569C39.0305 81.7322 38.8505 81.749 38.6811 81.8052H38.6532C38.2667 81.9418 37.9017 82.1342 37.57 82.3762C37.0339 82.3426 36.5058 82.5186 36.0966 82.8667C36.0966 82.8667 35.1262 82.6871 34.9541 82.8464C34.7825 83.0061 33.9545 82.8079 33.9545 82.8079C33.9545 82.8079 33.1804 81.0156 32.6218 81.5061C32.0631 81.9967 29.7321 81.8839 29.7321 81.8839C29.4397 81.4597 28.6966 81.1364 28.2326 80.9661C27.8367 80.8161 27.4041 80.7922 26.9941 80.898C26.8163 80.9417 26.6473 81.0156 26.4943 81.116L25.0333 82.4412C25.0333 82.4412 24.648 81.9025 24.7007 81.7848C24.7533 81.6672 24.2362 81.5526 24.2362 81.5526C24.2362 81.5526 23.5537 81.3111 23.295 81.2306C23.0367 81.1501 22.7845 81.4226 22.7629 81.4473C22.881 81.1134 22.9336 80.7595 22.9177 80.4057C22.8633 79.9509 23.2348 79.5591 23.2348 79.5591C22.4811 77.4806 20.5353 79.1229 20.5353 79.1229C20.5353 79.1229 20.277 80.2323 20.4522 80.6706C20.6269 81.1085 20.2107 81.9954 20.2478 82.2351C20.285 82.4753 20.1284 82.8742 20.1116 83.3263C20.0943 83.7784 20.2987 84.6449 20.4212 85.0288C20.5433 85.4127 21.6593 86.3164 21.6593 86.3164C21.6593 86.3164 21.6792 87.6756 22.1485 88.4833C22.6173 89.2914 22.2055 91.9657 22.2055 91.9657C22.2055 91.9657 21.6482 94.0415 21.0276 94.6851C20.4071 95.3291 19.3765 99.1087 19.3765 99.1087Z" fill="#656691"/>
<path opacity="0.1" d="M32.7124 83.9375C32.7124 83.9375 33.0047 83.1639 33.2449 83.1002C33.4851 83.0224 33.72 82.9277 33.9473 82.8171L33.8049 82.5186C33.8049 82.5186 32.9012 82.7304 32.7495 82.9825C32.5978 83.2351 32.7124 83.9375 32.7124 83.9375Z" fill="black"/>
<path opacity="0.1" d="M37.5635 82.386C37.602 82.6257 39.7118 82.9212 39.7118 82.9212L38.6825 81.8057H38.656C38.2654 81.9446 37.8974 82.1401 37.5635 82.386Z" fill="black"/>
<path d="M43.8132 79.5435C43.9185 79.5435 44.0039 79.4586 44.0039 79.3533C44.0039 79.248 43.9185 79.1631 43.8132 79.1631C43.7084 79.1631 43.623 79.248 43.623 79.3533C43.623 79.4586 43.7084 79.5435 43.8132 79.5435Z" fill="#575988"/>
<path d="M43.552 79.915C43.6573 79.915 43.7427 79.8296 43.7427 79.7248C43.7427 79.6195 43.6573 79.5342 43.552 79.5342C43.4472 79.5342 43.3618 79.6195 43.3618 79.7248C43.3618 79.8296 43.4472 79.915 43.552 79.915Z" fill="#575988"/>
<path d="M43.3044 80.2573C43.4097 80.2573 43.4946 80.1724 43.4946 80.0672C43.4946 79.9619 43.4097 79.877 43.3044 79.877C43.1991 79.877 43.1138 79.9619 43.1138 80.0672C43.1138 80.1724 43.1991 80.2573 43.3044 80.2573Z" fill="#575988"/>
<path d="M43.0427 80.6289C43.148 80.6289 43.2334 80.544 43.2334 80.4387C43.2334 80.3334 43.148 80.248 43.0427 80.248C42.9379 80.248 42.8525 80.3334 42.8525 80.4387C42.8525 80.544 42.9379 80.6289 43.0427 80.6289Z" fill="#575988"/>
<path d="M20.6065 79.71C20.6918 79.71 20.7613 79.6406 20.7613 79.5552C20.7613 79.4698 20.6918 79.4004 20.6065 79.4004C20.5211 79.4004 20.4517 79.4698 20.4517 79.5552C20.4517 79.6406 20.5211 79.71 20.6065 79.71Z" fill="#575988"/>
<path d="M20.5718 80.0596C20.6572 80.0596 20.7266 79.9902 20.7266 79.9048C20.7266 79.819 20.6572 79.75 20.5718 79.75C20.4864 79.75 20.417 79.819 20.417 79.9048C20.417 79.9902 20.4864 80.0596 20.5718 80.0596Z" fill="#575988"/>
<path d="M20.5371 80.4088C20.6225 80.4088 20.6919 80.3398 20.6919 80.254C20.6919 80.1686 20.6225 80.0996 20.5371 80.0996C20.4518 80.0996 20.3823 80.1686 20.3823 80.254C20.3823 80.3398 20.4518 80.4088 20.5371 80.4088Z" fill="#575988"/>
<path opacity="0.1" d="M32.4464 90.3878C32.4694 90.3617 26.8436 96.9301 22.8286 92.855C22.8286 92.855 29.3754 94.0002 32.4464 90.3878Z" fill="black"/>
<path opacity="0.1" d="M35.4014 94.0295C35.4014 94.0295 32.187 93.9937 31.8155 94.904L31.7783 95.8651C31.8677 95.9191 31.9694 95.9496 32.0738 95.9536C32.1786 95.9576 32.2821 95.935 32.3759 95.8881C32.7068 95.7258 34.6848 94.8142 35.3518 95.3158L35.4014 94.0295Z" fill="black"/>
<path d="M35.3378 94.0265C35.3378 94.0265 32.2659 93.9925 31.9099 94.8608L31.874 95.7768C31.9598 95.829 32.0571 95.8582 32.1571 95.8617C32.2571 95.8657 32.3562 95.844 32.4455 95.7985C32.7547 95.6437 34.654 94.7754 35.2914 95.2522L35.3378 94.0265Z" fill="#656691"/>
<path opacity="0.1" d="M33.9101 86.9902C33.5523 87.7364 33.1073 88.4371 32.5841 89.078C32.0117 89.7866 31.3279 90.3974 30.5596 90.8858C30.5596 90.8858 33.8389 87.4233 33.9101 86.9902Z" fill="black"/>
<path opacity="0.1" d="M35.1069 83.3008C35.1069 83.3008 34.4876 85.5929 33.0713 86.3249L35.1069 83.3008Z" fill="black"/>
<path opacity="0.1" d="M35.9184 83.5651C35.9339 83.5235 36.324 85.4131 34.0288 86.3619C34.0288 86.3619 34.9988 86.0726 35.9184 83.5651Z" fill="black"/>
<path opacity="0.1" d="M21.9615 81.4753C21.9968 81.4753 20.8207 82.164 20.4956 82.4909C20.5031 82.4909 21.2847 81.401 21.9615 81.4753Z" fill="black"/>
<path d="M29.2804 80.1565C29.2512 80.3069 29.1667 80.4405 29.0433 80.5311C28.9588 80.5683 28.8664 80.5847 28.7739 80.5789C27.9088 80.6006 27.0082 80.6037 26.2235 80.2401C26.0767 80.1817 25.9462 80.0884 25.8444 79.9676C25.7082 79.788 25.6896 79.5514 25.6414 79.3316C25.5454 78.9043 25.3212 78.519 25.1646 78.109C24.9014 77.4185 24.8337 76.6688 24.9682 75.9421C24.9992 75.72 25.0814 75.5081 25.208 75.3228C25.4495 75.0057 25.8719 74.8893 26.1846 74.6403C26.4973 74.3913 26.7079 74.0012 27.0701 73.8185C27.3952 73.6544 27.7836 73.6902 28.141 73.7658C28.8429 73.9131 29.51 74.1931 30.1067 74.5908C30.3066 74.7257 30.526 74.8787 30.7644 74.8433C30.9687 74.7863 31.147 74.6607 31.2691 74.4873C31.4226 74.8809 31.4787 75.3056 31.4332 75.7253C31.4221 75.7868 31.4221 75.8496 31.4332 75.9111C31.4597 75.9867 31.5017 76.0557 31.557 76.1137C31.7596 76.3693 31.879 76.7652 31.6592 77.0067C31.5632 77.112 31.419 77.1615 31.3261 77.2748C31.1594 77.4667 31.2009 77.7542 31.1948 78.0099C31.2005 78.0984 31.1753 78.1864 31.1235 78.2589C31.0753 78.2996 31.0178 78.3275 30.9563 78.3394C30.8944 78.3518 30.8307 78.3478 30.7706 78.3288C30.6511 78.2881 30.5251 78.2713 30.399 78.2793C30.265 78.3178 30.1478 78.4005 30.0664 78.5142C29.6471 79.0003 29.4737 79.5527 29.2804 80.1565Z" fill="#2D293D"/>
<g opacity="0.1">
<path opacity="0.1" d="M25.7604 79.7448C25.8622 79.8665 25.9922 79.9607 26.1395 80.0191C26.9242 80.3826 27.8252 80.3778 28.6904 80.3579C28.7828 80.3636 28.8752 80.3468 28.9597 80.3083C29.0831 80.2185 29.1676 80.085 29.1964 79.9355C29.3866 79.3299 29.5631 78.7792 29.9828 78.2869C30.0638 78.1728 30.181 78.0892 30.3154 78.0503C30.4411 78.0428 30.5671 78.0596 30.687 78.0998C30.7467 78.1193 30.8104 78.1237 30.8723 78.1113C30.9343 78.0989 30.9918 78.0711 31.0395 78.0299C31.0917 77.9583 31.1165 77.8707 31.1107 77.7822C31.1107 77.527 31.0754 77.2391 31.2426 77.0458C31.3354 76.9387 31.4792 76.891 31.5752 76.7795C31.6375 76.7008 31.6774 76.6061 31.6906 76.5066C31.7043 76.4071 31.6906 76.3058 31.6513 76.2129C31.7932 76.4593 31.8476 76.7702 31.6619 76.9728C31.5659 77.0781 31.4235 77.1276 31.3292 77.2408C31.1621 77.4328 31.2054 77.7203 31.1992 77.976C31.205 78.0649 31.1793 78.1533 31.1262 78.225C31.0785 78.2657 31.0209 78.2936 30.959 78.3059C30.8971 78.3179 30.8334 78.3144 30.7737 78.2949C30.6547 78.2542 30.5291 78.2374 30.4035 78.2454C30.2686 78.2838 30.1505 78.3674 30.0691 78.482C29.6515 78.9725 29.475 79.525 29.2831 80.1288C29.2804 80.1907 29.2649 80.2513 29.2375 80.307C29.2101 80.3623 29.1716 80.4118 29.1238 80.4516C29.0765 80.4915 29.0212 80.5211 28.9619 80.5383C28.9022 80.556 28.8399 80.5609 28.7784 80.5529C27.9132 80.5728 27.0126 80.5759 26.2262 80.2124C26.0793 80.154 25.9493 80.0602 25.8471 79.9399C25.7958 79.8691 25.7578 79.7899 25.7339 79.7063C25.7418 79.7196 25.7507 79.7329 25.7604 79.7448Z" fill="black"/>
<path opacity="0.1" d="M31.4268 75.8308C31.3883 75.7862 31.3609 75.7331 31.3463 75.676C31.3353 75.6145 31.3353 75.5517 31.3463 75.4902C31.3835 75.1439 31.3521 74.7936 31.2534 74.4596L31.2689 74.4424C31.4233 74.8356 31.4803 75.2607 31.4343 75.6809C31.4272 75.7304 31.4246 75.7808 31.4268 75.8308Z" fill="black"/>
</g>
<path opacity="0.1" d="M29.7211 81.8935C29.7211 81.8935 26.1613 82.2261 25.8672 81.6816L29.7211 81.8935Z" fill="black"/>
<path opacity="0.1" d="M22.905 80.1642C22.905 80.1642 20.9376 80.0916 20.478 80.8113L22.905 80.1642Z" fill="black"/>
<defs>
<linearGradient id="paint0_linear" x1="85.6468" y1="107.231" x2="85.6468" y2="23.9121" gradientUnits="userSpaceOnUse">
<stop stop-color="#808080" stop-opacity="0.25"/>
<stop offset="0.54" stop-color="#808080" stop-opacity="0.12"/>
<stop offset="1" stop-color="#808080" stop-opacity="0.1"/>
</linearGradient>
<linearGradient id="paint1_linear" x1="31705.7" y1="51459.4" x2="31705.7" y2="28202.2" gradientUnits="userSpaceOnUse">
<stop stop-color="#808080" stop-opacity="0.25"/>
<stop offset="0.54" stop-color="#808080" stop-opacity="0.12"/>
<stop offset="1" stop-color="#808080" stop-opacity="0.1"/>
</linearGradient>
<linearGradient id="paint2_linear" x1="-26515.2" y1="50949.8" x2="-25610.1" y2="28323.9" gradientUnits="userSpaceOnUse">
<stop stop-color="#808080" stop-opacity="0.25"/>
<stop offset="0.54" stop-color="#808080" stop-opacity="0.12"/>
<stop offset="1" stop-color="#808080" stop-opacity="0.1"/>
</linearGradient>
</defs>
</svg>
