<svg width="16" height="17" viewBox="0 0 16 17" fill="none" xmlns="http://www.w3.org/2000/svg">
<path d="M15.3537 7.81323H0.646312C0.289375 7.81323 0 8.12069 0 8.49994C0 8.87922 0.289375 9.18665 0.646312 9.18665H15.3537C15.7107 9.18665 16 8.87922 16 8.49994C16 8.12069 15.7107 7.81323 15.3537 7.81323Z" fill="#E00909"/>
<path d="M1.56037 8.50003L6.61859 3.12564C6.87099 2.85746 6.87099 2.42266 6.61859 2.15448C6.36618 1.88633 5.95696 1.88633 5.70456 2.15448L0.189305 8.01443C-0.0631016 8.28262 -0.0631016 8.71741 0.189305 8.98559L5.70456 14.8455C5.83074 14.9797 5.99618 15.0467 6.16159 15.0467C6.32699 15.0467 6.49243 14.9797 6.61862 14.8455C6.87102 14.5774 6.87102 14.1426 6.61862 13.8744L1.56037 8.50003Z" fill="#E00909"/>
</svg>
