<svg width="150" height="150" viewBox="0 0 150 150" fill="none" xmlns="http://www.w3.org/2000/svg">
<mask id="mask0" mask-type="alpha" maskUnits="userSpaceOnUse" x="0" y="0" width="150" height="150">
<path d="M41.1684 25.4845C41.1684 14.8656 49.7772 6.25684 60.3975 6.25684C71.0164 6.25684 79.626 14.8656 79.626 25.4845C79.626 36.1035 71.0164 44.712 60.3975 44.712C49.7772 44.7123 41.1684 36.1035 41.1684 25.4845ZM69.6381 57.8118C69.8309 53.6249 71.2722 49.7498 73.591 46.5462C71.9636 46.2053 70.2816 46.0243 68.5557 46.0243H52.2415C50.5206 46.0243 48.8409 46.204 47.2219 46.5406C49.6896 49.9633 51.1656 54.1434 51.1897 58.6686C54.1893 57.0188 57.631 56.0794 61.2867 56.0794C64.2522 56.0794 67.0753 56.6973 69.6381 57.8118ZM72.8929 59.5377C78.4779 63.0401 82.3945 68.964 83.1108 75.8436C85.3865 76.9071 87.9155 77.5208 90.5947 77.5208C100.379 77.5208 108.31 69.5891 108.31 59.8049C108.31 50.0195 100.379 42.0896 90.5947 42.0896C80.8997 42.0898 73.04 49.879 72.8929 59.5377ZM61.2865 95.8117C71.0693 95.8117 79.0006 87.8778 79.0006 78.0963C79.0006 68.3135 71.0693 60.381 61.2865 60.381C51.5028 60.381 43.5681 68.3132 43.5681 78.0963C43.5684 87.8778 51.5028 95.8117 61.2865 95.8117ZM68.8011 97.0174H53.7704C41.2636 97.0174 31.0862 107.194 31.0862 119.702V138.087L31.134 138.375L32.3993 138.768C44.3356 142.496 54.7055 143.743 63.2415 143.743C79.9103 143.743 89.5759 138.99 90.1714 138.686L91.3552 138.087H91.4809V119.702C91.4812 107.194 81.3097 97.0174 68.8011 97.0174ZM98.1133 78.7298H83.1953C83.0333 84.6988 80.4859 90.0741 76.4571 93.9377C87.5747 97.2437 95.7089 107.553 95.7089 119.73V125.395C110.435 124.853 118.923 120.682 119.482 120.4L120.666 119.798H120.792V101.41C120.794 88.905 110.617 78.7298 98.1133 78.7298ZM102.101 41.7118C107.686 45.2148 111.603 51.139 112.317 58.0185C114.593 59.0821 117.122 59.6946 119.801 59.6946C129.588 59.6946 137.518 51.7641 137.518 41.9813C137.518 32.1956 129.587 24.266 119.801 24.266C110.108 24.2648 102.248 32.0557 102.101 41.7118ZM127.318 60.904H112.403C112.241 66.873 109.694 72.2482 105.665 76.1116C116.782 79.4165 124.917 89.7268 124.917 101.905V107.569C139.642 107.028 148.131 102.857 148.69 102.574L149.873 101.974H150V83.5838C150.002 71.0797 139.825 60.904 127.318 60.904ZM30.2022 77.521C33.668 77.521 36.8906 76.5087 39.6236 74.7853C40.4927 69.1216 43.5292 64.1714 47.8652 60.8016C47.8834 60.4692 47.9139 60.1409 47.9139 59.8052C47.9139 50.0198 39.9809 42.0898 30.2022 42.0898C20.4152 42.0898 12.4856 50.0195 12.4856 59.8052C12.4856 69.5911 20.4149 77.521 30.2022 77.521ZM46.1119 93.9377C42.1019 90.0925 39.5631 84.7467 39.3762 78.8124C38.8247 78.7713 38.2771 78.7298 37.7133 78.7298H22.6842C10.1757 78.7298 0 88.905 0 101.412V119.798L0.0464491 120.084L1.31345 120.48C10.887 123.473 19.4345 124.849 26.8582 125.279V119.729C26.8596 107.553 34.9918 97.2421 46.1119 93.9377Z" fill="black"/>
</mask>
<g mask="url(#mask0)">
<rect x="-91.5" y="-88.5" width="333" height="327" fill="black"/>
</g>
</svg>
