<svg width="198" height="102" viewBox="0 0 198 102" fill="none" xmlns="http://www.w3.org/2000/svg">
<path d="M187.14 33.2869C193.138 33.2869 197.999 28.3371 197.999 22.2313C197.999 16.1255 193.138 11.1758 187.14 11.1758C181.142 11.1758 176.28 16.1255 176.28 22.2313C176.28 28.3371 181.142 33.2869 187.14 33.2869Z" fill="#FF6584"/>
<path d="M145.776 94.8051V74.751" stroke="#3F3D56" stroke-width="2" stroke-miterlimit="10"/>
<path d="M145.775 77.5872C147.314 77.5872 148.561 76.3177 148.561 74.7513C148.561 73.185 147.314 71.915 145.775 71.915C144.237 71.915 142.989 73.185 142.989 74.7513C142.989 76.3177 144.237 77.5872 145.775 77.5872Z" fill="#3F3D56"/>
<path d="M145.776 87.1106C145.776 87.1106 145.378 78.3971 137.22 79.4101L145.776 87.1106Z" fill="#3F3D56"/>
<path d="M185.017 94.9467V28.0547" stroke="#3F3D56" stroke-width="2" stroke-miterlimit="10"/>
<path d="M185.016 30.8585C186.554 30.8585 187.802 29.5888 187.802 28.0225C187.802 26.4563 186.554 25.1865 185.016 25.1865C183.477 25.1865 182.23 26.4563 182.23 28.0225C182.23 29.5888 183.477 30.8585 185.016 30.8585Z" fill="#3F3D56"/>
<path d="M176.46 79.2551C177.999 79.2551 179.246 77.9851 179.246 76.4188C179.246 74.8524 177.999 73.583 176.46 73.583C174.922 73.583 173.674 74.8524 173.674 76.4188C173.674 77.9851 174.922 79.2551 176.46 79.2551Z" fill="#3F3D56"/>
<path d="M185.017 42.5093C185.017 42.5093 184.619 33.7956 176.46 34.8085L185.017 42.5093Z" fill="#3F3D56"/>
<path d="M185.017 67.2116C185.017 67.2116 184.619 58.4977 176.46 59.5106L185.017 67.2116Z" fill="#3F3D56"/>
<path d="M185.017 94.1664C185.017 94.1664 186.807 77.2294 176.46 76.4189" stroke="#3F3D56" stroke-width="2" stroke-miterlimit="10"/>
<path d="M193.573 79.2551C195.112 79.2551 196.359 77.9851 196.359 76.4188C196.359 74.8524 195.112 73.583 193.573 73.583C192.035 73.583 190.788 74.8524 190.788 76.4188C190.788 77.9851 192.035 79.2551 193.573 79.2551Z" fill="#3F3D56"/>
<path d="M185.018 94.1664C185.018 94.1664 183.227 77.2294 193.574 76.4189" stroke="#3F3D56" stroke-width="2" stroke-miterlimit="10"/>
<path d="M193.744 52.6523C195.282 52.6523 196.53 51.3828 196.53 49.8165C196.53 48.2502 195.282 46.9805 193.744 46.9805C192.205 46.9805 190.958 48.2502 190.958 49.8165C190.958 51.3828 192.205 52.6523 193.744 52.6523Z" fill="#3F3D56"/>
<path d="M185.187 66.6615C185.187 66.6615 183.396 50.6278 193.743 49.8174" stroke="#3F3D56" stroke-width="2" stroke-miterlimit="10"/>
<path d="M166.561 94.8518V54.0205" stroke="#3F3D56" stroke-width="2" stroke-miterlimit="10"/>
<path d="M166.561 56.8567C168.099 56.8567 169.347 55.5872 169.347 54.0209C169.347 52.4545 168.099 51.1846 166.561 51.1846C165.022 51.1846 163.775 52.4545 163.775 54.0209C163.775 55.5872 165.022 56.8567 166.561 56.8567Z" fill="#3F3D56"/>
<path d="M166.56 65.5701C166.56 65.5701 166.163 56.8561 158.004 57.869L166.56 65.5701Z" fill="#3F3D56"/>
<path d="M166.56 94.0726C166.56 94.0726 168.351 77.3163 158.004 76.5059" stroke="#3F3D56" stroke-width="2" stroke-miterlimit="10"/>
<path d="M158.005 79.342C159.544 79.342 160.791 78.0721 160.791 76.5057C160.791 74.9399 159.544 73.6699 158.005 73.6699C156.467 73.6699 155.219 74.9399 155.219 76.5057C155.219 78.0721 156.467 79.342 158.005 79.342Z" fill="#3F3D56"/>
<path d="M135.829 94.8125H193.334" stroke="#3F3D56" stroke-width="2" stroke-miterlimit="10"/>
<path d="M114.353 0.180664H34.9229V94.7009H114.353V0.180664Z" stroke="#3F3D56" stroke-width="2" stroke-miterlimit="10"/>
<path d="M34.9229 8.3418H114.353" stroke="#3F3D56" stroke-width="2" stroke-miterlimit="10"/>
<path d="M110.733 5.70891C111.497 5.70891 112.117 5.07803 112.117 4.29976C112.117 3.52152 111.497 2.89062 110.733 2.89062C109.968 2.89062 109.349 3.52152 109.349 4.29976C109.349 5.07803 109.968 5.70891 110.733 5.70891Z" fill="white" stroke="black" stroke-miterlimit="10"/>
<path d="M110.109 3.66602L111.355 4.93424" stroke="black" stroke-miterlimit="10"/>
<path d="M111.355 3.66602L110.109 4.93424" stroke="black" stroke-miterlimit="10"/>
<path d="M110.733 5.70891C111.497 5.70891 112.117 5.07803 112.117 4.29976C112.117 3.52152 111.497 2.89062 110.733 2.89062C109.968 2.89062 109.349 3.52152 109.349 4.29976C109.349 5.07803 109.968 5.70891 110.733 5.70891Z" stroke="#3F3D56" stroke-width="2" stroke-miterlimit="10"/>
<path d="M110.109 3.66602L111.355 4.93424" stroke="#3F3D56" stroke-width="2" stroke-miterlimit="10"/>
<path d="M111.355 3.66602L110.109 4.93424" stroke="#3F3D56" stroke-width="2" stroke-miterlimit="10"/>
<path d="M53.0226 3.43262H40.6714V5.16695H53.0226V3.43262Z" fill="#3F3D56"/>
<path d="M74.5314 3.43262H62.1802V5.16695H74.5314V3.43262Z" fill="#3F3D56"/>
<path d="M96.0392 3.43262H83.688V5.16695H96.0392V3.43262Z" fill="#3F3D56"/>
<path d="M96.0399 20.9922H53.0244V26.1951H96.0399V20.9922Z" fill="#3F3D56"/>
<path d="M109.455 40.7207H39.6074V77.1415H109.455V40.7207Z" fill="#FF0000"/>
<path d="M71.5496 90.7986C72.1377 90.7986 72.6149 90.3133 72.6149 89.715C72.6149 89.1161 72.1377 88.6309 71.5496 88.6309C70.962 88.6309 70.4849 89.1161 70.4849 89.715C70.4849 90.3133 70.962 90.7986 71.5496 90.7986Z" fill="#3F3D56"/>
<path d="M74.5315 90.7986C75.1196 90.7986 75.5963 90.3133 75.5963 89.715C75.5963 89.1161 75.1196 88.6309 74.5315 88.6309C73.9435 88.6309 73.4668 89.1161 73.4668 89.715C73.4668 90.3133 73.9435 90.7986 74.5315 90.7986Z" fill="#3F3D56"/>
<path d="M77.5125 90.7986C78.1006 90.7986 78.5772 90.3133 78.5772 89.715C78.5772 89.1161 78.1006 88.6309 77.5125 88.6309C76.9244 88.6309 76.4478 89.1161 76.4478 89.715C76.4478 90.3133 76.9244 90.7986 77.5125 90.7986Z" fill="#3F3D56"/>
<path d="M174.506 28.3105H106.15V37.6325H174.506V28.3105Z" fill="#F2F2F2"/>
<path d="M172.701 26.6289H104.345V35.9508H172.701V26.6289Z" stroke="#3F3D56" stroke-width="2" stroke-miterlimit="10"/>
<path d="M123.19 30.4229H110.839V32.1572H123.19V30.4229Z" fill="#3F3D56"/>
<path d="M144.698 30.4229H132.347V32.1572H144.698V30.4229Z" fill="#3F3D56"/>
<path d="M166.207 30.4229H153.855V32.1572H166.207V30.4229Z" fill="#3F3D56"/>
<path d="M36.8478 32.7197H24.2256V46.6556H36.8478V32.7197Z" fill="#F2F2F2"/>
<path d="M38.4059 31.7109H25.7837V45.6468H38.4059V31.7109Z" stroke="#3F3D56" stroke-width="2" stroke-miterlimit="10"/>
<path d="M29.694 39.6742C30.185 39.6742 30.583 39.269 30.583 38.7692C30.583 38.2694 30.185 37.8643 29.694 37.8643C29.2032 37.8643 28.8052 38.2694 28.8052 38.7692C28.8052 39.269 29.2032 39.6742 29.694 39.6742Z" fill="#FF0000"/>
<path d="M32.1828 39.6742C32.6738 39.6742 33.0717 39.269 33.0717 38.7692C33.0717 38.2694 32.6738 37.8643 32.1828 37.8643C31.6919 37.8643 31.2939 38.2694 31.2939 38.7692C31.2939 39.269 31.6919 39.6742 32.1828 39.6742Z" fill="#FF0000"/>
<path d="M34.6721 39.6742C35.163 39.6742 35.561 39.269 35.561 38.7692C35.561 38.2694 35.163 37.8643 34.6721 37.8643C34.1812 37.8643 33.7832 38.2694 33.7832 38.7692C33.7832 39.269 34.1812 39.6742 34.6721 39.6742Z" fill="#F71011"/>
<path d="M10.7191 97.083C10.7191 97.083 17.2029 100.685 16.9383 101.806C16.7948 102.413 13.3087 101.505 10.0288 100.348C7.26299 99.3714 11.5635 99.8037 11.2193 99.2316C10.467 97.9808 10.7191 97.083 10.7191 97.083Z" fill="#2F2E41"/>
<path d="M26.3035 96.0293C26.3035 96.0293 33.4347 97.9885 33.4347 99.1408C33.4347 100.293 21.2097 99.1408 20.1909 98.1036C19.1722 97.0665 26.3035 96.0293 26.3035 96.0293Z" fill="#2F2E41"/>
<path d="M14.0796 45.3252L17.1359 50.5108C17.1359 50.5108 22.2297 63.9935 23.2484 72.2908C24.2672 80.5877 30.3797 95.1075 28.3422 97.1818C26.3047 99.2562 16.1171 99.3713 16.1171 97.1818V54.6595L14.0796 45.3252Z" fill="#2F2E41"/>
<path opacity="0.1" d="M14.0796 45.3252L17.1359 50.5108C17.1359 50.5108 22.2297 63.9935 23.2484 72.2908C24.2672 80.5877 30.3797 95.1075 28.3422 97.1818C26.3047 99.2562 16.1171 99.3713 16.1171 97.1818V54.6595L14.0796 45.3252Z" fill="black"/>
<path d="M5.92969 41.1768V45.3253C5.92969 46.3624 12.0422 46.3624 12.0422 46.3624V42.2139L5.92969 41.1768Z" fill="#A0616A"/>
<path d="M8.9856 43.251L5.98595 44.2305C5.98595 44.2305 2.87308 50.2804 3.89183 53.5072C4.91059 56.7339 7.96684 74.3652 7.96684 74.3652V85.7736C7.96684 85.7736 1.85432 96.1447 4.91059 98.2191C7.96685 100.293 14.0794 102.483 15.0982 101.331C16.1169 100.178 17.1357 56.7339 17.1357 56.7339V50.5109L16.1169 42.2139L8.9856 43.251Z" fill="#2F2E41"/>
<path d="M14.2826 21.0148C17.5779 21.0148 20.2492 18.2953 20.2492 14.9405C20.2492 11.5858 17.5779 8.86621 14.2826 8.86621C10.9873 8.86621 8.31592 11.5858 8.31592 14.9405C8.31592 18.2953 10.9873 21.0148 14.2826 21.0148Z" fill="#2F2E41"/>
<path d="M7.81874 13.0168C11.114 13.0168 13.7854 10.2972 13.7854 6.94245C13.7854 3.58772 11.114 0.868164 7.81874 0.868164C4.52342 0.868164 1.85205 3.58772 1.85205 6.94245C1.85205 10.2972 4.52342 13.0168 7.81874 13.0168Z" fill="#2F2E41"/>
<path d="M2.6713 11.9725C3.44357 12.5408 4.33829 12.9124 5.28061 13.0565C6.2229 13.2006 7.18538 13.1128 8.08751 12.8005C8.98965 12.4882 9.80521 11.9605 10.466 11.2616C11.1267 10.5626 11.6134 9.71273 11.8854 8.78301C11.7825 9.61618 11.511 10.4186 11.0882 11.1396C10.6652 11.8605 10.1001 12.4844 9.42842 12.9718C8.75675 13.4592 7.99312 13.7995 7.18567 13.9713C6.37828 14.1431 5.54465 14.1426 4.73747 13.9698C3.93026 13.7971 3.16701 13.4558 2.49589 12.9676C1.82478 12.4794 1.26037 11.8548 0.838321 11.1334C0.416269 10.4119 0.145733 9.60916 0.0437919 8.77589C-0.0581485 7.94257 0.0107216 7.09683 0.246054 6.29199C0.112396 7.37329 0.267038 8.47126 0.693756 9.47076C1.12048 10.4702 1.80354 11.3344 2.6713 11.9725Z" fill="#2F2E41"/>
<path d="M16.37 17.3699C18.512 17.3699 20.2484 15.9874 20.2484 14.2821C20.2484 12.5768 18.512 11.1943 16.37 11.1943C14.2281 11.1943 12.4917 12.5768 12.4917 14.2821C12.4917 15.9874 14.2281 17.3699 16.37 17.3699Z" fill="#2F2E41"/>
<path d="M15.1544 21.3557C17.9363 21.3557 20.1916 19.0598 20.1916 16.2276C20.1916 13.3955 17.9363 11.0996 15.1544 11.0996C12.3724 11.0996 10.1172 13.3955 10.1172 16.2276C10.1172 19.0598 12.3724 21.3557 15.1544 21.3557Z" fill="#A0616A"/>
<path d="M12.042 19.3965C12.042 19.3965 13.0608 21.4708 11.0232 22.5079C8.98573 23.545 15.0982 27.6936 15.0982 27.6936L17.1358 20.4336L12.042 19.3965Z" fill="#A0616A"/>
<path d="M13.0599 23.5451C13.0599 23.5451 11.0224 20.4337 10.0036 22.5079C8.98487 24.5822 3.89111 30.805 3.89111 37.0278C3.89111 43.2506 3.89111 43.2506 4.90987 43.2506C5.92864 43.2506 8.98487 42.2135 10.0036 43.2506C11.0224 44.2878 15.0974 43.2506 15.0974 43.2506L16.1162 33.9164C16.1162 33.9164 17.1349 28.7307 16.1162 27.6936C15.0974 26.6565 13.0599 23.5451 13.0599 23.5451Z" fill="#C4C4C4"/>
<path d="M7.96674 27.6934C7.96674 27.6934 4.91047 43.2505 7.96674 44.2876C11.023 45.3247 20.1918 49.358 20.1918 48.3209C20.1918 47.2837 21.2106 46.2466 21.2106 46.2466C21.2106 46.2466 22.2293 47.2837 22.2293 46.2466V44.2876L12.0418 40.139V29.7677C12.0418 29.7677 14.0793 24.582 12.0418 24.582C10.0043 24.582 7.96674 27.6934 7.96674 27.6934Z" fill="#C4C4C4"/>
<path d="M21.2104 44.2881C21.2104 44.2881 28.2285 44.2881 28.3417 46.3624C28.4549 48.4367 21.2104 46.2471 21.2104 46.2471V44.2881Z" fill="#A0616A"/>
<path d="M15.2978 15.3009C17.7127 14.5264 19.3278 12.7913 18.9051 11.4255C18.4825 10.0597 16.1822 9.58032 13.7673 10.3548C11.3524 11.1293 9.73733 12.8643 10.16 14.2301C10.5826 15.5959 12.8829 16.0753 15.2978 15.3009Z" fill="#2F2E41"/>
</svg>
