<svg width="300" height="25" viewBox="0 0 300 25" fill="none" xmlns="http://www.w3.org/2000/svg">
<path d="M298.177 21.2656H277.823C277.395 21.2656 277.061 21.6191 277.061 22.0284C277.061 22.4377 277.414 22.7912 277.823 22.7912H298.195C298.623 22.7912 298.958 22.4377 298.958 22.0284C298.958 21.6191 298.605 21.2656 298.177 21.2656Z" fill="#C4C4C4"/>
<path d="M277.061 14.5121L277.042 18.14C277.042 18.3446 277.116 18.5493 277.265 18.6981C277.414 18.847 277.6 18.9214 277.805 18.9214L281.414 18.9028C281.619 18.9028 281.805 18.8284 281.954 18.6795L294.419 6.21441C294.716 5.91674 294.716 5.43302 294.419 5.11674L290.847 1.50744C290.549 1.20976 290.065 1.20976 289.749 1.50744L287.256 4.01906L277.284 13.9726C277.154 14.1214 277.061 14.3074 277.061 14.5121ZM290.307 3.14464L292.819 5.65627L291.405 7.07023L288.893 4.5586L290.307 3.14464ZM278.605 14.847L287.795 5.65627L290.307 8.1679L281.116 17.34L278.586 17.3586L278.605 14.847Z" fill="#C4C4C4"/>
<path d="M10.353 8.684L8.704 18H7.157L7.395 16.64C7.021 17.116 6.545 17.4843 5.967 17.745C5.389 18.0057 4.78833 18.136 4.165 18.136C3.19033 18.136 2.40833 17.8753 1.819 17.354C1.241 16.8213 0.952 16.062 0.952 15.076C0.952 14.8267 0.980333 14.515 1.037 14.141L2.006 8.684H3.536L2.618 13.937C2.57267 14.175 2.55 14.4243 2.55 14.685C2.55 15.3763 2.737 15.9033 3.111 16.266C3.49633 16.6173 4.029 16.793 4.709 16.793C5.525 16.793 6.21633 16.538 6.783 16.028C7.361 15.518 7.72933 14.7757 7.888 13.801V13.852L8.806 8.684H10.353ZM14.597 18.153C13.6224 18.153 12.8234 17.9207 12.2 17.456C11.5767 16.9913 11.265 16.368 11.265 15.586C11.265 15.4387 11.2707 15.331 11.282 15.263H12.795C12.7497 15.7503 12.8914 16.147 13.22 16.453C13.56 16.759 14.0474 16.912 14.682 16.912C15.3167 16.912 15.8267 16.793 16.212 16.555C16.6087 16.3057 16.807 15.96 16.807 15.518C16.807 15.144 16.6484 14.8493 16.331 14.634C16.0137 14.4187 15.5264 14.1863 14.869 13.937C14.291 13.7217 13.815 13.5177 13.441 13.325C13.067 13.1323 12.7497 12.866 12.489 12.526C12.2284 12.1747 12.098 11.7327 12.098 11.2C12.098 10.6787 12.2454 10.214 12.54 9.806C12.846 9.398 13.2654 9.08633 13.798 8.871C14.342 8.64433 14.9597 8.531 15.651 8.531C16.603 8.531 17.385 8.769 17.997 9.245C18.609 9.721 18.915 10.3443 18.915 11.115C18.915 11.2623 18.9094 11.3757 18.898 11.455H17.419L17.436 11.251C17.436 10.7977 17.2604 10.4407 16.909 10.18C16.569 9.908 16.1157 9.772 15.549 9.772C14.9937 9.772 14.5347 9.89667 14.172 10.146C13.8207 10.3953 13.645 10.7297 13.645 11.149C13.645 11.5457 13.8094 11.8573 14.138 12.084C14.4667 12.3107 14.9767 12.56 15.668 12.832C16.246 13.0587 16.7107 13.2683 17.062 13.461C17.4134 13.6423 17.7137 13.8973 17.963 14.226C18.2124 14.5547 18.337 14.9683 18.337 15.467C18.337 16.011 18.1727 16.487 17.844 16.895C17.5267 17.303 17.0847 17.6147 16.518 17.83C15.9514 18.0453 15.311 18.153 14.597 18.153ZM22.9009 7.171C22.6515 7.171 22.4419 7.09167 22.2719 6.933C22.1132 6.763 22.0339 6.55333 22.0339 6.304C22.0339 5.964 22.1585 5.675 22.4079 5.437C22.6572 5.18767 22.9462 5.063 23.2749 5.063C23.5355 5.063 23.7452 5.14233 23.9039 5.301C24.0625 5.45967 24.1419 5.66933 24.1419 5.93C24.1419 6.27 24.0172 6.56467 23.7679 6.814C23.5185 7.052 23.2295 7.171 22.9009 7.171ZM23.3939 8.684L21.7449 18H20.1979L21.8469 8.684H23.3939ZM30.6035 8.514C31.5668 8.514 32.3375 8.77467 32.9155 9.296C33.4935 9.806 33.7825 10.554 33.7825 11.54C33.7825 11.9027 33.7541 12.2257 33.6975 12.509L32.7285 18H31.1985L32.1335 12.73C32.1788 12.492 32.2015 12.2427 32.2015 11.982C32.2015 11.2907 32.0088 10.7637 31.6235 10.401C31.2495 10.0383 30.7225 9.857 30.0425 9.857C29.2265 9.857 28.5295 10.112 27.9515 10.622C27.3848 11.132 27.0165 11.8743 26.8465 12.849V12.815L25.9285 18H24.3815L26.0305 8.684H27.5775L27.3395 10.027C27.7248 9.53967 28.2065 9.16567 28.7845 8.905C29.3625 8.64433 29.9688 8.514 30.6035 8.514ZM40.7805 8.531C41.5851 8.531 42.2595 8.70667 42.8035 9.058C43.3475 9.40933 43.7158 9.85133 43.9085 10.384L44.2145 8.684H45.7785L44.0955 18.204C43.9481 19.054 43.6308 19.8077 43.1435 20.465C42.6675 21.1337 42.0611 21.655 41.3245 22.029C40.5878 22.403 39.7718 22.59 38.8765 22.59C37.6525 22.59 36.6835 22.2953 35.9695 21.706C35.2555 21.128 34.9098 20.346 34.9325 19.36H36.4795C36.5475 19.9267 36.8138 20.38 37.2785 20.72C37.7545 21.0713 38.3665 21.247 39.1145 21.247C39.9645 21.247 40.7068 20.9807 41.3415 20.448C41.9761 19.9153 42.3785 19.1673 42.5485 18.204L42.8885 16.249C42.4805 16.793 41.9421 17.2463 41.2735 17.609C40.6161 17.9717 39.8851 18.153 39.0805 18.153C38.3551 18.153 37.7148 18 37.1595 17.694C36.6041 17.3767 36.1678 16.929 35.8505 16.351C35.5445 15.773 35.3915 15.1043 35.3915 14.345C35.3915 14.005 35.4255 13.6593 35.4935 13.308C35.6635 12.356 36.0035 11.523 36.5135 10.809C37.0348 10.0837 37.6638 9.52267 38.4005 9.126C39.1485 8.72933 39.9418 8.531 40.7805 8.531ZM43.3985 13.325C43.4438 13.087 43.4665 12.832 43.4665 12.56C43.4665 11.7327 43.2171 11.081 42.7185 10.605C42.2311 10.1177 41.6078 9.874 40.8485 9.874C40.2705 9.874 39.7151 10.01 39.1825 10.282C38.6611 10.554 38.2135 10.9507 37.8395 11.472C37.4655 11.9933 37.2161 12.6053 37.0915 13.308C37.0461 13.546 37.0235 13.8067 37.0235 14.09C37.0235 14.9287 37.2671 15.5917 37.7545 16.079C38.2418 16.555 38.8651 16.793 39.6245 16.793C40.2025 16.793 40.7521 16.657 41.2735 16.385C41.8061 16.1017 42.2595 15.6993 42.6335 15.178C43.0188 14.6453 43.2738 14.0277 43.3985 13.325ZM52.0452 13.308C52.2152 12.356 52.5552 11.523 53.0652 10.809C53.5866 10.0837 54.2212 9.52267 54.9692 9.126C55.7172 8.72933 56.5106 8.531 57.3492 8.531C58.0632 8.531 58.7036 8.701 59.2702 9.041C59.8369 9.36967 60.2392 9.806 60.4772 10.35L61.3442 5.42H62.9082L60.6812 18H59.1172L59.4402 16.249C59.0436 16.8043 58.5109 17.2633 57.8422 17.626C57.1736 17.9773 56.4369 18.153 55.6322 18.153C54.9069 18.153 54.2666 18 53.7112 17.694C53.1559 17.3767 52.7196 16.929 52.4022 16.351C52.0962 15.773 51.9432 15.1043 51.9432 14.345C51.9432 14.005 51.9772 13.6593 52.0452 13.308ZM59.9502 13.325C59.9956 13.087 60.0182 12.832 60.0182 12.56C60.0182 11.7327 59.7689 11.081 59.2702 10.605C58.7829 10.1177 58.1596 9.874 57.4002 9.874C56.8222 9.874 56.2669 10.01 55.7342 10.282C55.2129 10.554 54.7652 10.9507 54.3912 11.472C54.0172 11.9933 53.7679 12.6053 53.6432 13.308C53.5979 13.546 53.5752 13.8067 53.5752 14.09C53.5752 14.9287 53.8189 15.5917 54.3062 16.079C54.7936 16.555 55.4169 16.793 56.1762 16.793C56.7542 16.793 57.3039 16.657 57.8252 16.385C58.3579 16.1017 58.8112 15.6993 59.1852 15.178C59.5706 14.6453 59.8256 14.0277 59.9502 13.325ZM63.5335 13.308C63.7035 12.356 64.0435 11.523 64.5535 10.809C65.0748 10.0837 65.7038 9.52267 66.4405 9.126C67.1885 8.72933 67.9818 8.531 68.8205 8.531C69.6365 8.531 70.3108 8.70667 70.8435 9.058C71.3762 9.40933 71.7445 9.85133 71.9485 10.384L72.2545 8.684H73.8185L72.1695 18H70.6055L70.9285 16.266C70.5205 16.81 69.9822 17.2633 69.3135 17.626C68.6448 17.9773 67.9082 18.153 67.1035 18.153C66.3782 18.153 65.7378 18 65.1825 17.694C64.6272 17.3767 64.1965 16.929 63.8905 16.351C63.5845 15.773 63.4315 15.1043 63.4315 14.345C63.4315 14.005 63.4655 13.6593 63.5335 13.308ZM71.4385 13.325C71.4838 13.087 71.5065 12.832 71.5065 12.56C71.5065 11.7327 71.2572 11.081 70.7585 10.605C70.2712 10.1177 69.6478 9.874 68.8885 9.874C68.3105 9.874 67.7552 10.01 67.2225 10.282C66.7012 10.554 66.2535 10.9507 65.8795 11.472C65.5055 11.9933 65.2562 12.6053 65.1315 13.308C65.0862 13.546 65.0635 13.8067 65.0635 14.09C65.0635 14.9287 65.3072 15.5917 65.7945 16.079C66.2818 16.555 66.9052 16.793 67.6645 16.793C68.2425 16.793 68.7922 16.657 69.3135 16.385C69.8462 16.1017 70.2995 15.6993 70.6735 15.178C71.0588 14.6453 71.3138 14.0277 71.4385 13.325ZM77.1298 15.45C77.0958 15.62 77.0788 15.7673 77.0788 15.892C77.0788 16.1753 77.1638 16.3793 77.3338 16.504C77.5151 16.6287 77.8041 16.691 78.2008 16.691H79.3398L79.1018 18H77.7078C76.9711 18 76.4158 17.8583 76.0418 17.575C75.6791 17.2917 75.4978 16.827 75.4978 16.181C75.4978 15.9317 75.5205 15.688 75.5658 15.45L76.5348 9.959H75.3448L75.5658 8.684H76.7728L77.1808 6.338H78.7448L78.3368 8.684H80.7508L80.5298 9.959H78.0988L77.1298 15.45ZM81.2142 13.308C81.3842 12.356 81.7242 11.523 82.2342 10.809C82.7555 10.0837 83.3845 9.52267 84.1212 9.126C84.8692 8.72933 85.6625 8.531 86.5012 8.531C87.3172 8.531 87.9915 8.70667 88.5242 9.058C89.0568 9.40933 89.4252 9.85133 89.6292 10.384L89.9352 8.684H91.4992L89.8502 18H88.2862L88.6092 16.266C88.2012 16.81 87.6628 17.2633 86.9942 17.626C86.3255 17.9773 85.5888 18.153 84.7842 18.153C84.0588 18.153 83.4185 18 82.8632 17.694C82.3078 17.3767 81.8772 16.929 81.5712 16.351C81.2652 15.773 81.1122 15.1043 81.1122 14.345C81.1122 14.005 81.1462 13.6593 81.2142 13.308ZM89.1192 13.325C89.1645 13.087 89.1872 12.832 89.1872 12.56C89.1872 11.7327 88.9378 11.081 88.4392 10.605C87.9518 10.1177 87.3285 9.874 86.5692 9.874C85.9912 9.874 85.4358 10.01 84.9032 10.282C84.3818 10.554 83.9342 10.9507 83.5602 11.472C83.1862 11.9933 82.9368 12.6053 82.8122 13.308C82.7668 13.546 82.7442 13.8067 82.7442 14.09C82.7442 14.9287 82.9878 15.5917 83.4752 16.079C83.9625 16.555 84.5858 16.793 85.3452 16.793C85.9232 16.793 86.4728 16.657 86.9942 16.385C87.5268 16.1017 87.9802 15.6993 88.3542 15.178C88.7395 14.6453 88.9945 14.0277 89.1192 13.325ZM99.8739 15.45C99.8399 15.62 99.8229 15.7673 99.8229 15.892C99.8229 16.1753 99.9079 16.3793 100.078 16.504C100.259 16.6287 100.548 16.691 100.945 16.691H102.084L101.846 18H100.452C99.7153 18 99.1599 17.8583 98.7859 17.575C98.4233 17.2917 98.2419 16.827 98.2419 16.181C98.2419 15.9317 98.2646 15.688 98.3099 15.45L99.2789 9.959H98.0889L98.3099 8.684H99.5169L99.9249 6.338H101.489L101.081 8.684H103.495L103.274 9.959H100.843L99.8739 15.45ZM107.817 18.153C107.035 18.153 106.344 17.9943 105.743 17.677C105.154 17.3483 104.695 16.895 104.366 16.317C104.038 15.7277 103.873 15.0477 103.873 14.277C103.873 13.223 104.117 12.2597 104.604 11.387C105.092 10.503 105.76 9.806 106.61 9.296C107.472 8.786 108.429 8.531 109.483 8.531C110.265 8.531 110.957 8.69533 111.557 9.024C112.169 9.34133 112.64 9.79467 112.968 10.384C113.308 10.962 113.478 11.642 113.478 12.424C113.478 13.478 113.229 14.4413 112.73 15.314C112.232 16.1867 111.552 16.878 110.69 17.388C109.829 17.898 108.871 18.153 107.817 18.153ZM108.004 16.844C108.741 16.844 109.404 16.6457 109.993 16.249C110.583 15.841 111.042 15.3083 111.37 14.651C111.71 13.9823 111.88 13.2683 111.88 12.509C111.88 11.6477 111.631 10.9903 111.132 10.537C110.634 10.0723 110.01 9.84 109.262 9.84C108.526 9.84 107.868 10.044 107.29 10.452C106.712 10.8487 106.265 11.3813 105.947 12.05C105.63 12.7187 105.471 13.4383 105.471 14.209C105.471 15.0477 105.709 15.6993 106.185 16.164C106.661 16.6173 107.268 16.844 108.004 16.844ZM125.965 8.514C126.894 8.514 127.642 8.77467 128.209 9.296C128.775 9.806 129.059 10.5483 129.059 11.523C129.059 11.8857 129.03 12.2143 128.974 12.509L128.005 18H126.475L127.41 12.73C127.455 12.492 127.478 12.2427 127.478 11.982C127.478 11.2907 127.285 10.7637 126.9 10.401C126.526 10.0383 125.999 9.857 125.319 9.857C124.503 9.857 123.806 10.112 123.228 10.622C122.661 11.132 122.293 11.8743 122.123 12.849V12.815L121.205 18H119.658L121.885 5.42H123.432L122.616 10.027C123.001 9.551 123.488 9.18267 124.078 8.922C124.678 8.65 125.307 8.514 125.965 8.514ZM136.227 8.531C137.009 8.531 137.683 8.684 138.25 8.99C138.828 9.28467 139.264 9.704 139.559 10.248C139.865 10.7807 140.018 11.3927 140.018 12.084C140.018 12.322 139.99 12.611 139.933 12.951C139.888 13.2457 139.814 13.5517 139.712 13.869H132.266C132.243 14.0957 132.232 14.26 132.232 14.362C132.232 15.144 132.464 15.756 132.929 16.198C133.405 16.6287 134.023 16.844 134.782 16.844C135.451 16.844 136.034 16.691 136.533 16.385C137.043 16.0677 137.428 15.6483 137.689 15.127H139.355C138.947 16.0223 138.318 16.7533 137.468 17.32C136.629 17.8753 135.655 18.153 134.544 18.153C133.377 18.153 132.436 17.8187 131.722 17.15C131.019 16.47 130.668 15.5463 130.668 14.379C130.668 14.0503 130.702 13.699 130.77 13.325C130.94 12.3617 131.286 11.5173 131.807 10.792C132.328 10.0667 132.969 9.51133 133.728 9.126C134.499 8.72933 135.332 8.531 136.227 8.531ZM138.369 12.747C138.403 12.5203 138.42 12.3107 138.42 12.118C138.42 11.3927 138.188 10.8317 137.723 10.435C137.27 10.0383 136.675 9.84 135.938 9.84C135.145 9.84 134.425 10.1007 133.779 10.622C133.133 11.132 132.697 11.8403 132.47 12.747H138.369ZM144.848 5.42L142.621 18H141.074L143.301 5.42H144.848ZM148.147 10.401C148.555 9.86833 149.094 9.42633 149.762 9.075C150.431 8.71233 151.162 8.531 151.955 8.531C152.681 8.531 153.321 8.684 153.876 8.99C154.443 9.28467 154.879 9.71533 155.185 10.282C155.491 10.8373 155.644 11.4947 155.644 12.254C155.644 12.5827 155.61 12.934 155.542 13.308C155.372 14.2487 155.027 15.0873 154.505 15.824C153.995 16.5607 153.366 17.133 152.618 17.541C151.882 17.949 151.1 18.153 150.272 18.153C149.479 18.153 148.81 17.9773 148.266 17.626C147.734 17.2633 147.348 16.8157 147.11 16.283L146.039 22.42H144.492L146.906 8.684H148.453L148.147 10.401ZM153.961 13.308C154.007 13.07 154.029 12.8093 154.029 12.526C154.029 11.6987 153.786 11.0527 153.298 10.588C152.811 10.112 152.182 9.874 151.411 9.874C150.845 9.874 150.295 10.0157 149.762 10.299C149.23 10.571 148.771 10.9733 148.385 11.506C148.011 12.0273 147.762 12.6337 147.637 13.325C147.592 13.563 147.569 13.8237 147.569 14.107C147.569 14.9343 147.813 15.5917 148.3 16.079C148.799 16.555 149.428 16.793 150.187 16.793C150.765 16.793 151.315 16.657 151.836 16.385C152.369 16.1017 152.822 15.6993 153.196 15.178C153.582 14.6453 153.837 14.022 153.961 13.308ZM165.906 18.153C165.124 18.153 164.433 17.9943 163.832 17.677C163.243 17.3483 162.784 16.895 162.455 16.317C162.127 15.7277 161.962 15.0477 161.962 14.277C161.962 13.223 162.206 12.2597 162.693 11.387C163.181 10.503 163.849 9.806 164.699 9.296C165.561 8.786 166.518 8.531 167.572 8.531C168.354 8.531 169.046 8.69533 169.646 9.024C170.258 9.34133 170.729 9.79467 171.057 10.384C171.397 10.962 171.567 11.642 171.567 12.424C171.567 13.478 171.318 14.4413 170.819 15.314C170.321 16.1867 169.641 16.878 168.779 17.388C167.918 17.898 166.96 18.153 165.906 18.153ZM166.093 16.844C166.83 16.844 167.493 16.6457 168.082 16.249C168.672 15.841 169.131 15.3083 169.459 14.651C169.799 13.9823 169.969 13.2683 169.969 12.509C169.969 11.6477 169.72 10.9903 169.221 10.537C168.723 10.0723 168.099 9.84 167.351 9.84C166.615 9.84 165.957 10.044 165.379 10.452C164.801 10.8487 164.354 11.3813 164.036 12.05C163.719 12.7187 163.56 13.4383 163.56 14.209C163.56 15.0477 163.798 15.6993 164.274 16.164C164.75 16.6173 165.357 16.844 166.093 16.844ZM182.594 8.684L180.945 18H179.398L179.636 16.64C179.262 17.116 178.786 17.4843 178.208 17.745C177.63 18.0057 177.03 18.136 176.406 18.136C175.432 18.136 174.65 17.8753 174.06 17.354C173.482 16.8213 173.193 16.062 173.193 15.076C173.193 14.8267 173.222 14.515 173.278 14.141L174.247 8.684H175.777L174.859 13.937C174.814 14.175 174.791 14.4243 174.791 14.685C174.791 15.3763 174.978 15.9033 175.352 16.266C175.738 16.6173 176.27 16.793 176.95 16.793C177.766 16.793 178.458 16.538 179.024 16.028C179.602 15.518 179.971 14.7757 180.129 13.801V13.852L181.047 8.684H182.594ZM186.447 10.452C186.821 9.84 187.292 9.364 187.858 9.024C188.425 8.684 189.071 8.514 189.796 8.514L189.507 10.112H189.099C188.295 10.112 187.62 10.3273 187.076 10.758C186.544 11.1887 186.187 11.914 186.005 12.934L185.104 18H183.557L185.206 8.684H186.753L186.447 10.452ZM195.201 13.325C195.371 12.3617 195.711 11.523 196.221 10.809C196.742 10.0837 197.382 9.52267 198.142 9.126C198.901 8.72933 199.723 8.531 200.607 8.531C201.751 8.531 202.641 8.80867 203.276 9.364C203.922 9.91933 204.279 10.69 204.347 11.676H202.681C202.624 11.1093 202.392 10.6617 201.984 10.333C201.587 10.0043 201.049 9.84 200.369 9.84C199.485 9.84 198.714 10.146 198.057 10.758C197.411 11.3587 196.991 12.2143 196.799 13.325C196.742 13.699 196.714 14.0107 196.714 14.26C196.714 15.0873 196.935 15.7277 197.377 16.181C197.819 16.623 198.408 16.844 199.145 16.844C199.825 16.844 200.414 16.6853 200.913 16.368C201.423 16.0507 201.814 15.5973 202.086 15.008H203.752C203.344 15.96 202.715 16.725 201.865 17.303C201.015 17.8697 200.029 18.153 198.907 18.153C197.739 18.153 196.81 17.8187 196.119 17.15C195.439 16.4813 195.099 15.569 195.099 14.413C195.099 14.0617 195.133 13.699 195.201 13.325ZM209.063 5.42L206.836 18H205.289L207.516 5.42H209.063ZM215.167 8.531C215.949 8.531 216.624 8.684 217.19 8.99C217.768 9.28467 218.205 9.704 218.499 10.248C218.805 10.7807 218.958 11.3927 218.958 12.084C218.958 12.322 218.93 12.611 218.873 12.951C218.828 13.2457 218.754 13.5517 218.652 13.869H211.206C211.184 14.0957 211.172 14.26 211.172 14.362C211.172 15.144 211.405 15.756 211.869 16.198C212.345 16.6287 212.963 16.844 213.722 16.844C214.391 16.844 214.975 16.691 215.473 16.385C215.983 16.0677 216.369 15.6483 216.629 15.127H218.295C217.887 16.0223 217.258 16.7533 216.408 17.32C215.57 17.8753 214.595 18.153 213.484 18.153C212.317 18.153 211.376 17.8187 210.662 17.15C209.96 16.47 209.608 15.5463 209.608 14.379C209.608 14.0503 209.642 13.699 209.71 13.325C209.88 12.3617 210.226 11.5173 210.747 10.792C211.269 10.0667 211.909 9.51133 212.668 9.126C213.439 8.72933 214.272 8.531 215.167 8.531ZM217.309 12.747C217.343 12.5203 217.36 12.3107 217.36 12.118C217.36 11.3927 217.128 10.8317 216.663 10.435C216.21 10.0383 215.615 9.84 214.878 9.84C214.085 9.84 213.365 10.1007 212.719 10.622C212.073 11.132 211.637 11.8403 211.41 12.747H217.309ZM226.236 8.514C227.2 8.514 227.97 8.77467 228.548 9.296C229.126 9.806 229.415 10.554 229.415 11.54C229.415 11.9027 229.387 12.2257 229.33 12.509L228.361 18H226.831L227.766 12.73C227.812 12.492 227.834 12.2427 227.834 11.982C227.834 11.2907 227.642 10.7637 227.256 10.401C226.882 10.0383 226.355 9.857 225.675 9.857C224.859 9.857 224.162 10.112 223.584 10.622C223.018 11.132 222.649 11.8743 222.479 12.849V12.815L221.561 18H220.014L221.663 8.684H223.21L222.972 10.027C223.358 9.53967 223.839 9.16567 224.417 8.905C224.995 8.64433 225.602 8.514 226.236 8.514ZM233.234 15.45C233.2 15.62 233.183 15.7673 233.183 15.892C233.183 16.1753 233.268 16.3793 233.438 16.504C233.62 16.6287 233.909 16.691 234.305 16.691H235.444L235.206 18H233.812C233.076 18 232.52 17.8583 232.146 17.575C231.784 17.2917 231.602 16.827 231.602 16.181C231.602 15.9317 231.625 15.688 231.67 15.45L232.639 9.959H231.449L231.67 8.684H232.877L233.285 6.338H234.849L234.441 8.684H236.855L236.634 9.959H234.203L233.234 15.45ZM240.362 18.153C239.387 18.153 238.588 17.9207 237.965 17.456C237.341 16.9913 237.03 16.368 237.03 15.586C237.03 15.4387 237.035 15.331 237.047 15.263H238.56C238.514 15.7503 238.656 16.147 238.985 16.453C239.325 16.759 239.812 16.912 240.447 16.912C241.081 16.912 241.591 16.793 241.977 16.555C242.373 16.3057 242.572 15.96 242.572 15.518C242.572 15.144 242.413 14.8493 242.096 14.634C241.778 14.4187 241.291 14.1863 240.634 13.937C240.056 13.7217 239.58 13.5177 239.206 13.325C238.832 13.1323 238.514 12.866 238.254 12.526C237.993 12.1747 237.863 11.7327 237.863 11.2C237.863 10.6787 238.01 10.214 238.305 9.806C238.611 9.398 239.03 9.08633 239.563 8.871C240.107 8.64433 240.724 8.531 241.416 8.531C242.368 8.531 243.15 8.769 243.762 9.245C244.374 9.721 244.68 10.3443 244.68 11.115C244.68 11.2623 244.674 11.3757 244.663 11.455H243.184L243.201 11.251C243.201 10.7977 243.025 10.4407 242.674 10.18C242.334 9.908 241.88 9.772 241.314 9.772C240.758 9.772 240.299 9.89667 239.937 10.146C239.585 10.3953 239.41 10.7297 239.41 11.149C239.41 11.5457 239.574 11.8573 239.903 12.084C240.231 12.3107 240.741 12.56 241.433 12.832C242.011 13.0587 242.475 13.2683 242.827 13.461C243.178 13.6423 243.478 13.8973 243.728 14.226C243.977 14.5547 244.102 14.9683 244.102 15.467C244.102 16.011 243.937 16.487 243.609 16.895C243.291 17.303 242.849 17.6147 242.283 17.83C241.716 18.0453 241.076 18.153 240.362 18.153ZM251.502 18.102C251.241 18.102 251.026 18.0227 250.856 17.864C250.697 17.7053 250.618 17.4957 250.618 17.235C250.618 16.895 250.743 16.606 250.992 16.368C251.241 16.1187 251.536 15.994 251.876 15.994C252.137 15.994 252.346 16.0733 252.505 16.232C252.664 16.3907 252.743 16.6003 252.743 16.861C252.743 17.201 252.618 17.4957 252.369 17.745C252.12 17.983 251.831 18.102 251.502 18.102ZM251.502 10.826C251.241 10.826 251.026 10.7467 250.856 10.588C250.697 10.4293 250.618 10.2197 250.618 9.959C250.618 9.619 250.743 9.33 250.992 9.092C251.241 8.84267 251.536 8.718 251.876 8.718C252.137 8.718 252.346 8.79733 252.505 8.956C252.664 9.11467 252.743 9.32433 252.743 9.585C252.743 9.925 252.618 10.2197 252.369 10.469C252.12 10.707 251.831 10.826 251.502 10.826Z" fill="#C4C4C4"/>
</svg>
