<svg width="147" height="25" viewBox="0 0 147 25" fill="none" xmlns="http://www.w3.org/2000/svg">
<path d="M145.177 21.2656H124.823C124.395 21.2656 124.061 21.6191 124.061 22.0284C124.061 22.4377 124.414 22.7912 124.823 22.7912H145.195C145.623 22.7912 145.958 22.4377 145.958 22.0284C145.958 21.6191 145.605 21.2656 145.177 21.2656Z" fill="#C4C4C4"/>
<path d="M124.061 14.5121L124.042 18.14C124.042 18.3446 124.116 18.5493 124.265 18.6981C124.414 18.847 124.6 18.9214 124.805 18.9214L128.414 18.9028C128.619 18.9028 128.805 18.8284 128.954 18.6795L141.419 6.21441C141.716 5.91674 141.716 5.43302 141.419 5.11674L137.847 1.50744C137.549 1.20976 137.065 1.20976 136.749 1.50744L134.256 4.01906L124.284 13.9726C124.154 14.1214 124.061 14.3074 124.061 14.5121ZM137.307 3.14464L139.819 5.65627L138.405 7.07023L135.893 4.5586L137.307 3.14464ZM125.605 14.847L134.795 5.65627L137.307 8.1679L128.116 17.34L125.586 17.3586L125.605 14.847Z" fill="#C4C4C4"/>
<path d="M4.539 18.153C3.757 18.153 3.06567 17.9943 2.465 17.677C1.87567 17.3483 1.41667 16.895 1.088 16.317C0.759333 15.7277 0.595 15.0477 0.595 14.277C0.595 13.223 0.838667 12.2597 1.326 11.387C1.81333 10.503 2.482 9.806 3.332 9.296C4.19333 8.786 5.151 8.531 6.205 8.531C6.987 8.531 7.67833 8.69533 8.279 9.024C8.891 9.34133 9.36133 9.79467 9.69 10.384C10.03 10.962 10.2 11.642 10.2 12.424C10.2 13.478 9.95067 14.4413 9.452 15.314C8.95333 16.1867 8.27333 16.878 7.412 17.388C6.55067 17.898 5.593 18.153 4.539 18.153ZM4.726 16.844C5.46267 16.844 6.12567 16.6457 6.715 16.249C7.30433 15.841 7.76333 15.3083 8.092 14.651C8.432 13.9823 8.602 13.2683 8.602 12.509C8.602 11.6477 8.35267 10.9903 7.854 10.537C7.35533 10.0723 6.732 9.84 5.984 9.84C5.24733 9.84 4.59 10.044 4.012 10.452C3.434 10.8487 2.98633 11.3813 2.669 12.05C2.35167 12.7187 2.193 13.4383 2.193 14.209C2.193 15.0477 2.431 15.6993 2.907 16.164C3.383 16.6173 3.98933 16.844 4.726 16.844ZM21.227 8.684L19.578 18H18.031L18.269 16.64C17.895 17.116 17.419 17.4843 16.841 17.745C16.263 18.0057 15.6624 18.136 15.039 18.136C14.0644 18.136 13.2824 17.8753 12.693 17.354C12.115 16.8213 11.826 16.062 11.826 15.076C11.826 14.8267 11.8544 14.515 11.911 14.141L12.88 8.684H14.41L13.492 13.937C13.4467 14.175 13.424 14.4243 13.424 14.685C13.424 15.3763 13.611 15.9033 13.985 16.266C14.3704 16.6173 14.903 16.793 15.583 16.793C16.399 16.793 17.0904 16.538 17.657 16.028C18.235 15.518 18.6034 14.7757 18.762 13.801V13.852L19.68 8.684H21.227ZM25.08 10.452C25.454 9.84 25.9244 9.364 26.491 9.024C27.0577 8.684 27.7037 8.514 28.429 8.514L28.14 10.112H27.732C26.9274 10.112 26.253 10.3273 25.709 10.758C25.1764 11.1887 24.8194 11.914 24.638 12.934L23.737 18H22.19L23.839 8.684H25.386L25.08 10.452ZM46.4813 8.514C47.4333 8.514 48.1927 8.77467 48.7593 9.296C49.3373 9.806 49.6263 10.554 49.6263 11.54C49.6263 11.9027 49.598 12.2257 49.5413 12.509L48.5723 18H47.0423L47.9773 12.73C48.0227 12.492 48.0453 12.237 48.0453 11.965C48.0453 11.2737 47.8583 10.7523 47.4843 10.401C47.1217 10.0383 46.606 9.857 45.9373 9.857C45.1667 9.857 44.5037 10.095 43.9483 10.571C43.4043 11.0357 43.0303 11.71 42.8263 12.594L41.8573 18H40.3273L41.2623 12.73C41.3077 12.4693 41.3303 12.2087 41.3303 11.948C41.3303 11.268 41.1433 10.7523 40.7693 10.401C40.4067 10.0383 39.891 9.857 39.2223 9.857C38.4177 9.857 37.732 10.1177 37.1653 10.639C36.5987 11.149 36.2303 11.8913 36.0603 12.866V12.832L35.1423 18H33.5953L35.2443 8.684H36.7913L36.5533 10.027C36.9387 9.53967 37.4147 9.16567 37.9813 8.905C38.548 8.64433 39.143 8.514 39.7663 8.514C40.5483 8.514 41.2057 8.68967 41.7383 9.041C42.2823 9.39233 42.6393 9.908 42.8093 10.588C43.1947 9.93067 43.716 9.42067 44.3733 9.058C45.042 8.69533 45.7447 8.514 46.4813 8.514ZM53.813 7.171C53.5636 7.171 53.354 7.09167 53.184 6.933C53.0253 6.763 52.946 6.55333 52.946 6.304C52.946 5.964 53.0706 5.675 53.32 5.437C53.5693 5.18767 53.8583 5.063 54.187 5.063C54.4476 5.063 54.6573 5.14233 54.816 5.301C54.9746 5.45967 55.054 5.66933 55.054 5.93C55.054 6.27 54.9293 6.56467 54.68 6.814C54.4306 7.052 54.1416 7.171 53.813 7.171ZM54.306 8.684L52.657 18H51.11L52.759 8.684H54.306ZM58.5746 18.153C57.5999 18.153 56.8009 17.9207 56.1776 17.456C55.5542 16.9913 55.2426 16.368 55.2426 15.586C55.2426 15.4387 55.2482 15.331 55.2596 15.263H56.7726C56.7272 15.7503 56.8689 16.147 57.1976 16.453C57.5376 16.759 58.0249 16.912 58.6596 16.912C59.2942 16.912 59.8042 16.793 60.1896 16.555C60.5862 16.3057 60.7846 15.96 60.7846 15.518C60.7846 15.144 60.6259 14.8493 60.3086 14.634C59.9912 14.4187 59.5039 14.1863 58.8466 13.937C58.2686 13.7217 57.7926 13.5177 57.4186 13.325C57.0446 13.1323 56.7272 12.866 56.4666 12.526C56.2059 12.1747 56.0756 11.7327 56.0756 11.2C56.0756 10.6787 56.2229 10.214 56.5176 9.806C56.8236 9.398 57.2429 9.08633 57.7756 8.871C58.3196 8.64433 58.9372 8.531 59.6286 8.531C60.5806 8.531 61.3626 8.769 61.9746 9.245C62.5866 9.721 62.8926 10.3443 62.8926 11.115C62.8926 11.2623 62.8869 11.3757 62.8756 11.455H61.3966L61.4136 11.251C61.4136 10.7977 61.2379 10.4407 60.8866 10.18C60.5466 9.908 60.0932 9.772 59.5266 9.772C58.9712 9.772 58.5122 9.89667 58.1496 10.146C57.7982 10.3953 57.6226 10.7297 57.6226 11.149C57.6226 11.5457 57.7869 11.8573 58.1156 12.084C58.4442 12.3107 58.9542 12.56 59.6456 12.832C60.2236 13.0587 60.6882 13.2683 61.0396 13.461C61.3909 13.6423 61.6912 13.8973 61.9406 14.226C62.1899 14.5547 62.3146 14.9683 62.3146 15.467C62.3146 16.011 62.1502 16.487 61.8216 16.895C61.5042 17.303 61.0622 17.6147 60.4956 17.83C59.9289 18.0453 59.2886 18.153 58.5746 18.153ZM67.4564 18.153C66.4817 18.153 65.6827 17.9207 65.0594 17.456C64.4361 16.9913 64.1244 16.368 64.1244 15.586C64.1244 15.4387 64.1301 15.331 64.1414 15.263H65.6544C65.6091 15.7503 65.7507 16.147 66.0794 16.453C66.4194 16.759 66.9067 16.912 67.5414 16.912C68.1761 16.912 68.6861 16.793 69.0714 16.555C69.4681 16.3057 69.6664 15.96 69.6664 15.518C69.6664 15.144 69.5077 14.8493 69.1904 14.634C68.8731 14.4187 68.3857 14.1863 67.7284 13.937C67.1504 13.7217 66.6744 13.5177 66.3004 13.325C65.9264 13.1323 65.6091 12.866 65.3484 12.526C65.0877 12.1747 64.9574 11.7327 64.9574 11.2C64.9574 10.6787 65.1047 10.214 65.3994 9.806C65.7054 9.398 66.1247 9.08633 66.6574 8.871C67.2014 8.64433 67.8191 8.531 68.5104 8.531C69.4624 8.531 70.2444 8.769 70.8564 9.245C71.4684 9.721 71.7744 10.3443 71.7744 11.115C71.7744 11.2623 71.7687 11.3757 71.7574 11.455H70.2784L70.2954 11.251C70.2954 10.7977 70.1197 10.4407 69.7684 10.18C69.4284 9.908 68.9751 9.772 68.4084 9.772C67.8531 9.772 67.3941 9.89667 67.0314 10.146C66.6801 10.3953 66.5044 10.7297 66.5044 11.149C66.5044 11.5457 66.6687 11.8573 66.9974 12.084C67.3261 12.3107 67.8361 12.56 68.5274 12.832C69.1054 13.0587 69.5701 13.2683 69.9214 13.461C70.2727 13.6423 70.5731 13.8973 70.8224 14.226C71.0717 14.5547 71.1964 14.9683 71.1964 15.467C71.1964 16.011 71.0321 16.487 70.7034 16.895C70.3861 17.303 69.9441 17.6147 69.3774 17.83C68.8107 18.0453 68.1704 18.153 67.4564 18.153ZM75.7602 7.171C75.5109 7.171 75.3012 7.09167 75.1312 6.933C74.9726 6.763 74.8932 6.55333 74.8932 6.304C74.8932 5.964 75.0179 5.675 75.2672 5.437C75.5166 5.18767 75.8056 5.063 76.1342 5.063C76.3949 5.063 76.6046 5.14233 76.7632 5.301C76.9219 5.45967 77.0012 5.66933 77.0012 5.93C77.0012 6.27 76.8766 6.56467 76.6272 6.814C76.3779 7.052 76.0889 7.171 75.7602 7.171ZM76.2532 8.684L74.6042 18H73.0572L74.7062 8.684H76.2532ZM81.3378 18.153C80.5558 18.153 79.8645 17.9943 79.2638 17.677C78.6745 17.3483 78.2155 16.895 77.8868 16.317C77.5582 15.7277 77.3938 15.0477 77.3938 14.277C77.3938 13.223 77.6375 12.2597 78.1248 11.387C78.6122 10.503 79.2808 9.806 80.1308 9.296C80.9922 8.786 81.9498 8.531 83.0038 8.531C83.7858 8.531 84.4772 8.69533 85.0778 9.024C85.6898 9.34133 86.1602 9.79467 86.4888 10.384C86.8288 10.962 86.9988 11.642 86.9988 12.424C86.9988 13.478 86.7495 14.4413 86.2508 15.314C85.7522 16.1867 85.0722 16.878 84.2108 17.388C83.3495 17.898 82.3918 18.153 81.3378 18.153ZM81.5248 16.844C82.2615 16.844 82.9245 16.6457 83.5138 16.249C84.1032 15.841 84.5622 15.3083 84.8908 14.651C85.2308 13.9823 85.4008 13.2683 85.4008 12.509C85.4008 11.6477 85.1515 10.9903 84.6528 10.537C84.1542 10.0723 83.5308 9.84 82.7828 9.84C82.0462 9.84 81.3888 10.044 80.8108 10.452C80.2328 10.8487 79.7852 11.3813 79.4678 12.05C79.1505 12.7187 78.9918 13.4383 78.9918 14.209C78.9918 15.0477 79.2298 15.6993 79.7058 16.164C80.1818 16.6173 80.7882 16.844 81.5248 16.844ZM94.3369 8.514C95.3002 8.514 96.0709 8.77467 96.6489 9.296C97.2269 9.806 97.5159 10.554 97.5159 11.54C97.5159 11.9027 97.4875 12.2257 97.4309 12.509L96.4619 18H94.9319L95.8669 12.73C95.9122 12.492 95.9349 12.2427 95.9349 11.982C95.9349 11.2907 95.7422 10.7637 95.3569 10.401C94.9829 10.0383 94.4559 9.857 93.7759 9.857C92.9599 9.857 92.2629 10.112 91.6849 10.622C91.1182 11.132 90.7499 11.8743 90.5799 12.849V12.815L89.6619 18H88.1149L89.7639 8.684H91.3109L91.0729 10.027C91.4582 9.53967 91.9399 9.16567 92.5179 8.905C93.0959 8.64433 93.7022 8.514 94.3369 8.514Z" fill="#C4C4C4"/>
</svg>
