<svg width="134" height="25" viewBox="0 0 134 25" fill="none" xmlns="http://www.w3.org/2000/svg">
<path d="M132.177 21.2656H111.823C111.395 21.2656 111.061 21.6191 111.061 22.0284C111.061 22.4377 111.414 22.7912 111.823 22.7912H132.195C132.623 22.7912 132.958 22.4377 132.958 22.0284C132.958 21.6191 132.605 21.2656 132.177 21.2656Z" fill="#C4C4C4"/>
<path d="M111.061 14.5121L111.042 18.14C111.042 18.3446 111.116 18.5493 111.265 18.6981C111.414 18.847 111.6 18.9214 111.805 18.9214L115.414 18.9028C115.619 18.9028 115.805 18.8284 115.954 18.6795L128.419 6.21441C128.716 5.91674 128.716 5.43302 128.419 5.11674L124.847 1.50744C124.549 1.20976 124.065 1.20976 123.749 1.50744L121.256 4.01906L111.284 13.9726C111.154 14.1214 111.061 14.3074 111.061 14.5121ZM124.307 3.14464L126.819 5.65627L125.405 7.07023L122.893 4.5586L124.307 3.14464ZM112.605 14.847L121.795 5.65627L124.307 8.1679L115.116 17.34L112.586 17.3586L112.605 14.847Z" fill="#C4C4C4"/>
<path d="M4.539 18.153C3.757 18.153 3.06567 17.9943 2.465 17.677C1.87567 17.3483 1.41667 16.895 1.088 16.317C0.759333 15.7277 0.595 15.0477 0.595 14.277C0.595 13.223 0.838667 12.2597 1.326 11.387C1.81333 10.503 2.482 9.806 3.332 9.296C4.19333 8.786 5.151 8.531 6.205 8.531C6.987 8.531 7.67833 8.69533 8.279 9.024C8.891 9.34133 9.36133 9.79467 9.69 10.384C10.03 10.962 10.2 11.642 10.2 12.424C10.2 13.478 9.95067 14.4413 9.452 15.314C8.95333 16.1867 8.27333 16.878 7.412 17.388C6.55067 17.898 5.593 18.153 4.539 18.153ZM4.726 16.844C5.46267 16.844 6.12567 16.6457 6.715 16.249C7.30433 15.841 7.76333 15.3083 8.092 14.651C8.432 13.9823 8.602 13.2683 8.602 12.509C8.602 11.6477 8.35267 10.9903 7.854 10.537C7.35533 10.0723 6.732 9.84 5.984 9.84C5.24733 9.84 4.59 10.044 4.012 10.452C3.434 10.8487 2.98633 11.3813 2.669 12.05C2.35167 12.7187 2.193 13.4383 2.193 14.209C2.193 15.0477 2.431 15.6993 2.907 16.164C3.383 16.6173 3.98933 16.844 4.726 16.844ZM21.227 8.684L19.578 18H18.031L18.269 16.64C17.895 17.116 17.419 17.4843 16.841 17.745C16.263 18.0057 15.6624 18.136 15.039 18.136C14.0644 18.136 13.2824 17.8753 12.693 17.354C12.115 16.8213 11.826 16.062 11.826 15.076C11.826 14.8267 11.8544 14.515 11.911 14.141L12.88 8.684H14.41L13.492 13.937C13.4467 14.175 13.424 14.4243 13.424 14.685C13.424 15.3763 13.611 15.9033 13.985 16.266C14.3704 16.6173 14.903 16.793 15.583 16.793C16.399 16.793 17.0904 16.538 17.657 16.028C18.235 15.518 18.6034 14.7757 18.762 13.801V13.852L19.68 8.684H21.227ZM25.08 10.452C25.454 9.84 25.9244 9.364 26.491 9.024C27.0577 8.684 27.7037 8.514 28.429 8.514L28.14 10.112H27.732C26.9274 10.112 26.253 10.3273 25.709 10.758C25.1764 11.1887 24.8194 11.914 24.638 12.934L23.737 18H22.19L23.839 8.684H25.386L25.08 10.452ZM37.3183 16.538L41.6023 8.684H43.2683L37.9643 18H36.1453L34.1393 8.684H35.8053L37.3183 16.538ZM43.3626 13.308C43.5326 12.356 43.8726 11.523 44.3826 10.809C44.904 10.0837 45.533 9.52267 46.2696 9.126C47.0176 8.72933 47.811 8.531 48.6496 8.531C49.4656 8.531 50.14 8.70667 50.6726 9.058C51.2053 9.40933 51.5736 9.85133 51.7776 10.384L52.0836 8.684H53.6476L51.9986 18H50.4346L50.7576 16.266C50.3496 16.81 49.8113 17.2633 49.1426 17.626C48.474 17.9773 47.7373 18.153 46.9326 18.153C46.2073 18.153 45.567 18 45.0116 17.694C44.4563 17.3767 44.0256 16.929 43.7196 16.351C43.4136 15.773 43.2606 15.1043 43.2606 14.345C43.2606 14.005 43.2946 13.6593 43.3626 13.308ZM51.2676 13.325C51.313 13.087 51.3356 12.832 51.3356 12.56C51.3356 11.7327 51.0863 11.081 50.5876 10.605C50.1003 10.1177 49.477 9.874 48.7176 9.874C48.1396 9.874 47.5843 10.01 47.0516 10.282C46.5303 10.554 46.0826 10.9507 45.7086 11.472C45.3346 11.9933 45.0853 12.6053 44.9606 13.308C44.9153 13.546 44.8926 13.8067 44.8926 14.09C44.8926 14.9287 45.1363 15.5917 45.6236 16.079C46.111 16.555 46.7343 16.793 47.4936 16.793C48.0716 16.793 48.6213 16.657 49.1426 16.385C49.6753 16.1017 50.1286 15.6993 50.5026 15.178C50.888 14.6453 51.143 14.0277 51.2676 13.325ZM58.3869 5.42L56.1599 18H54.6129L56.8399 5.42H58.3869ZM68.7075 8.684L67.0585 18H65.5115L65.7495 16.64C65.3755 17.116 64.8995 17.4843 64.3215 17.745C63.7435 18.0057 63.1428 18.136 62.5195 18.136C61.5448 18.136 60.7628 17.8753 60.1735 17.354C59.5955 16.8213 59.3065 16.062 59.3065 15.076C59.3065 14.8267 59.3348 14.515 59.3915 14.141L60.3605 8.684H61.8905L60.9725 13.937C60.9272 14.175 60.9045 14.4243 60.9045 14.685C60.9045 15.3763 61.0915 15.9033 61.4655 16.266C61.8508 16.6173 62.3835 16.793 63.0635 16.793C63.8795 16.793 64.5708 16.538 65.1375 16.028C65.7155 15.518 66.0838 14.7757 66.2425 13.801V13.852L67.1605 8.684H68.7075ZM75.3655 8.531C76.1475 8.531 76.8218 8.684 77.3885 8.99C77.9665 9.28467 78.4028 9.704 78.6975 10.248C79.0035 10.7807 79.1565 11.3927 79.1565 12.084C79.1565 12.322 79.1282 12.611 79.0715 12.951C79.0262 13.2457 78.9525 13.5517 78.8505 13.869H71.4045C71.3818 14.0957 71.3705 14.26 71.3705 14.362C71.3705 15.144 71.6028 15.756 72.0675 16.198C72.5435 16.6287 73.1612 16.844 73.9205 16.844C74.5892 16.844 75.1728 16.691 75.6715 16.385C76.1815 16.0677 76.5668 15.6483 76.8275 15.127H78.4935C78.0855 16.0223 77.4565 16.7533 76.6065 17.32C75.7678 17.8753 74.7932 18.153 73.6825 18.153C72.5152 18.153 71.5745 17.8187 70.8605 17.15C70.1578 16.47 69.8065 15.5463 69.8065 14.379C69.8065 14.0503 69.8405 13.699 69.9085 13.325C70.0785 12.3617 70.4242 11.5173 70.9455 10.792C71.4668 10.0667 72.1072 9.51133 72.8665 9.126C73.6372 8.72933 74.4702 8.531 75.3655 8.531ZM77.5075 12.747C77.5415 12.5203 77.5585 12.3107 77.5585 12.118C77.5585 11.3927 77.3262 10.8317 76.8615 10.435C76.4082 10.0383 75.8132 9.84 75.0765 9.84C74.2832 9.84 73.5635 10.1007 72.9175 10.622C72.2715 11.132 71.8352 11.8403 71.6085 12.747H77.5075ZM83.4935 18.153C82.5188 18.153 81.7198 17.9207 81.0965 17.456C80.4732 16.9913 80.1615 16.368 80.1615 15.586C80.1615 15.4387 80.1672 15.331 80.1785 15.263H81.6915C81.6462 15.7503 81.7878 16.147 82.1165 16.453C82.4565 16.759 82.9438 16.912 83.5785 16.912C84.2132 16.912 84.7232 16.793 85.1085 16.555C85.5052 16.3057 85.7035 15.96 85.7035 15.518C85.7035 15.144 85.5448 14.8493 85.2275 14.634C84.9102 14.4187 84.4228 14.1863 83.7655 13.937C83.1875 13.7217 82.7115 13.5177 82.3375 13.325C81.9635 13.1323 81.6462 12.866 81.3855 12.526C81.1248 12.1747 80.9945 11.7327 80.9945 11.2C80.9945 10.6787 81.1418 10.214 81.4365 9.806C81.7425 9.398 82.1618 9.08633 82.6945 8.871C83.2385 8.64433 83.8562 8.531 84.5475 8.531C85.4995 8.531 86.2815 8.769 86.8935 9.245C87.5055 9.721 87.8115 10.3443 87.8115 11.115C87.8115 11.2623 87.8058 11.3757 87.7945 11.455H86.3155L86.3325 11.251C86.3325 10.7977 86.1568 10.4407 85.8055 10.18C85.4655 9.908 85.0122 9.772 84.4455 9.772C83.8902 9.772 83.4312 9.89667 83.0685 10.146C82.7172 10.3953 82.5415 10.7297 82.5415 11.149C82.5415 11.5457 82.7058 11.8573 83.0345 12.084C83.3632 12.3107 83.8732 12.56 84.5645 12.832C85.1425 13.0587 85.6072 13.2683 85.9585 13.461C86.3098 13.6423 86.6102 13.8973 86.8595 14.226C87.1088 14.5547 87.2335 14.9683 87.2335 15.467C87.2335 16.011 87.0692 16.487 86.7405 16.895C86.4232 17.303 85.9812 17.6147 85.4145 17.83C84.8478 18.0453 84.2075 18.153 83.4935 18.153Z" fill="#C4C4C4"/>
</svg>
