<svg width="106" height="25" viewBox="0 0 106 25" fill="none" xmlns="http://www.w3.org/2000/svg">
<path d="M104.177 21.2656H83.8233C83.3954 21.2656 83.0605 21.6191 83.0605 22.0284C83.0605 22.4377 83.414 22.7912 83.8233 22.7912H104.195C104.623 22.7912 104.958 22.4377 104.958 22.0284C104.958 21.6191 104.605 21.2656 104.177 21.2656Z" fill="#C4C4C4"/>
<path d="M83.0606 14.5121L83.042 18.14C83.042 18.3446 83.1164 18.5493 83.2652 18.6981C83.4141 18.847 83.6001 18.9214 83.8048 18.9214L87.4141 18.9028C87.6187 18.9028 87.8048 18.8284 87.9536 18.6795L100.419 6.21441C100.716 5.91674 100.716 5.43302 100.419 5.11674L96.8466 1.50744C96.549 1.20976 96.0652 1.20976 95.749 1.50744L93.2559 4.01906L83.2839 13.9726C83.1536 14.1214 83.0606 14.3074 83.0606 14.5121ZM96.3071 3.14464L98.8187 5.65627L97.4048 7.07023L94.8932 4.5586L96.3071 3.14464ZM84.6048 14.847L93.7955 5.65627L96.3071 8.1679L87.1164 17.34L84.5862 17.3586L84.6048 14.847Z" fill="#C4C4C4"/>
<path d="M4.332 10.401C4.74 9.86833 5.27833 9.42633 5.947 9.075C6.61567 8.71233 7.34667 8.531 8.14 8.531C8.86533 8.531 9.50567 8.684 10.061 8.99C10.6277 9.28467 11.064 9.71533 11.37 10.282C11.676 10.8373 11.829 11.4947 11.829 12.254C11.829 12.5827 11.795 12.934 11.727 13.308C11.557 14.2487 11.2113 15.0873 10.69 15.824C10.18 16.5607 9.551 17.133 8.803 17.541C8.06633 17.949 7.28433 18.153 6.457 18.153C5.66367 18.153 4.995 17.9773 4.451 17.626C3.91833 17.2633 3.533 16.8157 3.295 16.283L2.224 22.42H0.677L3.091 8.684H4.638L4.332 10.401ZM10.146 13.308C10.1913 13.07 10.214 12.8093 10.214 12.526C10.214 11.6987 9.97033 11.0527 9.483 10.588C8.99567 10.112 8.36667 9.874 7.596 9.874C7.02933 9.874 6.47967 10.0157 5.947 10.299C5.41433 10.571 4.95533 10.9733 4.57 11.506C4.196 12.0273 3.94667 12.6337 3.822 13.325C3.77667 13.563 3.754 13.8237 3.754 14.107C3.754 14.9343 3.99767 15.5917 4.485 16.079C4.98367 16.555 5.61267 16.793 6.372 16.793C6.95 16.793 7.49967 16.657 8.021 16.385C8.55367 16.1017 9.007 15.6993 9.381 15.178C9.76633 14.6453 10.0213 14.022 10.146 13.308ZM18.6253 8.531C19.4073 8.531 20.0816 8.684 20.6483 8.99C21.2263 9.28467 21.6626 9.704 21.9573 10.248C22.2633 10.7807 22.4163 11.3927 22.4163 12.084C22.4163 12.322 22.3879 12.611 22.3313 12.951C22.2859 13.2457 22.2123 13.5517 22.1103 13.869H14.6643C14.6416 14.0957 14.6303 14.26 14.6303 14.362C14.6303 15.144 14.8626 15.756 15.3273 16.198C15.8033 16.6287 16.4209 16.844 17.1803 16.844C17.8489 16.844 18.4326 16.691 18.9313 16.385C19.4413 16.0677 19.8266 15.6483 20.0873 15.127H21.7533C21.3453 16.0223 20.7163 16.7533 19.8663 17.32C19.0276 17.8753 18.0529 18.153 16.9423 18.153C15.7749 18.153 14.8343 17.8187 14.1203 17.15C13.4176 16.47 13.0663 15.5463 13.0663 14.379C13.0663 14.0503 13.1003 13.699 13.1683 13.325C13.3383 12.3617 13.6839 11.5173 14.2053 10.792C14.7266 10.0667 15.3669 9.51133 16.1263 9.126C16.8969 8.72933 17.7299 8.531 18.6253 8.531ZM20.7673 12.747C20.8013 12.5203 20.8183 12.3107 20.8183 12.118C20.8183 11.3927 20.5859 10.8317 20.1213 10.435C19.6679 10.0383 19.0729 9.84 18.3363 9.84C17.5429 9.84 16.8233 10.1007 16.1773 10.622C15.5313 11.132 15.0949 11.8403 14.8683 12.747H20.7673ZM27.5693 18.153C26.7873 18.153 26.0959 17.9943 25.4953 17.677C24.9059 17.3483 24.4469 16.895 24.1183 16.317C23.7896 15.7277 23.6253 15.0477 23.6253 14.277C23.6253 13.223 23.8689 12.2597 24.3563 11.387C24.8436 10.503 25.5123 9.806 26.3623 9.296C27.2236 8.786 28.1813 8.531 29.2353 8.531C30.0173 8.531 30.7086 8.69533 31.3093 9.024C31.9213 9.34133 32.3916 9.79467 32.7203 10.384C33.0603 10.962 33.2303 11.642 33.2303 12.424C33.2303 13.478 32.9809 14.4413 32.4823 15.314C31.9836 16.1867 31.3036 16.878 30.4423 17.388C29.5809 17.898 28.6233 18.153 27.5693 18.153ZM27.7563 16.844C28.4929 16.844 29.1559 16.6457 29.7453 16.249C30.3346 15.841 30.7936 15.3083 31.1223 14.651C31.4623 13.9823 31.6323 13.2683 31.6323 12.509C31.6323 11.6477 31.3829 10.9903 30.8843 10.537C30.3856 10.0723 29.7623 9.84 29.0143 9.84C28.2776 9.84 27.6203 10.044 27.0423 10.452C26.4643 10.8487 26.0166 11.3813 25.6993 12.05C25.3819 12.7187 25.2233 13.4383 25.2233 14.209C25.2233 15.0477 25.4613 15.6993 25.9373 16.164C26.4133 16.6173 27.0196 16.844 27.7563 16.844ZM37.2363 10.401C37.6443 9.86833 38.1826 9.42633 38.8513 9.075C39.52 8.71233 40.251 8.531 41.0443 8.531C41.7696 8.531 42.41 8.684 42.9653 8.99C43.532 9.28467 43.9683 9.71533 44.2743 10.282C44.5803 10.8373 44.7333 11.4947 44.7333 12.254C44.7333 12.5827 44.6993 12.934 44.6313 13.308C44.4613 14.2487 44.1156 15.0873 43.5943 15.824C43.0843 16.5607 42.4553 17.133 41.7073 17.541C40.9706 17.949 40.1886 18.153 39.3613 18.153C38.568 18.153 37.8993 17.9773 37.3553 17.626C36.8226 17.2633 36.4373 16.8157 36.1993 16.283L35.1283 22.42H33.5813L35.9953 8.684H37.5423L37.2363 10.401ZM43.0503 13.308C43.0956 13.07 43.1183 12.8093 43.1183 12.526C43.1183 11.6987 42.8746 11.0527 42.3873 10.588C41.9 10.112 41.271 9.874 40.5003 9.874C39.9336 9.874 39.384 10.0157 38.8513 10.299C38.3186 10.571 37.8596 10.9733 37.4743 11.506C37.1003 12.0273 36.851 12.6337 36.7263 13.325C36.681 13.563 36.6583 13.8237 36.6583 14.107C36.6583 14.9343 36.902 15.5917 37.3893 16.079C37.888 16.555 38.517 16.793 39.2763 16.793C39.8543 16.793 40.404 16.657 40.9253 16.385C41.458 16.1017 41.9113 15.6993 42.2853 15.178C42.6706 14.6453 42.9256 14.022 43.0503 13.308ZM49.6086 5.42L47.3816 18H45.8346L48.0616 5.42H49.6086ZM55.7132 8.531C56.4952 8.531 57.1695 8.684 57.7362 8.99C58.3142 9.28467 58.7505 9.704 59.0452 10.248C59.3512 10.7807 59.5042 11.3927 59.5042 12.084C59.5042 12.322 59.4758 12.611 59.4192 12.951C59.3738 13.2457 59.3002 13.5517 59.1982 13.869H51.7522C51.7295 14.0957 51.7182 14.26 51.7182 14.362C51.7182 15.144 51.9505 15.756 52.4152 16.198C52.8912 16.6287 53.5088 16.844 54.2682 16.844C54.9368 16.844 55.5205 16.691 56.0192 16.385C56.5292 16.0677 56.9145 15.6483 57.1752 15.127H58.8412C58.4332 16.0223 57.8042 16.7533 56.9542 17.32C56.1155 17.8753 55.1408 18.153 54.0302 18.153C52.8628 18.153 51.9222 17.8187 51.2082 17.15C50.5055 16.47 50.1542 15.5463 50.1542 14.379C50.1542 14.0503 50.1882 13.699 50.2562 13.325C50.4262 12.3617 50.7718 11.5173 51.2932 10.792C51.8145 10.0667 52.4548 9.51133 53.2142 9.126C53.9848 8.72933 54.8178 8.531 55.7132 8.531ZM57.8552 12.747C57.8892 12.5203 57.9062 12.3107 57.9062 12.118C57.9062 11.3927 57.6738 10.8317 57.2092 10.435C56.7558 10.0383 56.1608 9.84 55.4242 9.84C54.6308 9.84 53.9112 10.1007 53.2652 10.622C52.6192 11.132 52.1828 11.8403 51.9562 12.747H57.8552Z" fill="#C4C4C4"/>
</svg>
