<svg width="100" height="141" viewBox="0 0 100 141" fill="none" xmlns="http://www.w3.org/2000/svg">
<path d="M50.0001 68.8216C64.5219 68.8216 76.2953 53.5342 76.2953 34.6762C76.2953 15.8177 72.4299 0.530273 50.0001 0.530273C27.5702 0.530273 23.7041 15.8177 23.7041 34.6762C23.7041 53.5342 35.4775 68.8216 50.0001 68.8216Z" fill="black"/>
<path d="M0.336231 120.959C0.331748 119.809 0.327265 120.635 0.336231 120.959V120.959Z" fill="black"/>
<path d="M99.668 121.857C99.6823 121.542 99.6729 119.673 99.668 121.857V121.857Z" fill="black"/>
<path d="M99.6104 119.578C99.1234 86.7266 95.1102 77.3658 64.4003 71.4404C64.4003 71.4404 60.0774 77.3295 50.0016 77.3295C39.9258 77.3295 35.6021 71.4404 35.6021 71.4404C5.22732 77.3012 0.97011 86.5232 0.410343 118.511C0.364442 121.123 0.343171 121.26 0.334961 120.957C0.336827 121.525 0.339065 122.576 0.339065 124.408C0.339065 124.408 7.65036 140.165 50.0016 140.165C92.352 140.165 99.6641 124.408 99.6641 124.408C99.6641 123.231 99.6648 122.412 99.666 121.855C99.6578 122.043 99.6413 121.679 99.6104 119.578Z" fill="black"/>
</svg>
