<svg width="158" height="100" viewBox="0 0 158 100" fill="none" xmlns="http://www.w3.org/2000/svg">
<g clip-path="url(#clip0)">
<path d="M135.58 4.53418H26.3543C23.6474 4.53418 21.4531 6.73667 21.4531 9.45357V83.2858C21.4531 86.0027 23.6474 88.2052 26.3543 88.2052H135.58C138.287 88.2052 140.481 86.0027 140.481 83.2858V9.45357C140.481 6.73667 138.287 4.53418 135.58 4.53418Z" fill="#F2F2F2"/>
<path d="M122.182 22.2285H43.9909C42.8652 22.2285 41.9526 23.1445 41.9526 24.2743V27.041C41.9526 28.1709 42.8652 29.0868 43.9909 29.0868H122.182C123.308 29.0868 124.22 28.1709 124.22 27.041V24.2743C124.22 23.1445 123.308 22.2285 122.182 22.2285Z" fill="white"/>
<path d="M139.27 0.967773H30.0442C27.3374 0.967773 25.1431 3.17026 25.1431 5.88716V79.7194C25.1431 82.4363 27.3374 84.6388 30.0442 84.6388H139.27C141.977 84.6388 144.171 82.4363 144.171 79.7194V5.88716C144.171 3.17026 141.977 0.967773 139.27 0.967773Z" stroke="#3F3D56" stroke-miterlimit="10"/>
<path d="M25.2119 7.41504H144.24" stroke="#3F3D56" stroke-miterlimit="10"/>
<path d="M29.2419 6.38573C30.1476 6.38573 30.8818 5.64879 30.8818 4.73974C30.8818 3.83068 30.1476 3.09375 29.2419 3.09375C28.3363 3.09375 27.6021 3.83068 27.6021 4.73974C27.6021 5.64879 28.3363 6.38573 29.2419 6.38573Z" fill="#6C63FF"/>
<path d="M33.8884 6.45506C34.7941 6.45506 35.5283 5.71813 35.5283 4.80907C35.5283 3.90002 34.7941 3.16309 33.8884 3.16309C32.9827 3.16309 32.2485 3.90002 32.2485 4.80907C32.2485 5.71813 32.9827 6.45506 33.8884 6.45506Z" fill="#6C63FF"/>
<path d="M38.5354 6.52342C39.4411 6.52342 40.1753 5.78649 40.1753 4.87743C40.1753 3.96838 39.4411 3.23145 38.5354 3.23145C37.6297 3.23145 36.8955 3.96838 36.8955 4.87743C36.8955 5.78649 37.6297 6.52342 38.5354 6.52342Z" fill="#6C63FF"/>
<path d="M29.6516 5.83787C30.5573 5.83787 31.2915 5.10094 31.2915 4.19189C31.2915 3.28283 30.5573 2.5459 29.6516 2.5459C28.7459 2.5459 28.0117 3.28283 28.0117 4.19189C28.0117 5.10094 28.7459 5.83787 29.6516 5.83787Z" stroke="#3F3D56" stroke-miterlimit="10"/>
<path d="M34.2981 5.90623C35.2038 5.90623 35.938 5.1693 35.938 4.26025C35.938 3.35119 35.2038 2.61426 34.2981 2.61426C33.3924 2.61426 32.6582 3.35119 32.6582 4.26025C32.6582 5.1693 33.3924 5.90623 34.2981 5.90623Z" stroke="#3F3D56" stroke-miterlimit="10"/>
<path d="M38.9451 5.97459C39.8507 5.97459 40.585 5.23766 40.585 4.3286C40.585 3.41955 39.8507 2.68262 38.9451 2.68262C38.0394 2.68262 37.3052 3.41955 37.3052 4.3286C37.3052 5.23766 38.0394 5.97459 38.9451 5.97459Z" stroke="#3F3D56" stroke-miterlimit="10"/>
<path d="M123.684 20.8574H45.4933C44.3676 20.8574 43.4551 21.7734 43.4551 22.9032V25.6699C43.4551 26.7998 44.3676 27.7157 45.4933 27.7157H123.684C124.81 27.7157 125.723 26.7998 125.723 25.6699V22.9032C125.723 21.7734 124.81 20.8574 123.684 20.8574Z" stroke="#3F3D56" stroke-miterlimit="10"/>
<path d="M120.82 24.3724C121.424 24.3724 121.914 23.8811 121.914 23.2751C121.914 22.669 121.424 22.1777 120.82 22.1777C120.217 22.1777 119.727 22.669 119.727 23.2751C119.727 23.8811 120.217 24.3724 120.82 24.3724Z" stroke="#3F3D56" stroke-miterlimit="10"/>
<path d="M121.627 24.1133L123.526 26.0867" stroke="#3F3D56" stroke-miterlimit="10"/>
<path d="M59.0339 23.875H46.7348C46.0555 23.875 45.5049 24.4277 45.5049 25.1095V25.1095C45.5049 25.7913 46.0555 26.344 46.7348 26.344H59.0339C59.7132 26.344 60.2638 25.7913 60.2638 25.1095C60.2638 24.4277 59.7132 23.875 59.0339 23.875Z" fill="#08AB18"/>
<path d="M47.1445 23.1885H59.4436C60.1229 23.1885 60.6735 23.7412 60.6735 24.423V24.423C60.6735 25.1048 60.1229 25.6575 59.4436 25.6575H47.1445C46.4652 25.6575 45.9146 25.1048 45.9146 24.423V24.423C45.9146 23.7412 46.4652 23.1885 47.1445 23.1885Z" stroke="#3F3D56" stroke-miterlimit="10"/>
<path d="M53.7048 38.5518H41.4057C40.7264 38.5518 40.1758 39.1045 40.1758 39.7863V39.7863C40.1758 40.468 40.7264 41.0207 41.4057 41.0207H53.7048C54.3841 41.0207 54.9347 40.468 54.9347 39.7863C54.9347 39.1045 54.3841 38.5518 53.7048 38.5518Z" fill="#E00909"/>
<path d="M53.7048 46.3701H41.4057C40.7264 46.3701 40.1758 46.9228 40.1758 47.6046C40.1758 48.2864 40.7264 48.8391 41.4057 48.8391H53.7048C54.3841 48.8391 54.9347 48.2864 54.9347 47.6046C54.9347 46.9228 54.3841 46.3701 53.7048 46.3701Z" fill="white"/>
<path d="M53.7048 54.1885H41.4057C40.7264 54.1885 40.1758 54.7412 40.1758 55.423C40.1758 56.1048 40.7264 56.6575 41.4057 56.6575H53.7048C54.3841 56.6575 54.9347 56.1048 54.9347 55.423C54.9347 54.7412 54.3841 54.1885 53.7048 54.1885Z" fill="white"/>
<path d="M53.7048 62.0068H41.4057C40.7264 62.0068 40.1758 62.5595 40.1758 63.2413C40.1758 63.9231 40.7264 64.4758 41.4057 64.4758H53.7048C54.3841 64.4758 54.9347 63.9231 54.9347 63.2413C54.9347 62.5595 54.3841 62.0068 53.7048 62.0068Z" fill="white"/>
<path d="M53.7048 69.8252H41.4057C40.7264 69.8252 40.1758 70.3779 40.1758 71.0597C40.1758 71.7415 40.7264 72.2942 41.4057 72.2942H53.7048C54.3841 72.2942 54.9347 71.7415 54.9347 71.0597C54.9347 70.3779 54.3841 69.8252 53.7048 69.8252Z" fill="white"/>
<path d="M42.0893 37.7285H54.3884C55.0677 37.7285 55.6183 38.2812 55.6183 38.963V38.963C55.6183 39.6448 55.0677 40.1975 54.3884 40.1975H42.0893C41.41 40.1975 40.8594 39.6448 40.8594 38.963V38.963C40.8594 38.2812 41.41 37.7285 42.0893 37.7285Z" stroke="#3F3D56" stroke-miterlimit="10"/>
<path d="M54.3884 45.5469H42.0893C41.41 45.5469 40.8594 46.0996 40.8594 46.7814C40.8594 47.4632 41.41 48.0159 42.0893 48.0159H54.3884C55.0677 48.0159 55.6183 47.4632 55.6183 46.7814C55.6183 46.0996 55.0677 45.5469 54.3884 45.5469Z" stroke="#3F3D56" stroke-miterlimit="10"/>
<path d="M54.3884 53.3652H42.0893C41.41 53.3652 40.8594 53.9179 40.8594 54.5997C40.8594 55.2815 41.41 55.8342 42.0893 55.8342H54.3884C55.0677 55.8342 55.6183 55.2815 55.6183 54.5997C55.6183 53.9179 55.0677 53.3652 54.3884 53.3652Z" stroke="#3F3D56" stroke-miterlimit="10"/>
<path d="M42.0893 61.1836H54.3884C55.0677 61.1836 55.6183 61.7363 55.6183 62.4181V62.4181C55.6183 63.0999 55.0677 63.6526 54.3884 63.6526H42.0893C41.41 63.6526 40.8594 63.0999 40.8594 62.4181V62.4181C40.8594 61.7363 41.41 61.1836 42.0893 61.1836Z" stroke="#3F3D56" stroke-miterlimit="10"/>
<path d="M42.0893 69.002H54.3884C55.0677 69.002 55.6183 69.5547 55.6183 70.2364V70.2364C55.6183 70.9182 55.0677 71.4709 54.3884 71.4709H42.0893C41.41 71.4709 40.8594 70.9182 40.8594 70.2364V70.2364C40.8594 69.5547 41.41 69.002 42.0893 69.002Z" stroke="#3F3D56" stroke-miterlimit="10"/>
<path d="M127.001 38.5518H120.617C120.267 38.5518 119.983 38.8368 119.983 39.1885V40.384C119.983 40.7357 120.267 41.0207 120.617 41.0207H127.001C127.352 41.0207 127.636 40.7357 127.636 40.384V39.1885C127.636 38.8368 127.352 38.5518 127.001 38.5518Z" fill="#08AB18"/>
<path d="M127.001 46.3701H120.617C120.267 46.3701 119.983 46.6552 119.983 47.0069V48.2024C119.983 48.554 120.267 48.8391 120.617 48.8391H127.001C127.352 48.8391 127.636 48.554 127.636 48.2024V47.0069C127.636 46.6552 127.352 46.3701 127.001 46.3701Z" fill="white"/>
<path d="M127.001 54.1885H120.617C120.267 54.1885 119.983 54.4736 119.983 54.8252V56.0207C119.983 56.3724 120.267 56.6575 120.617 56.6575H127.001C127.352 56.6575 127.636 56.3724 127.636 56.0207V54.8252C127.636 54.4736 127.352 54.1885 127.001 54.1885Z" fill="white"/>
<path d="M127.001 62.0068H120.617C120.267 62.0068 119.983 62.2919 119.983 62.6436V63.8391C119.983 64.1907 120.267 64.4758 120.617 64.4758H127.001C127.352 64.4758 127.636 64.1907 127.636 63.8391V62.6436C127.636 62.2919 127.352 62.0068 127.001 62.0068Z" fill="white"/>
<path d="M127.001 69.8252H120.617C120.267 69.8252 119.983 70.1103 119.983 70.4619V71.6574C119.983 72.0091 120.267 72.2942 120.617 72.2942H127.001C127.352 72.2942 127.636 72.0091 127.636 71.6574V70.4619C127.636 70.1103 127.352 69.8252 127.001 69.8252Z" fill="white"/>
<path d="M127.684 37.7285H121.3C120.95 37.7285 120.666 38.0136 120.666 38.3653V39.5608C120.666 39.9124 120.95 40.1975 121.3 40.1975H127.684C128.035 40.1975 128.319 39.9124 128.319 39.5608V38.3653C128.319 38.0136 128.035 37.7285 127.684 37.7285Z" stroke="#3F3D56" stroke-miterlimit="10"/>
<path d="M127.684 45.5469H121.3C120.95 45.5469 120.666 45.832 120.666 46.1836V47.3791C120.666 47.7308 120.95 48.0159 121.3 48.0159H127.684C128.035 48.0159 128.319 47.7308 128.319 47.3791V46.1836C128.319 45.832 128.035 45.5469 127.684 45.5469Z" stroke="#3F3D56" stroke-miterlimit="10"/>
<path d="M127.684 53.3652H121.3C120.95 53.3652 120.666 53.6503 120.666 54.002V55.1975C120.666 55.5491 120.95 55.8342 121.3 55.8342H127.684C128.035 55.8342 128.319 55.5491 128.319 55.1975V54.002C128.319 53.6503 128.035 53.3652 127.684 53.3652Z" stroke="#3F3D56" stroke-miterlimit="10"/>
<path d="M127.684 61.1836H121.3C120.95 61.1836 120.666 61.4687 120.666 61.8203V63.0158C120.666 63.3675 120.95 63.6526 121.3 63.6526H127.684C128.035 63.6526 128.319 63.3675 128.319 63.0158V61.8203C128.319 61.4687 128.035 61.1836 127.684 61.1836Z" stroke="#3F3D56" stroke-miterlimit="10"/>
<path d="M127.684 69.002H121.3C120.95 69.002 120.666 69.287 120.666 69.6387V70.8342C120.666 71.1859 120.95 71.4709 121.3 71.4709H127.684C128.035 71.4709 128.319 71.1859 128.319 70.8342V69.6387C128.319 69.287 128.035 69.002 127.684 69.002Z" stroke="#3F3D56" stroke-miterlimit="10"/>
<path d="M32.7455 51.3486H25.2358V61.2356H32.7455V51.3486Z" fill="#2F2E41"/>
<path d="M19.3102 93.7598C19.3102 93.7598 21.407 93.7598 22.0409 94.445C22.6749 95.1302 22.4311 96.7454 23.1138 96.9901C23.7964 97.2349 25.3569 99.1927 23.9915 99.4374C23.0387 99.6082 21.1359 99.6836 20.0731 99.7136C19.6074 99.7265 19.1515 99.5782 18.7817 99.2938C18.5292 99.0987 18.2661 98.9179 17.9935 98.7522C17.2621 98.3117 17.9935 95.3749 17.9935 95.3749L19.3102 93.7598Z" fill="#575A89"/>
<path opacity="0.1" d="M19.3102 93.7598C19.3102 93.7598 21.407 93.7598 22.0409 94.445C22.6749 95.1302 22.4311 96.7454 23.1138 96.9901C23.7964 97.2349 25.3569 99.1927 23.9915 99.4374C23.0387 99.6082 21.1359 99.6836 20.0731 99.7136C19.6074 99.7265 19.1515 99.5782 18.7817 99.2938C18.5292 99.0987 18.2661 98.9179 17.9935 98.7522C17.2621 98.3117 17.9935 95.3749 17.9935 95.3749L19.3102 93.7598Z" fill="black"/>
<path d="M27.4072 74.6714C27.4072 75.2098 26.9683 77.8039 26.9683 77.8039L22.4333 95.2285C22.4333 95.2285 19.1174 94.3964 18.8248 94.4453C18.7633 94.4556 18.7814 94.1703 18.8477 93.7097C18.9867 92.7455 19.3387 91.0148 19.625 89.6228C19.8556 88.5009 20.0439 87.5989 20.0439 87.4951C20.0439 87.3747 20.1507 85.3538 20.2765 83.0107C20.4569 79.6394 20.6778 75.6014 20.6778 75.6014L19.9463 64.9313L20.1414 60.722L21.3117 55.6807L29.0652 57.7853L29.4314 60.2673L29.4553 60.4284C29.4553 60.4284 28.723 71.7813 28.3329 72.1239C27.9428 72.4665 27.4072 74.133 27.4072 74.6714Z" fill="#3F3D56"/>
<path d="M17.9452 91.4594C17.9452 91.4594 15.0194 91.4105 14.7268 91.7531C14.5271 91.987 13.4185 94.319 12.7349 95.7758C12.4553 96.3622 12.397 97.0305 12.5709 97.6567C12.7448 98.283 13.139 98.8247 13.6805 99.1814C14.2097 99.516 14.8372 99.6582 15.4583 99.5843C18.0915 99.3396 17.9452 97.6755 17.9452 97.6755L18.7254 95.1303L18.5304 91.8021L17.9452 91.4594Z" fill="#575A89"/>
<path opacity="0.1" d="M18.8467 93.71C18.9857 92.7457 19.3377 91.015 19.624 89.623C19.5118 91.2745 19.0964 93.8446 18.9701 93.7604C18.9303 93.7403 18.8891 93.7235 18.8467 93.71Z" fill="black"/>
<path opacity="0.1" d="M22.481 72.1263C22.5298 72.42 21.9934 73.301 21.652 74.3778C21.3107 75.4546 20.3842 82.209 20.3842 82.209C20.3842 82.209 20.3408 82.5198 20.2754 83.0108C20.4559 79.6394 20.6768 75.6014 20.6768 75.6014L19.9453 64.9313L20.1404 60.722L21.3107 55.6807L29.0641 57.7853L29.4304 60.2673L21.9446 57.3937C21.9446 57.3937 21.7983 60.0368 21.7983 60.5752C21.7983 61.1136 22.4323 71.8326 22.481 72.1263Z" fill="black"/>
<path d="M14.2403 50.4922C14.2403 50.4922 11.8996 53.6247 12.5823 57.0509C13.265 60.477 14.1428 69.0914 14.7767 69.9235C15.4106 70.7556 14.7767 72.3218 14.7767 72.3218C14.7767 72.3218 13.6551 87.1033 13.7527 87.5927C13.8502 88.0822 14.0452 90.3826 14.2891 90.7742C14.5329 91.1658 14.3866 92.4383 14.3866 92.4383C14.3866 92.4383 18.3852 93.662 18.5315 93.7599C18.6778 93.8577 19.2142 90.3826 19.2142 88.9143C19.2142 87.4459 19.9457 82.2088 19.9457 82.2088C19.9457 82.2088 20.8722 75.4543 21.2135 74.3775C21.5549 73.3007 22.0913 72.4197 22.0425 72.126C21.9937 71.8324 21.3598 61.1133 21.3598 60.5749C21.3598 60.0365 21.5061 57.3935 21.5061 57.3935L29.4339 60.4363C29.4339 60.4363 31.1974 52.1822 30.3016 51.3617C29.4058 50.5411 14.2403 50.4922 14.2403 50.4922Z" fill="#3F3D56"/>
<path d="M20.8963 22.3248C24.2358 22.3248 26.943 21.262 26.943 19.951C26.943 18.64 24.2358 17.5771 20.8963 17.5771C17.5568 17.5771 14.8496 18.64 14.8496 19.951C14.8496 21.262 17.5568 22.3248 20.8963 22.3248Z" fill="#2F2E41"/>
<path d="M17.4034 12.4724C16.6667 13.1079 16.13 13.9449 15.8589 14.8812C15.7568 15.2414 15.7091 15.6616 15.9507 15.9558C16.042 16.0407 16.1216 16.1375 16.1874 16.2435C16.227 16.4 16.2291 16.5637 16.1934 16.7211C16.2011 17.0232 16.2812 17.3189 16.4271 17.5832L17.229 19.3577C17.3178 19.2029 17.3189 19.0129 17.4104 18.8595C17.588 18.562 18.013 18.5187 18.3732 18.5102L19.4968 18.4838C19.7996 18.4989 20.102 18.4466 20.3822 18.3304C20.7089 18.1639 20.9053 17.8397 21.1677 17.5912C21.5072 17.2754 21.9431 17.0844 22.4046 17.0492C22.2439 17.2924 22.048 17.5102 21.8232 17.6953C22.4544 17.6304 23.0387 17.3316 23.4619 16.8572L23.4636 17.381C23.6505 17.4514 23.8106 17.1723 24.0102 17.1949C24.247 17.2216 24.2029 17.5519 24.1912 17.778C24.1941 17.9853 24.2759 18.1836 24.4197 18.3324C24.5636 18.4811 24.7587 18.569 24.965 18.5781C25.2107 17.5237 25.458 16.4495 25.3598 15.3737C25.2617 14.2979 24.7626 13.2004 23.8062 12.6155C23.417 12.3893 22.9923 12.2313 22.5503 12.1483C21.6443 11.9585 20.7067 11.9717 19.7791 11.9858C19.248 11.9719 18.7172 12.024 18.1988 12.1408C17.6879 12.2788 17.1989 12.5633 16.9398 13.0034" fill="#3F3D56"/>
<path d="M18.2868 19.2656C18.2868 19.2656 18.043 21.2724 17.7017 21.2724C17.3603 21.2724 19.1646 24.5517 19.1646 24.5517L24.041 24.9433L26.9668 23.0834L25.5526 20.685C25.5526 20.685 23.2607 20.2935 23.5533 18.972C23.8459 17.6504 18.2868 19.2656 18.2868 19.2656Z" fill="#FBBEBE"/>
<path opacity="0.1" d="M18.2868 19.2656C18.2868 19.2656 18.043 21.2724 17.7017 21.2724C17.3603 21.2724 19.1646 24.5517 19.1646 24.5517L24.041 24.9433L26.9668 23.0834L25.5526 20.685C25.5526 20.685 23.2607 20.2935 23.5533 18.972C23.8459 17.6504 18.2868 19.2656 18.2868 19.2656Z" fill="black"/>
<path d="M20.9202 21.2724C23.2632 21.2724 25.1626 19.3659 25.1626 17.0141C25.1626 14.6623 23.2632 12.7559 20.9202 12.7559C18.5771 12.7559 16.6777 14.6623 16.6777 17.0141C16.6777 19.3659 18.5771 21.2724 20.9202 21.2724Z" fill="#FBBEBE"/>
<path d="M21.3102 23.5729C21.3102 23.5729 24.2361 23.7198 25.1626 20.4404C25.1626 20.4404 28.0396 21.0278 28.2835 22.3982C28.5273 23.7687 32.087 50.395 30.9167 51.5697C29.7464 52.7443 17.848 51.5697 15.2147 51.5697C12.5815 51.5697 11.0698 52.1081 11.0698 52.1081L14.6296 35.4177L15.0197 24.0134L15.7024 20.9788C15.7024 20.9788 17.7131 20.3725 17.9512 20.9204C18.1893 21.4683 18.872 24.1113 21.3102 23.5729Z" fill="#575A89"/>
<path d="M18.0855 20.4402C18.0855 20.4402 16.8732 19.9507 15.9954 20.4402C15.1177 20.9296 12.582 20.7339 12.2406 21.2723C11.8993 21.8107 8.92468 24.8453 9.02221 25.2368C9.11974 25.6284 11.4116 33.9002 11.8505 34.1938C12.2894 34.4875 11.2653 51.7162 9.94872 53.7719C8.63209 55.8277 8.38828 61.9458 9.02221 62.8268C9.65614 63.7078 9.11973 62.2884 10.4364 61.75C11.753 61.2116 13.0208 57.9812 13.0208 57.9812C13.0208 57.9812 13.8498 48.5837 14.3862 46.528C14.9226 44.4723 19.5064 37.1795 19.1651 32.5297C18.8237 27.8799 16.3855 23.2301 16.9219 22.5938C17.4583 21.9575 18.5176 21.1744 18.0855 20.4402Z" fill="#2F2E41"/>
<path d="M24.4073 20.3179C24.4073 20.3179 26.3822 19.3634 27.6013 20.4402C28.8204 21.517 33.648 23.2301 33.5993 24.3069C33.5505 25.3837 30.137 33.5086 30.137 33.5086C30.137 33.5086 30.2833 40.2141 30.966 42.123C31.6487 44.0319 36.0375 59.8412 34.4282 60.9669C32.819 62.0927 30.8685 62.68 29.5519 62.9247C28.2352 63.1695 29.6494 60.3306 29.7957 58.9112C29.942 57.4918 31.7462 52.4015 29.308 49.3669C26.8699 46.3323 22.4811 37.1306 22.7737 32.0892C23.0663 27.0478 23.6027 25.4816 23.6027 25.4816C23.6027 25.4816 25.1875 20.6605 24.4073 20.3179Z" fill="#2F2E41"/>
<path d="M9.99735 24.9434H9.13858C9.13858 24.9434 8.38815 28.3206 7.55917 28.81C6.73018 29.2995 6.29131 29.9847 6.29131 30.3763C6.29131 30.7679 5.70614 31.3063 5.16974 31.8447C4.63334 32.3831 3.51177 33.6067 3.65806 34.3409C3.80435 35.075 3.56053 39.1865 4.82839 39.1865C6.09625 39.1865 8.7295 38.7949 9.11961 38.2075C9.50972 37.6202 12.143 33.4109 12.143 33.4109L9.99735 24.9434Z" fill="#2F2E41"/>
<path d="M17.4525 10.7106C16.7483 11.3586 16.2419 12.194 15.992 13.1195C15.8955 13.4797 15.8504 13.8999 16.0789 14.1941C16.1658 14.2797 16.241 14.3764 16.3027 14.4818C16.3401 14.6386 16.3421 14.8018 16.3084 14.9594C16.3152 15.26 16.3908 15.5549 16.5293 15.8215L17.2876 17.596C17.3715 17.4412 17.3726 17.2511 17.4591 17.0978C17.6271 16.8003 18.029 16.757 18.3696 16.7485L19.432 16.7221C19.7191 16.737 20.0058 16.6845 20.2692 16.5687C20.5781 16.4022 20.7638 16.078 21.012 15.8294C21.3264 15.5167 21.7404 15.3249 22.1815 15.2874C22.0311 15.5289 21.8458 15.7466 21.6318 15.9336C22.2364 15.8645 22.7913 15.5643 23.1813 15.0954L23.1829 15.6193C23.3596 15.6897 23.511 15.4106 23.6997 15.4331C23.9237 15.4599 23.882 15.7902 23.8709 16.0163C23.8686 16.2181 23.943 16.4131 24.079 16.5617C24.2149 16.7104 24.4022 16.8014 24.6026 16.8164C24.8349 15.762 25.0687 14.6878 24.976 13.612C24.8832 12.5361 24.4112 11.4387 23.5069 10.8537C23.1417 10.6287 22.7396 10.4705 22.3193 10.3866C21.4627 10.1968 20.576 10.21 19.6989 10.224C19.1962 10.2102 18.6939 10.2624 18.2046 10.3791C17.7108 10.4996 17.2835 10.8092 17.0142 11.2417" fill="#3F3D56"/>
<path d="M24.7195 22.6045H12.4203C11.7411 22.6045 11.1904 23.1572 11.1904 23.839V23.839C11.1904 24.5208 11.7411 25.0735 12.4203 25.0735H24.7195C25.3987 25.0735 25.9494 24.5208 25.9494 23.839C25.9494 23.1572 25.3987 22.6045 24.7195 22.6045Z" fill="#E00909"/>
<path d="M12.83 21.9189H25.1291C25.8084 21.9189 26.359 22.4716 26.359 23.1534V23.1534C26.359 23.8352 25.8084 24.3879 25.1291 24.3879H12.83C12.1507 24.3879 11.6001 23.8352 11.6001 23.1534V23.1534C11.6001 22.4716 12.1507 21.9189 12.83 21.9189Z" stroke="#F2F2F2" stroke-miterlimit="10"/>
<path d="M8.09521 29.9352C8.09521 29.9352 10.0945 27.6347 9.80195 26.9005C9.50937 26.1664 10.4359 20.7334 12.1426 21.2718C13.8493 21.8102 13.1179 27.2432 13.1179 27.2432L10.4846 31.7461L9.11926 31.2567L8.09521 29.9352Z" fill="#FBBEBE"/>
<path d="M8.6801 28.4668L4.92528 33.0677C4.92528 33.0677 3.12102 37.9132 5.55922 37.9132C7.99741 37.9132 9.89919 34.7318 9.89919 34.7318L11.8985 29.8862C11.8985 29.8862 10.4844 31.893 9.41155 30.8162C9.10264 30.5179 8.87367 30.1462 8.74582 29.7356C8.61796 29.3249 8.59536 28.8885 8.6801 28.4668Z" fill="#2F2E41"/>
<path d="M28.0125 53.1533H21.6285C21.2782 53.1533 20.9941 53.4384 20.9941 53.7901V54.9856C20.9941 55.3372 21.2782 55.6223 21.6285 55.6223H28.0125C28.3629 55.6223 28.6469 55.3372 28.6469 54.9856V53.7901C28.6469 53.4384 28.3629 53.1533 28.0125 53.1533Z" fill="#08AB18"/>
<path d="M28.6961 52.3301H22.3121C21.9618 52.3301 21.6777 52.6152 21.6777 52.9668V54.1623C21.6777 54.514 21.9618 54.799 22.3121 54.799H28.6961C29.0465 54.799 29.3305 54.514 29.3305 54.1623V52.9668C29.3305 52.6152 29.0465 52.3301 28.6961 52.3301Z" stroke="#F2F2F2" stroke-miterlimit="10"/>
<path d="M27.6944 50.0635C27.6944 50.0635 24.1379 55.0937 26.3322 56.1216C28.5266 57.1494 31.3061 52.5486 31.3061 52.5486L27.6944 50.0635Z" fill="#FBBEBE"/>
<path d="M31.6491 23.5723L33.5996 24.3064C33.5996 24.3064 34.77 30.1309 35.1601 31.5014C35.5502 32.8719 36.0866 44.5209 34.77 46.8702C33.4534 49.2196 30.9176 53.9673 30.9176 53.9673C30.9176 53.9673 28.577 50.4922 26.9678 50.7369C26.9678 50.7369 29.2109 48.7791 29.5522 47.7512C29.8936 46.7234 30.9176 43.7867 30.9664 42.1225C31.0152 40.4584 30.8082 33.9775 29.6438 32.8373C28.4794 31.6972 31.6491 23.5723 31.6491 23.5723Z" fill="#2F2E41"/>
<path d="M0.738281 99.6611H40.7446" stroke="#3F3D56" stroke-miterlimit="10"/>
<path d="M127.572 73.9541C127.572 83.3121 133.421 90.8844 140.649 90.8844L127.572 73.9541Z" fill="#46455B"/>
<path d="M140.649 90.8842C140.649 81.4211 147.176 73.7637 155.242 73.7637L140.649 90.8842Z" fill="#6C63FF"/>
<path d="M132.311 74.8027C132.311 83.6918 136.04 90.8847 140.65 90.8847L132.311 74.8027Z" fill="#0D7A1F"/>
<path d="M140.649 90.884C140.649 78.7923 148.193 69.0078 157.516 69.0078L140.649 90.884Z" fill="#46455B"/>
<path d="M137.898 91.0039C137.898 91.0039 139.753 90.9466 140.312 90.5471C140.871 90.1476 143.165 89.6706 143.303 90.3113C143.442 90.9519 146.09 93.4977 143.997 93.5146C141.903 93.5316 139.132 93.1873 138.574 92.8462C138.016 92.5052 137.898 91.0039 137.898 91.0039Z" fill="#A8A8A8"/>
<path opacity="0.2" d="M144.034 93.2921C141.94 93.3091 139.169 92.9648 138.611 92.6237C138.186 92.364 138.017 91.4319 137.96 91.002C137.921 91.0036 137.898 91.0044 137.898 91.0044C137.898 91.0044 138.016 92.5056 138.574 92.8467C139.132 93.1878 141.903 93.5321 143.997 93.5151C144.601 93.5102 144.81 93.2944 144.798 92.9747C144.714 93.1679 144.484 93.2885 144.034 93.2921Z" fill="black"/>
<path d="M127.478 93.5508H155.308" stroke="#3F3D56" stroke-miterlimit="10"/>
</g>
<defs>
<clipPath id="clip0">
<rect width="156.778" height="98.8519" fill="white" transform="translate(0.738281 0.888672)"/>
</clipPath>
</defs>
</svg>
