<svg width="100" height="100" viewBox="0 0 100 100" fill="none" xmlns="http://www.w3.org/2000/svg">
<path d="M99.3896 93.4978L70.3404 64.4486C75.8502 57.6464 79.1668 48.9987 79.1668 39.5835C79.1668 17.7573 61.4095 0 39.5833 0C17.7571 0 0 17.7573 0 39.5835C0 61.4097 17.7573 79.167 39.5835 79.167C48.9987 79.167 57.6464 75.8502 64.4486 70.3406L93.4978 99.3899C94.3117 100.203 95.6305 100.203 96.4443 99.3899L99.3898 96.4441C100.203 95.6305 100.203 94.3113 99.3896 93.4978ZM39.5835 70.8335C22.3512 70.8335 8.33342 56.8157 8.33342 39.5835C8.33342 22.3512 22.3512 8.33342 39.5835 8.33342C56.8157 8.33342 70.8335 22.3512 70.8335 39.5835C70.8335 56.8157 56.8157 70.8335 39.5835 70.8335Z" fill="black"/>
</svg>
