<svg width="100" height="100" viewBox="0 0 100 100" fill="none" xmlns="http://www.w3.org/2000/svg">
<mask id="mask0" mask-type="alpha" maskUnits="userSpaceOnUse" x="0" y="0" width="100" height="100">
<path d="M0 63.793V70.6895C0 72.5947 1.5431 74.1378 3.44828 74.1378H37.931L37.3034 77.5861L34.4828 93.1033H26.269C24.9621 93.1033 23.769 93.8412 23.1845 95.0102C22.0379 97.3016 23.7052 99.9999 26.269 99.9999H73.731C76.2948 99.9999 77.9621 97.3016 76.8155 95.0102C76.231 93.8412 75.0362 93.1033 73.731 93.1033H65.5172L62.6965 77.5861L62.069 74.1378H96.5517C98.4569 74.1378 100 72.5947 100 70.6895V63.793H0ZM55.1724 70.6895H44.8276V67.2412H55.1724V70.6895Z" fill="black"/>
<path d="M87.9309 22.4141H63.793V25.8623H87.9309V22.4141Z" fill="black"/>
<path d="M74.1378 15.5176H63.793V18.9659H74.1378V15.5176Z" fill="black"/>
<path d="M74.1378 29.3105H63.793V32.7588H74.1378V29.3105Z" fill="black"/>
<path d="M96.5517 0H3.44828C1.5431 0 0 1.5431 0 3.44828V60.3448H100V3.44828C100 1.5431 98.4569 0 96.5517 0ZM25.8621 53.4483C15.3879 53.4483 6.89655 44.9569 6.89655 34.4828C6.89655 24.0086 15.3879 15.5172 25.8621 15.5172V34.4828H44.8276C44.8276 44.9569 36.3362 53.4483 25.8621 53.4483ZM32.7586 27.5862V8.62069C43.2328 8.62069 51.7241 17.1121 51.7241 27.5862H32.7586ZM93.1034 53.4483H58.6207V6.89655H93.1034V53.4483Z" fill="black"/>
<path d="M74.1378 43.1035H63.793V46.5518H74.1378V43.1035Z" fill="black"/>
<path d="M87.9309 36.207H63.793V39.6553H87.9309V36.207Z" fill="black"/>
</mask>
<g mask="url(#mask0)">
<rect x="-15" y="-16" width="130" height="133" fill="#3A3A3A" fill-opacity="0.6"/>
</g>
</svg>
