<svg width="173" height="135" viewBox="0 0 173 135" fill="none" xmlns="http://www.w3.org/2000/svg">
<g clip-path="url(#clip0)">
<path d="M138.469 11.621C139.975 11.621 141.196 10.502 141.196 9.12156C141.196 7.74113 139.975 6.62207 138.469 6.62207C136.963 6.62207 135.742 7.74113 135.742 9.12156C135.742 10.502 136.963 11.621 138.469 11.621Z" fill="#333333" fill-opacity="0.74"/>
<path d="M122.389 108.345C123.895 108.345 125.116 107.226 125.116 105.845C125.116 104.465 123.895 103.346 122.389 103.346C120.883 103.346 119.662 104.465 119.662 105.845C119.662 107.226 120.883 108.345 122.389 108.345Z" fill="#333333" fill-opacity="0.74"/>
<path d="M54.5578 35.6748C56.064 35.6748 57.285 34.5557 57.285 33.1753C57.285 31.7948 56.064 30.6758 54.5578 30.6758C53.0516 30.6758 51.8306 31.7948 51.8306 33.1753C51.8306 34.5557 53.0516 35.6748 54.5578 35.6748Z" fill="#333333" fill-opacity="0.74"/>
<path d="M29.2053 134.222C45.2314 134.222 58.2232 132.477 58.2232 130.326C58.2232 128.174 45.2314 126.43 29.2053 126.43C13.1792 126.43 0.1875 128.174 0.1875 130.326C0.1875 132.477 13.1792 134.222 29.2053 134.222Z" fill="#F1F1F1"/>
<path d="M44.534 102.203L51.819 100.111C51.4158 97.3342 50.4954 94.6416 49.0979 92.1504L41.813 94.242C43.5225 96.6066 44.4659 99.3667 44.534 102.203Z" fill="#E00909"/>
<path d="M27.0257 52.0922C30.7822 52.0922 33.8273 49.3014 33.8273 45.8586C33.8273 42.4159 30.7822 39.625 27.0257 39.625C23.2693 39.625 20.2241 42.4159 20.2241 45.8586C20.2241 49.3014 23.2693 52.0922 27.0257 52.0922Z" fill="#2F2E41"/>
<path d="M19.6864 123.973L18.3926 129.055H21.5346L22.8284 123.296L19.6864 123.973Z" fill="#9F616A"/>
<path d="M34.8428 123.974V128.717L37.9848 129.055V123.974H34.8428Z" fill="#9F616A"/>
<path d="M18.7622 70.1064C18.7622 70.1064 19.1319 77.3903 19.5015 77.8985C19.8712 78.4067 23.1981 85.6905 23.1981 85.6905L24.8615 80.9475C24.8615 80.9475 22.2739 77.0515 22.6436 74.8494C23.0132 72.6473 22.7803 69.9375 22.7803 69.9375L18.7622 70.1064Z" fill="#9F616A"/>
<path d="M29.2987 52.4899C32.1568 52.4899 34.4738 50.3664 34.4738 47.7469C34.4738 45.1274 32.1568 43.0039 29.2987 43.0039C26.4405 43.0039 24.1235 45.1274 24.1235 47.7469C24.1235 50.3664 26.4405 52.4899 29.2987 52.4899Z" fill="#9F616A"/>
<path d="M25.047 48.2549C25.047 48.2549 25.2318 55.0306 23.938 56.047C22.6442 57.0633 31.3311 56.2163 31.3311 56.2163C31.3311 56.2163 29.4828 51.4733 30.9615 50.457C32.4401 49.4406 25.047 48.2549 25.047 48.2549Z" fill="#9F616A"/>
<path d="M31.8852 55.8777C31.8852 55.8777 30.7762 54.0143 29.2976 54.1837C27.819 54.3531 23.0135 54.6919 22.8287 55.0307C22.6439 55.3695 22.0894 56.5552 21.7197 56.894C21.3501 57.2328 18.5777 57.741 18.3928 59.7737C18.208 61.8064 25.0466 74.1721 25.0466 74.1721C25.0466 74.1721 24.1225 77.0518 24.3073 77.7293C24.4921 78.4069 23.3832 80.4396 23.568 81.2866C23.7528 82.1336 20.7956 87.2154 22.2742 93.8217V104.493C22.2742 104.493 17.2839 122.957 18.7625 124.312C20.2411 125.668 25.2314 124.821 26.1556 124.312C27.0797 123.804 30.9611 98.2259 30.9611 98.2259L32.8093 89.5869L32.9942 108.559C32.9942 108.559 32.6245 124.482 33.9183 124.99C35.2121 125.498 40.2024 125.668 40.5721 124.651C40.8604 123.859 42.2729 102.768 42.8807 93.5225C43.0913 90.3313 42.8174 87.1288 42.0669 84.0067C41.2977 80.809 40.1809 77.052 38.9086 75.5272C36.5059 72.6476 35.0273 63.5003 35.0273 63.5003L38.1693 58.2492C38.1693 58.2492 36.3211 56.5552 35.2121 56.5552C34.1031 56.5552 31.8852 55.8777 31.8852 55.8777Z" fill="#2F2E41"/>
<path d="M19.5026 58.5879L18.5279 59.1959C18.5279 59.1959 17.8391 70.1066 18.3936 70.7842C18.9481 71.4617 22.8031 71.131 23.0935 70.5341C23.3839 69.9372 19.5026 58.5879 19.5026 58.5879Z" fill="#2F2E41"/>
<path d="M34.6577 68.7515C34.6577 68.7515 34.8425 75.866 35.9515 77.8987C37.0605 79.9315 41.1267 88.4011 41.1267 88.4011C41.1267 88.4011 40.8906 97.723 42.9493 95.4336C45.008 93.1441 43.7142 87.7235 43.7142 87.7235L40.2025 75.1885C40.2025 75.1885 38.3543 69.5985 38.5391 67.9046C38.7239 66.2106 34.6577 68.7515 34.6577 68.7515Z" fill="#9F616A"/>
<path d="M37.9843 125.972C37.9843 125.972 38.1691 125.837 38.7236 126.345C39.2781 126.853 40.7567 127.531 40.5719 129.394C40.387 131.258 39.2781 131.596 39.2781 131.596V131.088H38.7236V131.935C38.7236 131.935 37.7995 134.645 33.5485 132.952C33.5485 132.952 33.3636 131.596 33.5485 130.749C33.7333 129.902 33.7333 125.837 34.2878 126.006C34.8422 126.176 36.3209 126.345 36.6905 127.023C37.0602 127.7 38.1691 127.463 37.9843 125.972Z" fill="#2F2E41"/>
<path d="M18.9477 126.141C18.9477 126.141 18.7629 126.006 18.2084 126.514C17.6539 127.022 16.1753 127.7 16.3601 129.563C16.5449 131.427 17.6539 131.765 17.6539 131.765V131.257H18.2084V132.104C18.2084 132.104 19.1325 134.814 23.3835 133.12C23.3835 133.12 23.5684 131.765 23.3835 130.918C23.1987 130.071 23.1987 126.006 22.6442 126.175C22.0898 126.345 20.6111 126.514 20.2415 127.192C19.8718 127.869 18.7629 127.632 18.9477 126.141Z" fill="#2F2E41"/>
<path d="M35.5821 57.7412L38.1697 58.2494C38.1697 58.2494 38.1697 61.976 38.909 63.5006C39.6483 65.0251 40.9421 68.5824 40.3876 68.7518C39.8331 68.9211 34.658 71.2926 34.2883 69.9375C33.9187 68.5824 32.9945 57.7412 35.5821 57.7412Z" fill="#2F2E41"/>
<path d="M19.6556 43.8843C23.412 43.8843 26.4572 41.0934 26.4572 37.6506C26.4572 34.2079 23.412 31.417 19.6556 31.417C15.8992 31.417 12.854 34.2079 12.854 37.6506C12.854 41.0934 15.8992 43.8843 19.6556 43.8843Z" fill="#2F2E41"/>
<path d="M13.789 42.8129C14.6694 43.3961 15.6893 43.7775 16.7635 43.9253C17.8376 44.0732 18.9348 43.9831 19.9632 43.6626C20.9916 43.3421 21.9213 42.8006 22.6745 42.0833C23.4277 41.366 23.9825 40.4938 24.2925 39.5398C24.1752 40.3948 23.8658 41.2182 23.3837 41.9581C22.9016 42.698 22.2574 43.3383 21.4917 43.8384C20.7261 44.3386 19.8555 44.6879 18.9352 44.8642C18.0148 45.0405 17.0645 45.04 16.1443 44.8627C15.2242 44.6854 14.3541 44.3352 13.5891 43.8342C12.824 43.3331 12.1806 42.6922 11.6995 41.9518C11.2184 41.2114 10.91 40.3876 10.7938 39.5324C10.6776 38.6773 10.7562 37.8093 11.0244 36.9834C10.8721 38.093 11.0484 39.2198 11.5348 40.2455C12.0212 41.2712 12.7999 42.158 13.789 42.8129Z" fill="#2F2E41"/>
<path d="M25.212 51.4688C27.9667 51.4688 30.1998 49.4222 30.1998 46.8975C30.1998 44.3728 27.9667 42.3262 25.212 42.3262C22.4573 42.3262 20.2241 44.3728 20.2241 46.8975C20.2241 49.4222 22.4573 51.4688 25.212 51.4688Z" fill="#2F2E41"/>
<path d="M29.4059 48.3522C31.8476 48.3522 33.8269 46.9335 33.8269 45.1834C33.8269 43.4334 31.8476 42.0146 29.4059 42.0146C26.9642 42.0146 24.9849 43.4334 24.9849 45.1834C24.9849 46.9335 26.9642 48.3522 29.4059 48.3522Z" fill="#2F2E41"/>
<path d="M30.5837 49.7904C31.0471 49.7904 31.4228 49.1813 31.4228 48.4299C31.4228 47.6785 31.0471 47.0693 30.5837 47.0693C30.1203 47.0693 29.7446 47.6785 29.7446 48.4299C29.7446 49.1813 30.1203 49.7904 30.5837 49.7904Z" fill="#A0616A"/>
<path d="M169.793 30.4252L75.2651 4.41016L52.4611 74.0094L146.989 100.024L169.793 30.4252Z" fill="#F1F1F1"/>
<path d="M113.147 24.7754L135.537 33.0697" stroke="#3F3D56" stroke-width="2" stroke-miterlimit="10"/>
<path d="M113.716 26.481L114.052 26.3375L113.279 24.8246L114.982 24.2287L114.849 23.9121L112.775 24.6383L113.716 26.481Z" fill="#3F3D56"/>
<path d="M133.835 33.9341L133.703 33.6175L135.406 33.0217L134.633 31.5087L134.968 31.3652L135.909 33.2082L133.835 33.9341Z" fill="#3F3D56"/>
<path d="M124.342 30.7862C125.465 30.7862 126.375 29.952 126.375 28.9229C126.375 27.8938 125.465 27.0596 124.342 27.0596C123.219 27.0596 122.309 27.8938 122.309 28.9229C122.309 29.952 123.219 30.7862 124.342 30.7862Z" fill="#3F3D56"/>
<path d="M111.441 82.2779L132.069 70.7676" stroke="#3F3D56" stroke-width="2" stroke-miterlimit="10"/>
<path d="M113.274 82.8775L113.349 82.5453L111.563 82.2104L112.058 80.6026L111.702 80.5107L111.1 82.4691L113.274 82.8775Z" fill="#3F3D56"/>
<path d="M131.808 72.5346L131.452 72.4427L131.947 70.8352L130.161 70.5L130.236 70.168L132.411 70.5765L131.808 72.5346Z" fill="#3F3D56"/>
<path d="M121.755 78.3858C122.878 78.3858 123.788 77.5516 123.788 76.5225C123.788 75.4934 122.878 74.6592 121.755 74.6592C120.632 74.6592 119.722 75.4934 119.722 76.5225C119.722 77.5516 120.632 78.3858 121.755 78.3858Z" fill="#3F3D56"/>
<path d="M85.5254 45.8066L85.5329 67.9398" stroke="#3F3D56" stroke-width="2" stroke-miterlimit="10"/>
<path d="M84.0142 46.929L84.2849 47.16L85.5253 45.936L86.7668 47.1593L87.0374 46.9281L85.5251 45.4385L84.0142 46.929Z" fill="#3F3D56"/>
<path d="M84.021 66.8178L84.2918 66.5866L85.5329 67.81L86.7736 66.5859L87.0444 66.817L85.5331 68.3073L84.021 66.8178Z" fill="#3F3D56"/>
<path d="M85.5287 58.7364C86.6515 58.7364 87.5618 57.9022 87.5618 56.8731C87.5618 55.844 86.6515 55.0098 85.5287 55.0098C84.4058 55.0098 83.4956 55.844 83.4956 56.8731C83.4956 57.9022 84.4058 58.7364 85.5287 58.7364Z" fill="#3F3D56"/>
<path d="M102.026 0.740234H68.3877V39.023H102.026V0.740234Z" fill="#3F3D56"/>
<path d="M83.1053 14.9924H75.4713C74.9503 12.2322 74.9503 9.41057 75.4713 6.65039H83.1053C82.2453 9.37521 82.2453 12.2676 83.1053 14.9924Z" fill="#FF6584"/>
<path d="M87.3101 19.2229H94.9441C95.4651 16.4627 95.4651 13.641 94.9441 10.8809H87.3101C88.1701 13.6057 88.1701 16.4981 87.3101 19.2229Z" fill="white"/>
<path d="M80.103 33.1135H87.737C88.258 30.3533 88.258 27.5317 87.737 24.7715H80.103C80.9631 27.4963 80.9631 30.3887 80.103 33.1135Z" fill="white"/>
<path d="M172.077 37.1602H138.438V75.443H172.077V37.1602Z" fill="#3F3D56"/>
<path d="M167.271 45.291H143.243V46.3074H167.271V45.291Z" fill="#E00909"/>
<path d="M167.271 48.8477H143.243V49.864H167.271V48.8477Z" fill="#E00909"/>
<path d="M167.271 52.4053H143.243V53.4216H167.271V52.4053Z" fill="#E00909"/>
<path d="M167.271 55.9619H143.243V56.9783H167.271V55.9619Z" fill="#E00909"/>
<path d="M167.271 59.5195H143.243V60.5359H167.271V59.5195Z" fill="#E00909"/>
<path d="M161.541 63.2461H148.973V67.3115H161.541V63.2461Z" fill="#E00909"/>
<path d="M104.984 76.459H71.3457V114.742H104.984V76.459Z" fill="#3F3D56"/>
<path d="M100.233 97.7695H76.2051V98.7859H100.233V97.7695Z" fill="white" fill-opacity="0.5"/>
<path d="M100.233 101.327H76.2051V102.343H100.233V101.327Z" fill="white" fill-opacity="0.5"/>
<path d="M100.233 104.884H76.2051V105.9H100.233V104.884Z" fill="white" fill-opacity="0.5"/>
<path d="M100.233 108.441H76.2051V109.458H100.233V108.441Z" fill="white" fill-opacity="0.5"/>
<path opacity="0.3" d="M83.5672 90.0852H75.9332C75.4122 87.325 75.4122 84.5033 75.9332 81.7432H83.5672C82.7072 84.468 82.7072 87.3604 83.5672 90.0852Z" fill="#ECDBC2"/>
<path opacity="0.3" d="M100.788 82.5244H86.7407V83.3714H100.788V82.5244Z" fill="white" fill-opacity="0.5"/>
<path opacity="0.3" d="M100.788 85.5732H86.7407V86.4202H100.788V85.5732Z" fill="white" fill-opacity="0.5"/>
<path opacity="0.3" d="M100.788 88.6221H86.7407V89.469H100.788V88.6221Z" fill="white" fill-opacity="0.5"/>
<path opacity="0.3" d="M100.788 91.6709H86.7407V92.5179H100.788V91.6709Z" fill="white" fill-opacity="0.5"/>
</g>
<defs>
<clipPath id="clip0">
<rect width="171.889" height="133.482" fill="white" transform="translate(0.1875 0.740234)"/>
</clipPath>
</defs>
</svg>
