<svg width="109" height="25" viewBox="0 0 109 25" fill="none" xmlns="http://www.w3.org/2000/svg">
<path d="M107.177 21.2656H86.8233C86.3954 21.2656 86.0605 21.6191 86.0605 22.0284C86.0605 22.4377 86.414 22.7912 86.8233 22.7912H107.195C107.623 22.7912 107.958 22.4377 107.958 22.0284C107.958 21.6191 107.605 21.2656 107.177 21.2656Z" fill="#C4C4C4"/>
<path d="M86.0606 14.5121L86.042 18.14C86.042 18.3446 86.1164 18.5493 86.2652 18.6981C86.4141 18.847 86.6001 18.9214 86.8048 18.9214L90.4141 18.9028C90.6187 18.9028 90.8048 18.8284 90.9536 18.6795L103.419 6.21441C103.716 5.91674 103.716 5.43302 103.419 5.11674L99.8466 1.50744C99.549 1.20976 99.0652 1.20976 98.749 1.50744L96.2559 4.01906L86.2839 13.9726C86.1536 14.1214 86.0606 14.3074 86.0606 14.5121ZM99.3071 3.14464L101.819 5.65627L100.405 7.07023L97.8932 4.5586L99.3071 3.14464ZM87.6048 14.847L96.7955 5.65627L99.3071 8.1679L90.1164 17.34L87.5862 17.3586L87.6048 14.847Z" fill="#C4C4C4"/>
<path d="M3.723 18.153C2.74833 18.153 1.94933 17.9207 1.326 17.456C0.702667 16.9913 0.391 16.368 0.391 15.586C0.391 15.4387 0.396667 15.331 0.408 15.263H1.921C1.87567 15.7503 2.01733 16.147 2.346 16.453C2.686 16.759 3.17333 16.912 3.808 16.912C4.44267 16.912 4.95267 16.793 5.338 16.555C5.73467 16.3057 5.933 15.96 5.933 15.518C5.933 15.144 5.77433 14.8493 5.457 14.634C5.13967 14.4187 4.65233 14.1863 3.995 13.937C3.417 13.7217 2.941 13.5177 2.567 13.325C2.193 13.1323 1.87567 12.866 1.615 12.526C1.35433 12.1747 1.224 11.7327 1.224 11.2C1.224 10.6787 1.37133 10.214 1.666 9.806C1.972 9.398 2.39133 9.08633 2.924 8.871C3.468 8.64433 4.08567 8.531 4.777 8.531C5.729 8.531 6.511 8.769 7.123 9.245C7.735 9.721 8.041 10.3443 8.041 11.115C8.041 11.2623 8.03533 11.3757 8.024 11.455H6.545L6.562 11.251C6.562 10.7977 6.38633 10.4407 6.035 10.18C5.695 9.908 5.24167 9.772 4.675 9.772C4.11967 9.772 3.66067 9.89667 3.298 10.146C2.94667 10.3953 2.771 10.7297 2.771 11.149C2.771 11.5457 2.93533 11.8573 3.264 12.084C3.59267 12.3107 4.10267 12.56 4.794 12.832C5.372 13.0587 5.83667 13.2683 6.188 13.461C6.53933 13.6423 6.83967 13.8973 7.089 14.226C7.33833 14.5547 7.463 14.9683 7.463 15.467C7.463 16.011 7.29867 16.487 6.97 16.895C6.65267 17.303 6.21067 17.6147 5.644 17.83C5.07733 18.0453 4.437 18.153 3.723 18.153ZM19.2348 8.684L17.5858 18H16.0388L16.2768 16.64C15.9028 17.116 15.4268 17.4843 14.8488 17.745C14.2708 18.0057 13.6702 18.136 13.0468 18.136C12.0722 18.136 11.2902 17.8753 10.7008 17.354C10.1228 16.8213 9.83384 16.062 9.83384 15.076C9.83384 14.8267 9.86217 14.515 9.91884 14.141L10.8878 8.684H12.4178L11.4998 13.937C11.4545 14.175 11.4318 14.4243 11.4318 14.685C11.4318 15.3763 11.6188 15.9033 11.9928 16.266C12.3782 16.6173 12.9108 16.793 13.5908 16.793C14.4068 16.793 15.0982 16.538 15.6648 16.028C16.2428 15.518 16.6112 14.7757 16.7698 13.801V13.852L17.6878 8.684H19.2348ZM23.0879 10.418C23.5072 9.86267 24.0512 9.40933 24.7199 9.058C25.3885 8.70667 26.1139 8.531 26.8959 8.531C28.0065 8.531 28.8962 8.86533 29.5649 9.534C30.2449 10.2027 30.5849 11.1093 30.5849 12.254C30.5849 12.5827 30.5509 12.934 30.4829 13.308C30.3129 14.2487 29.9672 15.0873 29.4459 15.824C28.9359 16.5607 28.3069 17.133 27.5589 17.541C26.8222 17.949 26.0402 18.153 25.2129 18.153C24.4082 18.153 23.7339 17.9773 23.1899 17.626C22.6459 17.2747 22.2662 16.827 22.0509 16.283L21.7449 18H20.1979L22.4249 5.42H23.9719L23.0879 10.418ZM28.9019 13.308C28.9472 13.07 28.9699 12.8093 28.9699 12.526C28.9699 11.6987 28.7262 11.0527 28.2389 10.588C27.7515 10.112 27.1225 9.874 26.3519 9.874C25.7852 9.874 25.2355 10.0157 24.7029 10.299C24.1702 10.571 23.7112 10.9733 23.3259 11.506C22.9519 12.0273 22.7025 12.6337 22.5779 13.325C22.5325 13.563 22.5099 13.8237 22.5099 14.107C22.5099 14.9343 22.7535 15.5917 23.2409 16.079C23.7395 16.555 24.3685 16.793 25.1279 16.793C25.7059 16.793 26.2555 16.657 26.7769 16.385C27.3095 16.1017 27.7629 15.6993 28.1369 15.178C28.5222 14.6453 28.7772 14.022 28.9019 13.308ZM34.0321 15.45C33.9981 15.62 33.9811 15.7673 33.9811 15.892C33.9811 16.1753 34.0661 16.3793 34.2361 16.504C34.4175 16.6287 34.7065 16.691 35.1031 16.691H36.2421L36.0041 18H34.6101C33.8735 18 33.3181 17.8583 32.9441 17.575C32.5815 17.2917 32.4001 16.827 32.4001 16.181C32.4001 15.9317 32.4228 15.688 32.4681 15.45L33.4371 9.959H32.2471L32.4681 8.684H33.6751L34.0831 6.338H35.6471L35.2391 8.684H37.6531L37.4321 9.959H35.0011L34.0321 15.45ZM40.5815 7.171C40.3322 7.171 40.1225 7.09167 39.9525 6.933C39.7939 6.763 39.7145 6.55333 39.7145 6.304C39.7145 5.964 39.8392 5.675 40.0885 5.437C40.3379 5.18767 40.6269 5.063 40.9555 5.063C41.2162 5.063 41.4259 5.14233 41.5845 5.301C41.7432 5.45967 41.8225 5.66933 41.8225 5.93C41.8225 6.27 41.6979 6.56467 41.4485 6.814C41.1992 7.052 40.9102 7.171 40.5815 7.171ZM41.0745 8.684L39.4255 18H37.8785L39.5275 8.684H41.0745ZM44.4081 15.45C44.3741 15.62 44.3571 15.7673 44.3571 15.892C44.3571 16.1753 44.4421 16.3793 44.6121 16.504C44.7935 16.6287 45.0825 16.691 45.4791 16.691H46.6181L46.3801 18H44.9861C44.2495 18 43.6941 17.8583 43.3201 17.575C42.9575 17.2917 42.7761 16.827 42.7761 16.181C42.7761 15.9317 42.7988 15.688 42.8441 15.45L43.8131 9.959H42.6231L42.8441 8.684H44.0511L44.4591 6.338H46.0231L45.6151 8.684H48.0291L47.8081 9.959H45.3771L44.4081 15.45ZM52.0285 5.42L49.8015 18H48.2545L50.4815 5.42H52.0285ZM58.1331 8.531C58.9151 8.531 59.5894 8.684 60.1561 8.99C60.7341 9.28467 61.1704 9.704 61.4651 10.248C61.7711 10.7807 61.9241 11.3927 61.9241 12.084C61.9241 12.322 61.8958 12.611 61.8391 12.951C61.7938 13.2457 61.7201 13.5517 61.6181 13.869H54.1721C54.1494 14.0957 54.1381 14.26 54.1381 14.362C54.1381 15.144 54.3704 15.756 54.8351 16.198C55.3111 16.6287 55.9288 16.844 56.6881 16.844C57.3568 16.844 57.9404 16.691 58.4391 16.385C58.9491 16.0677 59.3344 15.6483 59.5951 15.127H61.2611C60.8531 16.0223 60.2241 16.7533 59.3741 17.32C58.5354 17.8753 57.5608 18.153 56.4501 18.153C55.2828 18.153 54.3421 17.8187 53.6281 17.15C52.9254 16.47 52.5741 15.5463 52.5741 14.379C52.5741 14.0503 52.6081 13.699 52.6761 13.325C52.8461 12.3617 53.1918 11.5173 53.7131 10.792C54.2344 10.0667 54.8748 9.51133 55.6341 9.126C56.4048 8.72933 57.2378 8.531 58.1331 8.531ZM60.2751 12.747C60.3091 12.5203 60.3261 12.3107 60.3261 12.118C60.3261 11.3927 60.0938 10.8317 59.6291 10.435C59.1758 10.0383 58.5808 9.84 57.8441 9.84C57.0508 9.84 56.3311 10.1007 55.6851 10.622C55.0391 11.132 54.6028 11.8403 54.3761 12.747H60.2751Z" fill="#C4C4C4"/>
</svg>
