<svg width="152" height="135" viewBox="0 0 152 135" fill="none" xmlns="http://www.w3.org/2000/svg">
<g clip-path="url(#clip0)">
<path d="M101.179 89.572C107.629 154.666 132.381 145.909 150.824 53.8984C155.676 29.689 140.052 6.14201 117.004 1.5326C93.9557 -3.07681 71.729 12.8948 67.3591 37.2062C62.9892 61.5176 98.7406 64.9615 101.179 89.572Z" fill="#F2F2F2"/>
<path d="M21.3336 110.004C21.3336 118.24 16.6917 121.116 10.9656 121.116C5.23955 121.116 0.597656 118.24 0.597656 110.004C0.597656 101.768 10.9656 91.29 10.9656 91.29C10.9656 91.29 21.3336 101.768 21.3336 110.004Z" fill="#F2F2F2"/>
<path d="M10.5879 119.856L10.6942 112.963L15.1133 104.436L10.7107 111.882L10.7586 108.783L13.8042 102.613L10.7712 107.962L10.8569 102.388L14.1183 97.4763L10.8705 101.512L10.9242 91.29L10.587 104.821L10.6148 104.263L7.29889 98.9096L10.5616 105.335L10.2526 111.56L10.2434 111.395L6.4209 105.761L10.2318 111.979L10.1933 112.757L10.1863 112.769L10.1894 112.833L9.40554 128.628H10.4529L10.5786 120.47L14.3802 114.267L10.5879 119.856Z" fill="#F2F2F2"/>
<path d="M21.3336 110.004C21.3336 118.24 16.6917 121.116 10.9656 121.116C5.23955 121.116 0.597656 118.24 0.597656 110.004C0.597656 101.768 10.9656 91.29 10.9656 91.29C10.9656 91.29 21.3336 101.768 21.3336 110.004Z" fill="#F2F2F2"/>
<path d="M10.5879 119.856L10.6942 112.963L15.1133 104.436L10.7107 111.882L10.7586 108.783L13.8042 102.613L10.7712 107.962L10.8569 102.388L14.1183 97.4763L10.8705 101.512L10.9242 91.29L10.587 104.821L10.6148 104.263L7.29889 98.9096L10.5616 105.335L10.2526 111.56L10.2434 111.395L6.4209 105.761L10.2318 111.979L10.1933 112.757L10.1863 112.769L10.1894 112.833L9.40554 128.628H10.4529L10.5786 120.47L14.3802 114.267L10.5879 119.856Z" fill="#3F3D56"/>
<path d="M76.1674 134.222C117.618 134.222 151.22 131.892 151.22 129.018C151.22 126.144 117.618 123.814 76.1674 123.814C34.717 123.814 1.11475 126.144 1.11475 129.018C1.11475 131.892 34.717 134.222 76.1674 134.222Z" fill="#3F3D56"/>
<path opacity="0.1" d="M35.5674 131.833C45.93 131.833 54.3305 130.282 54.3305 128.368C54.3305 126.454 45.93 124.902 35.5674 124.902C25.2048 124.902 16.8042 126.454 16.8042 128.368C16.8042 130.282 25.2048 131.833 35.5674 131.833Z" fill="black"/>
<path opacity="0.1" d="M114.178 132.175C124.541 132.175 132.941 130.838 132.941 129.189C132.941 127.54 124.541 126.203 114.178 126.203C103.816 126.203 95.415 127.54 95.415 129.189C95.415 130.838 103.816 132.175 114.178 132.175Z" fill="black"/>
<path d="M38.7773 66.9219L44.3311 67.1472C44.3311 67.1472 49.2441 69.6256 49.2441 71.6535C49.2441 73.6813 43.4767 69.4003 43.4767 69.4003L38.7773 69.175L38.7773 66.9219Z" fill="#FFB9B9"/>
<path opacity="0.1" d="M38.7773 66.9219L44.3311 67.1472C44.3311 67.1472 49.2441 69.6256 49.2441 71.6535C49.2441 73.6813 43.4767 69.4003 43.4767 69.4003L38.7773 69.175L38.7773 66.9219Z" fill="black"/>
<path d="M38.9919 65.1191C38.9919 65.1191 40.0599 67.8229 39.8463 69.1748C39.6327 70.5267 31.5156 70.0761 31.5156 70.0761L32.7973 66.0204L38.9919 65.1191Z" fill="#FFB9B9"/>
<path d="M31.3007 114.013L30.8735 120.096L34.5049 120.321L35.1455 114.463L31.3007 114.013Z" fill="#FFB9B9"/>
<path d="M31.3015 68.7246L30.447 70.9778C30.447 70.9778 28.5246 73.0056 28.9518 77.9626C29.379 82.9195 29.5926 83.1448 29.5926 83.1448C29.5926 83.1448 27.8837 114.464 29.379 114.689C30.8742 114.914 39.2049 119.195 40.0594 114.238C40.9138 109.281 41.341 89.2283 41.341 89.2283L31.5151 70.5271L31.3015 68.7246Z" fill="#2F2E41"/>
<path opacity="0.1" d="M31.3015 68.7246L30.447 70.9778C30.447 70.9778 28.5246 73.0056 28.9518 77.9626C29.379 82.9195 29.5926 83.1448 29.5926 83.1448C29.5926 83.1448 27.8837 114.464 29.379 114.689C30.8742 114.914 39.2049 119.195 40.0594 114.238C40.9138 109.281 41.341 89.2283 41.341 89.2283L31.5151 70.5271L31.3015 68.7246Z" fill="black"/>
<path d="M40.9131 110.408L38.9907 113.337L42.1949 114.689L44.9718 109.957L40.9131 110.408Z" fill="#FFB9B9"/>
<path d="M38.9911 47.7698C41.7045 47.7698 43.9041 45.4496 43.9041 42.5875C43.9041 39.7254 41.7045 37.4053 38.9911 37.4053C36.2777 37.4053 34.0781 39.7254 34.0781 42.5875C34.0781 45.4496 36.2777 47.7698 38.9911 47.7698Z" fill="#FFB9B9"/>
<path d="M35.1459 40.7852C35.1459 40.7852 30.8737 45.5168 29.5921 45.7421C28.3104 45.9674 34.0778 49.7978 34.0778 49.7978V48.4459C34.0778 48.4459 36.0003 46.418 37.0684 46.1927C38.1364 45.9674 35.1459 40.7852 35.1459 40.7852Z" fill="#FFB9B9"/>
<path d="M31.7273 67.598L30.4457 70.9778C30.4457 70.9778 27.8824 77.7372 31.5137 81.3423C35.1451 84.9473 45.6119 96.2131 45.1846 98.6916C44.7574 101.17 38.4258 109.931 40.4168 111.071C42.4077 112.211 64.1957 108.155 64.4094 105.451C64.4895 104.437 63.6984 102.473 62.6784 100.413C60.7527 96.5529 58.3827 92.9581 55.6222 89.7103L41.1261 72.555C41.1261 72.555 39.6308 69.1752 40.0581 68.4993C40.0581 68.4993 38.3492 66.6968 33.2226 68.0487L31.7273 67.598Z" fill="#2F2E41"/>
<path d="M30.6605 119.421C30.6605 119.421 29.5924 123.026 29.1652 123.251C28.738 123.477 28.3108 125.955 28.738 126.406C29.1652 126.856 29.3788 128.884 29.3788 128.884H29.806L30.0196 126.631C30.0196 126.631 34.4451 129.449 35.1462 129.785C36.3211 130.349 41.5545 130.236 41.3408 129.109C41.1272 127.983 34.9326 124.378 35.1462 123.477C35.3598 122.575 34.719 119.872 34.719 119.872L30.6605 119.421Z" fill="#2F2E41"/>
<path d="M42.8362 114.464L38.564 112.661C38.564 112.661 37.496 114.464 36.2143 114.464C34.9327 114.464 33.9364 116.102 34.0073 116.184C34.0782 116.266 32.1558 118.97 32.1558 118.97L32.5009 119.625L34.9327 118.069L35.6142 121.088C35.9892 122.793 36.7277 124.385 37.7734 125.744C38.6115 126.82 39.6558 127.732 40.7001 127.532C40.7001 127.532 41.1273 127.532 40.7001 124.378C40.2729 121.223 41.1273 117.843 41.1273 117.843L42.8362 114.464Z" fill="#2F2E41"/>
<path d="M31.7279 45.5167C31.7279 45.5167 32.1551 46.6433 32.5823 46.8686C33.0096 47.0939 34.2912 47.9952 34.5048 48.8964C34.7184 49.7977 35.7865 52.5015 35.7865 52.5015C35.7865 52.5015 38.1361 53.8534 37.9225 56.3318C37.7089 58.8103 37.4953 60.8381 37.9225 61.0634C38.3497 61.2888 38.777 61.2888 38.5634 61.9647C38.3498 62.6407 38.9906 63.3166 39.2042 63.5419C39.4178 63.7672 39.845 63.3166 39.4178 63.9925C38.9906 64.6685 39.2042 64.8938 39.4178 65.1191C39.6314 65.3444 39.845 65.3444 39.6314 65.7951C39.4178 66.2457 31.5143 69.1748 31.0871 69.1748C30.6599 69.1748 30.6599 68.7242 30.8735 68.0482C31.0871 67.3723 31.9415 66.6963 31.0871 66.471C30.2326 66.2457 30.019 66.2457 30.019 65.1191C30.019 63.9925 26.3877 57.2331 26.3877 57.2331C26.3877 57.2331 24.8924 52.0508 26.3877 49.7977C27.883 47.5445 28.951 45.9673 29.8054 45.5167C30.6599 45.0661 31.7279 45.5167 31.7279 45.5167Z" fill="#C4C4C4"/>
<path d="M24.6796 56.1064L22.1163 63.5419L16.9897 79.5392C16.9897 79.5392 11.6495 87.4253 15.2808 86.9747C18.9121 86.524 19.3394 79.5392 19.3394 79.5392L24.2523 67.1469L28.7381 57.6836L24.6796 56.1064Z" fill="#FFB9B9"/>
<path d="M27.2424 49.5723L26.388 49.7976C26.388 49.7976 23.3974 56.1064 24.0383 56.7824C24.6791 57.4583 28.0968 59.2608 28.7376 59.0355C29.3784 58.8102 30.2329 52.2761 30.2329 52.2761L27.2424 49.5723Z" fill="#C4C4C4"/>
<path d="M27.4941 40.62C29.1514 39.8514 31.1568 38.1686 33.0612 36.78C33.6783 36.33 34.2794 35.8577 34.8773 35.3797C36.0825 34.4162 38.9829 34.082 41.4861 35.7751C44.3472 37.7102 45.7434 40.7976 44.9688 42.0719C44.3284 43.1254 42.2026 42.9406 39.8685 41.7517C39.5403 44.0583 38.79 46.357 37.9702 47.7055C36.1153 50.757 34.5547 47.8801 31.6618 45.9235C28.7689 43.9669 24.3482 42.079 27.4941 40.62Z" fill="#2F2E41"/>
<path d="M66.3004 92.4207C71.7497 92.4207 76.1673 87.7611 76.1673 82.0131C76.1673 76.2651 71.7497 71.6055 66.3004 71.6055C60.8511 71.6055 56.4336 76.2651 56.4336 82.0131C56.4336 87.7611 60.8511 92.4207 66.3004 92.4207Z" fill="#E00909"/>
<path d="M114.179 27.7568V46.9868L114.987 46.5247V48.7427L115.958 51.4726C115.958 51.4726 116.928 51.4726 116.928 51.9844C116.928 52.4963 115.958 53.3494 115.958 53.3494H114.179V62.4216L115.311 59.6622H117.414L118.869 62.7333C118.869 62.7333 117.899 63.0745 117.899 63.757C117.899 64.4395 119.031 65.8044 118.869 66.6575C118.708 67.5106 118.061 68.8755 117.575 69.3874L115.473 71.6054H114.179V131.151H123.56V27.7568H114.179Z" fill="#3F3D56"/>
<path d="M108.841 72.4587L111.268 71.0938C111.268 71.0938 111.915 73.653 111.268 74.1649C110.621 74.6767 107.547 76.0416 107.547 76.0416L109.488 78.089H106.415L108.841 72.4587Z" fill="#3F3D56"/>
<path d="M102.796 129.603L103.572 130.052C103.572 130.052 102.538 130.591 102.268 130.492C101.999 130.393 101.172 129.772 101.172 129.772L100.459 130.582L100.211 129.765L102.796 129.603Z" fill="#3F3D56"/>
<path d="M105.043 128.5C105.043 128.5 102.426 126.767 104.708 127.181C106.109 127.431 107.532 127.502 108.949 127.395L109.284 128.713L105.043 128.5Z" fill="#3F3D56"/>
<path d="M108.347 131.11C108.347 131.11 105.918 130.538 107.802 130.213C108.963 130.009 110.098 129.667 111.186 129.193L111.73 130.09L108.347 131.11Z" fill="#3F3D56"/>
<path d="M109.002 85.4251V84.4014H111.59V87.6431L109.002 85.4251Z" fill="#3F3D56"/>
</g>
<defs>
<clipPath id="clip0">
<rect width="151.111" height="133.482" fill="white" transform="translate(0.597656 0.740234)"/>
</clipPath>
</defs>
</svg>
