<svg width="83" height="25" viewBox="0 0 83 25" fill="none" xmlns="http://www.w3.org/2000/svg">
<path d="M81.1768 21.2656H60.8233C60.3954 21.2656 60.0605 21.6191 60.0605 22.0284C60.0605 22.4377 60.414 22.7912 60.8233 22.7912H81.1954C81.6233 22.7912 81.9582 22.4377 81.9582 22.0284C81.9582 21.6191 81.6047 21.2656 81.1768 21.2656Z" fill="#C4C4C4"/>
<path d="M60.0606 14.5121L60.042 18.14C60.042 18.3446 60.1164 18.5493 60.2652 18.6981C60.4141 18.847 60.6001 18.9214 60.8048 18.9214L64.4141 18.9028C64.6187 18.9028 64.8048 18.8284 64.9536 18.6795L77.4187 6.21441C77.7164 5.91674 77.7164 5.43302 77.4187 5.11674L73.8466 1.50744C73.549 1.20976 73.0652 1.20976 72.749 1.50744L70.2559 4.01906L60.2839 13.9726C60.1536 14.1214 60.0606 14.3074 60.0606 14.5121ZM73.3071 3.14464L75.8187 5.65627L74.4048 7.07023L71.8932 4.5586L73.3071 3.14464ZM61.6048 14.847L70.7955 5.65627L73.3071 8.1679L64.1164 17.34L61.5862 17.3586L61.6048 14.847Z" fill="#C4C4C4"/>
<path d="M2.788 15.45C2.754 15.62 2.737 15.7673 2.737 15.892C2.737 16.1753 2.822 16.3793 2.992 16.504C3.17333 16.6287 3.46233 16.691 3.859 16.691H4.998L4.76 18H3.366C2.62933 18 2.074 17.8583 1.7 17.575C1.33733 17.2917 1.156 16.827 1.156 16.181C1.156 15.9317 1.17867 15.688 1.224 15.45L2.193 9.959H1.003L1.224 8.684H2.431L2.839 6.338H4.403L3.995 8.684H6.409L6.188 9.959H3.757L2.788 15.45ZM12.3294 8.531C13.1114 8.531 13.7857 8.684 14.3524 8.99C14.9304 9.28467 15.3667 9.704 15.6614 10.248C15.9674 10.7807 16.1204 11.3927 16.1204 12.084C16.1204 12.322 16.0921 12.611 16.0354 12.951C15.9901 13.2457 15.9164 13.5517 15.8144 13.869H8.36838C8.34572 14.0957 8.33438 14.26 8.33438 14.362C8.33438 15.144 8.56672 15.756 9.03138 16.198C9.50738 16.6287 10.125 16.844 10.8844 16.844C11.553 16.844 12.1367 16.691 12.6354 16.385C13.1454 16.0677 13.5307 15.6483 13.7914 15.127H15.4574C15.0494 16.0223 14.4204 16.7533 13.5704 17.32C12.7317 17.8753 11.757 18.153 10.6464 18.153C9.47905 18.153 8.53838 17.8187 7.82438 17.15C7.12172 16.47 6.77038 15.5463 6.77038 14.379C6.77038 14.0503 6.80438 13.699 6.87238 13.325C7.04238 12.3617 7.38805 11.5173 7.90938 10.792C8.43072 10.0667 9.07105 9.51133 9.83038 9.126C10.601 8.72933 11.434 8.531 12.3294 8.531ZM14.4714 12.747C14.5054 12.5203 14.5224 12.3107 14.5224 12.118C14.5224 11.3927 14.29 10.8317 13.8254 10.435C13.372 10.0383 12.777 9.84 12.0404 9.84C11.247 9.84 10.5274 10.1007 9.88138 10.622C9.23538 11.132 8.79905 11.8403 8.57238 12.747H14.4714ZM21.6134 13.291L23.7894 18H22.0384L20.4404 14.532L17.7034 18H16.0714L19.9134 13.376L17.7374 8.684H19.4884L21.0694 12.118L23.7894 8.684H25.4214L21.6134 13.291ZM27.6571 15.45C27.6231 15.62 27.6061 15.7673 27.6061 15.892C27.6061 16.1753 27.6911 16.3793 27.8611 16.504C28.0425 16.6287 28.3315 16.691 28.7281 16.691H29.8671L29.6291 18H28.2351C27.4985 18 26.9431 17.8583 26.5691 17.575C26.2065 17.2917 26.0251 16.827 26.0251 16.181C26.0251 15.9317 26.0478 15.688 26.0931 15.45L27.0621 9.959H25.8721L26.0931 8.684H27.3001L27.7081 6.338H29.2721L28.8641 8.684H31.2781L31.0571 9.959H28.6261L27.6571 15.45Z" fill="#C4C4C4"/>
</svg>
