<svg width="18" height="18" viewBox="0 0 18 18" fill="none" xmlns="http://www.w3.org/2000/svg">
<path d="M0.0605968 13.5121L0.0419922 17.14C0.0419922 17.3446 0.116411 17.5493 0.265248 17.6981C0.414085 17.847 0.600132 17.9214 0.804783 17.9214L4.41409 17.9028C4.61874 17.9028 4.80478 17.8284 4.95362 17.6795L17.4187 5.21441C17.7164 4.91674 17.7164 4.43302 17.4187 4.11674L13.8466 0.507436C13.549 0.209761 13.0652 0.209761 12.749 0.507436L10.2559 3.01906L0.283853 12.9726C0.15362 13.1214 0.0605968 13.3074 0.0605968 13.5121ZM13.3071 2.14464L15.8187 4.65627L14.4048 6.07023L11.8932 3.5586L13.3071 2.14464ZM1.60478 13.847L10.7955 4.65627L13.3071 7.1679L4.11641 16.34L1.58618 16.3586L1.60478 13.847Z" fill="#C4C4C4"/>
</svg>
