<svg width="22" height="22" viewBox="0 0 22 22" fill="none" xmlns="http://www.w3.org/2000/svg">
<path d="M21.1768 20.2656H0.823338C0.395431 20.2656 0.0605469 20.6191 0.0605469 21.0284C0.0605469 21.4377 0.414035 21.7912 0.823338 21.7912H21.1954C21.6233 21.7912 21.9582 21.4377 21.9582 21.0284C21.9582 20.6191 21.6047 20.2656 21.1768 20.2656Z" fill="#C4C4C4"/>
<path d="M0.0605968 13.5121L0.0419922 17.14C0.0419922 17.3446 0.116411 17.5493 0.265248 17.6981C0.414085 17.847 0.600132 17.9214 0.804783 17.9214L4.41409 17.9028C4.61874 17.9028 4.80478 17.8284 4.95362 17.6795L17.4187 5.21441C17.7164 4.91674 17.7164 4.43302 17.4187 4.11674L13.8466 0.507436C13.549 0.209761 13.0652 0.209761 12.749 0.507436L10.2559 3.01906L0.283853 12.9726C0.15362 13.1214 0.0605968 13.3074 0.0605968 13.5121ZM13.3071 2.14464L15.8187 4.65627L14.4048 6.07023L11.8932 3.5586L13.3071 2.14464ZM1.60478 13.847L10.7955 4.65627L13.3071 7.1679L4.11641 16.34L1.58618 16.3586L1.60478 13.847Z" fill="#C4C4C4"/>
</svg>
